<svg width="75" height="187" viewBox="0 0 75 187" fill="none" xmlns="http://www.w3.org/2000/svg">
<path d="M73.0019 70.0419C68.0669 56.6799 66.7009 42.2619 69.0369 28.2109L71.9479 10.6989L61.8799 9.0249L58.9679 26.5359C56.6319 40.5879 50.6739 53.7879 41.6819 64.8339C38.2569 69.0419 36.1359 74.1589 35.5799 79.5549L29.7779 135.78C29.7769 135.789 29.7669 135.798 29.7659 135.808C29.4739 137.563 36.2939 140.159 44.9999 141.607C53.6889 143.052 60.9729 142.805 61.2879 141.058L61.2999 141.06L74.0109 85.9449C75.2329 80.6589 74.8789 75.1309 73.0019 70.0419Z" fill="#F9A12D"/>
<path d="M45.0267 81.3732L39.084 117.12L58.5338 120.353L64.4765 84.6066L45.0267 81.3732Z" fill="#C63205"/>
<path d="M42.9139 78.4348L36.1279 119.254L60.6499 123.331L67.4359 82.5128L42.9139 78.4348ZM58.5359 120.373L39.088 117.14L45.0299 81.3938L64.4789 84.6268L58.5359 120.373Z" fill="#56261B"/>
<path d="M46.0144 88.6279L42.3594 110.613L57.5484 113.138L61.2034 91.1529L46.0144 88.6279ZM56.4104 111.544L43.9534 109.473L47.1544 90.2199L59.6114 92.2909L56.4104 111.544Z" fill="#56261B"/>
<path d="M30.6829 127.008L29.7788 135.78C29.7778 135.789 29.7678 135.798 29.7668 135.808C29.4748 137.563 36.2949 140.159 45.0009 141.607C53.6899 143.052 60.9739 142.805 61.2889 141.058L61.3008 141.06L63.2939 132.411C60.9659 133.368 54.3069 133.241 46.6049 131.96C38.9359 130.685 32.6099 128.662 30.6829 127.008Z" fill="#F98B06"/>
<g opacity="0.1">
<path d="M32.641 128.504L31.958 134.719C31.956 134.726 31.949 134.732 31.948 134.738C31.713 135.979 37.764 138.022 45.463 139.302C53.148 140.579 59.568 140.614 59.823 139.379L59.835 139.381L61.479 133.286C59.437 133.9 53.563 133.618 46.749 132.486C39.968 131.358 34.363 129.738 32.641 128.504Z" fill="#663224"/>
</g>
<path d="M68.4969 32.0079L71.9489 10.6989C70.7399 10.6779 68.9159 10.4939 66.8649 10.1529C64.8159 9.8119 63.0299 9.3969 61.8809 9.0249L58.2539 30.2929C59.4039 30.6649 61.2739 31.1219 63.3219 31.4629C65.3729 31.8029 67.2889 31.9879 68.4969 32.0079Z" fill="#C63205"/>
<path d="M74.4048 75.5509C74.1228 73.6799 73.6627 71.8329 73.0027 70.0409C72.3357 68.2419 71.7488 66.4199 71.2148 64.5859C67.6978 65.0459 62.9388 65.4939 57.7348 64.6289C52.8608 63.8189 48.4478 61.9899 45.0247 60.4219C43.9607 61.9259 42.8518 63.3999 41.6828 64.8339C40.4868 66.3039 39.4597 67.8889 38.5938 69.5539C42.5477 69.0869 49.2358 69.4529 56.7278 70.6989C64.3168 71.9619 70.8398 73.8099 74.4048 75.5509Z" fill="#F98B06"/>
<path d="M47.9594 102.434L47.4464 100.913L46.9724 100.834L46.7403 102.231L45.8604 102.085L46.5053 98.2059L47.9013 98.4379C48.7223 98.5739 49.3543 98.9729 49.2003 99.8949C49.1053 100.467 48.7643 100.782 48.3243 100.899L48.9393 102.597L47.9594 102.434ZM47.0893 100.137L47.5323 100.211C47.9923 100.287 48.2753 100.133 48.3393 99.7519C48.4023 99.3719 48.1733 99.1999 47.7133 99.1239L47.2693 99.0499L47.0893 100.137Z" fill="white"/>
<path d="M50.1399 98.8109L51.0149 98.9559L50.6549 101.127C50.5279 101.889 50.7219 102.19 51.1569 102.262C51.5919 102.334 51.8899 102.115 52.0169 101.353L52.3769 99.1819L53.2209 99.3229L52.8749 101.404C52.6579 102.708 52.0359 103.185 51.0299 103.018C50.0239 102.85 49.5769 102.196 49.7939 100.891L50.1399 98.8109Z" fill="white"/>
<path d="M54.0992 99.4679L55.0262 99.6219L55.3862 101.474L55.5052 102.191L55.5272 102.195L55.8741 101.555L56.7932 99.9159L57.7222 100.07L57.0771 103.949L56.2572 103.813L56.4922 102.392C56.5552 102.011 56.7202 101.457 56.8252 101.09L56.8022 101.086L56.3362 101.931L55.4842 103.337L55.1322 103.278L54.7872 101.673L54.6272 100.724L54.6052 100.72C54.5822 101.101 54.5612 101.678 54.4982 102.059L54.2612 103.48L53.4521 103.346L54.0992 99.4679Z" fill="white"/>
<g opacity="0.5">
<path d="M59.6304 92.2868L47.1729 90.2158L46.1867 96.1476L58.6442 98.2186L59.6304 92.2868Z" fill="#56261B"/>
</g>
<g opacity="0.5">
<path d="M57.4077 105.625L44.9502 103.554L43.9642 109.485L56.4217 111.556L57.4077 105.625Z" fill="#56261B"/>
</g>
<path d="M50.8473 106.498L51.0722 107.243L51.8142 107.48L51.1743 107.924L51.1802 108.703L50.5592 108.232L49.8203 108.476L50.0772 107.742L49.6152 107.115L50.3932 107.13L50.8473 106.498Z" fill="#C63205"/>
<path d="M53.7369 106.979L53.9609 107.723L54.7029 107.96L54.0639 108.404L54.0689 109.183L53.4479 108.712L52.7079 108.957L52.9649 108.222L52.5029 107.594L53.2809 107.61L53.7369 106.979Z" fill="#C63205"/>
<path d="M47.8863 106.006L48.1113 106.751L48.8523 106.987L48.2143 107.432L48.2173 108.21L47.5983 107.74L46.8593 107.984L47.1153 107.249L46.6533 106.622L47.4313 106.638L47.8863 106.006Z" fill="#C63205"/>
<path d="M55.3129 93.3269C55.2099 93.3099 55.1149 93.3789 55.0979 93.4809C55.0909 93.5179 55.0989 93.5529 55.1139 93.5859L53.6169 94.2739L53.2839 92.3049C53.3609 92.2909 53.4249 92.2329 53.4379 92.1519C53.4549 92.0499 53.3859 91.9529 53.2849 91.9359C53.1809 91.9189 53.0849 91.9879 53.0679 92.0899C53.0539 92.1709 53.0949 92.2469 53.1649 92.2849L52.2129 94.0399L51.0009 92.8859C51.0199 92.8629 51.0329 92.8359 51.0389 92.8049C51.0559 92.7019 50.9849 92.6059 50.8829 92.5899C50.7809 92.5719 50.6849 92.6409 50.6679 92.7439C50.6499 92.8469 50.7189 92.9429 50.8209 92.9599C50.8559 92.9659 50.8879 92.9579 50.9199 92.9479L51.1489 93.4899C51.4849 94.2799 51.6459 95.1339 51.6229 95.9939L53.5419 96.3129C53.7999 95.4929 54.2269 94.7369 54.8009 94.0969L55.1849 93.6699C55.2049 93.6829 55.2279 93.6919 55.2519 93.6969C55.3559 93.7139 55.4509 93.6439 55.4689 93.5419C55.4859 93.4409 55.4169 93.3439 55.3129 93.3269Z" fill="#C63205"/>
<path d="M74.0401 2.0569C73.9851 2.3849 71.4021 2.2289 68.2691 1.7079C65.1371 1.1869 62.6401 0.497898 62.6951 0.170898L60.9111 10.8999L60.9221 10.9009C60.9211 10.9039 60.9111 10.9059 60.9101 10.9089C60.8551 11.2369 63.3511 11.9249 66.4841 12.4449C69.6181 12.9659 72.2011 13.1229 72.2551 12.7949C72.2561 12.7919 72.2481 12.7869 72.2481 12.7829L72.2581 12.7839L74.0401 2.0569Z" fill="#56261B"/>
<path d="M68.4663 0.521881C65.3343 -0.000118554 62.7483 -0.156118 62.6943 0.170882C62.6393 0.498882 65.1363 1.18688 68.2683 1.70788C71.4023 2.22888 73.9853 2.38488 74.0393 2.05688C74.0953 1.72988 71.6003 1.04188 68.4663 0.521881Z" fill="#C63205"/>
<g opacity="0.2">
<path d="M63.1209 11.7649C62.4369 11.5949 61.8869 11.4319 61.5049 11.2849L58.2539 30.2929C59.4039 30.6649 59.9589 30.7849 59.9589 30.7849L63.1209 11.7649Z" fill="#56261B"/>
</g>
<g opacity="0.5">
<path d="M66.7246 31.9099C66.7246 31.9099 67.2886 31.9879 68.4956 32.0079L71.5726 12.9579C71.1606 12.9729 70.5886 12.9499 69.8866 12.8899L66.7246 31.9099Z" fill="#56261B"/>
</g>
<g opacity="0.3">
<path d="M67.6348 12.6249C67.2628 12.5719 66.8758 12.5119 66.4838 12.4459C66.0898 12.3809 65.7068 12.3119 65.3358 12.2429L62.1748 31.2569C62.4968 31.3249 62.8558 31.3839 63.3228 31.4619C63.7918 31.5389 64.1868 31.6049 64.4748 31.6389L67.6348 12.6249Z" fill="#56261B"/>
</g>
<path d="M63.606 29.7599C61.558 29.4199 59.6929 28.9639 58.5419 28.5919L58.2529 30.2919C59.4029 30.6639 61.273 31.1209 63.321 31.4619C65.372 31.8029 67.2879 31.9869 68.4959 32.0079L68.7699 30.3049C67.5649 30.2849 65.652 30.1009 63.606 29.7599Z" fill="#56261B"/>
<g opacity="0.1">
<path d="M64.3923 10.2409C64.3873 7.73088 64.8023 5.21988 65.6143 2.84488C65.6793 2.65088 65.7453 2.42688 65.6363 2.25388C65.5533 2.12388 65.3953 2.06488 65.2483 2.01688C64.6343 1.81288 63.7203 1.30788 63.1063 1.10388C63.1063 1.10388 62.2833 6.81288 61.9313 9.40488C61.8973 9.64788 61.8663 9.90188 61.9443 10.1339C62.1103 10.6309 62.6853 10.8369 63.1923 10.9779C63.5623 11.0819 64.0363 11.1529 64.2673 10.8429C64.3923 10.6749 64.3933 10.4499 64.3923 10.2409Z" fill="white"/>
</g>
<path d="M73.0866 3.09685C73.1066 2.98685 73.1146 2.85585 73.0316 2.78285C72.9726 2.73185 72.8866 2.72985 72.8086 2.72985C72.0766 2.72985 71.3466 2.73085 70.6156 2.73185C69.4786 2.71085 68.7616 2.62285 67.9336 2.32385C68.2976 3.12985 69.1016 3.64385 69.6086 4.37085C70.5916 5.78785 70.2876 7.71385 69.7806 9.36185C69.5996 9.94785 69.3706 10.5669 68.8706 10.9209C68.3486 11.2889 67.6406 11.2899 67.1006 11.6339C68.2576 11.9779 69.4656 12.1579 70.6746 12.1649C71.0136 12.1669 71.3986 12.1309 71.6016 11.8599C71.7096 11.7149 71.7426 11.5279 71.7716 11.3469C72.2106 8.59785 72.6496 5.84685 73.0866 3.09685Z" fill="#491A12"/>
<g opacity="0.2">
<path d="M63.1402 13.8319C63.1612 13.4029 63.1712 12.9409 62.9332 12.5839C62.7282 12.2759 62.2762 12.1439 61.9812 12.3219C61.5292 13.7179 59.9802 23.6749 59.6232 27.2249C59.6022 27.4509 59.5852 27.6899 59.6902 27.8909C59.7952 28.0919 60.0672 28.2209 60.2552 28.0959C60.3532 28.0319 60.4032 27.9199 60.4482 27.8139C62.3282 23.4269 62.9052 18.5969 63.1402 13.8319Z" fill="white"/>
</g>
<g opacity="0.5">
<path d="M71.135 13.2279C70.026 13.1719 68.914 13.1169 67.803 13.0609C67.753 13.0589 67.701 13.0559 67.654 13.0739C67.468 13.1469 67.525 13.4199 67.605 13.6019C68.525 15.6839 68.272 18.0739 67.952 20.3279C67.602 22.7719 67.193 25.2089 66.723 27.6329C66.578 28.3789 66.353 29.2248 65.668 29.5539C66.351 29.6458 67.038 29.7029 67.724 29.7239C67.856 29.7279 67.996 29.7269 68.102 29.6489C68.217 29.5649 68.257 29.4139 68.287 29.2749C69.459 23.8769 71.135 13.2279 71.135 13.2279Z" fill="#56261B"/>
</g>
<g opacity="0.5">
<path d="M56.2048 64.7449C55.9318 56.0879 56.6988 47.3979 58.4888 38.9239C58.9358 36.7979 59.4508 34.6779 59.6428 32.5139L59.4238 32.2189C56.9038 43.5569 51.8748 54.3309 44.8038 63.5439C44.1048 64.4549 43.3698 65.3819 43.0518 66.4839C46.9008 66.6569 50.7508 66.8299 54.5998 67.0029C54.8368 67.0129 55.0808 67.0239 55.3068 66.9489C56.1198 66.6829 56.2328 65.5999 56.2048 64.7449Z" fill="#FFD03B"/>
</g>
<g opacity="0.5">
<path d="M54.3281 49.0749C51.6991 53.5019 49.2941 58.0619 47.1481 62.7419C46.8871 63.3129 46.6481 64.0399 47.0561 64.5169C47.4061 64.9239 48.0791 64.8929 48.5221 64.5909C48.9661 64.2909 49.2341 63.7969 49.4761 63.3189C52.4911 57.3939 54.4141 50.9839 56.3191 44.6139C55.5471 46.0499 54.9061 47.5499 54.3281 49.0749Z" fill="white"/>
</g>
<g opacity="0.5">
<path d="M36.688 120.708C36.206 117.766 36.511 114.757 36.817 111.791C37.878 101.521 38.957 91.1668 42.06 81.3188C43.461 76.8648 45.951 71.9488 50.529 71.0338C47.211 69.7108 43.384 69.7308 40.075 71.0728C36.805 77.8068 36.09 85.5688 35.484 93.0848C34.836 101.131 34.185 109.176 33.538 117.221C33.319 119.933 33.126 122.792 34.299 125.247C35.472 127.702 38.528 129.48 40.974 128.289C38.537 126.572 37.167 123.652 36.688 120.708Z" fill="#FFD03B"/>
</g>
<g opacity="0.5">
<path d="M45.0918 71.7289C45.1968 71.1749 44.9098 70.5029 44.3558 70.3999C44.0488 70.3429 43.7408 70.4689 43.4608 70.6099C41.4818 71.6079 41.1888 72.4169 39.5648 75.7189C39.5648 75.7189 36.2638 85.1549 36.4058 96.0549C37.0748 92.0319 37.9118 89.3029 38.1148 87.7249C38.7928 82.4389 40.9438 77.3499 44.2618 73.1789C44.6138 72.7379 44.9888 72.2819 45.0918 71.7289Z" fill="white"/>
</g>
<g opacity="0.3">
<path d="M38.3713 134.514C37.2683 133.761 36.4783 132.638 35.7913 131.494C34.7513 129.759 33.8923 127.915 33.2323 126.003C33.0213 127.761 32.8883 129.899 32.8883 129.899C32.7853 131.135 32.6843 132.373 32.5823 133.609C32.5533 133.949 32.5263 134.304 32.6603 134.62C32.8963 135.179 33.5373 135.425 34.1133 135.615C35.4723 136.061 36.8313 136.507 38.1913 136.954C39.9993 137.548 41.8383 138.147 43.7413 138.206C42.9783 136.113 40.2113 135.77 38.3713 134.514Z" fill="#FFD03B"/>
</g>
<g opacity="0.4">
<path d="M72.4278 73.3948C71.7848 69.8078 70.3778 66.4098 69.2738 62.9368C66.2138 53.3118 67.0178 33.6078 67.0178 33.6078C66.6328 32.9288 65.5078 33.1068 65.0558 33.7428C64.6028 34.3788 64.6248 35.2258 64.6658 36.0058C65.0288 43.0738 65.3938 50.1418 65.7568 57.2098C65.8608 59.2368 65.9608 61.3038 65.4238 63.2608C64.8848 65.2178 63.5888 67.0778 61.6768 67.7588C64.2508 68.7298 66.9828 69.8198 68.5428 72.0838C69.9488 74.1218 70.1408 76.7468 70.0798 79.2198C69.9928 82.8798 69.4638 86.5148 68.8408 90.1218C66.7318 102.377 63.5368 114.445 59.3098 126.14C57.9748 129.84 56.3878 133.699 53.2368 136.053C51.2888 137.508 48.9138 138.249 46.5918 138.965C50.1288 140.1 53.9438 140.361 57.6028 139.718C58.3638 139.585 59.1978 139.359 59.6118 138.707C59.7898 138.429 59.8678 138.101 59.9448 137.779C63.4358 123.167 66.9278 108.556 70.4188 93.9448C72.0288 87.1988 73.6498 80.2198 72.4278 73.3948Z" fill="#F72806"/>
</g>
<g opacity="0.5">
<path d="M71.574 12.9579H71.572C71.373 12.9659 71.132 12.9629 70.859 12.9519C70.845 12.9519 70.832 12.9509 70.82 12.9509C70.539 12.9379 70.231 12.9189 69.887 12.8889C68.928 12.8049 67.758 12.6569 66.484 12.4449C64.275 12.0779 62.406 11.6309 61.5 11.2819C62.067 11.5099 62.621 11.7749 63.17 12.0509C65.22 13.0809 67.397 13.9849 69.642 14.3719C70.196 14.4679 70.754 14.5409 71.314 14.5659L71.574 12.9579Z" fill="#56261B"/>
</g>
<path d="M47.3439 122.222L40.4099 118.595C34.1729 115.332 29.5478 109.654 27.6138 102.884L14.0829 55.5059C14.1689 55.8559 11.5889 56.7899 8.32286 57.5929C5.05586 58.3959 2.34086 58.7649 2.25286 58.4149L12.2579 106.733C13.6769 113.586 12.2389 120.721 8.27785 126.489L3.86086 132.919C0.984859 137.109 0.268878 142.418 1.93688 147.218L15.0349 184.928L15.0439 184.926C15.7779 187.598 26.7289 187.213 39.5709 184.054C52.4618 180.883 62.3719 176.122 61.7059 173.418C61.6859 173.336 61.6279 173.264 61.5859 173.188L55.7459 134.029C54.9919 128.977 51.8699 124.59 47.3439 122.222Z" fill="#810529"/>
<path d="M45.6888 124.659L39.4338 121.388C33.8088 118.444 14.0228 123.307 10.4498 128.509L6.46579 134.31C3.86979 138.088 3.22581 142.877 4.73081 147.208L16.5468 181.226L16.5538 181.224C17.2148 183.636 27.0938 183.288 38.6808 180.438C50.3068 177.578 59.2468 173.284 58.6468 170.843C58.6278 170.769 58.5748 170.705 58.5388 170.635L53.2698 135.311C52.5868 130.754 49.7718 126.796 45.6888 124.659Z" fill="#960636"/>
<path d="M32.2789 111.89C30.1659 109.252 28.5629 106.202 27.6149 102.884L14.0839 55.5059C14.1699 55.8559 11.5899 56.7899 8.32391 57.5929C5.05691 58.3959 2.34191 58.7649 2.25391 58.4149L12.2589 106.733C12.9509 110.07 12.9529 113.472 12.3249 116.753C15.2159 116.9 18.8419 116.532 22.6859 115.586C26.4629 114.657 29.7989 113.332 32.2789 111.89Z" fill="#060C0E"/>
<path d="M6.66595 50.4659C3.07795 51.3479 0.0949766 51.7529 0.000976562 51.3689L2.17197 60.1939C2.26597 60.5769 5.24895 60.1729 8.83795 59.2899C12.424 58.4079 15.256 57.3819 15.161 56.9979L12.99 48.1719C13.085 48.5579 10.253 49.5829 6.66595 50.4659Z" fill="#F9BA06"/>
<path d="M6.32532 49.0778C2.73732 49.9608 -0.0926765 50.9868 0.00232347 51.3698C0.0963235 51.7538 3.07933 51.3488 6.66733 50.4668C10.2543 49.5838 13.0863 48.5588 12.9913 48.1738C12.8973 47.7898 9.91232 48.1948 6.32532 49.0778Z" fill="#FFD03B"/>
<path d="M22.0392 112.681C18.6202 113.522 15.4042 113.883 12.6942 113.854C12.6202 114.827 12.5082 115.796 12.3242 116.753C15.2152 116.9 18.8412 116.532 22.6852 115.586C26.4622 114.657 29.7982 113.332 32.2782 111.89C31.6732 111.137 31.1242 110.34 30.6072 109.522C28.2592 110.751 25.3362 111.871 22.0392 112.681Z" fill="#FFD03B"/>
<path d="M48.3828 143.637L12.4414 152.479L16.3018 168.171L52.2432 159.329L48.3828 143.637Z" fill="#060C0E"/>
<path d="M9.71875 150.854L14.6447 170.879L54.9167 160.972L49.9908 140.948L9.71875 150.854ZM53.5677 160.156L15.4637 169.53L11.0698 151.672L49.1748 142.298L53.5677 160.156Z" fill="#060C0E"/>
<path d="M15.4624 169.53L53.5664 160.156L49.1734 142.297L11.0684 151.671L15.4624 169.53ZM12.4174 152.488L48.3574 143.648L52.2164 159.339L16.2774 168.179L12.4174 152.488Z" fill="#FFD03B"/>
<path d="M18.9124 153.667L18.0645 153.874L19.2245 158.584L22.0974 157.876L21.8965 157.058L19.8685 157.557L18.9124 153.667Z" fill="white"/>
<path d="M22.0959 152.882L21.249 153.09L22.4048 157.8L23.2517 157.592L22.0959 152.882Z" fill="white"/>
<path d="M25.9251 156.995C25.9291 156.994 25.9341 156.993 25.9391 156.992C26.5701 156.836 27.0921 156.466 27.4061 155.948C27.7421 155.398 27.8311 154.713 27.6601 154.018C27.3151 152.614 26.0831 151.836 24.7331 152.168C23.3871 152.499 22.6591 153.756 23.0041 155.156C23.2681 156.225 24.0111 156.927 24.9831 157.053L24.5411 158.172L25.3031 158.506L25.4941 157.995L25.9831 158.034C26.3361 158.061 26.5931 158.041 26.8961 157.966C27.1821 157.896 27.3701 157.8 27.6701 157.446L27.8101 157.282L27.2561 156.702L27.0851 156.896C26.8881 157.118 26.7881 157.156 26.6581 157.188C26.4731 157.233 26.2401 157.248 26.0181 157.227L25.7971 157.209L25.8731 157.007L25.9251 156.995ZM23.8461 154.943C23.6101 153.983 24.0491 153.192 24.9371 152.973C25.8261 152.754 26.5811 153.253 26.8181 154.212C27.0551 155.178 26.6171 155.976 25.7231 156.195C24.8381 156.413 24.0841 155.909 23.8461 154.943Z" fill="white"/>
<path d="M31.3535 153.589C31.4005 153.78 31.5846 154.747 30.5916 154.991C29.8146 155.182 29.3926 154.658 29.2556 154.104L28.7566 152.075C28.6296 151.557 28.2305 151.313 27.7145 151.439C27.4465 151.506 27.2066 151.718 27.1056 151.978L27.0186 152.204L27.8326 152.515L27.9116 152.284L28.4106 154.313C28.6926 155.461 29.6746 156.072 30.7946 155.796C32.0886 155.478 32.4305 154.32 32.1985 153.38L31.5056 150.561L30.6595 150.768L31.3535 153.589Z" fill="white"/>
<path d="M40.0139 151.459C40.0609 151.65 40.2449 152.617 39.2499 152.861C38.4759 153.051 38.0549 152.527 37.9179 151.974L37.4189 149.945C37.2909 149.426 36.8919 149.183 36.3769 149.309C36.1069 149.376 35.8689 149.587 35.7659 149.848L35.7029 150.015L35.5909 149.562L32.4969 150.323C32.2639 150.381 32.0789 150.521 31.9439 150.742C31.8199 150.951 31.7829 151.184 31.8419 151.422L31.8989 151.655L32.4809 151.511L32.6119 151.449L33.5029 155.07L36.7499 154.271L36.5479 153.452L34.1479 154.042L33.8409 152.794L35.4979 152.386L35.2969 151.566L33.6379 151.974L33.3899 150.964L35.7899 150.374L35.7209 150.088L36.4949 150.382L36.5749 150.15L37.0739 152.18C37.3559 153.328 38.3379 153.939 39.4569 153.664C40.7519 153.346 41.0909 152.188 40.8599 151.248L40.1669 148.429L39.3209 148.637L40.0139 151.459Z" fill="white"/>
<path d="M45.2007 151.166L44.9927 151.189L45.0507 151.431L43.9007 150.513C44.3397 150.19 44.5457 149.612 44.3957 149.006C44.2467 148.398 43.7977 147.93 43.2497 147.813C43.0457 147.773 42.8417 147.78 42.6227 147.834L41.1597 148.194C40.9187 148.253 40.7297 148.397 40.6037 148.617C40.4787 148.836 40.4447 149.057 40.5037 149.294L40.5597 149.526L41.3317 149.337L42.2147 152.929L43.0607 152.721L42.6377 151.001L42.7067 150.99C43.0427 150.939 43.2137 151.028 43.4787 151.251L44.5107 152.076C44.7297 152.254 44.9807 152.314 45.2357 152.251C45.6837 152.141 45.9487 151.71 45.8397 151.271L45.7857 151.046L45.2007 151.166ZM42.4377 150.195L42.0997 148.823L42.7967 148.652C43.1467 148.566 43.4517 148.791 43.5557 149.212C43.6597 149.636 43.4827 149.938 43.0657 150.041L42.4377 150.195Z" fill="white"/>
<path d="M39.2086 157.604C37.5466 157.235 35.9566 158.416 34.5936 159.745C34.3116 159.704 34.0266 159.661 33.7376 159.619C34.7976 158.648 35.8886 157.724 37.2656 157.265C37.5126 157.183 37.4546 156.735 37.1636 156.831C35.5606 157.367 34.3636 158.382 33.1336 159.534C31.1916 159.274 29.2296 159.175 27.6186 160.532C26.1326 161.786 27.2736 163.179 29.0166 162.771C30.7556 162.362 32.0426 161.182 33.3316 159.991C33.6236 160.033 33.9146 160.081 34.2086 160.128C33.4856 160.864 32.8345 161.605 32.2825 162.12C32.0865 162.302 32.2536 162.707 32.4846 162.492C33.2616 161.767 33.9756 160.954 34.7456 160.213C36.1596 160.429 37.5696 160.581 38.8866 160.174C40.4316 159.696 41.1406 158.034 39.2086 157.604ZM32.5136 160.118C32.2426 160.377 31.9616 160.629 31.6666 160.862C31.4806 161.009 31.2826 161.159 31.0776 161.303C30.4876 161.717 29.9976 161.919 29.3106 162.139C29.0396 162.209 28.6476 162.226 28.3416 162.147C27.8666 162.026 27.7136 161.618 27.8826 161.216C27.9966 160.944 28.2165 160.73 28.4635 160.571C29.7655 159.741 31.2266 159.727 32.7316 159.908C32.6616 159.979 32.5896 160.047 32.5136 160.118ZM39.4646 158.736C39.3506 159.118 39.1256 159.341 38.6766 159.628C37.7426 160.157 36.2786 159.954 35.2756 159.835C35.2416 159.831 35.2046 159.826 35.1686 159.822C35.4506 159.571 35.7426 159.329 36.0506 159.111C36.4716 158.812 36.9436 158.534 37.4276 158.345C38.3356 158.055 38.9116 157.998 39.3556 158.367C39.4626 158.455 39.5046 158.604 39.4646 158.736Z" fill="#FFD03B"/>
<path d="M4.43444 63.3268C6.71144 75.7278 10.0964 86.6318 12.3744 99.0328C13.1034 102.998 14.1314 105.526 14.0194 109.556C17.6894 115.909 13.0095 93.8208 11.1095 85.8098C9.09946 77.3398 3.54544 55.0598 4.43444 63.3268Z" fill="#3D3B40"/>
<g opacity="0.4">
<path d="M4.46453 52.8918C4.31353 51.6308 2.71154 52.1208 1.44454 52.0288C0.583541 51.9538 1.64852 55.0928 1.95052 56.2688C2.67852 59.1238 2.88655 59.4988 4.35955 59.2848C4.60955 59.2488 5.82955 59.0798 6.04055 58.9668C6.97255 58.4668 4.62053 54.1788 4.46453 52.8918Z" fill="white"/>
</g>
<g opacity="0.5">
<path d="M48.9317 126.809C43.0167 121.719 34.5217 119.428 30.4497 112.769C30.3097 115.593 32.6067 117.971 33.0657 120.76C33.5387 123.634 31.9937 126.463 30.1307 128.703C26.6227 132.926 21.7717 136.016 16.4607 137.407C14.8577 137.827 13.1447 138.093 11.5577 137.617C9.96875 137.142 8.55874 135.745 8.53575 134.088C8.51375 132.415 9.70173 130.344 8.37373 129.326C6.93173 130.335 6.53474 131.693 6.53474 131.693C5.44574 133.409 4.64375 135.307 4.17475 137.284C4.03975 137.851 3.93274 138.458 4.13374 139.005C4.44474 139.869 5.39874 140.304 6.27674 140.573C10.1647 141.766 14.3327 141.53 18.3737 141.088C29.3417 139.892 40.5907 137.065 49.0157 129.94C49.4467 129.576 49.8967 129.149 49.9597 128.589C50.0417 127.88 49.4747 127.275 48.9317 126.809Z" fill="#810529"/>
</g>
<g opacity="0.2">
<path d="M25.4664 180.81C23.3214 180.599 22.5674 180.884 20.6484 179.903C16.9454 178.013 15.2794 172.32 13.6734 168.486C10.5014 160.911 6.01943 146.716 4.27643 145.609C3.66843 145.223 12.0714 167.105 15.9424 178.955C16.2484 179.887 16.3914 180.964 17.0614 181.679C18.2294 182.926 20.3054 182.985 22.0134 182.933C25.7344 182.817 29.5204 182.367 32.9554 180.934C31.1974 180.761 27.2254 180.983 25.4664 180.81Z" fill="white"/>
</g>
<path d="M13.6964 59.8458L14.4795 59.7738C14.1835 59.3858 13.4994 59.6078 13.2894 60.0488C13.0824 60.4898 13.1954 61.0098 13.3184 61.4828C14.1624 64.7458 15.2224 67.9458 16.3104 71.1368C15.3874 67.3858 14.5004 63.6248 13.6964 59.8458Z" fill="#060C0E"/>
<path d="M20.6455 84.5508C19.4105 80.0168 17.8275 75.5868 16.3115 71.1368C18.0985 78.3858 20.1105 85.5758 22.3325 92.7028C21.9545 89.9498 21.3725 87.2158 20.6455 84.5508Z" fill="#060C0E"/>
<g opacity="0.2">
<path d="M51.6076 128.301C47.8536 123.204 41.1465 122.308 36.2235 118.328C29.5665 112.942 26.3556 104.462 23.7196 96.3139C23.3246 95.0939 22.9656 93.8639 22.5826 92.6409C23.3116 97.9279 23.2456 103.283 21.7066 108.363C23.4466 109.441 25.9806 107.858 27.6826 108.996C29.3206 110.09 28.6715 112.821 27.0985 114.004C25.5235 115.186 23.4556 115.414 21.6096 116.102C21.2276 116.244 20.8345 116.422 20.5985 116.754C19.7615 117.941 21.5475 119.189 22.9205 119.658C30.1055 122.117 35.7865 127.935 39.3865 134.62C42.9875 141.305 44.7066 148.834 45.8816 156.335C46.8216 162.346 47.2716 169.07 43.6226 173.939C41.8556 176.298 32.4856 182.013 30.0006 183.596C37.9066 183.303 58.4166 175.486 59.2896 173.303C60.1136 171.246 58.8356 166.037 58.3456 163.876C57.0736 158.256 56.1956 152.546 55.7246 146.804C55.2326 140.79 55.1876 133.16 51.6076 128.301Z" fill="#060C0E"/>
</g>
<g opacity="0.2">
<path d="M13.8861 118.468C13.4001 119.139 13.2071 120.015 13.3661 120.827L13.3081 121.134C13.3421 125.609 9.9361 129.232 7.3261 132.866C6.6561 133.796 6.00312 134.971 6.44512 136.028C6.99112 137.334 8.95311 137.467 10.0771 136.607C11.2021 135.747 11.6751 134.297 12.0291 132.926C13.1171 128.722 13.6641 124.4 14.2101 120.091C14.2851 119.52 14.3191 118.847 13.8861 118.468Z" fill="white"/>
</g>
<path d="M38.281 62.6089C35.588 63.2349 22.189 66.5279 22.965 69.8619C23.74 73.1959 37.217 70.2419 39.911 69.6149C42.605 68.9889 56.002 65.6949 55.227 62.3609C54.451 59.0269 40.976 61.9819 38.281 62.6089ZM39.502 67.8639C31.254 69.7809 26.215 69.8289 24.9 69.4129C25.897 68.4609 30.439 66.2779 38.689 64.3589C46.936 62.4419 51.977 62.3949 53.291 62.8099C52.294 63.7659 47.749 65.9459 39.502 67.8639Z" fill="#E8D2B3"/>
<path d="M54.1459 61.6889C54.4839 63.1409 47.9269 65.9049 39.5019 67.8649C31.0769 69.8249 23.9739 70.2349 23.6369 68.7839C23.2989 67.3339 29.6479 63.6749 38.0729 61.7159C46.4989 59.7549 53.8079 60.2379 54.1459 61.6889Z" fill="#FFEACC"/>
<g opacity="0.4">
<path d="M51.283 61.3579C49.64 60.7869 47.849 60.8249 46.117 60.9829C44.52 61.1289 41.802 61.2679 40.235 61.6069C39.156 61.8399 37.598 62.4349 36.999 63.3599C38.159 63.5069 42.661 62.0419 40.937 62.1499C41.845 61.8549 43.73 61.9819 44.633 62.2939C45.039 62.4339 45.491 62.7479 45.431 63.1739C45.402 63.3719 45.263 63.5369 45.117 63.6769C43.634 65.0959 41.052 65.0799 39.871 66.7609C43.96 66.2839 47.941 64.9129 51.458 62.7719C51.726 62.6089 52.022 62.3889 52.025 62.0769C52.028 61.7069 51.632 61.4789 51.283 61.3579Z" fill="#E23E05"/>
</g>
<path d="M46.4167 23.7618L40.4827 14.4548L15.0547 20.3678L13.8377 31.3378C13.5827 33.6308 13.6967 35.9748 14.3827 38.1768C16.4007 44.6608 21.3347 48.1588 28.6347 50.8488C31.2517 51.8138 33.3267 52.1558 33.9587 54.8708L36.3757 63.2578C36.3757 63.2578 36.3457 63.5908 38.3937 63.1148C40.1387 62.7088 40.2757 62.3558 40.2757 62.3558L38.7417 53.7588C38.1107 51.0418 39.8227 49.8198 41.7457 47.7998C47.1097 42.1638 49.9957 36.8488 48.9447 30.1398C48.5877 27.8608 47.6587 25.7068 46.4167 23.7618Z" fill="#E8D2B3"/>
<path d="M45.3939 24.1979L39.6028 14.6599L15.9379 20.1619L14.9508 31.2769C14.7628 33.3869 14.8759 35.5339 15.4939 37.5599C16.5039 40.8679 18.2618 42.7729 20.8258 44.3039C29.0178 49.1909 40.6729 46.4819 45.8679 38.4799C47.4949 35.9749 48.2308 33.4889 47.6768 30.0759C47.3388 27.9849 46.4939 26.0089 45.3939 24.1979Z" fill="#FFEACC"/>
<path d="M16.1045 20.1869C16.5135 20.6179 20.6355 20.9319 28.1805 19.1779C35.4925 17.4779 39.0625 15.4509 39.4135 14.7039C38.7665 14.1879 34.6695 13.9459 27.3595 15.6459C19.8175 17.3989 16.2565 19.5019 16.1045 20.1869Z" fill="#F9EEE1"/>
<path d="M27.0844 14.4689C25.7844 14.7709 14.3845 17.5089 15.0495 20.3689C15.7145 23.2299 27.1535 20.6559 28.4545 20.3529C29.7565 20.0499 41.1554 17.3139 40.4904 14.4529C39.8254 11.5939 28.3874 14.1659 27.0844 14.4689ZM28.1804 19.1779C20.6354 20.9319 16.5134 20.6169 16.1044 20.1869C16.2564 19.5019 19.8175 17.3999 27.3595 15.6469C34.6695 13.9469 38.7664 14.1889 39.4134 14.7049C39.0624 15.4509 35.4924 17.4779 28.1804 19.1779Z" fill="#E8D2B3"/>
<path d="M45.3948 24.1978L44.9669 23.4958C44.0949 24.3768 39.4188 26.5419 30.4398 28.6309C21.0058 30.8239 15.8008 30.8449 15.0218 30.4729L14.9508 31.2779C14.7628 33.3879 14.8759 35.5348 15.4939 37.5608C16.5039 40.8688 18.2618 42.7739 20.8268 44.3049C29.0188 49.1919 40.6729 46.4828 45.8679 38.4809C47.4949 35.9759 48.2308 33.4899 47.6768 30.0769C47.3388 27.9849 46.4938 26.0088 45.3948 24.1978Z" fill="#950909"/>
<path d="M45.0811 23.3649C45.0221 23.3289 44.9361 23.2979 44.8301 23.2679L44.9671 23.4949C45.0141 23.4489 45.0571 23.4029 45.0811 23.3649Z" fill="#E1DEDD"/>
<path d="M14.9434 30.4339C14.9604 30.4479 14.9944 30.4589 15.0214 30.4729L15.0384 30.2869C14.9914 30.3429 14.9574 30.3919 14.9434 30.4339Z" fill="#E1DEDD"/>
<path d="M44.9665 23.4958L44.8295 23.2688C43.4955 22.8988 38.3775 23.0628 29.6185 25.0998C20.4555 27.2298 15.7665 29.4438 15.0375 30.2878L15.0205 30.4738C15.7995 30.8458 21.0035 30.8258 30.4385 28.6318C39.4185 26.5418 44.0945 24.3768 44.9665 23.4958Z" fill="#E23E05"/>
<path d="M23.7803 46.6059C24.1013 46.8459 24.4203 47.0869 24.7823 47.3029C31.0003 51.0119 39.8443 48.9549 43.7873 42.8839C44.0153 42.5299 44.1963 42.1729 44.3773 41.8169C39.4863 47.4349 30.6473 49.4899 23.7803 46.6059Z" fill="#950909"/>
<g opacity="0.3">
<path d="M29.4705 20.6899C26.7885 21.4449 26.2155 21.5409 24.1065 21.9369C21.9965 22.3349 17.5845 22.6789 15.8885 21.3619C15.7465 22.9969 15.6055 24.6329 15.4645 26.2659C15.2315 28.9329 14.6465 31.7299 14.9145 34.3929C15.1845 37.0559 16.0555 39.6349 17.7015 41.7469C19.1355 43.5859 25.5795 50.9859 35.7195 47.2759C14.5395 42.5449 22.5785 22.1589 29.4705 20.6899Z" fill="#FFD03B"/>
</g>
<path d="M19.9369 23.6329C18.9959 23.6489 18.0549 23.6649 17.1139 23.6819C14.9269 30.0319 16.8399 37.5969 21.7949 42.1309C19.0429 38.4429 17.8739 33.6129 18.6399 29.0749C18.9099 27.4719 19.4419 25.8509 20.5599 24.6709C20.7069 24.5149 20.8749 24.3419 20.8699 24.1279C20.8549 23.7349 20.3309 23.6259 19.9369 23.6329Z" fill="white"/>
<g opacity="0.3">
<path d="M45.9088 25.6639C44.4208 22.4579 42.1678 18.8909 40.1508 15.9879C37.9598 18.0449 33.3677 19.3319 30.7527 20.1149C36.7067 23.2579 41.7168 29.6749 41.6218 36.4059C41.5968 38.1799 41.2408 39.9949 40.2678 41.4789C39.0698 43.3049 37.0568 44.4509 34.9888 45.1549C32.1838 46.1109 29.1448 46.3719 26.2188 45.9069C27.8227 47.5149 30.3888 47.5979 32.6398 47.2959C35.9108 46.8579 39.1437 45.8019 41.8387 43.8949C44.5317 41.9879 46.6567 39.1819 47.4037 35.9659C48.2057 32.5229 47.3968 28.8709 45.9088 25.6639Z" fill="#750404"/>
</g>
<g opacity="0.3">
<path d="M45.5668 24.8849C44.1008 22.1879 42.0978 19.8249 40.1108 17.4859C39.9758 17.3279 39.8258 17.1589 39.6218 17.1179C39.3608 17.0639 39.1108 17.2339 38.8978 17.3949C38.2778 17.8649 37.5848 18.0639 36.9638 18.5329C36.9638 18.5329 36.3408 18.7959 36.2128 18.9469C35.7878 19.4449 36.7288 20.3009 37.2228 20.7349C39.5808 22.7979 41.8378 25.0589 43.3408 27.8099C44.8428 30.5599 45.5268 33.8789 44.6118 36.8759C44.1998 38.2289 43.4808 39.4719 42.6268 40.5999C41.2428 42.4289 39.4938 43.9799 37.5118 45.1329C42.4748 43.2029 46.9108 39.0089 47.5638 33.7249C47.9368 30.6779 47.0318 27.5829 45.5668 24.8849Z" fill="#950909"/>
</g>
<g opacity="0.5">
<path d="M32.7084 51.8609C32.5324 51.7319 32.3414 51.6279 32.1554 51.5149C32.1104 51.4989 32.0714 51.4749 32.0264 51.4629L32.7084 51.8609Z" fill="#960636"/>
</g>
<g opacity="0.7">
<path d="M35.7674 50.2719C34.1994 50.8889 32.4704 51.1919 30.8184 50.8649C31.2884 51.0289 31.7294 51.2579 32.1564 51.5159C32.8994 51.7539 33.5234 52.3439 33.7774 53.0839C33.8994 53.4449 34.1054 53.9419 34.4724 53.8409C34.7544 53.7639 34.8024 53.3889 34.9684 53.1479C35.2684 52.7149 35.9734 52.7829 36.3554 53.1429C36.7374 53.5029 36.8773 54.0419 37.0023 54.5529C37.4023 56.1929 37.8044 57.8319 38.2034 59.4719C38.3424 60.0329 38.4784 60.6099 38.3934 61.1819C38.3074 61.7529 37.9424 62.3229 37.3834 62.4689C37.9814 62.9999 39.0114 62.5239 39.3164 61.7839C39.6204 61.0449 39.4294 60.2049 39.2374 59.4289C38.8574 57.9169 38.4793 56.4049 38.1013 54.8929C37.7743 53.5809 37.4554 52.1429 38.0354 50.9219C38.5804 49.7769 39.8344 49.0259 40.1624 47.8019C38.7634 48.7379 37.3344 49.6559 35.7674 50.2719Z" fill="#E23E05"/>
</g>
<path d="M36.188 55.3149C36.094 55.0409 35.984 54.7549 35.762 54.5689C35.538 54.3839 35.17 54.3419 34.975 54.5569C34.729 54.8329 34.894 54.8149 34.894 54.8149C35.308 56.5879 35.724 58.3629 36.139 60.1379C36.286 60.7669 36.527 61.5009 37.146 61.6869C37.213 59.5279 36.886 57.3579 36.188 55.3149Z" fill="white"/>
<g opacity="0.2">
<path d="M36.9748 64.3989C36.4138 64.0719 35.9058 63.6299 35.2808 63.4579C34.9988 63.3799 34.6817 63.3949 34.3997 63.4799L34.4678 63.4169C31.6358 64.5099 28.8638 65.7589 26.1688 67.1569C25.9008 67.2979 25.6207 67.4469 25.4467 67.6939C25.2727 67.9409 25.2408 68.3159 25.4588 68.5259C25.6228 68.6849 25.8698 68.7069 26.0988 68.7169C29.7678 68.8879 33.4698 68.2749 36.8888 66.9319C37.5178 66.6839 38.2497 66.2309 38.1667 65.5589C38.0957 64.9879 37.4748 64.6899 36.9748 64.3989Z" fill="#FFD03B"/>
</g>
<path d="M34.7646 64.1789C33.9456 63.9509 33.0437 64.0419 32.2867 64.4309C32.2867 64.4309 30.2186 65.8299 28.8066 66.7849C28.9136 67.1829 29.4736 67.1869 29.8786 67.1029C30.8766 66.8979 31.8746 66.6919 32.8736 66.4839C33.8496 66.2829 34.9966 65.9319 35.2796 64.9749C35.3246 64.8249 35.3407 64.6579 35.2737 64.5149C35.1827 64.3259 34.9666 64.2339 34.7646 64.1789Z" fill="white"/>
<path d="M32.5814 69.8049C31.1304 69.8809 29.6974 70.1669 28.2474 70.2699C26.7984 70.3739 25.2914 70.2819 23.9844 69.6449L24.0474 69.6919C24.0614 70.2519 24.7304 70.5229 25.2804 70.6229C27.5454 71.0349 29.9034 70.9369 32.1284 70.3409C32.4184 70.2639 32.7214 70.1679 32.9234 69.9449C32.8854 69.8169 32.7154 69.7989 32.5814 69.8049Z" fill="white"/>
<path d="M54.0261 62.3169L53.9451 62.2709C54.1151 62.3749 54.0201 62.6369 53.9001 62.7949C52.7881 64.2399 50.9211 64.8359 49.1861 65.3959C46.8031 66.1639 44.4451 67.0109 42.1191 67.9339C42.5611 68.1889 43.1161 68.0439 43.6021 67.8899C46.3861 67.0059 49.1391 66.0219 51.8521 64.9419C52.6181 64.6369 53.4141 64.2999 53.9221 63.6529C54.2261 63.2679 54.3811 62.6559 54.0261 62.3169Z" fill="#950909"/>
</svg>
