<svg width="25" height="18" viewBox="0 0 25 18" fill="none" xmlns="http://www.w3.org/2000/svg">
<path fill-rule="evenodd" clip-rule="evenodd" d="M0.68457 0V18H24.6846V0H0.68457Z" fill="#2E42A5"/>
<mask id="mask0_97_2029" style="mask-type:luminance" maskUnits="userSpaceOnUse" x="0" y="0" width="25" height="18">
<path fill-rule="evenodd" clip-rule="evenodd" d="M0.68457 0V18H24.6846V0H0.68457Z" fill="white"/>
</mask>
<g mask="url(#mask0_97_2029)">
<path d="M-1.9873 16.7137L3.2942 18.948L24.8042 2.42848L27.5904 -0.891018L21.9429 -1.63727L13.1694 5.48098L6.10745 10.278L-1.9873 16.7137Z" fill="white"/>
<path d="M-1.26562 18.279L1.42613 19.575L26.5894 -1.19928H22.8116L-1.26562 18.279Z" fill="#F50100"/>
<path d="M27.357 16.7137L22.0755 18.948L0.565547 2.42848L-2.2207 -0.891018L3.4268 -1.63727L12.2003 5.48098L19.2623 10.278L27.357 16.7137Z" fill="white"/>
<path d="M27.177 17.8372L24.486 19.1332L13.7715 10.2382L10.5945 9.24524L-2.48926 -0.879761H1.28924L14.3647 9.00524L17.838 10.1962L27.177 17.8372Z" fill="#F50100"/>
<path fill-rule="evenodd" clip-rule="evenodd" d="M15.5186 -1.5H9.85155V6H-0.793945V12H9.85155V19.5H15.5186V12H26.2061V6H15.5186V-1.5Z" fill="#F50100"/>
<mask id="mask1_97_2029" style="mask-type:luminance" maskUnits="userSpaceOnUse" x="-1" y="-2" width="28" height="22">
<path fill-rule="evenodd" clip-rule="evenodd" d="M15.5186 -1.5H9.85155V6H-0.793945V12H9.85155V19.5H15.5186V12H26.2061V6H15.5186V-1.5Z" fill="white"/>
</mask>
<g mask="url(#mask1_97_2029)">
<path d="M9.85155 -1.5V-3H8.35155V-1.5H9.85155ZM15.5186 -1.5H17.0186V-3H15.5186V-1.5ZM9.85155 6V7.5H11.3516V6H9.85155ZM-0.793945 6V4.5H-2.29395V6H-0.793945ZM-0.793945 12H-2.29395V13.5H-0.793945V12ZM9.85155 12H11.3516V10.5H9.85155V12ZM9.85155 19.5H8.35155V21H9.85155V19.5ZM15.5186 19.5V21H17.0186V19.5H15.5186ZM15.5186 12V10.5H14.0186V12H15.5186ZM26.2061 12V13.5H27.7061V12H26.2061ZM26.2061 6H27.7061V4.5H26.2061V6ZM15.5186 6H14.0186V7.5H15.5186V6ZM9.85155 0H15.5186V-3H9.85155V0ZM11.3516 6V-1.5H8.35155V6H11.3516ZM-0.793945 7.5H9.85155V4.5H-0.793945V7.5ZM0.706055 12V6H-2.29395V12H0.706055ZM9.85155 10.5H-0.793945V13.5H9.85155V10.5ZM11.3516 19.5V12H8.35155V19.5H11.3516ZM15.5186 18H9.85155V21H15.5186V18ZM14.0186 12V19.5H17.0186V12H14.0186ZM26.2061 10.5H15.5186V13.5H26.2061V10.5ZM24.7061 6V12H27.7061V6H24.7061ZM15.5186 7.5H26.2061V4.5H15.5186V7.5ZM14.0186 -1.5V6H17.0186V-1.5H14.0186Z" fill="white"/>
</g>
</g>
</svg>
