<svg width="300" height="96" viewBox="0 0 300 96" fill="none" xmlns="http://www.w3.org/2000/svg">
<path d="M150.02 59.073C89.1604 59.073 30.6284 71.1868 39.8242 75.4234C59.0974 84.302 78.6631 91.5792 98.4615 93.2277C122.352 95.2169 162.55 96.4789 186.46 94.6811C219.669 92.1839 251.916 79.6483 260.215 75.4234C269.196 70.8525 210.88 59.073 150.02 59.073Z" fill="#D4D1CF"/>
<path d="M150 86.7265C232.843 86.7265 300 79.5982 300 70.805C300 62.0117 232.843 54.8834 150 54.8834C67.1573 54.8834 0 62.0117 0 70.805C0 79.5982 67.1573 86.7265 150 86.7265Z" fill="#E2E2E2"/>
<path d="M147.85 85.0415C145.171 85.0607 142.471 85.0693 139.75 85.0693C68.4304 85.0693 10.6123 78.9327 10.6123 71.3642C10.6123 63.7924 68.4304 57.6559 139.75 57.6559C142.471 57.6559 145.171 57.6644 147.85 57.6837C80.3035 58.1248 26.8119 64.0796 26.8119 71.3637C26.8114 78.6456 80.3035 84.6003 147.85 85.0415Z" fill="#EDEDED"/>
<path d="M285.085 71.3643C285.085 78.9334 227.269 85.0694 155.95 85.0694C153.229 85.0694 150.529 85.0608 147.85 85.0416C215.396 84.5999 268.885 78.6451 268.885 71.3643C268.885 64.0802 215.396 58.1255 147.85 57.6843C150.529 57.6645 153.229 57.6565 155.95 57.6565C227.27 57.656 285.085 63.7925 285.085 71.3643Z" fill="#EDEDED"/>
<path d="M150 83.3742C205.228 83.3742 249.999 79.6225 249.999 74.9945C249.999 70.3665 205.228 66.6147 150 66.6147C94.7721 66.6147 50.001 70.3665 50.001 74.9945C50.001 79.6225 94.7721 83.3742 150 83.3742Z" fill="#B3B2B2"/>
<path opacity="0.4" d="M256.51 73.1101C256.51 73.1101 259.792 69.4077 260.778 67.0132C258.284 67.0629 255.77 66.9083 253.303 66.9116C248.463 66.9174 243.624 66.9559 238.784 66.9372C229.014 66.8993 219.227 66.6469 209.525 65.4197C207.966 65.2223 206.666 64.4459 205.843 63.2957C205.537 63.3278 205.229 63.3572 204.923 63.3909C204.694 63.4176 204.086 63.4866 204.054 63.4904C203.736 63.5278 203.418 63.5658 203.1 63.6043C196.893 64.363 190.72 65.356 184.585 66.564C183.633 66.7597 182.681 66.9538 181.728 67.142C179.008 67.68 176.532 66.0154 175.942 63.292C175.642 61.9097 175.929 60.321 176.698 59.0735C174.542 58.6741 172.393 58.2324 170.246 57.7639C169.322 57.8522 168.395 57.9153 167.464 57.9425C164.232 58.0367 161.04 57.3912 158.01 56.2774C155.357 55.3026 152.788 54.1101 150.091 53.2583C147.432 52.4188 146.219 49.2639 146.957 46.7239C147.714 44.1241 149.908 42.9423 152.376 43.1969C151.664 42.4589 151.164 41.4841 150.961 40.5499C150.817 39.8805 150.802 39.2463 150.892 38.6399C148.581 38.988 146.252 39.1233 143.905 38.9495C142.168 38.8206 140.698 37.8576 139.895 36.3138C137.516 36.8197 135.098 37.0368 132.72 36.7127C130.676 36.4341 129.058 35.2775 128.398 33.3514C127.907 33.4386 127.415 33.5193 126.921 33.5883C124.665 33.9033 122.638 33.1456 121.575 31.0013C121.255 30.3559 121.059 29.5907 121.01 28.8121C118.671 29.4506 116.295 29.9425 113.872 30.2324C112.064 30.4489 110.495 30.188 109.241 28.7276C109.179 28.6554 109.118 28.5784 109.059 28.4993C105.021 30.5548 100.107 32.8643 95.4368 32.2387C92.8226 31.8884 91.1013 29.8992 90.8564 27.5908C88.8447 28.1442 86.7737 28.4838 84.6246 28.5105C82.174 28.541 80.4003 26.3791 80.0484 24.0808C77.355 25.2214 74.5092 26.0166 71.5751 25.9005C70.0934 25.8422 68.7277 24.9557 67.848 23.7231C65.7562 24.5803 63.5825 25.2754 61.3019 25.7588C59.5603 26.1278 57.8475 25.6225 56.6711 24.2541C56.1615 23.6605 55.8391 23.0253 55.6535 22.3601C53.282 23.5076 50.7629 24.2728 48.0861 24.4097C46.0728 24.5129 44.1654 22.6857 43.5965 20.7035C42.3768 21.6029 41.0902 22.3948 39.725 23.0365C37.0321 24.3027 34.4478 23.1333 33.2933 20.9789C29.4588 20.9324 25.9092 21.9719 24.1805 25.3631C23.973 25.7695 23.7789 26.1706 23.596 26.5668C23.549 26.6695 23.5024 26.77 23.4586 26.8711C21.7731 30.6222 21.178 33.9102 21.3956 36.8015C21.4175 37.1063 21.448 37.4057 21.4913 37.7015C21.9908 41.3622 23.8222 44.3588 26.3761 46.8464C26.7365 47.1977 27.1129 47.5383 27.5017 47.8693C30.5122 50.4398 34.2868 52.4183 38.0257 54.0027C38.0257 54.0032 38.0251 54.0037 38.0251 54.0048C37.9497 54.8015 37.8968 55.6175 37.861 56.4506C37.6241 62.0674 40.1464 66.565 44.6199 70.1226C46.2375 71.4086 48.1085 72.5738 50.1982 73.6208C75.469 86.3179 132.434 82.2433 153.024 76.4244C153.285 76.3506 153.54 76.2693 153.799 76.1923C155.363 78.3419 158.459 80.9605 158.459 80.9605L159.851 80.6899L176.361 77.5409C174.468 78.9397 174.522 80.0359 174.459 81.7032C174.44 82.177 174.927 82.6903 175.658 83.193C179.434 83.1481 183.209 83.0154 186.984 82.9374L192.728 79.1675L198.394 75.4501L208.512 77.5029L223.802 80.606C225.42 80.6653 227.044 80.6001 228.658 80.4621C228.878 80.4434 230.008 80.3215 230.037 80.3242C230.382 80.2819 230.728 80.2407 231.071 80.1926C232.095 80.0493 233.118 79.8932 234.136 79.713C236.862 79.2296 239.578 78.6451 242.251 77.9077C242.624 77.2853 242.797 76.7388 242.629 76.3613C241.864 74.6411 241.51 73.5406 238.342 72.9957C237.63 72.8732 234.71 72.4813 230.611 71.9476L255.186 73.0486C255.186 73.0486 255.185 73.0486 255.185 73.0486H255.186L256.51 73.1101ZM168.405 69.2847C169.227 68.728 170.026 68.1532 170.8 67.5623L181.157 67.804C176.665 68.3222 172.224 68.8371 168.405 69.2847Z" fill="#969696"/>
<path d="M136.85 55.4453C114.888 59.9216 52.7677 59.1916 34.904 41.1253C31.1337 37.3127 29.3343 32.7274 30.3006 27.2566C30.7786 24.5653 31.4224 22.0761 32.2245 19.8078C33.1656 17.1309 34.3223 14.7348 35.6831 12.6301C40.5748 5.03752 48.0643 1.1757 57.3504 0.801929C71.3838 0.255971 105.844 11.7831 135.772 7.86249C151.431 5.80967 160.121 4.04292 165.485 4.58086C169.719 5.0065 171.895 6.86308 173.814 11.1623C174.107 11.8195 174.394 12.5323 174.681 13.306C179.236 25.5364 163.425 50.0275 136.85 55.4453Z" fill="#FF8413"/>
<path d="M136.85 55.4454C114.888 59.9216 52.7678 59.1917 34.9041 41.1253C33.6641 31.8398 35.9928 22.2227 43.6929 15.6257C57.051 4.17931 75.4146 12.9136 89.8593 15.8412C106.831 19.2785 124.509 18.5133 141.902 14.9316C149.644 13.3371 157.402 11.6719 165.4 11.0885C167.505 10.9361 170.627 10.8506 173.814 11.1618C174.108 11.819 174.395 12.5318 174.682 13.3055C179.236 25.5364 163.425 50.0275 136.85 55.4454Z" fill="#E15C00"/>
<path d="M131.233 24.2343C126.615 25.8781 126.721 30.7805 122.33 33.2889C108.413 41.235 94.857 28.4624 80.6097 29.6597C76.8238 29.9778 74.5336 31.4024 71.1375 32.7183C68.02 33.9257 64.24 33.3065 61.0632 33.0269C56.4694 32.6253 48.7024 33.1445 45.2695 30.0687L42.5429 23.1494L42.1055 22.0414C42.6124 23.0141 44.9973 20.4142 45.3978 19.1309C46.1598 16.6914 44.3978 15.6557 43.2231 13.9697C41.9114 12.089 41.467 10.3319 44.2572 9.05337C46.8742 7.85504 47.4784 9.89557 49.4061 11.0041C54.4561 13.9082 54.7652 8.40528 58.7698 6.77061C63.9786 4.64453 63.431 11.9805 68.0318 11.0474C72.33 10.1763 72.6674 5.08835 76.0287 3.2676C76.3196 3.11039 76.6324 2.97617 76.9735 2.87457C78.5034 2.40936 80.7113 2.58582 81.8914 3.7542C82.0738 3.93013 82.2305 4.12958 82.355 4.35417C83.7282 6.79467 81.4177 7.24919 80.5434 9.09508C79.406 11.4955 81.1423 13.467 83.74 12.7676C85.9586 12.1698 86.1115 10.1907 88.7082 10.9902C90.5589 11.558 91.4144 14.0493 93.8993 13.1018C96.8323 11.988 95.2244 10.1341 95.3805 8.12026C95.8227 2.49278 102.51 6.9952 105.544 6.35673C108.655 5.70276 113.066 -0.309737 116.186 4.1606C118.138 6.95188 114.498 6.27438 114.299 8.21598C114.036 10.78 117.922 9.59237 119.167 9.502C123.434 9.18919 125.273 13.4328 129.706 12.1671C135.411 10.5362 131.457 5.95996 130.373 3.06119C129.35 0.320174 131.104 -0.196907 133.398 0.057624C135.691 0.314294 138.518 1.34311 139.637 1.69817C141.584 2.31953 149.56 -0.647149 147.803 4.81885C147.002 7.31657 143.268 7.2385 142.003 9.094C140.834 10.8132 142.032 13.3692 141.967 15.3942C141.764 21.6505 135.917 22.566 131.233 24.2343Z" fill="#328C00"/>
<path d="M127.496 14.9547C123.479 14.1863 122.059 10.1025 117.687 12.6382C113.946 14.8071 112.92 19.8255 110.141 23.29C110.066 19.2175 113.177 15.6354 113.56 11.7682C112.802 11.2725 111.554 10.3571 111.441 9.26622C111.251 7.49252 112.707 7.4583 113.123 6.1418C114.434 2.00674 110.655 5.25147 109.154 6.33911C108.168 7.05725 107.264 7.14335 106.301 7.61712C104.699 8.40263 104.917 8.06415 103.695 9.82555C102.034 12.2147 100.45 14.713 98.7832 17.1257C99.3415 13.4435 104.69 7.86576 97.8373 7.8786C96.6523 10.5683 98.9752 13.0072 95.5636 14.2146C94.9733 14.4226 92.7317 14.9258 92.3676 14.9515C90.5891 15.0734 90.8334 14.3911 89.3378 13.7542C84.1841 11.5602 81.0185 20.834 78.7036 24.5327C78.7876 22.4184 79.7555 19.6132 80.3672 17.3497C81.4586 13.3146 79.279 15.1001 77.9625 12.2329C76.5792 9.21061 79.8865 7.76096 81.2206 5.64503C81.6564 4.9531 81.8505 4.33495 81.8922 3.7553C82.0746 3.93123 82.2312 4.13068 82.3558 4.35527C83.729 6.79577 81.4185 7.25029 80.5442 9.09618C79.4068 11.4966 81.1431 13.4681 83.7408 12.7687C85.9594 12.1709 86.1123 10.1918 88.7089 10.9913C90.5596 11.5591 91.4152 14.0504 93.9001 13.1029C96.8331 11.9891 95.2252 10.1352 95.3813 8.12136C95.8235 2.49388 102.51 6.99629 105.544 6.35783C108.655 5.70386 113.067 -0.308638 116.187 4.1617C118.139 6.95298 114.498 6.27548 114.3 8.21708C114.036 10.7811 117.923 9.59348 119.168 9.50311C123.435 9.19029 125.274 13.4339 129.707 12.1682C135.412 10.5373 131.458 5.96106 130.373 3.06229C129.35 0.321273 131.105 -0.195808 133.399 0.0587226C131.672 2.9377 137.19 7.05725 136.564 10.0491C135.849 13.49 130.347 15.5012 127.496 14.9547Z" fill="#55CC00"/>
<path d="M73.1154 9.01489C71.5155 12.258 69.3498 18.031 65.0656 16.3434C62.0861 15.1686 62.4277 8.33418 58.606 9.35177C56.558 9.89666 56.5505 12.3163 54.8512 13.312C52.7406 14.5456 51.9733 13.112 51.2792 15.7781C50.7247 17.9069 51.2476 19.2298 50.0803 21.4399C49.0617 23.3697 47.773 24.5953 45.8501 25.4931C46.8249 23.5895 48.8681 20.8238 47.7837 18.7908C46.0313 19.3715 45.3031 21.9826 43.293 22.8553C43.0711 22.951 42.8198 23.0505 42.5438 23.1488L42.1064 22.0409C42.6134 23.0136 44.9983 20.4137 45.3988 19.1304C46.1608 16.6909 44.3988 15.6552 43.224 13.9692C41.9123 12.0885 41.468 10.3314 44.2582 9.05286C46.8752 7.85453 47.4794 9.89506 49.4071 11.0035C54.4571 13.9077 54.7662 8.40477 58.7707 6.7701C63.9795 4.64402 63.432 11.98 68.0328 11.0469C72.3309 10.1758 72.6683 5.08784 76.0296 3.26709C74.9468 5.00335 74.1164 6.98399 73.1154 9.01489Z" fill="#55CC00"/>
<path d="M120.625 57.9527C96.6585 62.1936 69.3243 64.1411 46.1604 56.0539C40.4569 54.0631 31.0687 51.2755 24.8931 46.0042C24.5044 45.6732 24.1279 45.3326 23.768 44.9812C21.2136 42.4937 19.3822 39.4971 18.8828 35.8363C18.8394 35.5401 18.8095 35.2406 18.787 34.9364C18.5699 32.0451 19.1646 28.757 20.8506 25.0054C20.8944 24.9043 20.9404 24.8038 20.988 24.7011C21.1709 24.3049 21.3644 23.9038 21.5724 23.4974C23.3007 20.1067 26.8513 19.0667 30.6858 19.1137C31.0858 19.1153 31.4858 19.1314 31.8884 19.1608C34.8883 19.356 37.9592 20.1249 40.3965 20.873C48.7067 23.4279 57.125 25.1535 65.5635 27.3833C83.0438 32.0018 100.641 32.4344 118.461 30.7366C128.19 29.8104 137.677 27.8378 147.281 26.0513C151.582 25.2529 155.467 24.6273 159.55 23.167C161.338 22.5274 171.191 17.8272 172.606 17.4074C185.46 13.5991 187.16 25.4369 185.91 29.7409C180.476 48.488 140.194 54.4882 120.625 57.9527Z" fill="#E64A32"/>
<path d="M148.482 29.7276C143.908 33.1258 137.345 32.2269 131.905 32.5349C126.675 32.8312 121.572 33.8733 116.364 34.5332C105.538 35.9042 94.246 34.5434 83.3664 33.406C77.5485 32.798 71.4799 32.597 65.9759 30.6767C61.597 29.149 57.2748 27.8314 52.8456 26.5395C49.5228 25.5695 43.4788 23.3226 42.75 28.5662C41.9725 34.1632 48.4031 38.9656 52.9023 40.781C59.8511 43.5856 67.5582 44.4519 74.8995 45.9566C84.2 47.8629 93.2235 48.0929 102.69 47.7105C112.055 47.3319 121.191 46.9678 130.396 45.0631C139.813 43.114 148.526 38.6447 157.855 36.701L148.482 29.7276Z" fill="#FA6857"/>
<path d="M27.9235 33.4948C27.261 34.6407 26.6476 35.838 26.161 37.0726C25.4493 38.8923 24.9311 40.796 24.7734 42.7402C24.6841 43.8247 24.7135 44.9241 24.8932 46.0037C24.5044 45.6727 24.128 45.3321 23.7681 44.9807C23.6387 44.2295 23.5692 43.4669 23.5564 42.7076C23.5179 40.6029 23.8628 38.51 24.429 36.4957C24.7787 35.2701 25.2242 34.0862 25.7258 32.9157C24.2675 33.2295 22.8163 33.6397 21.4613 34.2648C20.5581 34.6835 19.671 35.1995 18.8828 35.8358C18.8395 35.5396 18.8096 35.2401 18.7871 34.9359C19.4138 34.2894 20.1197 33.7119 20.8501 33.2114C22.5741 32.0382 24.4531 31.1944 26.4498 30.5174C26.2305 30.0313 25.9209 29.4971 25.5659 29.026C25.0782 28.3801 24.5082 27.7635 23.8809 27.1967C22.9682 26.3732 21.9415 25.6455 20.8512 25.0049C20.895 24.9038 20.941 24.8033 20.9886 24.7006C22.2169 25.0803 23.4216 25.5663 24.5782 26.2043C25.3787 26.6438 26.1482 27.154 26.876 27.7587C26.9792 27.1069 27.077 26.4551 27.2412 25.8107C27.7101 24.0092 28.4363 22.2676 29.4603 20.7228C29.8282 20.1544 30.2405 19.6159 30.6864 19.1138C31.0864 19.1154 31.4864 19.1314 31.889 19.1608C31.3559 19.8421 30.8934 20.5704 30.5073 21.334C29.7373 22.8542 29.2667 24.5017 29.0304 26.1733C28.9122 27.0133 28.8582 27.8796 28.8555 28.7346C29.5213 28.2571 30.21 27.8534 30.9276 27.47C32.4083 26.7123 33.9702 26.1791 35.5493 25.8321C38.7197 25.138 41.9473 25.1723 45.0567 25.6059C41.9152 25.5744 38.7657 25.9663 35.8872 27.001C34.4493 27.5149 33.0831 28.1972 31.8607 29.0389C31.2249 29.4731 30.6041 29.9827 30.0544 30.5179C30.6886 30.6869 31.3067 30.881 31.9307 31.089C33.2168 31.527 34.4595 32.0489 35.669 32.6264C38.0839 33.7894 40.3484 35.1968 42.4606 36.7743C40.1313 35.5412 37.7085 34.5113 35.229 33.7605C33.9846 33.3857 32.728 33.0761 31.4741 32.8547C30.9217 32.7563 30.3517 32.6804 29.7908 32.6167C30.5533 34.1664 31.3206 35.7091 32.0088 37.2897C32.9681 39.5372 33.8772 41.8221 34.5065 44.1744C32.7061 40.3698 30.3613 36.8748 27.9235 33.4948Z" fill="#8D230C"/>
<path d="M154.117 27.8517C150.239 29.2677 146.27 27.1052 142.769 25.1973C141.307 24.4022 138.588 22.9188 137.72 23.0381C136.912 23.3071 135.135 25.878 134.181 27.2598C131.947 30.4938 129.414 34.1572 125.393 34.6909C121.314 35.2283 117.863 32.3365 114.817 29.7848C113.484 28.6672 111.259 26.8074 110.403 26.7224C109.542 26.8111 107.279 29.1559 106.065 30.4147C103.402 33.1707 100.386 36.2945 96.4776 36.224C92.2425 36.1512 89.1657 32.7386 86.4477 29.7286C85.3568 28.5196 83.519 26.4914 82.7474 26.2523C81.6726 26.1759 78.9695 28.3586 77.3546 29.6612C74.4232 32.0301 71.3913 34.4775 67.8632 33.9931C66.1194 33.7562 64.6997 33.2696 63.5303 32.6311C60.2251 30.8259 58.9284 27.7892 57.9841 25.585C57.5189 24.499 57.1948 23.8108 56.8841 23.3589C56.4927 22.7926 56.1275 22.5975 55.5388 22.4638C53.4587 21.9916 52.1512 19.9147 52.6255 17.8314C53.0977 15.7471 55.1741 14.4434 57.2579 14.9172C62.3336 16.0695 63.9976 19.9661 65.1002 22.5435C66.1938 25.0973 66.6568 25.9679 68.722 26.2983C69.5144 26.0449 71.2983 24.6065 72.4918 23.6402C75.6408 21.1008 79.2042 18.2186 83.4569 18.5538C87.0434 18.8373 89.6609 21.7382 92.1944 24.5455C93.3339 25.808 95.7076 28.433 96.6188 28.4875C97.3385 28.3094 99.3165 26.2609 100.496 25.0369C103.144 22.2964 106.144 19.1918 110.052 18.9934C113.764 18.8052 116.827 21.3708 119.786 23.8535C121.094 24.9476 123.525 26.9855 124.414 27.0138C125.133 26.74 126.812 24.3123 127.814 22.86C129.921 19.8099 132.308 16.3529 135.976 15.4979C139.592 14.6541 143.089 16.5593 146.473 18.4025C147.933 19.1977 150.653 20.681 151.525 20.5639C153.533 19.8313 155.721 20.8756 156.454 22.8787C156.693 23.5279 156.741 24.2011 156.631 24.8396C156.401 26.1727 155.474 27.3544 154.117 27.8517Z" fill="#FFB400"/>
<path d="M114.515 29.5312C114.616 29.6168 114.722 29.705 114.817 29.7842C115.108 30.0275 115.424 30.2692 115.721 30.5141C115.73 30.4922 115.735 30.4681 115.745 30.4462C115.341 30.1253 114.933 29.8136 114.515 29.5312Z" fill="url(#paint0_linear_1429_10838)"/>
<path d="M115.745 30.4457C115.736 30.4676 115.73 30.4922 115.721 30.5136C116.242 30.9419 116.752 31.374 117.293 31.7836C116.792 31.3082 116.273 30.866 115.745 30.4457Z" fill="url(#paint1_linear_1429_10838)"/>
<path d="M53.6712 18.5308C53.5706 18.0849 53.584 17.6175 53.6354 17.0769C53.2969 17.4689 53.091 18.0164 53.0792 18.58C53.0536 19.1506 53.2669 19.7185 53.5899 20.1799C53.9273 20.635 54.3647 21.0007 54.862 21.2248C55.354 21.4537 55.8892 21.5831 56.4224 21.5232C55.5026 21.0243 54.7449 20.4617 54.2187 19.7297C53.9524 19.372 53.7771 18.9688 53.6712 18.5308Z" fill="#FFD994"/>
<path d="M82.9032 19.0608C81.6365 19.0287 80.3996 19.3367 79.2505 19.7768C78.1094 20.2452 77.041 20.851 76.0844 21.5943C75.124 22.3306 74.2433 23.1734 73.5615 24.1872C75.74 23.144 77.7292 22.0307 79.8211 21.2163C80.8542 20.7933 81.9119 20.4666 82.992 20.2671C84.077 20.0703 85.1828 20.0457 86.3913 20.2302C85.4475 19.4474 84.1593 19.0693 82.9032 19.0608Z" fill="#FFD994"/>
<path d="M110.185 19.6517C108.874 19.7169 107.644 20.1607 106.521 20.7216C105.408 21.3136 104.386 22.0317 103.482 22.8734C102.574 23.7081 101.753 24.6375 101.129 25.7166C103.259 24.4722 105.184 23.1418 107.23 22.097C108.241 21.5628 109.282 21.127 110.355 20.8473C111.434 20.5757 112.546 20.5243 113.762 20.8227C112.867 19.9431 111.476 19.557 110.185 19.6517Z" fill="#FFD994"/>
<path d="M135.198 16.1363C134.261 16.4465 133.439 16.9791 132.707 17.5753C131.993 18.1956 131.35 18.88 130.821 19.6479C130.287 20.4088 129.832 21.2296 129.569 22.1526C131.114 21.0585 132.373 19.8532 133.701 18.7629C134.349 18.2025 135.018 17.6956 135.71 17.2304C136.415 16.7892 137.135 16.3994 138.075 16.2166C137.217 15.7428 136.116 15.8251 135.198 16.1363Z" fill="#FFD994"/>
<path d="M154.117 27.8517C150.239 29.2677 146.271 27.1052 142.769 25.1973C141.308 24.4022 138.589 22.9189 137.72 23.0381C136.912 23.3071 135.135 25.878 134.181 27.2598C131.948 30.4938 129.414 34.1573 125.393 34.6909C121.314 35.2283 117.864 32.3365 114.818 29.7848C113.484 28.6672 111.26 26.8074 110.404 26.7224C109.542 26.8111 107.28 29.1559 106.066 30.4147C103.402 33.1707 100.387 36.2946 96.4782 36.224C92.2432 36.1513 89.1664 32.7386 86.4483 29.7286C85.3575 28.5196 83.5196 26.4914 82.748 26.2524C81.6732 26.1759 78.9701 28.3587 77.3553 29.6613C74.4239 32.0301 71.392 34.4776 67.8638 33.9931C66.1201 33.7562 64.7004 33.2696 63.5309 32.6311C60.2258 30.8259 58.929 27.7892 57.9847 25.585C57.5195 24.499 57.1954 23.8108 56.8848 23.3589C58.8435 24.1466 60.5268 25.5941 62.4358 26.6416C65.2265 28.1731 68.2274 29.0661 71.431 28.8795C74.9003 28.6774 76.7307 26.863 79.4466 24.9915C82.1796 23.1103 85.1463 22.2301 87.9055 24.2017C90.3994 25.9823 92.0138 28.6913 94.6896 30.3885C100.966 34.3647 104.923 23.0413 110.893 23.006C116.918 22.9718 122.37 32.8536 128.272 29.0329C130.781 27.409 132.168 24.2188 134.249 22.0852C136.868 19.4003 139.488 19.6511 142.788 20.7168C146.071 21.7783 149.083 23.8851 152.403 24.9471C153.62 25.3374 155.339 25.3642 156.631 24.8391C156.402 26.1727 155.474 27.3544 154.117 27.8517Z" fill="#E19000"/>
<path d="M156.918 35.7369C152.063 37.3806 153.045 42.1028 148.595 44.577C134.492 52.4145 117.147 40.2842 101.489 41.6226C97.3293 41.9788 95.0284 43.3808 91.4778 44.6936C88.2181 45.8973 83.8991 45.3502 80.3111 45.1219C75.1242 44.7947 66.5642 45.3962 62.1998 42.4766L57.9466 35.8449L57.2642 34.7835C58.0006 35.7144 60.1994 33.1782 60.4191 31.9366C60.8394 29.5757 58.6946 28.6015 57.0894 26.9925C55.2975 25.1974 54.4938 23.5103 57.376 22.2419C60.0796 21.0532 61.1116 23.0114 63.4543 24.0547C69.5897 26.7871 68.9657 21.4805 73.1382 19.8538C78.5657 17.7374 79.2464 24.8129 84.2066 23.8541C88.841 22.959 88.3213 18.0523 91.7457 16.254C92.0414 16.099 92.3665 15.9658 92.7285 15.8632C94.3504 15.3953 96.8406 15.5364 98.3608 16.6465C98.595 16.8139 98.8041 17.0037 98.9827 17.2187C100.942 19.5522 98.448 20.0196 97.7988 21.8104C96.9556 24.1386 99.2346 26.015 102.006 25.3075C104.371 24.7028 104.193 22.7938 107.226 23.5296C109.387 24.0531 110.778 26.4422 113.379 25.4968C116.45 24.3857 114.333 22.62 114.152 20.6778C113.655 15.2493 121.895 19.5009 125.161 18.8464C128.511 18.1759 132.368 12.3254 136.629 16.592C139.294 19.256 135.12 18.6507 135.241 20.5244C135.398 22.998 139.518 21.8035 140.888 21.6997C145.586 21.3431 148.381 25.4075 153.095 24.1306C159.163 22.4847 153.953 18.1272 152.236 15.3487C150.614 12.7211 152.477 12.2003 155.077 12.4152C157.676 12.6329 161.006 13.5873 162.314 13.9151C164.592 14.4884 172.954 11.526 171.959 16.816C171.505 19.233 167.333 19.2057 166.251 21.011C165.251 22.6825 167.034 25.1295 167.318 27.0818C168.193 33.1103 161.841 34.0685 156.918 35.7369Z" fill="#38A900"/>
<path d="M151.122 26.8443C146.513 26.1567 144.214 22.2398 139.791 24.7402C136.005 26.8785 135.745 31.7275 133.26 35.1011C132.459 31.1783 135.294 27.686 135.041 23.9552C134.109 23.4868 132.558 22.621 132.241 21.5714C131.717 19.865 133.333 19.8132 133.565 18.5389C134.297 14.5381 130.659 17.7128 129.178 18.7811C128.207 19.4854 127.215 19.5806 126.226 20.0495C124.58 20.8275 124.762 20.4982 123.712 22.2114C122.283 24.5348 120.958 26.9625 119.526 29.3094C119.499 25.754 124.475 20.3099 116.845 20.4121C115.998 23.0189 119.015 25.3385 115.427 26.5459C114.806 26.7545 112.398 27.2684 111.997 27.2978C110.038 27.4384 110.191 26.778 108.413 26.1839C102.287 24.137 100.392 33.1129 98.464 36.7069C98.1854 34.669 98.7704 31.9531 99.0538 29.7639C99.5602 25.8626 97.4459 27.6106 95.4759 24.8653C93.4033 21.9708 96.8309 20.5313 97.9448 18.4753C98.3089 17.8026 98.4159 17.2048 98.3603 16.6454C98.5945 16.8128 98.8035 17.0026 98.9821 17.2176C100.941 19.5512 98.4474 20.0185 97.7983 21.8093C96.955 24.1375 99.234 26.0139 102.005 25.3064C104.371 24.7017 104.193 22.7927 107.225 23.5285C109.386 24.052 110.778 26.4411 113.379 25.4957C116.45 24.3846 114.333 22.6189 114.152 20.6768C113.655 15.2482 121.894 19.4998 125.161 18.8453C128.51 18.1748 132.367 12.3243 136.628 16.5909C139.293 19.2549 135.119 18.6496 135.24 20.5233C135.397 22.9969 139.517 21.8024 140.888 21.6986C145.585 21.342 148.38 25.4064 153.095 24.1295C159.162 22.4836 153.953 18.1261 152.235 15.3476C150.613 12.72 152.476 12.1992 155.077 12.4141C153.659 15.2113 160.529 19.1084 160.359 21.9991C160.167 25.3246 154.394 27.3341 151.122 26.8443Z" fill="#55CC00"/>
<path d="M89.5096 21.8281C88.2989 24.9739 86.9017 30.5645 81.8335 28.9945C78.3086 27.901 77.4872 21.3121 73.4089 22.3414C71.2234 22.8927 71.6411 25.2247 69.9235 26.207C67.7894 27.4229 66.683 26.0514 66.3782 28.6298C66.136 30.6885 66.9515 31.9558 66.0392 34.1006C65.2441 35.9733 64.0244 37.171 62.0405 38.0614C62.7918 36.2144 64.581 33.5231 63.0148 31.5783C61.1652 32.1606 60.8144 34.6862 58.7284 35.5535C58.4979 35.6487 58.2359 35.7471 57.9456 35.846L57.2633 34.7845C57.9996 35.7155 60.1984 33.1793 60.4182 31.9377C60.8385 29.5768 58.6937 28.6026 57.0884 26.9936C55.2965 25.1985 54.4928 23.5114 57.375 22.243C60.0786 21.0543 61.1106 23.0125 63.4533 24.0557C69.5888 26.7882 68.9647 21.4816 73.1372 19.8549C78.5647 17.7385 79.2454 24.814 84.2056 23.8552C88.8401 22.9601 88.3203 18.0534 91.7447 16.2551C90.8437 17.939 90.2678 19.8587 89.5096 21.8281Z" fill="#55CC00"/>
<path d="M45.4506 6.3878C45.4228 9.88333 46.7762 13.6382 48.1104 16.8134C49.3194 19.6913 51.3401 24.0681 54.8528 24.6028C56.5746 24.8643 58.0654 23.8258 59.1199 22.5687C60.323 21.134 60.4829 19.4101 60.5695 17.6048C60.6711 15.468 60.6113 13.3243 60.8492 11.1955C61 9.84161 61.2347 7.72249 62.779 7.26102C64.3779 6.7835 65.511 8.78339 66.0944 9.90097C67.1307 11.888 67.7108 14.136 68.4547 16.2418C69.9134 20.3731 72.0165 24.5071 76.9873 24.559C81.3732 24.6044 81.8357 18.9529 82.3929 15.8103C82.6239 14.5055 82.8522 12.5703 84.2233 11.9249C84.6377 11.7297 84.6115 11.7682 84.9382 12.065C85.374 12.4602 85.6991 13.2109 85.9499 13.7965C87.391 17.1605 87.7418 21.3821 90.1256 24.2772C91.2582 25.653 93.2901 26.4375 95.0596 26.1883C96.8236 25.9402 97.9359 24.506 98.5219 22.9307C99.2075 21.0896 99.3983 19.102 99.6347 17.1663C99.7924 15.8744 99.8887 13.7649 100.62 12.8725C101.485 11.8158 102.486 11.918 103.201 12.7869C104.337 14.1676 104.928 15.999 105.548 17.6471C106.764 20.88 107.736 24.9349 111.624 25.6653C115.786 26.4471 116.987 21.5864 117.913 18.608C118.347 17.2123 118.839 15.4151 120.145 14.5841C121.281 13.8617 122.486 14.5547 123.115 15.5017C125.029 18.3855 124.831 22.2511 126.956 25.0659C129.532 28.4775 134.25 26.83 135.986 23.4927C136.98 21.5827 137.255 19.317 137.63 17.2257C137.895 15.7525 138.094 13.4783 139.474 12.5703C142.216 10.7667 142.973 16.9958 143.303 18.5128C144.043 21.9131 145.391 25.8428 149.476 26.023C153.772 26.2123 155.305 22.2602 156.292 18.8015C156.751 17.192 157.138 15.4017 158.159 14.036C159.361 12.4286 161.293 12.5768 163.059 13.0136C164.614 13.3986 165.056 10.9517 163.505 10.5678C161.463 10.0619 159.277 10.0106 157.483 11.2496C156.004 12.2709 155.21 14.013 154.654 15.66C153.749 18.3422 153.376 23.374 149.725 23.5547C146.26 23.7264 145.798 18.3459 145.278 15.9685C144.605 12.889 143.168 9.06091 139.24 10.0245C135.206 11.0137 135.28 16.9594 134.531 20.1491C134.108 21.9516 133.391 23.8216 131.463 24.383C129.982 24.8146 129.091 23.9638 128.422 22.7478C126.739 19.6892 126.84 15.8857 124.436 13.1815C123.273 11.8731 121.487 11.6907 119.872 12.0388C118.16 12.4078 117.057 14.0665 116.392 15.5515C115.634 17.2439 115.258 19.0817 114.601 20.8121C114.16 21.9746 113.538 23.4195 112.07 23.2205C110.533 23.012 109.991 21.973 109.349 20.5501C108.537 18.7497 107.94 16.8589 107.195 15.0317C105.977 12.0415 103.805 8.21176 100.062 10.2074C96.8605 11.9148 97.2851 16.7455 96.7669 19.8015C96.5718 20.9501 96.2894 23.1024 95.0435 23.6408C93.6527 24.2424 92.2218 23.0901 91.5715 22.0072C89.6315 18.7775 89.4043 14.7606 87.5568 11.4651C86.8664 10.2346 85.6339 9.13845 84.1281 9.38175C82.4127 9.65874 81.1865 11.1143 80.624 12.6703C79.9519 14.529 79.7904 16.5273 79.4032 18.454C79.1524 19.7047 78.7551 21.7982 77.2194 22.0511C72.6469 22.8029 71.1219 16.391 70.061 13.2751C68.9038 9.87905 67.3237 4.58309 62.855 4.75634C58.3879 4.92906 58.2825 11.0341 58.1889 14.2168C58.1328 16.1145 58.2451 18.0871 57.8029 19.948C57.5702 20.926 56.2543 22.2505 55.2977 22.1586C54.2394 22.057 53.3336 20.9683 52.6941 20.0999C51.6166 18.6379 50.8423 16.9669 50.1659 15.29C49.0392 12.4944 47.904 9.24967 47.9286 6.19209C47.9419 4.58791 45.4635 4.79431 45.4506 6.3878Z" fill="#FF220E"/>
<path d="M150.417 74.5587C129.828 80.3782 72.8621 84.4523 47.5919 71.7551C45.5011 70.7081 43.6306 69.5424 42.013 68.2569C37.539 64.6989 35.0172 60.2018 35.2535 54.585C35.2894 53.7514 35.3428 52.9359 35.4177 52.1391C35.5845 50.2879 35.8508 48.5372 36.2123 46.886C36.493 45.5957 36.8299 44.3615 37.2261 43.1878C37.6791 41.8253 38.2074 40.5425 38.8105 39.3415C39.4137 38.133 40.0912 37.0058 40.835 35.9577C40.889 35.8802 40.942 35.8048 40.9971 35.7299C41.7596 34.6835 42.5911 33.7145 43.4905 32.8306C46.308 30.0506 49.7869 28.0576 53.8386 26.8315C55.4615 26.3379 57.178 25.9679 58.9805 25.7214C59.2372 25.6845 59.4944 25.653 59.7537 25.6219C74.3208 23.9408 111.907 32.8424 142.588 26.4652C150.416 24.837 156.524 23.4119 161.386 22.3916C166.492 21.3206 170.224 20.696 173.132 20.7527C173.878 20.7682 174.568 20.8286 175.214 20.9361C178.454 21.4805 180.576 23.2456 182.752 26.747C183.148 27.3898 183.549 28.0876 183.958 28.8496C184.461 29.7811 184.843 30.797 185.113 31.8809C186.037 35.5898 185.619 40.1083 183.965 44.8337C179.865 56.5581 168.149 69.5467 150.417 74.5587Z" fill="#FF8413"/>
<path d="M150.417 74.5587C129.828 80.3782 72.8622 84.4523 47.592 71.7551C45.5012 70.7081 43.6307 69.5424 42.0132 68.2569C40.7197 63.6353 40.3336 58.8602 41.1453 54.3305C41.5908 51.844 42.395 49.4313 43.6083 47.1576C44.636 45.2358 45.9536 43.4124 47.5926 41.729C48.4214 40.8762 49.2871 40.1147 50.1903 39.4372C62.6436 30.0324 81.3553 36.555 95.8 38.2357C113.994 40.3532 132.335 38.1565 149.981 33.1322C150.724 32.9199 151.465 32.7098 152.207 32.498C159.101 30.5334 166.026 28.5945 173.257 27.4577C173.491 27.4229 173.727 27.3855 173.961 27.3507C176.135 27.0294 179.383 26.6893 182.753 26.7486C183.15 27.3914 183.55 28.0892 183.959 28.8512C184.462 29.7827 184.845 30.7987 185.115 31.8825C186.039 35.5914 185.621 40.1099 183.967 44.8353C179.865 56.5582 168.149 69.5467 150.417 74.5587Z" fill="#F26800"/>
<path d="M170.186 36.3357C168.635 37.0886 172.29 40.8023 173.141 38.3656C173.997 35.9293 170.186 36.3357 170.186 36.3357Z" fill="#FFD974"/>
<path d="M144.263 64.3288C143.693 61.9225 137.347 65.8785 140.493 67.8377C143.639 69.798 144.263 64.3288 144.263 64.3288Z" fill="#FFD974"/>
<path d="M118.683 54.8252C118.113 52.4189 111.767 56.3748 114.913 58.334C118.058 60.2944 118.683 54.8252 118.683 54.8252Z" fill="#FFD974"/>
<path d="M164.901 49.1853C163.378 49.0056 164.329 53.5433 166.141 52.1284C167.952 50.7135 164.901 49.1853 164.901 49.1853Z" fill="#FFD974"/>
<path d="M147.016 43.2604C148.524 44.3523 150.198 38.9885 147.445 39.4141C144.691 39.8398 147.016 43.2604 147.016 43.2604Z" fill="#FFD974"/>
<path d="M154.292 69.8981C155.967 70.5381 156.185 65.1251 153.731 66.21C151.274 67.295 154.292 69.8981 154.292 69.8981Z" fill="#FFD974"/>
<path d="M137.494 54.5808C137.115 56.1652 142.017 55.7235 140.75 53.6386C139.484 51.5531 137.494 54.5808 137.494 54.5808Z" fill="#FFD974"/>
<path d="M132.434 60.7387C133.437 59.0003 127.488 57.8025 128.254 60.7109C129.02 63.6193 132.434 60.7387 132.434 60.7387Z" fill="#FFD974"/>
<path d="M128.431 72.3707C127.899 73.8909 132.767 73.9572 131.731 71.7777C130.698 69.5954 128.431 72.3707 128.431 72.3707Z" fill="#FFD974"/>
<path d="M121.735 65.2656C121.374 63.4748 116.594 66.2329 118.866 67.7585C121.138 69.2852 121.735 65.2656 121.735 65.2656Z" fill="#FFD974"/>
<path d="M108.598 71.1535C110.331 72.0861 111.329 66.2217 108.505 67.0586C105.674 67.8928 108.598 71.1535 108.598 71.1535Z" fill="#FFD974"/>
<path d="M103.925 64.3524C103.646 62.8027 99.4759 65.0962 101.405 66.4501C103.337 67.8067 103.925 64.3524 103.925 64.3524Z" fill="#FFD974"/>
<path d="M95.0313 59.5857C94.549 57.1885 88.1472 60.8776 91.1845 62.9192C94.2244 64.964 95.0313 59.5857 95.0313 59.5857Z" fill="#FFD974"/>
<path d="M99.0341 53.7407C97.1471 53.0343 96.9428 59.1115 99.6903 57.8741C102.441 56.6389 99.0341 53.7407 99.0341 53.7407Z" fill="#FFD974"/>
<path d="M99.2434 66.0164C99.9102 64.1144 93.8228 64.0315 95.1153 66.7581C96.4093 69.4884 99.2434 66.0164 99.2434 66.0164Z" fill="#FFD974"/>
<path d="M86.5725 51.1878C84.5791 49.7975 82.5118 56.8511 86.1025 56.2298C89.6943 55.6084 86.5725 51.1878 86.5725 51.1878Z" fill="#FFD974"/>
<path d="M84.4068 64.5732C86.6393 64.7502 84.9929 58.1891 82.432 60.3547C79.8712 62.5198 84.4068 64.5732 84.4068 64.5732Z" fill="#FFD974"/>
<path d="M84.6357 68.203C83.1256 67.7479 83.2775 72.5118 85.364 71.4028C87.45 70.2954 84.6357 68.203 84.6357 68.203Z" fill="#FFD974"/>
<path d="M107.666 55.7817C108.553 54.8775 105.107 53.2075 105.116 55.1042C105.125 57.003 107.666 55.7817 107.666 55.7817Z" fill="#FFD974"/>
<path d="M98.4425 74.7481C99.791 73.3166 94.3913 70.8306 94.4646 73.7743C94.5368 76.7207 98.4425 74.7481 98.4425 74.7481Z" fill="#FFD974"/>
<path d="M112.354 47.6329C111.94 46.0662 107.856 48.7596 109.947 49.9873C112.038 51.2178 112.354 47.6329 112.354 47.6329Z" fill="#FFD974"/>
<path d="M104.395 53.4829C105.953 53.0353 103.175 49.0019 101.987 51.1183C100.798 53.2385 104.395 53.4829 104.395 53.4829Z" fill="#FFD974"/>
<path d="M127.45 46.8827C127.435 44.9272 121.843 46.8528 123.922 48.9206C126.001 50.9889 127.45 46.8827 127.45 46.8827Z" fill="#FFD974"/>
<path d="M149.913 56.0298C150.836 57.5773 154.376 53.4439 151.763 52.7706C149.15 52.0974 149.913 56.0298 149.913 56.0298Z" fill="#FFD974"/>
<path d="M82.3515 43.8129C81.9472 42.6097 78.8912 44.9267 80.5901 45.7796C82.2884 46.6336 82.3515 43.8129 82.3515 43.8129Z" fill="#FFD974"/>
<path d="M66.5346 57.5575C64.1727 58.0494 67.8586 64.3459 69.8542 61.3311C71.8525 58.3168 66.5346 57.5575 66.5346 57.5575Z" fill="#FFD974"/>
<path d="M63.7682 67.3672C61.9587 67.5843 64.3248 72.5599 66.0237 70.421C67.7188 68.281 63.7682 67.3672 63.7682 67.3672Z" fill="#FFD974"/>
<path d="M51.8643 57.1206C52.3835 59.4938 58.6804 55.7261 55.6287 53.7476C52.5776 51.7675 51.8643 57.1206 51.8643 57.1206Z" fill="#FFD974"/>
<path d="M63.0646 50.0329C64.2913 49.0062 60.168 46.4855 59.9482 48.8704C59.7252 51.2553 63.0646 50.0329 63.0646 50.0329Z" fill="#FFD974"/>
<path opacity="0.4" d="M150.417 74.5588C129.828 80.3782 72.8624 84.4523 47.5921 71.7552C46.8232 67.9886 47.6472 64.7903 50.2567 61.4504C51.2112 60.2302 52.2486 59.1564 53.3554 58.2164C53.595 58.01 53.8415 57.8121 54.0891 57.6175C54.6591 57.1763 55.243 56.7646 55.8462 56.3871C57.9145 55.0765 60.1674 54.13 62.5367 53.4626C69.3733 51.5269 77.1915 51.9135 84.4601 52.6745C85.4964 52.7835 86.522 52.9012 87.5321 53.0183C88.3652 53.1156 89.1871 53.2161 89.9972 53.3124C92.6623 53.6327 95.3279 53.9268 97.9952 54.192C98.547 54.2471 99.0994 54.3 99.6512 54.353C101.482 54.5251 103.312 54.6834 105.143 54.8241C105.968 54.8888 106.795 54.9481 107.62 55.0053C110.036 55.1711 112.45 55.3048 114.866 55.4037C116.098 55.4545 117.33 55.4978 118.563 55.5272C124.215 55.6737 129.859 55.6096 135.494 55.2807C136.205 55.2401 136.915 55.1941 137.628 55.1433C137.923 55.1235 138.216 55.1011 138.51 55.0781C139.246 55.023 139.979 54.9647 140.713 54.8984C143.79 54.6262 146.86 54.2685 149.926 53.8134C150.823 53.6819 151.719 53.5423 152.616 53.3921C156.497 52.7472 160.369 51.9478 164.226 50.9692C164.961 50.7836 165.693 50.5911 166.424 50.3933C166.755 50.3024 167.086 50.211 167.417 50.12C172.887 48.5929 178.519 46.9095 183.965 44.8353C179.865 56.5582 168.149 69.5467 150.417 74.5588Z" fill="#F26800"/>
<path d="M189.165 72.0841L234.463 81.4365C234.463 81.4365 240.788 76.2148 240.021 74.4946C239.256 72.7744 238.902 71.6734 235.734 71.129C232.565 70.5847 185.633 64.6968 185.633 64.6968L189.165 72.0841Z" fill="#FFC531"/>
<path d="M234.526 70.9504C233.52 71.4226 232.643 72.0241 232.063 72.6364C230.777 73.9909 228.517 76.0159 229.606 77.7452C230.089 78.512 230.562 79.2681 231.269 79.9568C231.784 80.4605 232.505 80.7883 233.167 81.1691L183.692 69.182L185.633 64.6973C185.633 64.6973 226.484 69.8221 234.526 70.9504Z" fill="#FFB000"/>
<path d="M233.168 81.1697L233.163 81.1686L205.905 75.6374L195.788 73.5845L195.702 73.5674L194.879 73.4001L191.453 72.7049L185.291 71.4542L184.095 69.7532L183.693 69.1821C184.011 69.2468 184.366 69.3163 184.751 69.388C185.733 69.5698 186.907 69.7703 188.156 69.9741C190.213 70.3109 192.472 70.658 194.398 70.9537C195.664 71.1483 196.787 71.321 197.613 71.4542C197.91 71.5023 198.168 71.5456 198.381 71.582L198.637 71.6264C198.673 71.6333 198.708 71.6392 198.743 71.6456C203.855 72.5359 208.887 73.4701 213.945 74.3166C219.013 75.1657 224.11 75.9245 229.342 76.4625C229.346 76.4625 229.348 76.4641 229.351 76.4641C229.299 76.8165 229.327 77.1672 229.48 77.5084C229.515 77.5881 229.558 77.6677 229.607 77.7463C230.09 78.5121 230.563 79.2687 231.27 79.9575C231.785 80.4606 232.506 80.7884 233.168 81.1697Z" fill="#FF801F"/>
<path d="M253.9 71.2461L252.578 71.1825H252.577L226.973 69.9478L226.963 69.9467L224.301 69.8194H224.3L207.701 69.0184L206.582 67.388L206.547 67.3367L206.546 67.3356L206.377 67.0896L206.162 66.7758L206.103 66.6902L205.515 65.833L204.885 64.9149L204.681 64.616L204.082 63.7428L204.044 63.6893L203.946 63.546L203.068 62.2659C203.068 62.2659 203.093 62.2648 203.142 62.2637C203.156 62.2637 203.17 62.2627 203.187 62.2627C203.201 62.2616 203.218 62.2616 203.235 62.2616C203.252 62.2605 203.27 62.2605 203.29 62.2594C203.45 62.2546 203.693 62.2466 204.011 62.2375C204.038 62.2359 204.066 62.2354 204.093 62.2354C204.105 62.2343 204.119 62.2343 204.132 62.2343C204.175 62.2322 204.22 62.2311 204.265 62.23C204.275 62.23 204.286 62.229 204.298 62.229C204.347 62.2279 204.397 62.2258 204.448 62.2242C204.464 62.2242 204.48 62.2231 204.494 62.2231C204.529 62.222 204.562 62.2209 204.598 62.2193C204.78 62.2135 204.976 62.2081 205.186 62.2012C205.225 62.2001 205.264 62.199 205.304 62.198C205.466 62.1937 205.635 62.1878 205.812 62.1835C205.857 62.1819 205.903 62.1798 205.949 62.1787C206.34 62.1675 206.767 62.1536 207.226 62.1402C207.277 62.1391 207.33 62.1365 207.382 62.1359C207.444 62.1338 207.506 62.1322 207.566 62.13C207.654 62.1279 207.743 62.1242 207.833 62.122C207.899 62.1199 207.966 62.1177 208.032 62.1151C208.199 62.1108 208.37 62.106 208.543 62.1001C208.607 62.098 208.669 62.0969 208.732 62.0942H208.741C208.841 62.091 208.943 62.0889 209.046 62.0857C209.194 62.0814 209.343 62.076 209.495 62.0718C209.66 62.0669 209.827 62.0611 209.997 62.0568C210.028 62.0557 210.06 62.0546 210.09 62.053C210.188 62.0498 210.288 62.0477 210.389 62.044C210.546 62.0397 210.704 62.0349 210.864 62.03H210.865C210.971 62.0268 211.077 62.0236 211.183 62.0199C211.319 62.0161 211.455 62.0119 211.593 62.0071C211.868 61.999 212.147 61.991 212.431 61.9819C212.586 61.9776 212.741 61.9728 212.898 61.9686C213.019 61.9648 213.14 61.9616 213.262 61.9584L213.263 61.9568C213.347 61.9546 213.432 61.9525 213.517 61.9504H213.518C213.524 61.9493 213.53 61.9493 213.537 61.9493C213.722 61.944 213.908 61.9381 214.096 61.9322C214.322 61.9263 214.552 61.9199 214.784 61.9119C215.043 61.9038 215.305 61.8969 215.57 61.8894C215.8 61.8825 216.031 61.8755 216.264 61.868C216.432 61.8632 216.6 61.8589 216.769 61.853C216.937 61.8488 217.108 61.844 217.279 61.8381C217.51 61.8311 217.742 61.8247 217.976 61.8178C218.304 61.8071 218.635 61.7985 218.969 61.7878C219.125 61.7835 219.282 61.7793 219.44 61.7734C219.587 61.7702 219.735 61.7654 219.882 61.7611L219.888 61.76C220.071 61.7557 220.255 61.7493 220.44 61.7456C220.691 61.7375 220.944 61.7306 221.198 61.7226C221.647 61.7087 222.1 61.6964 222.555 61.6825C222.577 61.6825 222.599 61.6814 222.621 61.6803C222.804 61.6745 222.989 61.6696 223.173 61.6643C223.366 61.6589 223.559 61.6531 223.754 61.6472C224.055 61.6381 224.358 61.6285 224.661 61.621C224.937 61.613 225.211 61.6033 225.489 61.5969C225.744 61.5889 226 61.5809 226.256 61.5739C226.434 61.568 226.611 61.5638 226.79 61.5579C227.078 61.5499 227.367 61.5418 227.656 61.5327C228.258 61.5146 228.861 61.4975 229.464 61.4803C229.753 61.4723 230.043 61.4632 230.332 61.4552C230.755 61.4429 231.178 61.4301 231.6 61.4189C231.974 61.4076 232.346 61.3975 232.717 61.3868C233.09 61.3755 233.459 61.3654 233.828 61.3547C234.138 61.3456 234.446 61.3365 234.753 61.3274C235.29 61.313 235.824 61.298 236.353 61.283H236.355C236.781 61.2702 237.205 61.259 237.624 61.2477C237.689 61.2456 237.754 61.2435 237.819 61.2419C238.283 61.2285 238.741 61.2157 239.194 61.2034C239.23 61.2023 239.266 61.2012 239.303 61.2001C239.583 61.1932 239.859 61.1852 240.135 61.1772C240.838 61.1579 241.526 61.1397 242.194 61.1215C242.313 61.1178 242.432 61.1146 242.55 61.1114C242.591 61.1114 242.632 61.1103 242.673 61.1076C242.773 61.1055 242.873 61.1018 242.97 61.0996C243.295 61.0916 243.613 61.0825 243.928 61.075C244.051 61.0713 244.174 61.0681 244.295 61.0643C244.763 61.0531 245.221 61.0403 245.663 61.029C245.718 61.0269 245.772 61.0253 245.826 61.0242C246.087 61.0189 246.343 61.0114 246.593 61.005C246.682 61.0028 246.77 61.0002 246.857 60.998C247.149 60.9911 247.435 60.983 247.714 60.9761C247.774 60.975 247.835 60.9729 247.894 60.9718C247.906 60.9718 247.919 60.9718 247.931 60.9702C248.07 60.9681 248.206 60.9649 248.342 60.9611C248.367 60.9601 248.393 60.9601 248.418 60.959C248.514 60.9568 248.612 60.9542 248.707 60.952C248.848 60.9483 248.986 60.9451 249.121 60.9419C249.197 60.9408 249.272 60.9381 249.344 60.9376C249.898 60.9237 250.406 60.9119 250.866 60.9034C250.951 60.9012 251.036 60.9002 251.118 60.8975C251.202 60.8964 251.285 60.8938 251.367 60.8927C251.561 60.8884 251.747 60.8852 251.919 60.8814C252.068 60.8788 252.209 60.8766 252.341 60.8745C252.931 60.8643 253.347 60.8606 253.563 60.8643C256.777 60.9119 257.298 61.9456 258.32 63.5257C259.341 65.109 253.9 71.2461 253.9 71.2461Z" fill="#FFC531"/>
<path d="M252.577 71.1819L226.969 69.0687H226.967L207.67 67.4768L207.654 67.4757L206.582 67.3869L205.379 67.288L205.218 67.2757L203.668 67.1469L201.845 66.9966L201.908 66.7485L201.909 66.7474L202.034 66.2613L202.239 65.4705L202.617 64.0059L202.656 63.8535L202.881 62.9819L203.067 62.2648C203.067 62.2648 203.092 62.2637 203.14 62.2626C203.153 62.2626 203.168 62.2616 203.185 62.2616C203.199 62.2605 203.216 62.2605 203.233 62.2605C203.25 62.2594 203.268 62.2594 203.289 62.2584C203.448 62.2535 203.692 62.2455 204.009 62.2364C204.037 62.2348 204.064 62.2343 204.091 62.2343C204.103 62.2332 204.117 62.2332 204.13 62.2332C204.173 62.2311 204.218 62.23 204.263 62.229C204.273 62.229 204.285 62.2279 204.296 62.2279C204.345 62.2268 204.395 62.2247 204.446 62.2231C204.462 62.2231 204.478 62.222 204.493 62.222C204.527 62.2209 204.561 62.2199 204.596 62.2183C204.778 62.2124 204.974 62.207 205.185 62.2001C205.224 62.199 205.262 62.1979 205.302 62.1969C205.464 62.1926 205.633 62.1867 205.81 62.1824C205.856 62.1808 205.901 62.1787 205.948 62.1776C206.339 62.1664 206.765 62.1525 207.224 62.1391C207.275 62.138 207.328 62.1354 207.38 62.1348C207.442 62.1327 207.504 62.1311 207.565 62.129C207.652 62.1268 207.741 62.1231 207.831 62.1209C207.897 62.1188 207.964 62.1167 208.03 62.114C208.197 62.1097 208.368 62.1038 208.542 62.099C208.605 62.0969 208.667 62.0958 208.73 62.0931C208.734 62.0931 208.737 62.0931 208.74 62.0921C208.84 62.0899 208.941 62.0862 209.044 62.0846C209.192 62.0803 209.341 62.0749 209.493 62.0707C209.659 62.0653 209.828 62.06 209.998 62.0546H210.001C210.032 62.0536 210.06 62.0536 210.089 62.0525C210.187 62.0493 210.287 62.0471 210.388 62.0434C210.545 62.0391 210.703 62.0343 210.862 62.0295H210.863C210.969 62.0263 211.076 62.0231 211.182 62.0193C211.317 62.0156 211.454 62.0113 211.592 62.0065C211.866 61.9985 212.146 61.9905 212.43 61.9814C212.585 61.9771 212.74 61.9723 212.897 61.968C213.017 61.9643 213.139 61.96 213.262 61.9562C213.346 61.9541 213.431 61.952 213.516 61.9498H213.517C213.523 61.9488 213.529 61.9488 213.536 61.9488C213.721 61.9434 213.906 61.9375 214.094 61.9333L214.095 61.9316C214.321 61.9258 214.551 61.9193 214.782 61.9113C215.042 61.9044 215.305 61.8964 215.569 61.8889C215.799 61.8819 216.029 61.875 216.263 61.8675C216.431 61.8627 216.598 61.8584 216.768 61.8525C216.936 61.8482 217.106 61.8434 217.278 61.8375C217.509 61.8306 217.741 61.8242 217.974 61.8172C218.303 61.8065 218.634 61.798 218.968 61.7873C219.123 61.783 219.278 61.7787 219.435 61.7739C219.583 61.7691 219.732 61.7648 219.881 61.7605C220.067 61.7557 220.252 61.7498 220.439 61.7445C220.69 61.7365 220.943 61.7295 221.197 61.7215C221.646 61.7087 222.099 61.6953 222.554 61.6814C222.576 61.6814 222.598 61.6803 222.62 61.6793C222.803 61.6744 222.988 61.6686 223.172 61.6632C223.364 61.6579 223.558 61.652 223.753 61.6461C224.054 61.6381 224.357 61.629 224.659 61.6199C224.935 61.6119 225.21 61.6022 225.488 61.5958C225.743 61.5878 225.999 61.5798 226.255 61.5728C226.433 61.567 226.61 61.5627 226.789 61.5568C227.077 61.5488 227.366 61.5397 227.655 61.5317C228.257 61.5135 228.86 61.4964 229.463 61.4793C229.752 61.4702 230.042 61.4621 230.33 61.4541C230.754 61.4418 231.177 61.429 231.599 61.4178C231.972 61.4065 232.345 61.3964 232.716 61.3857C233.088 61.3745 233.458 61.3643 233.827 61.3536C234.136 61.3445 234.445 61.3354 234.752 61.3263C235.289 61.3119 235.823 61.2969 236.352 61.2819H236.353C236.78 61.2691 237.204 61.2579 237.623 61.2467C237.688 61.2445 237.753 61.2424 237.818 61.2408C238.281 61.2274 238.739 61.2146 239.193 61.2023C239.229 61.2012 239.265 61.2001 239.302 61.1991C239.582 61.191 239.859 61.1841 240.134 61.1761C240.837 61.1568 241.524 61.1386 242.193 61.1205C242.311 61.1167 242.431 61.1135 242.548 61.1103C242.589 61.1103 242.631 61.1092 242.672 61.1066C242.772 61.1044 242.871 61.1023 242.969 61.0985C243.294 61.0905 243.612 61.0814 243.926 61.0739C244.05 61.0702 244.173 61.067 244.294 61.0632C244.762 61.052 245.22 61.0392 245.662 61.028C245.717 61.0269 245.771 61.0242 245.825 61.0231C246.086 61.0178 246.342 61.0103 246.592 61.0039C246.681 61.0017 246.768 60.9991 246.856 60.9969C247.148 60.99 247.434 60.982 247.713 60.975C247.773 60.9739 247.834 60.9729 247.892 60.9707C247.905 60.9707 247.918 60.9707 247.93 60.9691C248.069 60.967 248.205 60.9638 248.34 60.96C248.366 60.959 248.392 60.959 248.417 60.9579C248.515 60.9558 248.612 60.9531 248.706 60.951C248.847 60.9472 248.984 60.944 249.12 60.9408C249.195 60.9397 249.27 60.937 249.343 60.9365C249.897 60.9226 250.405 60.9108 250.865 60.9023C250.95 60.9001 251.034 60.8991 251.117 60.8964C251.201 60.8953 251.284 60.8927 251.365 60.8916C251.56 60.8873 251.746 60.8841 251.918 60.8804C252.067 60.8777 252.208 60.8756 252.34 60.8734C251.421 61.4958 250.646 62.2263 250.168 62.9204C249.362 64.0887 248.061 65.725 248.07 67.1201C248.075 67.5618 248.209 67.9784 248.531 68.3479C249.127 69.0302 249.712 69.7039 250.516 70.2756C251.102 70.6964 251.863 70.9087 252.577 71.1819Z" fill="#FFB000"/>
<path d="M216.727 67.095C227.247 67.2682 237.458 67.6864 248.079 67.1233C248.082 67.5639 248.208 67.9816 248.529 68.3505C249.125 69.0334 249.71 69.7077 250.514 70.2782C251.101 70.6964 251.864 70.9081 252.577 71.1819L203.774 68.9949L201.844 66.9966C205.58 67.1746 214.213 67.0538 216.727 67.095Z" fill="#FF801F"/>
<path d="M205.614 64.6427L250.743 55.2759C250.743 55.2759 254.43 49.5677 253.041 48.6731C251.652 47.7779 250.888 47.1587 247.776 47.8875C244.663 48.6164 199.429 60.8847 199.429 60.8847L205.614 64.6427Z" fill="#FFC531"/>
<path d="M246.599 48.1843C245.869 48.8506 245.309 49.5596 245.024 50.173C244.391 51.5317 243.138 53.6781 244.826 54.4674C245.574 54.8171 246.309 55.1636 247.23 55.3834C247.903 55.5449 248.692 55.5165 249.451 55.5438L199.451 64.5796L199.428 60.8847C199.428 60.8847 238.8 50.2061 246.599 48.1843Z" fill="#FFB000"/>
<path d="M249.45 55.5432L249.202 55.5956L233.513 58.8943L219.887 61.7594L219.881 61.7605L210.938 63.6411L210.61 63.7107L207.614 64.34L204.885 64.9149L203.85 65.132L202.24 65.4715L201.821 65.5592L199.451 64.5796C200.308 64.401 201.423 64.1459 202.657 63.855C203.044 63.7625 203.442 63.6673 203.848 63.5706C203.88 63.5625 203.913 63.5545 203.946 63.5465C205.268 63.2278 206.667 62.8829 207.998 62.5535C208.689 62.3818 209.362 62.2145 209.997 62.0573C209.998 62.0573 209.999 62.0573 209.999 62.0562H210.002C210.446 61.9455 210.871 61.8402 211.271 61.7407C212.358 61.4712 213.258 61.2504 213.832 61.1172C214.194 61.0327 214.554 60.9488 214.914 60.8659C215.047 60.8354 215.178 60.8044 215.309 60.775C220.806 59.5029 226.241 58.2885 231.671 56.9677C235.797 55.964 239.922 54.8967 244.071 53.6952C244.073 53.6941 244.076 53.6941 244.079 53.6925C244.18 53.9695 244.368 54.2107 244.683 54.3935C244.701 54.4037 244.718 54.4139 244.736 54.4229C244.765 54.439 244.796 54.454 244.826 54.4684C245.575 54.8176 246.311 55.1646 247.232 55.3844C247.904 55.5443 248.694 55.5159 249.45 55.5432Z" fill="#FF801F"/>
<path d="M218.173 58.7094L179.589 84.2181C179.589 84.2181 171.777 81.7198 171.85 79.8376C171.922 77.9558 171.842 76.8024 174.58 75.1202C177.321 73.4374 218.709 50.5387 218.709 50.5387L218.173 58.7094Z" fill="#FFC531"/>
<path d="M175.637 74.5052C176.746 74.5699 177.784 74.8026 178.549 75.1555C180.247 75.9356 183.097 76.9757 182.728 78.9863C182.565 79.8777 182.406 80.7557 182.006 81.6572C181.714 82.3166 181.167 82.8882 180.693 83.4882L222.176 53.9818L218.709 50.5387C218.709 50.5387 182.684 70.4702 175.637 74.5052Z" fill="#FFB000"/>
<path d="M222.177 53.9812L221.851 55.3613L221.537 56.6848L213.515 61.9497L206.162 66.7746L205.693 67.0826L205.511 67.2018L205.51 67.2029L205.38 67.2869L203.389 68.5943L198.743 71.6433L197.425 72.5069L195.942 73.4812L195.788 73.5822L190.121 77.2997L180.701 83.4817L180.694 83.4865V83.4854C181.169 82.886 181.715 82.3143 182.007 81.6556C182.407 80.7545 182.565 79.876 182.729 78.9841C182.735 78.9557 182.738 78.9268 182.743 78.8985C182.804 78.4525 182.699 78.0568 182.49 77.6991C182.494 77.698 182.496 77.6954 182.5 77.6948C183.377 77.2339 184.247 76.7681 185.111 76.297C187.259 75.1276 189.368 73.9261 191.453 72.7026C191.514 72.6662 191.576 72.6299 191.638 72.5935C192.234 72.2433 192.828 71.8903 193.42 71.5364C193.747 71.3417 194.072 71.1471 194.397 70.9514C196.734 69.545 199.048 68.1168 201.364 66.6773H201.364C201.589 66.5382 201.812 66.3981 202.036 66.2596C202.916 65.711 203.797 65.1629 204.681 64.6132C206.028 63.7732 207.379 62.931 208.739 62.0914C208.739 62.0914 208.74 62.0914 208.74 62.0904C208.97 61.9481 209.201 61.8059 209.432 61.6636C210.912 60.7525 214.946 58.413 218.327 56.3746C218.866 56.049 219.39 55.7319 219.882 55.4287C220.769 54.8865 221.558 54.3903 222.177 53.9812Z" fill="#FF801F"/>
<path opacity="0.7" d="M233.986 67.3998H233.985C233.552 67.5399 233.14 67.657 232.779 67.7538C230.805 68.2794 228.883 68.6131 226.968 69.0692H226.967C226.237 69.2435 225.511 69.4344 224.782 69.6633C224.78 69.6633 224.78 69.6633 224.78 69.6633C224.62 69.7136 224.461 69.7644 224.301 69.8194H224.3C224.216 69.8467 224.133 69.8751 224.05 69.9045H224.049C223.471 70.1034 222.892 70.3301 222.31 70.5916C219.336 71.9263 216.875 73.4636 213.943 74.316C213.133 74.5513 212.288 74.7347 211.386 74.8475C210.468 74.9625 209.547 75.0887 208.624 75.2229C207.807 75.3421 206.991 75.4673 206.172 75.5961H206.171C206.083 75.6084 205.993 75.6234 205.904 75.6368L195.787 73.5839L190.12 77.3014C190.1 77.3003 190.08 77.2982 190.06 77.296C189.869 77.2768 189.682 77.2538 189.495 77.2287H189.493C188.154 77.0559 186.843 76.7704 185.676 76.4581C185.505 76.4127 185.315 76.3592 185.11 76.2988C183.092 75.7015 179.619 74.424 178.388 73.2652C178.498 73.0813 178.639 72.8963 178.804 72.7134C180.033 71.3477 182.603 70.0098 183.93 68.6318L183.932 68.6307C184.517 68.0206 184.859 67.4051 184.734 66.7752C184.653 66.3656 184.376 65.9512 183.837 65.5288C182.084 64.1524 180.812 64.655 181.347 62.1258C181.84 59.7906 184.179 58.7014 184.987 56.6523L209.199 55.8047H209.2L218.385 55.4839L219.526 55.4438H219.528L219.882 55.4315L220.152 55.4213H220.154L221.85 55.362L230.503 55.0593C230.85 55.7855 231.243 56.4101 231.671 56.9667C232.108 57.5367 232.582 58.0351 233.08 58.5019C233.21 58.6238 233.341 58.7431 233.474 58.8602C233.486 58.8714 233.499 58.8826 233.512 58.8944L219.886 61.7595C220.069 61.7552 220.253 61.7488 220.438 61.745C220.69 61.737 220.942 61.7301 221.196 61.7221C221.645 61.7081 222.098 61.6959 222.554 61.6819C222.575 61.6819 222.597 61.6809 222.619 61.6798C222.802 61.6739 222.987 61.6691 223.171 61.6638C223.364 61.6584 223.557 61.6525 223.752 61.6467C224.053 61.6376 224.356 61.6279 224.659 61.6205C224.935 61.6124 225.209 61.6028 225.487 61.5964C225.742 61.5884 225.998 61.5803 226.254 61.5734C226.432 61.5675 226.61 61.5632 226.788 61.5574C227.076 61.5493 227.365 61.5402 227.654 61.5322C228.257 61.514 228.859 61.4969 229.462 61.4798C229.752 61.4707 230.041 61.4627 230.33 61.4547C230.753 61.4424 231.176 61.4296 231.599 61.4183C231.972 61.4071 232.344 61.3969 232.716 61.3862C233.088 61.375 233.457 61.3649 233.826 61.3542C234.136 61.3451 234.444 61.336 234.751 61.3269C235.288 61.3125 235.822 61.2975 236.351 61.2825H236.353C236.665 61.5611 236.977 61.8547 237.287 62.1696C239.964 64.8909 236.605 66.5523 233.986 67.3998Z" fill="#E66612"/>
<path d="M201.256 70.2734L155.851 79.0948C155.851 79.0948 149.587 73.8 150.375 72.0888C151.161 70.3777 151.528 69.2804 154.702 68.7735C157.877 68.266 204.875 62.9279 204.875 62.9279L201.256 70.2734Z" fill="#FFC531"/>
<path d="M155.912 68.6083C156.912 69.0923 157.783 69.7045 158.356 70.3227C159.626 71.6926 161.862 73.7433 160.752 75.4598C160.261 76.2213 159.778 76.972 159.064 77.6517C158.542 78.15 157.818 78.4687 157.151 78.842L206.763 67.4346L204.875 62.9274C204.875 62.9274 163.967 67.5742 155.912 68.6083Z" fill="#FFB000"/>
<path d="M192.048 69.6628C181.66 71.3408 171.615 73.2166 161.023 74.1807C161.083 74.617 161.018 75.0486 160.752 75.4598C160.261 76.2212 159.778 76.972 159.064 77.6516C158.543 78.15 157.818 78.4687 157.151 78.8419L205.139 69.6885L206.763 67.4346C203.092 68.1452 194.53 69.2623 192.048 69.6628Z" fill="#FF801F"/>
<path d="M210.825 66.541L164.581 65.6197C164.581 65.6197 159.571 59.1259 160.7 57.6185C161.827 56.1106 162.417 55.1154 165.626 55.2866C168.837 55.4582 215.907 60.1205 215.907 60.1205L210.825 66.541Z" fill="#FFC531"/>
<path d="M166.845 55.3796C167.721 56.063 168.443 56.8443 168.873 57.5694C169.827 59.1757 171.582 61.6509 170.136 63.0958C169.496 63.7364 168.866 64.369 168.024 64.8839C167.411 65.2614 166.635 65.4208 165.904 65.6454L216.806 64.9235L215.907 60.12C215.907 60.12 174.936 56.0625 166.845 55.3796Z" fill="#FFB000"/>
<path d="M201.95 64.008C191.442 63.4642 181.227 63.1866 170.669 61.9022C170.636 62.3418 170.481 62.7498 170.135 63.0957C169.495 63.7363 168.865 64.3689 168.024 64.8839C167.41 65.2614 166.634 65.4207 165.903 65.6453L214.743 66.7854L216.805 64.9234C213.066 64.8464 204.461 64.1379 201.95 64.008Z" fill="#FF801F"/>
<path d="M190.598 68.9377L227.937 41.6403C227.937 41.6403 228.313 33.4472 226.523 32.8606C224.735 32.2729 223.68 31.7965 221.15 33.7787C218.62 35.762 182.751 66.5966 182.751 66.5966L190.598 68.9377Z" fill="#FFC531"/>
<path d="M220.207 34.5541C219.882 35.6166 219.739 36.6711 219.803 37.5117C219.944 39.3747 219.927 42.4087 221.94 42.7622C222.833 42.9194 223.711 43.0761 224.695 43.0146C225.414 42.9712 226.142 42.6568 226.868 42.4215L184.772 71.0461L182.751 66.5972C182.751 66.5972 213.972 39.7581 220.207 34.5541Z" fill="#FFB000"/>
<path d="M196.411 61.7696C204.704 55.293 212.91 49.2024 220.818 42.0911C221.097 42.4317 221.458 42.6771 221.94 42.7622C222.833 42.9194 223.711 43.076 224.695 43.0145C225.415 42.9712 226.142 42.6568 226.868 42.4215L187.53 71.3878L184.772 71.0461C187.79 68.8366 194.43 63.3171 196.411 61.7696Z" fill="#FF801F"/>
<path d="M228.815 66.0324L183.48 75.2062C183.48 75.2062 177.176 69.96 177.95 68.2425C178.721 66.5249 179.08 65.426 182.25 64.894C185.421 64.3619 232.376 58.6591 232.376 58.6591L228.815 66.0324Z" fill="#FFC531"/>
<path d="M183.459 64.7197C184.463 65.1962 185.338 65.8009 185.916 66.4153C187.196 67.7752 189.448 69.8082 188.352 71.5332C187.867 72.2984 187.39 73.0529 186.681 73.7385C186.164 74.2406 185.441 74.5651 184.777 74.9432L234.298 63.1508L232.376 58.6586C232.376 58.6586 191.506 63.623 183.459 64.7197Z" fill="#FFB000"/>
<path d="M219.602 65.4935C209.227 67.2517 199.197 69.2056 188.613 70.252C188.676 70.6878 188.615 71.1199 188.352 71.5332C187.867 72.2984 187.39 73.0529 186.681 73.7385C186.163 74.2406 185.441 74.5651 184.776 74.9432L232.692 65.4175L234.299 63.1514C230.633 63.8904 222.081 65.0737 219.602 65.4935Z" fill="#FF801F"/>
<path d="M227.298 60.5847L181.079 62.3723C181.079 62.3723 175.697 56.1834 176.736 54.6123C177.772 53.0413 178.303 52.0136 181.517 51.9965C184.732 51.9793 231.995 53.8776 231.995 53.8776L227.298 60.5847Z" fill="#FFC531"/>
<path d="M182.739 52.0178C183.654 52.6488 184.421 53.3862 184.892 54.0851C185.939 55.6326 187.835 58.0004 186.477 59.5281C185.874 60.2051 185.283 60.874 184.473 61.4371C183.883 61.8493 183.117 62.0541 182.401 62.321L233.172 58.6201L231.995 53.8776C231.996 53.8776 190.858 52.2253 182.739 52.0178Z" fill="#FFB000"/>
<path d="M218.29 58.5762C207.768 58.6484 197.554 58.9693 186.939 58.3057C186.932 58.7457 186.802 59.1623 186.477 59.5286C185.874 60.2056 185.283 60.8745 184.473 61.4376C183.883 61.8499 183.117 62.0547 182.401 62.3215L231.224 60.6002L233.172 58.6206C229.436 58.7623 220.805 58.5586 218.29 58.5762Z" fill="#FF801F"/>
<defs>
<linearGradient id="paint0_linear_1429_10838" x1="115.096" y1="30.3868" x2="115.149" y2="29.7602" gradientUnits="userSpaceOnUse">
<stop stop-color="#DBA086"/>
<stop offset="1" stop-color="white"/>
</linearGradient>
<linearGradient id="paint1_linear_1429_10838" x1="116.468" y1="31.6123" x2="116.541" y2="30.7533" gradientUnits="userSpaceOnUse">
<stop stop-color="#DBA086"/>
<stop offset="1" stop-color="white"/>
</linearGradient>
</defs>
</svg>
