<svg width="34" height="33" viewBox="0 0 34 33" fill="none" xmlns="http://www.w3.org/2000/svg">
<rect x="0.524902" width="32.95" height="32.95" rx="8" fill="#E9EBF8"/>
<g clip-path="url(#clip0_470_2667)">
<rect x="3.5249" y="3" width="26.95" height="26.95" rx="5" fill="white"/>
<path fill-rule="evenodd" clip-rule="evenodd" d="M25.2788 8.36794C24.945 7.01915 23.7423 5.89054 22.3368 5.60689C21.7615 5.49079 21.2182 5.48386 20.7776 5.58687C20.4894 5.65428 18.7956 6.16219 17.1367 6.67852C16.7032 6.81349 15.7404 7.10622 14.9972 7.32904C11.9386 8.24591 11.6575 8.36737 10.9307 9.08572C10.5309 9.48097 10.1682 10.0854 9.99311 10.6488C9.92149 10.8792 9.89296 11.4781 9.89281 12.7576C9.89251 14.4288 9.90385 14.5791 10.067 15.0736C10.1629 15.3644 10.2941 15.679 10.3585 15.7727C10.4682 15.932 10.4609 15.9738 10.2457 16.4234C9.86166 17.2256 9.84342 17.4566 9.86902 21.1929L9.89251 24.6242L10.1023 25.0311C10.5043 25.8105 11.2125 26.4049 12.014 26.6353C12.6873 26.829 13.3113 26.7754 14.4799 26.4234C15.0623 26.2479 15.6801 26.0195 15.8526 25.9157C16.6067 25.4624 17.081 24.8922 17.3561 24.1082C17.5027 23.6906 17.5121 23.506 17.5121 21.0522C17.5121 19.613 17.4827 18.4407 17.4465 18.4407C17.4105 18.4407 16.9545 18.5706 16.4331 18.7293L15.4852 19.0179V21.2699C15.4852 23.3802 15.4757 23.5395 15.3352 23.8019C15.1045 24.2326 14.4574 24.5253 13.083 24.8208C12.6481 24.9143 12.2488 24.7665 12.0324 24.4319C11.8832 24.2014 11.8798 24.1092 11.8993 20.8355L11.9194 17.4757L12.1276 17.1384C12.4754 16.5749 12.7332 16.4609 15.6334 15.5884C17.0981 15.1478 18.3228 14.7488 18.3551 14.7018C18.4257 14.5989 18.4187 12.9894 18.3472 12.8793C18.2996 12.8059 16.7385 13.249 13.2893 14.315C12.345 14.6068 12.0879 14.6624 12.0131 14.5912C11.9454 14.5269 11.9127 14.0654 11.8954 12.9307C11.8671 11.0845 11.9229 10.8205 12.4463 10.322C12.7512 10.0317 12.8563 9.99023 14.7822 9.40105C15.8914 9.06178 16.934 8.73938 17.0992 8.68476C17.2644 8.63008 17.9569 8.41898 18.6381 8.2156C19.3194 8.01223 20.1301 7.76703 20.4398 7.67067C20.7495 7.57438 21.1756 7.47716 21.3867 7.45478C22.1323 7.37558 22.8647 7.76424 23.2295 8.43278L23.405 8.75446L23.4273 12.0562C23.4521 15.7417 23.4367 15.8854 22.9607 16.4108C22.616 16.7914 22.4491 16.8636 20.5149 17.4698C19.1364 17.9019 18.7705 18.0446 18.5255 18.2464L18.2252 18.4934L18.2011 20.0041C18.1816 21.2212 18.1961 21.5143 18.2761 21.513C18.3307 21.5122 18.7808 21.3891 19.2762 21.2395L20.1771 20.9673L20.2146 20.2698L20.2521 19.5724L21.6461 19.1253C22.4128 18.8794 23.215 18.5875 23.4288 18.4767C24.2866 18.0321 25.0058 17.115 25.2786 16.1178C25.4478 15.499 25.448 9.05155 25.2788 8.36794Z" fill="#0033C7"/>
</g>
<defs>
<clipPath id="clip0_470_2667">
<rect width="26.95" height="26.95" fill="white" transform="translate(3.5249 3)"/>
</clipPath>
</defs>
</svg>
