<svg width="323" height="443" viewBox="0 0 323 443" fill="none" xmlns="http://www.w3.org/2000/svg">
<path d="M161.911 392.547L244.116 184.799C248.144 174.624 244.531 163.019 235.458 156.914L216.827 144.404C211.595 136.78 210.367 127.099 213.527 118.412L239.787 46.1508L181.849 25.0918L155.586 97.3512C152.425 106.041 145.268 112.673 136.362 115.156L114.047 112.79C103.166 111.633 92.9499 118.214 89.5018 128.598L19.1245 340.65L15.287 348.045C12.4145 350.444 10.2097 353.599 8.90897 357.169C5.01984 367.87 6.84031 376.307 28.4854 384.08L125.49 419.338C143.641 425.931 155.249 423.704 159.128 411.769C160.423 408.202 160.762 404.367 160.097 400.68L161.911 392.547Z" fill="#8DC8FC"/>
<g opacity="0.2">
<path d="M165.727 88.8236L159.584 105.718C156.546 114.087 146.608 119.368 138.479 121.924L118.292 120.115C108.448 119.231 99.0534 125.727 95.7092 135.72L27.5663 339.77L23.9397 346.913C21.2889 349.264 19.2205 352.325 17.9726 355.76C14.2263 366.064 15.7013 374.089 35.1797 381.071L122.44 412.793C138.761 418.729 149.344 416.364 153.098 404.877C154.346 401.442 154.726 397.77 154.204 394.258L156.013 386.454L234.795 186.274C238.652 176.47 235.616 165.457 227.5 159.813L210.864 148.231C206.276 141.056 202.049 130.623 205.092 122.256L211.226 105.387C202.747 104.127 192.087 100.895 187.662 99.2858C183.372 97.7253 172.992 93.1828 165.727 88.8236Z" fill="#0E76A5"/>
</g>
<path d="M212.607 30.7069C196.611 24.8918 182.836 22.3744 181.85 25.0918C181.756 25.3541 181.816 25.6606 181.957 25.9928C183.266 29.1293 194.565 35.2744 209.034 40.5371C223.505 45.7968 236.111 48.3452 239.13 46.7735C239.448 46.6112 239.692 46.4089 239.788 46.1508C240.779 43.4363 228.605 36.5235 212.607 30.7069Z" fill="#17272D"/>
<path d="M209.033 40.5367C194.368 35.2056 182.907 29.0019 181.572 25.8526L171.972 52.2667L171.418 53.789C172.757 56.9369 184.22 63.1449 198.879 68.4732C213.542 73.8029 226.315 76.4055 229.359 74.8495L229.914 73.3244L239.513 46.9131C236.468 48.4719 223.696 45.8664 209.033 40.5367Z" fill="#030506"/>
<path d="M200.123 64.9425C185.462 59.6098 173.998 53.4047 172.663 50.2554L163.546 75.3419L162.992 76.8642C164.326 80.0135 175.789 86.2214 190.453 91.5483C205.115 96.878 217.889 99.4807 220.936 97.9232L221.486 96.4024L230.604 71.3159C227.559 72.8748 214.788 70.2736 200.123 64.9425Z" fill="#030506"/>
<path d="M197.375 72.6115C203.414 74.806 221.119 80.06 228.958 79.1399C229.585 79.0631 230.075 78.5835 230.259 77.981L231.802 72.8629C232.111 71.8338 231.373 70.8095 230.294 70.7667C225.357 70.5963 213.437 68.9991 201.202 64.6151L199.57 64.0211C187.367 59.5232 177.01 53.1808 173.129 50.3173C172.29 49.7036 171.113 50.0038 170.678 50.9527L168.6 55.5252C168.349 56.0761 168.378 56.7341 168.771 57.1879C173.271 62.375 191.369 70.43 197.375 72.6115Z" fill="#02254F"/>
<path d="M187.658 99.2849C193.7 101.481 211.402 106.74 219.244 105.815C219.872 105.745 220.361 105.265 220.545 104.656L222.093 99.5435C222.401 98.5101 221.659 97.4842 220.583 97.4501C215.644 97.2783 203.724 95.671 191.49 91.2941L189.854 90.7017C177.655 86.2023 167.295 79.8584 163.417 76.9963C162.581 76.3769 161.405 76.6815 160.968 77.6289L158.885 82.2101C158.637 82.7552 158.666 83.4132 159.058 83.8699C163.549 89.0455 181.651 97.1062 187.658 99.2849Z" fill="#02254F"/>
<g opacity="0.2">
<path d="M137.999 384.291L42.76 349.676C38.4511 348.109 36.1887 343.389 37.6583 339.043L104.911 140.461C106.429 135.981 111.334 133.623 115.781 135.244L219.716 173.02C224.164 174.633 226.413 179.591 224.697 183.999L148.74 379.419C147.076 383.694 142.305 385.856 137.999 384.291Z" fill="#0E76A5"/>
</g>
<g opacity="0.15">
<path d="M233.424 42.3935C226.169 37.1948 217.281 34.9632 208.883 31.9366C203.558 30.0135 198.056 27.6935 192.446 28.4468C191.981 28.5073 191.438 28.6515 191.287 29.0941C191.117 29.5669 191.502 30.0453 191.886 30.3796C193.989 32.2032 196.701 33.1207 199.31 34.0773C208.982 37.614 218.37 42.2358 228.521 43.9437C229.961 44.1869 231.441 44.3176 232.856 43.959C234.856 43.456 233.424 42.3935 233.424 42.3935Z" fill="white"/>
</g>
<g opacity="0.15">
<path d="M204.004 45.8378C205.261 45.268 206.335 43.7341 205.613 42.5599C205.228 41.9376 204.472 41.6634 203.778 41.4193C197.307 39.1974 188.916 38.6649 185.081 32.9918C182.192 28.7227 181.516 35.3241 180.538 37.8226C179.566 40.3197 179.168 43.0049 178.101 45.4663C176.384 49.4344 178.446 51.0897 180.529 52.7809C181.402 53.4982 182.463 53.9384 183.514 54.3556C187.011 55.7559 190.563 57.0148 194.16 58.1311C194.79 58.325 195.519 58.507 196.072 58.1381C196.483 57.8676 196.678 57.3601 196.796 56.8759C197.243 55.1639 197.211 53.3655 197.524 51.6193C197.832 49.8745 198.583 48.0723 200.105 47.1632C201.283 46.4612 202.745 46.399 204.004 45.8378Z" fill="white"/>
</g>
<g opacity="0.1">
<path d="M236.058 50.0371C233.706 50.2863 231.327 50.54 228.976 50.2579C227.332 50.0643 225.732 49.6084 224.138 49.1555C220.617 48.1527 217.102 47.1528 213.584 46.1515C213.051 46.002 212.497 45.8496 211.949 45.9118C209.895 46.1327 209.015 48.9995 206.992 49.3759C206.48 49.4667 205.955 49.3863 205.441 49.4585C203.588 49.7249 202.608 51.8015 202.272 53.637C201.934 55.4783 201.836 57.5219 200.548 58.8809C200.146 59.2998 199.604 59.732 199.652 60.3093C199.709 60.9773 200.52 61.1965 201.139 61.4494C206.894 63.8233 213.624 65.9219 218.866 66.5205C221.839 66.8597 224.593 67.4027 227.581 67.415C227.809 67.4171 228.044 67.4078 228.244 67.2948C228.47 67.166 229.569 67.3267 229.686 67.0902C230.562 65.3393 230.463 63.184 231.343 61.4317C233.063 57.9791 235.713 53.8915 236.058 50.0371Z" fill="white"/>
</g>
<g opacity="0.3">
<path d="M217.707 144.994L216.831 144.405C211.599 136.781 210.371 127.1 213.53 118.413L218.098 105.838C209.824 106.236 193.442 101.387 187.66 99.2843C182.01 97.2327 165.798 90.0056 160.137 84.8393L155.592 97.3493C152.431 106.039 145.273 112.671 136.367 115.154L135.316 115.042C138.702 121.258 153.965 130.491 173.73 137.672C193.488 144.858 211.122 147.582 217.707 144.994Z" fill="#0E76A5"/>
</g>
<g opacity="0.2">
<path d="M175.279 98.1748C175.006 97.3779 174.014 96.9792 173.271 96.5856C170.489 95.1298 167.518 93.6127 164.74 92.1482L162.04 89.8383C159.6 96.0536 157.614 103.418 153.385 108.588C149.151 113.754 143.076 117.775 136.402 118.087C130.918 118.338 123.555 116.907 116.852 116.45C117.599 117.827 123.273 121.432 124.739 121.976C136.571 126.358 147.001 130.012 158.841 134.373C163.924 136.241 162.904 132.371 162.909 131.252C162.923 127.297 163.342 123.642 164.596 119.318C166.361 113.246 171.398 106.91 174.301 101.298C174.7 100.529 175.567 99.0004 175.279 98.1748Z" fill="#0E76A5"/>
</g>
<g opacity="0.4">
<path d="M219.382 150.857C215.236 147.97 212.892 144.391 210.422 139.989C207.808 135.331 207.329 130.277 208.397 125.045C209.469 119.812 212.155 112.971 214.431 108.137C213.19 108.819 200.21 108.192 197.642 105.595C198.397 113.693 199.909 119.382 196.977 126.974C195.643 130.417 190.781 137.26 186.762 139.131C183.665 140.57 181.437 140.78 176.568 140.784C195.775 147.937 213.822 154.029 232.264 159.839C227.967 156.845 223.672 153.851 219.382 150.857Z" fill="#0E76A5"/>
</g>
<g opacity="0.3">
<path d="M241.471 169.444C241.153 167.382 240.543 165.214 238.932 163.89C237.526 162.739 235.638 162.453 233.854 162.1C229.378 161.209 225.055 159.672 220.754 158.142C191.835 147.853 162.913 137.562 133.991 127.271C128.494 125.317 122.848 123.274 118.481 119.404C115.947 117.158 113.23 115.268 109.775 115.523C109.775 115.523 98.604 117.551 94.2771 128.25C93.364 130.496 92.6978 132.955 93.2192 135.324C94.1393 139.468 98.1949 142.03 101.941 144.021C125.813 156.702 151.642 165.171 177.325 173.578C195.512 179.534 213.695 185.49 231.873 191.442C232.782 191.739 233.734 192.038 234.672 191.886C236.337 191.615 237.441 190.057 238.23 188.576C241.308 182.763 242.465 175.947 241.471 169.444Z" fill="white"/>
</g>
<g opacity="0.5">
<path d="M168.452 154.212C150.882 145.042 130.318 139.746 117.338 124.759C115.594 122.747 113.967 120.542 111.678 119.18C109.395 117.81 106.188 117.531 104.244 119.349C104.244 119.349 100.839 121.182 98.3889 125.426C97.3233 127.27 96.7606 129.679 97.9224 131.46C98.63 132.555 99.8472 133.187 101.011 133.775C125.635 146.1 151.643 155.635 178.396 162.139C176.091 158.519 172.258 156.197 168.452 154.212Z" fill="white"/>
</g>
<g opacity="0.5">
<path d="M40.9483 313.029C58.0117 258.864 76.1504 205.038 95.3428 151.588C95.9238 149.974 96.5132 148.286 96.3236 146.582C96.1254 144.881 94.8989 143.158 93.1892 143.011C91.841 142.895 90.6155 144.207 90.6323 145.441C69.7688 204.672 49.972 264.281 31.2634 324.226C30.7673 325.813 30.9219 328.319 32.5819 328.219C33.2053 328.18 33.7078 327.71 34.1269 327.25C37.6756 323.306 39.3542 318.082 40.9483 313.029Z" fill="white"/>
</g>
<g opacity="0.5">
<path d="M57.3487 288.544C71.4825 245.71 86.8617 203.293 103.468 161.359C103.978 160.07 104.49 158.668 104.096 157.34C103.696 156.016 101.906 155.089 100.879 156.013C100.499 156.353 100.313 156.858 100.145 157.342C98.3578 162.386 96.5619 167.433 94.7792 172.483L98.5242 162.195C83.8084 209.585 63.0519 255.06 50.8208 303.144C53.9637 298.809 55.6712 293.628 57.3487 288.544Z" fill="white"/>
</g>
<g opacity="0.3">
<path d="M226.841 220.518C231.76 206.916 237.257 194.778 242.18 181.182L242.195 176.776C240.675 181.492 235.068 190.467 230.113 190.457C225.158 190.446 220.513 189.08 215.824 187.483C207.519 184.654 191.189 180.506 180.642 176.204C184.753 179.408 192.345 184.695 194.353 186.313C199.377 190.373 198.631 192.788 196.979 199.031C188.599 230.774 173.758 260.392 162.652 291.289C153.783 315.978 147.297 341.453 138.96 366.323C138.222 368.52 137.431 370.773 135.905 372.51C132.906 375.917 127.833 376.528 123.305 376.172C121.45 376.021 119.512 375.76 117.781 376.447C116.046 377.132 114.69 379.184 115.485 380.865C115.738 381.397 116.159 381.824 116.602 382.213C121.592 386.558 128.807 386.766 135.248 388.301C141.681 389.839 148.728 394.5 148.167 401.094C147.717 406.348 142.297 410.028 137.042 410.462C131.785 410.895 126.667 408.923 121.711 407.126C111.856 403.567 101.795 400.57 91.5936 398.165C89.2087 397.604 85.8851 397.58 85.207 399.932C101.862 407.026 119.115 412.714 136.721 416.92C138.909 417.444 141.149 417.949 143.386 417.7C148.58 417.135 152.583 412.601 154.401 407.705C156.213 402.807 154.592 396.931 156.998 392.291C169.379 368.371 222.623 232.165 226.841 220.518Z" fill="#0E76A5"/>
</g>
<g opacity="0.6">
<path d="M162.092 365.99C184.366 307.297 207.78 249.04 232.309 191.254C229.444 190.731 226.583 190.203 223.722 189.682C222.529 189.464 221.264 189.253 220.135 189.696C218.271 190.425 217.501 192.591 216.936 194.507C198.497 257.008 170.117 316.19 151.105 378.514C149.42 384.048 148.386 391.334 153.244 394.481C155.034 384.687 158.557 375.303 162.092 365.99Z" fill="#0E76A5"/>
</g>
<g opacity="0.4">
<path d="M80.7415 362.952C70.2385 358.331 59.6454 353.934 48.9552 349.756C45.805 348.527 42.6073 347.293 39.8896 345.28C37.1719 343.266 34.9482 340.337 34.5691 336.979C34.4477 335.891 34.5046 334.74 33.9947 333.768C33.4848 332.804 32.0876 332.186 31.2792 332.924C30.9618 333.209 30.8105 333.63 30.6706 334.028C29.957 336.068 29.2419 338.11 28.5269 340.153L29.909 335.911C28.6349 337.827 27.3406 339.798 26.8119 342.037C26.2876 344.275 26.6845 346.873 28.3827 348.42C29.5423 349.473 31.1275 349.9 32.6421 350.303C50.9662 355.135 68.9957 361.075 86.6051 368.079C85.9548 365.463 83.2087 364.036 80.7415 362.952Z" fill="#0E76A5"/>
</g>
<g opacity="0.2">
<path d="M15.6398 351.63L20.08 349.563C18.422 349.825 16.8515 350.463 15.6398 351.63Z" fill="white"/>
</g>
<g opacity="0.2">
<path d="M60.0909 385.975C51.8933 382.3 44.3448 377.171 37.9247 370.884C36.0152 369.017 34.2996 365.578 36.5009 364.067C37.4809 363.403 38.7817 363.563 39.9459 363.774C47.1727 365.081 54.2524 367.199 61.009 370.076C63.7226 371.229 67.1979 372.388 69.3213 370.347C63.1265 365.236 55.1938 362.896 47.7085 360.016C42.654 358.07 37.7137 355.827 32.9237 353.296C30.1732 351.849 27.4266 350.285 24.3806 349.651C23.1126 349.388 21.7864 349.367 20.4938 349.523C16.1466 353.243 11.8427 357.912 11.931 363.602C11.9958 367.775 14.5305 371.599 17.7944 374.207C21.0611 376.809 25.0028 378.383 28.8968 379.895C41.9399 384.953 55.0972 389.716 68.3529 394.178C69.9097 394.699 72.2255 394.835 72.5964 393.239C69.328 389.641 64.5263 387.96 60.0909 385.975Z" fill="white"/>
</g>
<g opacity="0.2">
<path d="M20.08 349.563C20.2153 349.536 20.3564 349.542 20.4903 349.526C20.6166 349.416 20.7443 349.296 20.8751 349.192L20.08 349.563Z" fill="white"/>
</g>
<path d="M19.3087 353.598C19.4954 353.432 19.7371 353.394 19.9412 353.258C20.4222 352.817 20.909 352.379 21.3712 351.919L19.3087 353.598Z" fill="#DADADA"/>
<g opacity="0.5">
<path d="M27.6551 357.569C29.9838 357.678 32.224 358.452 34.485 359.009C37.1106 359.658 39.8001 360.025 42.5075 360.096C38.4944 357.347 34.153 355.078 29.6133 353.354C26.4676 352.16 22.6595 351.453 19.9451 353.259C18.5867 354.497 17.2139 355.728 16.2569 357.28C14.4574 360.19 14.4278 364.09 16.1692 367.028C17.9135 369.96 21.3578 371.798 24.7627 371.615C23.049 370.171 21.4857 368.461 20.6915 366.367C19.8959 364.276 19.9946 361.744 21.3729 359.98C22.8086 358.137 25.3263 357.46 27.6551 357.569Z" fill="white"/>
</g>
<path d="M190.29 200.139L120.144 174.645L64.7532 327.051L134.9 352.545L190.29 200.139Z" fill="#FFFDBB"/>
<path d="M115.5 163.651L54.0837 332.618L139.534 363.678L200.949 194.714L115.5 163.651ZM134.896 352.625L64.7481 327.126L120.147 174.715L190.296 200.212L134.896 352.625Z" fill="#02254F"/>
<path d="M125.041 176.541L120.163 174.767L64.7364 327.174L69.6144 328.948L125.041 176.541Z" fill="white"/>
<path d="M133.148 179.459L128.27 177.688L72.9373 330.123L77.8161 331.894L133.148 179.459Z" fill="white"/>
<path d="M141.317 182.411L136.433 180.637L81.0712 333.058L85.9557 334.832L141.317 182.411Z" fill="white"/>
<path d="M149.641 185.338L144.762 183.56L89.2333 335.916L94.1128 337.694L149.641 185.338Z" fill="white"/>
<path d="M157.666 188.352L152.781 186.578L97.4199 338.998L102.304 340.772L157.666 188.352Z" fill="white"/>
<path d="M165.835 191.346L160.956 189.575L105.624 342.01L110.503 343.781L165.835 191.346Z" fill="white"/>
<path d="M174.133 194.355L169.258 192.583L113.846 344.996L118.721 346.769L174.133 194.355Z" fill="white"/>
<path d="M182.311 197.302L177.431 195.527L121.989 347.926L126.87 349.701L182.311 197.302Z" fill="white"/>
<path d="M190.319 200.264L185.438 198.492L130.091 350.919L134.972 352.692L190.319 200.264Z" fill="white"/>
<path d="M184.075 250.94L93.0576 217.858L93.1338 228.927L85.9704 237.36L176.986 270.444L176.916 259.379L184.075 250.94Z" fill="#02254F"/>
<path d="M189.037 249.63L90.1026 213.67L90.1972 227.86L81.0137 238.67L179.947 274.633L179.847 260.447L189.037 249.63ZM85.9731 237.36L93.1366 228.927L93.0604 217.858L184.076 250.943L176.917 259.382L176.989 270.445L85.9731 237.36Z" fill="#FFE255"/>
<path d="M126.706 246.491C126.321 247.551 126.243 247.649 125.878 247.655C124.783 247.687 122.841 247.327 121.215 246.736C116.168 244.904 113.476 241.354 115.216 236.571C116.305 233.571 118.572 232.227 120.588 231.879C122.841 231.454 124.818 232.076 126.186 232.572C127.285 232.973 128.281 233.478 129.007 233.885C129.592 234.175 130.143 234.52 130.658 234.729C130.827 234.788 130.831 234.873 130.756 235.025C130.651 235.2 130.22 235.874 129.35 238.271C129.247 238.558 129.147 238.623 129.014 238.572C128.886 238.526 128.868 238.359 128.904 238.208C128.966 237.93 129.036 237.731 129.014 237.231C129.118 235.884 127.831 234.437 125.33 233.53C123.993 233.043 122.775 233.029 121.634 233.656C120.643 234.189 119.729 235.364 119.09 237.124C117.918 240.349 118.22 244.348 121.995 245.721C122.25 245.808 122.739 245.968 123.078 245.871C123.264 245.815 123.393 245.678 123.47 245.465L123.869 244.372C124.138 243.632 124.393 242.925 124.618 242.253C124.992 241.231 124.894 240.769 124.319 240.458C124.098 240.338 123.87 240.232 123.576 240.079C123.436 240.028 123.313 239.905 123.35 239.802C123.387 239.691 123.504 239.651 123.798 239.761C124.966 240.183 126.331 240.741 126.82 240.915C127.467 241.154 128.658 241.522 129.621 241.877C129.893 241.973 130.027 242.065 129.977 242.209C129.933 242.334 129.806 242.329 129.626 242.279C129.55 242.252 129.302 242.208 129.118 242.16C128.655 242.092 128.388 242.218 128.096 242.828C127.854 243.388 127.497 244.317 127.174 245.2L126.706 246.491Z" fill="white"/>
<path d="M133.47 241.41C134.481 238.62 134.677 238.095 134.829 237.505C134.983 236.992 134.899 236.588 134.526 236.377C134.415 236.297 134.243 236.216 134.014 236.113C133.799 236.031 133.698 235.909 133.745 235.785C133.782 235.674 133.896 235.655 134.2 235.766C134.918 236.029 136.662 236.722 136.808 236.776C136.967 236.833 139.106 237.55 139.756 237.79C140.07 237.902 140.128 238.003 140.091 238.114C140.035 238.262 139.861 238.237 139.681 238.173C139.496 238.124 139.39 238.086 139.142 238.035C138.642 237.949 138.374 238.118 138.101 238.755C137.838 239.315 137.67 239.785 136.653 242.573L135.501 245.743C134.986 247.166 134.395 248.842 134.191 249.622C134.063 250.104 134.048 250.467 134.548 250.787C134.76 250.932 135.074 251.066 135.311 251.169C135.615 251.28 135.657 251.377 135.617 251.479C135.584 251.574 135.46 251.628 135.179 251.528C133.948 251.083 132.046 250.33 131.884 250.267C131.794 250.237 129.884 249.602 129.273 249.378C128.983 249.274 128.85 249.186 128.909 249.039C128.952 248.917 129.115 248.915 129.334 248.995C129.523 249.041 129.7 249.09 129.914 249.121C130.314 249.208 130.579 248.854 130.834 248.355C131.174 247.625 131.686 246.341 132.322 244.579L133.47 241.41Z" fill="white"/>
<path d="M143.612 239.861C143.828 239.324 144.011 239.027 144.23 239.107C144.378 239.159 144.445 239.246 144.774 239.794C145.298 240.701 145.912 241.94 148.656 247.212C149.877 249.568 150.683 251.233 151.013 251.835L153.351 245.052C153.685 244.031 153.767 243.533 153.096 243.139C152.864 242.998 152.577 242.874 152.33 242.762C152.098 242.68 152.046 242.553 152.076 242.464C152.121 242.335 152.304 242.344 152.499 242.415C153.221 242.676 154.372 243.154 155.09 243.416C155.483 243.558 156.4 243.833 157.158 244.108C157.432 244.208 157.535 244.306 157.495 244.415C157.462 244.503 157.337 244.581 157.118 244.501C156.875 244.439 156.79 244.407 156.649 244.395C156.033 244.247 155.742 244.491 155.285 245.58C153.822 249.145 152.512 252.748 151.131 256.336C150.797 257.256 150.594 257.404 150.362 257.321C150.073 257.217 149.67 256.578 148.872 255.129C148.047 253.606 146.975 251.608 146.257 250.23C145.584 248.948 144.396 246.605 143.546 244.842L141.497 251.05C141.062 252.355 140.964 252.863 141.395 253.228C141.633 253.421 141.959 253.54 142.305 253.704C142.564 253.819 142.636 253.905 142.599 254.009C142.548 254.156 142.387 254.14 142.101 254.035C141.47 253.808 140.909 253.562 139.797 253.136C139.384 252.985 138.033 252.555 137.33 252.3C137.077 252.207 136.943 252.115 136.997 251.97C137.037 251.867 137.155 251.825 137.406 251.921C137.575 251.965 137.81 252.049 138.016 252.076C138.758 252.225 139.014 251.809 139.674 250.153C141.114 246.497 142.656 242.143 143.612 239.861Z" fill="white"/>
<path d="M167.176 258.205L165.091 256.772L162.725 257.672L163.449 255.242L161.861 253.271L164.389 253.21L165.772 251.089L166.615 253.477L169.06 254.14L167.051 255.677L167.176 258.205Z" fill="white"/>
<path d="M107.419 236.887L105.332 235.449L102.963 236.355L103.686 233.928L102.094 231.956L104.628 231.897L106.011 229.769L106.852 232.16L109.301 232.817L107.291 234.362L107.419 236.887Z" fill="white"/>
<path d="M96.9649 295.677L96.4387 295.014C95.9341 294.364 95.8219 293.939 96.0033 293.435C96.1774 292.947 96.6973 292.507 97.6862 292.869C98.4791 293.154 98.9533 293.778 99.0341 294.281C99.0768 294.579 99.02 294.846 98.9816 294.981C98.9376 295.186 99.0011 295.239 99.0688 295.262C99.1539 295.293 99.2214 295.23 99.2956 295.029C99.6797 293.98 99.7727 293.792 99.9485 293.373C99.9885 293.27 99.9697 293.221 99.86 293.153C99.6825 293.025 99.4906 292.905 99.3189 292.802C98.8169 292.502 98.4722 292.349 97.9302 292.152C96.0201 291.46 94.4729 292.151 93.9831 293.465C93.6047 294.51 93.7026 295.414 94.7584 296.901L95.3065 297.651C96.06 298.69 96.0871 299.113 95.9187 299.576C95.7588 300.028 95.2459 300.417 94.1777 300.027C93.2233 299.676 92.4603 298.766 92.6687 297.715C92.6726 297.599 92.7012 297.512 92.7354 297.4C92.7624 297.273 92.7448 297.207 92.68 297.185C92.6165 297.161 92.536 297.178 92.4257 297.379C92.2597 297.714 92.0795 298.127 91.7183 299.116C91.6426 299.327 91.636 299.514 91.818 299.676C92.2093 300.039 92.7677 300.392 93.6846 300.724C94.303 300.949 95.1461 301.176 95.9895 301.041C97.0776 300.869 97.7768 300.228 98.108 299.321C98.5105 298.177 98.269 297.359 96.9649 295.677Z" fill="#02254F"/>
<path d="M102.301 303.325C101.982 303.12 101.975 302.894 102.052 302.594C102.183 302.084 102.553 300.999 102.87 300.128L103.596 298.134C104.245 296.357 104.345 296.083 104.522 295.732C104.718 295.351 104.863 295.276 105.199 295.324C105.349 295.341 105.363 295.348 105.481 295.378C105.634 295.418 105.734 295.428 105.766 295.332C105.793 295.256 105.79 295.19 105.577 295.113C105.132 294.953 103.625 294.453 103.563 294.434C103.523 294.421 102.273 293.912 101.819 293.748C101.59 293.666 101.528 293.726 101.505 293.786C101.479 293.867 101.523 293.924 101.684 293.997C101.83 294.066 101.96 294.13 102.028 294.189C102.302 294.332 102.308 294.566 102.214 294.886C102.133 295.252 102.023 295.553 101.379 297.329L100.651 299.325C100.24 300.459 99.9357 301.246 99.6937 301.697C99.5536 302.016 99.3613 302.215 99.089 302.177C98.9204 302.14 98.8022 302.103 98.6999 302.078C98.5629 302.028 98.4752 302.067 98.4495 302.14C98.421 302.227 98.4774 302.294 98.6821 302.367C99.0511 302.5 100.429 302.961 100.457 302.971C100.523 302.996 101.864 303.525 102.68 303.822C102.874 303.893 102.953 303.85 102.972 303.798C102.996 303.727 102.973 303.629 102.775 303.557C102.651 303.495 102.451 303.421 102.301 303.325Z" fill="#02254F"/>
<path d="M113.117 306.917C113.96 304.632 114.848 302.312 115.73 300.208C116.035 299.5 116.224 299.379 116.638 299.465C116.729 299.478 116.765 299.492 116.91 299.532C117.089 299.585 117.145 299.516 117.168 299.462C117.189 299.397 117.157 299.324 116.955 299.253C116.481 299.079 115.847 298.901 115.559 298.793C115.034 298.598 114.235 298.259 113.801 298.105C113.68 298.059 113.562 298.065 113.531 298.158C113.512 298.209 113.54 298.291 113.694 298.364C113.873 298.439 114.011 298.507 114.15 298.59C114.629 298.857 114.604 299.19 114.396 299.827L112.998 303.882C112.768 303.447 112.34 302.703 111.453 301.077C110.466 299.264 109.207 297.041 108.802 296.394C108.568 296.026 108.516 296.008 108.451 295.986C108.279 295.919 108.165 296.106 108.016 296.478C107.409 297.985 106.451 300.633 105.522 302.962C105.101 304 104.901 304.228 104.388 304.117C104.247 304.076 104.174 304.05 104.054 304.023C103.887 303.976 103.818 304.014 103.791 304.083C103.761 304.172 103.808 304.236 104.01 304.307C104.41 304.451 105.381 304.761 105.71 304.881C106.534 305.196 106.878 305.352 107.213 305.472C107.418 305.545 107.517 305.54 107.55 305.452C107.576 305.379 107.534 305.318 107.348 305.222C107.114 305.121 106.983 305.059 106.784 304.932C106.461 304.707 106.555 304.365 106.811 303.572L108.041 299.826C108.715 301.12 109.415 302.359 109.841 303.153C110.219 303.869 110.867 305.013 111.427 305.992C112.085 307.098 112.385 307.531 112.59 307.604C112.761 307.664 112.88 307.568 113.117 306.917Z" fill="#02254F"/>
<path d="M121.018 310.666C121.754 310.935 122.599 311.16 123.119 311.148C123.329 311.152 123.461 311.059 123.574 310.875C123.874 310.358 124.388 309.416 124.471 309.191C124.513 309.076 124.502 308.977 124.429 308.948C124.34 308.918 124.277 308.944 124.142 309.158C123.933 309.493 123.654 309.743 123.462 309.848C122.816 310.171 122.23 310.042 121.294 309.704C119.279 308.97 118.642 306.914 119.464 304.648C119.914 303.408 120.622 302.502 121.513 302.207C122.068 302 122.718 302.06 123.333 302.29C124.479 302.704 125.179 303.271 125.427 303.85C125.683 304.437 125.523 304.911 125.456 305.141C125.412 305.309 125.416 305.408 125.507 305.443C125.617 305.483 125.693 305.395 125.771 305.222C125.914 304.904 126.167 304.257 126.322 303.874C126.483 303.504 126.626 303.187 126.665 303.088C126.689 303.024 126.716 302.948 126.592 302.886C126.235 302.759 126.018 302.623 125.502 302.324C125.076 302.095 124.52 301.819 123.861 301.582C122.178 300.966 120.85 300.847 119.507 301.309C117.958 301.83 117.143 303.169 116.861 303.939C116.413 305.176 116.326 306.452 117.144 307.839C118.055 309.322 119.494 310.108 121.018 310.666Z" fill="#02254F"/>
<path d="M132.409 312.178C132.334 312.148 132.258 312.2 132.185 312.318C131.883 312.812 131.653 313.035 131.28 313.048C130.909 313.051 130.44 312.894 130.14 312.788C128.801 312.3 128.725 312.061 129.007 311.248C129.151 310.791 129.369 310.256 129.505 309.874L129.808 309.047C129.83 308.979 129.855 308.959 129.915 308.982C130.284 309.114 131.171 309.45 131.534 309.609C132.137 309.879 132.187 310.134 132.126 310.517C132.113 310.601 132.085 310.68 132.075 310.743C132.038 310.883 132.07 310.956 132.138 310.979C132.213 311.009 132.27 310.987 132.329 310.826C132.371 310.696 132.607 310.098 132.712 309.851C132.88 309.432 133.138 308.956 133.188 308.826C133.208 308.764 133.226 308.676 133.15 308.649C133.089 308.626 133.027 308.657 132.934 308.736C132.71 308.912 132.536 308.894 131.88 308.68C131.414 308.532 130.6 308.232 130.247 308.104C130.169 308.079 130.166 308.049 130.194 307.97L131.071 305.558C131.097 305.485 131.137 305.454 131.202 305.476C131.564 305.608 132.522 305.987 132.941 306.166C133.489 306.423 133.577 306.636 133.545 306.926C133.521 307.104 133.487 307.202 133.455 307.367C133.434 307.475 133.465 307.551 133.535 307.575C133.615 307.604 133.699 307.527 133.728 307.441C134.025 306.74 134.125 306.509 134.247 306.228C134.365 305.974 134.467 305.841 134.543 305.71C134.582 305.647 134.572 305.58 134.504 305.558C134.465 305.542 134.397 305.533 134.305 305.531C134.093 305.501 133.835 305.427 133.61 305.344C133.43 305.28 130.399 304.189 130.185 304.112C129.684 303.935 129.146 303.686 128.438 303.432C128.251 303.361 128.173 303.394 128.149 303.465C128.123 303.524 128.125 303.6 128.292 303.676C128.406 303.729 128.54 303.778 128.631 303.848C128.889 304.001 128.939 304.22 128.856 304.517C128.754 304.904 128.692 305.115 127.998 307.013L127.272 309.007C127.04 309.647 126.802 310.273 126.645 310.705C126.307 311.494 126.109 311.931 125.704 311.856C125.561 311.832 125.467 311.796 125.349 311.766C125.15 311.696 125.09 311.746 125.069 311.803C125.039 311.878 125.068 311.964 125.293 312.047C125.959 312.291 126.542 312.455 127.096 312.658C128.347 313.113 129.166 313.484 130.929 314.125C131.362 314.282 131.463 314.303 131.656 314.043C131.789 313.84 132.246 312.963 132.427 312.46C132.483 312.319 132.504 312.218 132.409 312.178Z" fill="#02254F"/>
<path d="M95.8401 318.868C95.4262 318.645 95.4296 318.348 95.5275 317.897C95.6525 317.348 96.0682 316.257 96.5436 314.95L97.4787 312.37C98.2097 310.36 98.77 309.028 98.8143 308.917C98.86 308.789 98.8756 308.692 98.7689 308.654C98.6824 308.625 98.5197 308.649 98.3744 308.688C97.4851 308.872 95.387 309.312 94.4213 309.469C94.3134 309.491 94.2372 309.543 94.2129 309.607C94.1915 309.672 94.232 309.713 94.2983 309.739C94.3488 309.761 94.4986 309.77 94.6886 309.764C95.017 309.776 95.3453 309.78 95.5889 309.869C95.7633 309.93 95.7223 310.158 95.5882 310.537L94.2789 314.132C93.8077 315.437 93.4492 316.377 93.2134 316.947C93.0076 317.441 92.8154 317.684 92.301 317.568C92.0402 317.507 91.8513 317.446 91.6438 317.386C91.4579 317.348 91.3962 317.4 91.3762 317.462C91.3491 317.538 91.3825 317.609 91.5843 317.68C92.4204 317.987 93.8719 318.467 93.9872 318.509C94.1069 318.551 95.2228 319.004 96.2074 319.359C96.4207 319.436 96.4768 319.403 96.5053 319.324C96.5339 319.237 96.479 319.16 96.3477 319.098C96.2381 319.037 96.0233 318.962 95.8401 318.868Z" fill="#02254F"/>
<path d="M104.866 311.032C102.474 310.166 100.468 311.24 99.8452 312.952C99.2769 314.517 99.8635 316.059 101.599 316.69C102.526 317.031 103.342 316.857 103.821 316.602C103.841 316.598 103.915 316.542 103.934 316.49C103.96 316.423 103.924 316.402 103.862 316.375C103.806 316.358 103.689 316.346 103.565 316.328C103.422 316.318 103.298 316.286 103.072 316.206C102.288 315.917 101.664 314.921 102.309 313.135C102.756 311.909 103.519 311.371 104.309 311.655C105.377 312.044 105.504 313.455 104.721 315.615C103.828 318.073 101.5 319.969 98.8426 320.268C98.6094 320.282 98.5404 320.327 98.5219 320.379C98.4976 320.442 98.5352 320.482 98.6534 320.527C98.7514 320.561 98.8883 320.582 99.0323 320.61C101.712 321.027 105.863 319.991 107.199 316.32C107.909 314.375 107.513 311.993 104.866 311.032Z" fill="#02254F"/>
<path d="M113.733 318.838C112.718 318.471 111.787 318.646 111.325 318.772C111.177 318.817 111.102 318.874 111.075 318.936C111.054 319.001 111.102 319.064 111.24 319.082C111.401 319.097 111.668 319.154 111.943 319.251C112.991 319.631 113.479 320.764 112.847 322.485C112.279 324.065 111.498 324.314 110.818 324.07C109.664 323.649 109.57 322.035 110.274 320.102C111.462 316.831 113.885 315.707 116.356 315.654C116.659 315.65 116.838 315.609 116.871 315.514C116.892 315.463 116.867 315.397 116.748 315.356C116.671 315.329 116.508 315.28 116.363 315.269C112.573 314.715 108.97 316.08 107.821 319.237C106.858 321.886 108.171 323.914 110.412 324.728C112.436 325.466 114.669 324.726 115.453 322.567C115.952 321.197 115.483 319.476 113.733 318.838Z" fill="#02254F"/>
<path d="M119.801 327.577C119.388 327.351 119.394 327.056 119.491 326.608C119.616 326.059 120.026 324.965 120.503 323.656L121.436 321.078C122.17 319.07 122.73 317.738 122.772 317.625C122.819 317.494 122.833 317.4 122.729 317.363C122.638 317.329 122.48 317.358 122.332 317.396C121.444 317.578 119.345 318.02 118.38 318.175C118.271 318.199 118.193 318.247 118.17 318.315C118.149 318.38 118.194 318.42 118.254 318.443C118.309 318.463 118.459 318.472 118.655 318.469C118.976 318.481 119.306 318.483 119.549 318.571C119.725 318.637 119.684 318.865 119.549 319.239L118.241 322.839C117.767 324.142 117.407 325.078 117.177 325.65C116.968 326.143 116.776 326.386 116.26 326.274C116.001 326.21 115.81 326.151 115.603 326.091C115.42 326.055 115.359 326.104 115.332 326.166C115.307 326.239 115.34 326.31 115.537 326.382C116.375 326.687 117.828 327.17 117.945 327.21C118.063 327.254 119.183 327.706 120.163 328.063C120.377 328.14 120.433 328.107 120.463 328.025C120.496 327.944 120.435 327.863 120.305 327.799C120.199 327.746 119.985 327.669 119.801 327.577Z" fill="#02254F"/>
<path d="M166.783 207.18C166.019 206.901 165.177 207.296 164.9 208.057C164.8 208.338 164.817 208.616 164.876 208.879L152.39 212.037L152.65 196.437C153.26 196.445 153.835 196.091 154.058 195.482C154.335 194.721 153.944 193.88 153.178 193.605C152.417 193.328 151.569 193.719 151.293 194.484C151.073 195.087 151.29 195.73 151.76 196.115L141.937 208.242L134.283 197.648C134.449 197.493 134.598 197.308 134.681 197.076C134.963 196.314 134.561 195.471 133.8 195.194C133.042 194.919 132.192 195.313 131.921 196.077C131.641 196.837 132.036 197.684 132.8 197.955C133.056 198.049 133.315 198.041 133.564 197.996L134.558 202.489C136.007 209.045 136.03 215.832 134.626 222.399L148.908 227.591C152.047 221.654 156.422 216.467 161.744 212.375L165.288 209.644C165.425 209.773 165.592 209.871 165.778 209.945C166.541 210.219 167.385 209.829 167.66 209.063C167.934 208.301 167.544 207.457 166.783 207.18Z" fill="#02254F"/>
</svg>
