<svg width="242" height="282" viewBox="0 0 242 282" fill="none" xmlns="http://www.w3.org/2000/svg">
<path fill-rule="evenodd" clip-rule="evenodd" d="M184.538 149.702L154.144 134.573L153.929 139.624L152.13 142.247L147.537 147.112L138.271 150.765L130.16 151.094L115.679 150.476C115.14 150.453 106.823 147.175 102.732 145.538L96.6632 137.519L95.8683 132.425L72.1427 142.884L56.6432 150.32L38.5213 155.957L30.4596 163.036L12.5278 203.77L2.49975 241.129L0.733037 282.552L5.38886 299.957L23.9832 299.063L40.4355 293.017L49.0495 280.902L56.9612 269.431L58.3563 292.095L184.646 297.481L184.948 290.409L184.534 268.461L192.744 281.632L201.055 292.445L211.588 298.63L220.151 295.622L224.744 290.757L229.596 279.83L229.505 258.233L225.933 223.33L218.069 186.22L209.329 169.653L197.679 158.022L184.538 149.702Z" fill="#112A73"/>
<path d="M49.0495 280.902L48.5899 291.678L58.3563 292.095L56.9612 269.431L49.0495 280.902Z" fill="#355ED6"/>
<path d="M95.5171 132.747L100.318 130.928L148.563 130.961L154.13 134.91C154.13 134.91 154.596 138.513 153.886 140.635C152.932 143.481 151.171 144.163 148.912 146.496C146.654 148.828 138.935 151.018 136.208 151.689C131.806 152.064 124.561 152.406 117.348 150.885C112.253 149.81 109.366 148.183 104.709 146.635C100.983 145.396 97.998 140.5 96.6344 138.193L95.5171 132.747Z" fill="#6685DD"/>
<path d="M101.051 113.752L148.579 114.767L148.9 130.975L147.3 144.74L101.499 142.786L100.347 130.254L101.051 113.752Z" fill="#6685DD"/>
<path d="M102.734 113.824L146.515 115.691L140.696 125.565C140.696 125.565 135.412 132.505 130.527 134.578C127.647 135.8 125.821 136.401 122.695 136.268C119.569 136.135 117.663 135.616 115.035 133.917C110.896 131.241 108.408 123.175 108.408 123.175L102.734 113.824Z" fill="#5B76C5"/>
<path d="M92.4254 94.4907C93.1224 99.2438 95.9994 110.365 101.932 116.826C107.864 123.287 115.977 127.659 119.292 129.038C123.193 129.879 132.735 130.286 139.7 125.185C146.665 120.084 153.022 105.51 155.33 98.8606L155.862 86.4L154.257 76.5474L153.167 86.2851L147.857 92.1315C147.296 92.1076 146.117 91.7874 145.894 90.6983C145.671 89.6091 143.222 87.4354 142.025 86.4846L135.29 86.1974L130.224 86.3187L123.08 87.7009L114.281 88.3378L109.186 89.1326L106.771 90.3792L104.958 93.3383L104.126 97.0141L101.432 96.8992L95.865 92.9505L92.6553 89.1024L91.538 83.6566L92.4254 94.4907Z" fill="#222222"/>
<path d="M155.261 68.8304L155.506 63.1052L158.315 60.526L157.025 59.1214L155.721 58.0536L159.425 58.2116L158.516 55.8111L161.547 55.9404L161.69 52.5727L160.723 51.5193L163.754 51.6486L161.863 48.5314L165.302 46.9912L162.637 46.2027L166.85 42.3338L162.938 39.1305L167.238 33.241L162.581 31.6928L163.297 30.7112L166.636 31.5284L164.716 29.0848L164.803 27.0642L161.685 28.9555L158.49 24.7706L158.605 22.0764L161.858 24.9143L161.973 22.2201L160.038 20.1133L156.377 18.9449L155.102 17.2036L158.806 17.3616L156.564 14.5669L153.282 12.4026L149.742 16.3003L147.428 15.1894L145.651 9.37809L140.542 10.5097L142.706 7.22818L138.328 7.04146L136.895 9.00464L135.297 6.91219L133.277 6.82601L134.509 9.57764L131.815 9.46273L130.919 6.72546L126.95 4.86924L120.056 8.28647L119.999 9.63356L117.305 9.51865L115.091 6.05038L112.734 5.94983L112.06 5.92111L112.647 7.97047L114.259 9.72615L109.996 6.84524L108.534 9.48197L107.682 5.73438L98.4312 9.05106L101.082 10.1763L99.9858 12.1538L97.2916 12.0389L95.3284 10.6057L93.2503 11.8666L91.1435 13.801C90.5817 14.3169 90.8424 15.5876 91.043 16.1584L90.9568 18.1791L88.9361 18.0929L87.589 18.0354C86.7808 18.001 85.1646 19.5065 84.4575 20.2636L83.7409 21.2451L82.3795 21.5245L83.5973 24.6129L82.8376 26.6048L77.8291 25.379L76.4389 26.3319L76.3671 28.0157L77.6567 29.4203L76.2665 30.3731L73.8517 31.6197L76.1372 33.4041L73.6937 35.3242L75.1046 41.7947L77.0965 42.5544L74.3305 44.1234L78.5937 47.0043L76.7374 50.9737L73.8853 54.5633L76.5363 55.6885L75.0169 59.6724L76.2347 62.7608L79.6024 62.9044L79.3295 69.3031L81.7875 67.0462L81.6151 71.0875L84.0443 69.5042L85.3196 71.2455L88.6443 72.3994L88.5293 75.0936L90.55 75.1798L90.0503 55.2528L93.7197 48.3242L94.5656 44.3116L99.1016 40.7939L106.905 39.7771L119.918 35.2714L123.242 36.4253L140.081 37.1435L145.061 39.0428L149.18 45.2914L155.261 68.8304Z" fill="#222222"/>
<path d="M155.862 86.4C155.862 86.4 159.091 83.7635 160.455 81.5351C161.956 79.0832 162.62 77.4198 162.777 74.5491C162.894 72.4094 161.997 69.1176 161.997 69.1176L159.038 67.3045L155.261 68.8304L149.18 45.2914L145.061 39.0428L140.081 37.1435L123.242 36.4253L119.918 35.2714L106.905 39.7771L99.1016 40.7939L94.5656 44.3116L93.7197 48.3242L90.0503 55.2528L90.55 75.1798L88.5293 75.0936C88.5293 75.0936 85.356 73.8825 83.8145 74.8925C82.5835 75.6991 82.3832 76.771 81.987 78.1884C81.2221 80.9252 83.3693 85.3325 83.3693 85.3325C83.3693 85.3325 84.9811 92.02 88.4129 93.6448C89.8603 94.3301 92.4254 94.4907 92.4254 94.4907L91.538 83.6566L92.6553 89.1024L95.865 92.9505L101.432 96.8992L104.126 97.0141L104.958 93.3383L106.771 90.3792L109.186 89.1326L114.281 88.3378L123.08 87.7009L130.224 86.3187L135.29 86.1974L142.025 86.4846C143.222 87.4354 145.671 89.6091 145.894 90.6983C146.117 91.7874 147.296 92.1076 147.857 92.1315L153.167 86.2851L154.257 76.5474L155.862 86.4Z" fill="#6685DD"/>
<path d="M117.534 91.1756L108.985 93.8474L108.813 97.8887L111.22 104.739L116.672 111.382L120.348 112.213L123.816 110L128.531 110.201L131.985 108.324L134.901 111.147L136.95 110.56L140.956 103.646L142.484 91.5649L139.524 89.7518L126.29 91.549L117.534 91.1756Z" fill="#6685DD" stroke="black"/>
<path d="M118.424 212.672L115.157 210.171L114.003 213.496L113.808 218.07L116.174 217.974L118.281 216.04L118.424 212.672Z" fill="#6685DD"/>
<path d="M119.759 197.209L114.101 195.386L113.919 199.659L116.95 199.789L119.105 199.881L119.759 197.209Z" fill="#E9EBF8"/>
<path d="M75.6414 195.328L51.4259 233.094L52.5431 238.54L54.6851 243.692L58.8908 247.92L66.5216 250.945L69.2733 249.713L70.1192 245.7L73.6449 242.139L78.1379 239.632L82.7601 234.093L86.8732 232.582L89.7972 227.308L91.4172 220.967L94.3188 224.127L99.2699 226.7L98.4319 222.616L102.81 222.803L99.5787 219.46L102.165 222.1L103.512 222.158L105.21 221.893L106.995 219.607L107.167 215.566L109.102 217.673L112.118 218.139L113.808 218.07L114.003 213.496L115.157 210.171L109.046 203.163L112.414 203.306L116.835 202.483L118.941 200.548L119.105 199.881L116.95 199.789L113.919 199.659L114.101 195.386L110.107 194.099L100.836 189.992L88.6399 191.159L75.6414 195.328Z" fill="#6685DD"/>
<path d="M102.007 225.805L102.81 222.803L98.4319 222.616L99.2699 226.7L102.007 225.805Z" fill="#E9EBF8"/>
<path d="M168.197 200.625L172.575 200.812L174.989 199.565L175.162 195.524L170.454 195.158L169.437 195.28L167.316 197.551L168.197 200.625Z" fill="#E9EBF8"/>
<path d="M168.072 227.273L171.44 227.417L171.598 223.712L168.865 220.559L167.22 223.525L168.072 227.273Z" fill="#E9EBF8"/>
<path d="M194.257 198.7L184.018 193.54L170.454 195.158L175.162 195.524L174.989 199.565L172.575 200.812L178.593 202.08L183.516 205.327L187.22 205.485L191.368 211.06L185.643 210.816L179.581 210.557L178.464 205.111L169.035 204.709L171.914 216.303L170.509 217.593L168.865 220.559L171.598 223.712L171.44 227.417L173.28 239.641L179.585 250.031L186.649 258.43L191.701 258.645L196.588 254.805L202.292 247.626L208.686 224.282L206.501 220.14L206.688 215.762L200.081 212.444L198.728 204.626L194.257 198.7Z" fill="#6685DD"/>
<path d="M51.3223 195.977L49.9722 227.634M37.9761 239.943L16.3206 257.238L15.9471 265.994M206.075 253.86L199.525 265.052L190.769 264.679" stroke="#F2F4F7" stroke-opacity="0.29"/>
<rect x="113.962" y="201.06" width="59.3258" height="33.7079" rx="2" transform="rotate(-2.11284 113.962 201.06)" fill="#E9EBF8"/>
<rect x="120.241" y="206.225" width="47.1564" height="5.39326" rx="2" transform="rotate(-2.11284 120.241 206.225)" fill="#222222"/>
<path d="M90.9607 200.03C90.9607 200.03 99.1942 196.901 103.83 198.892C106.01 199.829 106.963 200.9 108.738 202.475C111.176 204.638 114.204 208.781 114.204 208.781M89.9999 206.737C89.9999 206.737 95.28 206.108 98.4192 207.096C103.758 208.776 108.794 216.985 108.794 216.985M95.9964 216.439L101.535 221.061" stroke="#6A788E" stroke-opacity="0.15" stroke-linecap="round" stroke-linejoin="round"/>
<path d="M174.349 222.48L181.959 218.081L192.062 218.512" stroke="#6A788E" stroke-opacity="0.33"/>
<path d="M193.194 223.621L183.986 225.927L177.357 231.043C177.357 231.043 175.544 235.317 177.099 237.105C178.74 238.992 183.498 237.378 183.498 237.378L189.087 232.893L194.913 230.779M191.788 240.768L189.186 246.392L187.96 251.401" stroke="#6A788E" stroke-opacity="0.33"/>
</svg>
