<svg width="212" height="368" viewBox="0 0 212 368" fill="none" xmlns="http://www.w3.org/2000/svg">
<path fill-rule="evenodd" clip-rule="evenodd" d="M138.216 0C136.883 0 135.802 1.0809 135.802 2.41426V32.5926L122.825 42.8532L138.216 38.0247H209.437C210.77 38.0247 211.851 36.9438 211.851 35.6104V2.41426C211.851 1.0809 210.77 0 209.437 0H138.216Z" fill="#5B76C5"/>
<path d="M141.536 19.3142C141.536 17.9808 142.617 16.8999 143.95 16.8999H204.005C205.339 16.8999 206.42 17.9808 206.42 19.3142V26.557C206.42 27.8903 205.339 28.9712 204.005 28.9712H143.95C142.617 28.9712 141.536 27.8903 141.536 26.557V19.3142Z" fill="#6685DD"/>
<path d="M149.684 21.1248L150.091 22.3759H151.406L150.342 23.1492L150.748 24.4003L149.684 23.6271L148.62 24.4003L149.026 23.1492L147.962 22.3759H149.277L149.684 21.1248Z" fill="white"/>
<path d="M155.719 21.1248L156.126 22.3759H157.441L156.377 23.1492L156.783 24.4003L155.719 23.6271L154.655 24.4003L155.061 23.1492L153.997 22.3759H155.313L155.719 21.1248Z" fill="white"/>
<path d="M161.755 21.1248L162.162 22.3759H163.477L162.413 23.1492L162.82 24.4003L161.755 23.6271L160.691 24.4003L161.098 23.1492L160.033 22.3759H161.349L161.755 21.1248Z" fill="white"/>
<path d="M167.791 21.1248L168.198 22.3759H169.513L168.449 23.1492L168.856 24.4003L167.791 23.6271L166.727 24.4003L167.134 23.1492L166.069 22.3759H167.385L167.791 21.1248Z" fill="white"/>
<path d="M173.827 21.1248L174.233 22.3759H175.549L174.484 23.1492L174.891 24.4003L173.827 23.6271L172.762 24.4003L173.169 23.1492L172.104 22.3759H173.42L173.827 21.1248Z" fill="white"/>
<path d="M179.863 21.1248L180.269 22.3759H181.585L180.52 23.1492L180.927 24.4003L179.863 23.6271L178.798 24.4003L179.205 23.1492L178.141 22.3759H179.456L179.863 21.1248Z" fill="white"/>
<path d="M185.898 21.1248L186.304 22.3759H187.62L186.556 23.1492L186.962 24.4003L185.898 23.6271L184.834 24.4003L185.24 23.1492L184.176 22.3759H185.491L185.898 21.1248Z" fill="white"/>
<path d="M191.934 21.1248L192.341 22.3759H193.656L192.592 23.1492L192.998 24.4003L191.934 23.6271L190.87 24.4003L191.276 23.1492L190.212 22.3759H191.527L191.934 21.1248Z" fill="white"/>
<path d="M197.969 21.1248L198.376 22.3759H199.691L198.627 23.1492L199.033 24.4003L197.969 23.6271L196.905 24.4003L197.311 23.1492L196.247 22.3759H197.563L197.969 21.1248Z" fill="white"/>
<path d="M160.034 10.7459V10.4079C160.034 10.0989 160.092 9.80595 160.208 9.52911C160.33 9.25228 160.542 8.94969 160.845 8.62135C161.083 8.36383 161.251 8.14171 161.347 7.95501C161.444 7.76187 161.492 7.56551 161.492 7.36593C161.492 7.11485 161.399 6.91849 161.212 6.77685C161.025 6.63521 160.771 6.56439 160.449 6.56439C160.198 6.56439 159.953 6.5998 159.715 6.67062C159.477 6.74144 159.252 6.83801 159.039 6.96033V6.0912C159.258 5.97531 159.499 5.8884 159.763 5.83046C160.034 5.76608 160.304 5.73389 160.575 5.73389C160.942 5.73389 161.27 5.79183 161.56 5.90771C161.849 6.01716 162.075 6.18455 162.236 6.40988C162.403 6.63521 162.487 6.91849 162.487 7.2597C162.487 7.46572 162.451 7.6653 162.38 7.85844C162.31 8.05158 162.207 8.2415 162.071 8.42821C161.936 8.61491 161.766 8.80805 161.56 9.00763C161.244 9.31022 161.022 9.57418 160.893 9.79951C160.771 10.0248 160.697 10.2534 160.671 10.4852L160.632 10.7459H160.034ZM159.754 12.629V11.4798H160.913V12.629H159.754Z" fill="white"/>
<path d="M174.95 10.7459V10.4079C174.95 10.0989 175.008 9.80595 175.124 9.52911C175.246 9.25228 175.458 8.94969 175.761 8.62135C175.999 8.36383 176.167 8.14171 176.263 7.95501C176.36 7.76187 176.408 7.56551 176.408 7.36593C176.408 7.11485 176.315 6.91849 176.128 6.77685C175.941 6.63521 175.687 6.56439 175.365 6.56439C175.114 6.56439 174.869 6.5998 174.631 6.67062C174.393 6.74144 174.168 6.83801 173.955 6.96033V6.0912C174.174 5.97531 174.415 5.8884 174.679 5.83046C174.95 5.76608 175.22 5.73389 175.491 5.73389C175.858 5.73389 176.186 5.79183 176.476 5.90771C176.765 6.01716 176.991 6.18455 177.152 6.40988C177.319 6.63521 177.403 6.91849 177.403 7.2597C177.403 7.46572 177.367 7.6653 177.296 7.85844C177.226 8.05158 177.123 8.2415 176.987 8.42821C176.852 8.61491 176.682 8.80805 176.476 9.00763C176.16 9.31022 175.938 9.57418 175.809 9.79951C175.687 10.0248 175.613 10.2534 175.587 10.4852L175.548 10.7459H174.95ZM174.67 12.629V11.4798H175.829V12.629H174.67Z" fill="white"/>
<path d="M189.865 10.7459V10.4079C189.865 10.0989 189.923 9.80595 190.039 9.52911C190.161 9.25228 190.373 8.94969 190.676 8.62135C190.914 8.36383 191.082 8.14171 191.178 7.95501C191.275 7.76187 191.323 7.56551 191.323 7.36593C191.323 7.11485 191.23 6.91849 191.043 6.77685C190.856 6.63521 190.602 6.56439 190.28 6.56439C190.029 6.56439 189.784 6.5998 189.546 6.67062C189.308 6.74144 189.083 6.83801 188.87 6.96033V6.0912C189.089 5.97531 189.33 5.8884 189.594 5.83046C189.865 5.76608 190.135 5.73389 190.406 5.73389C190.773 5.73389 191.101 5.79183 191.391 5.90771C191.68 6.01716 191.906 6.18455 192.067 6.40988C192.234 6.63521 192.318 6.91849 192.318 7.2597C192.318 7.46572 192.282 7.6653 192.211 7.85844C192.141 8.05158 192.038 8.2415 191.902 8.42821C191.767 8.61491 191.597 8.80805 191.391 9.00763C191.075 9.31022 190.853 9.57418 190.724 9.79951C190.602 10.0248 190.528 10.2534 190.502 10.4852L190.464 10.7459H189.865ZM189.585 12.629V11.4798H190.744V12.629H189.585Z" fill="white"/>
<path d="M87.4718 305.187L42.7438 298.759L36.3158 307.062L29.62 322.328L23.192 344.559L20.5137 361.164V378.038L23.192 400H89.6145L90.418 379.645L91.7571 380.448L92.5606 393.036L93.3641 400H159.251L154.966 354.736L143.984 314.294L138.092 296.617L87.4718 305.187Z" fill="#E9EBF8"/>
<path d="M70.8661 134.31H104.077L107.559 151.987L113.184 156.54L128.45 161.629L125.236 177.163L118.005 190.287L106.488 199.929L89.0787 203.679L75.955 201.804L61.492 193.501L52.9214 181.984L47.2969 167.254L57.7423 161.629L67.3843 154.665V151.184L70.8661 134.31Z" fill="#6685DD"/>
<path d="M52.653 78.3331L61.2241 54.496L87.4716 51.282L114.791 60.3883L127.379 97.3492L119.076 120.383L113.451 127.882L100.863 140.202C97.0243 141.988 88.168 145.452 83.4541 145.023C78.7403 144.595 72.5623 139.488 70.0625 136.988C70.0625 136.988 60.3492 129.138 56.1352 122.525C48.1864 110.052 52.653 78.3331 52.653 78.3331Z" fill="#6685DD"/>
<path d="M110.505 155.201C106.006 151.065 105.251 148.035 104.613 142.345V135.917L113.987 127.347L117.469 122.793L118.54 118.776V115.026L119.344 111.009L122.826 109.134L120.147 106.991L119.344 100.831L120.147 95.2067L123.093 92.5284H120.951L118.54 90.3857V83.4221L112.38 81.8151L109.97 78.0654H103.542L101.399 75.3871L101.131 71.3696H99.7921H94.7032L92.5606 69.7626L91.2214 64.9416H85.5969L82.3829 60.1206L79.169 61.192L76.7585 60.1206L75.4193 67.8878L71.6696 71.3696L65.2417 72.4409L63.6347 74.8514L58.278 79.1367L56.9389 81.8151L59.0815 86.1004L54.5284 91.457V94.9389L58.278 98.6885V101.903L54.5284 106.188V109.402L58.278 116.901L56.9389 121.454L65.2417 132.703L71.6696 137.934L68.4558 150.522L67.6523 155.075C63.6148 154.063 62.5637 153.746 61.7598 148.773C61.7598 148.773 55.4187 153.176 50.7787 153.326C43.0952 153.575 34.4409 142.345 34.4409 142.345C34.4409 142.345 21.2106 144.629 19.1745 138.863C17.7097 134.715 22.6563 128.15 22.6563 128.15C22.6563 128.15 12.785 126.377 11.4073 121.454C10.2753 117.409 14.8891 111.277 14.8891 111.277C14.8891 111.277 4.72551 107.019 5.51501 101.903C6.14821 97.7988 13.55 94.9389 13.55 94.9389C13.55 94.9389 1.79636 90.2433 2.83668 84.4934C3.73537 79.5263 13.55 77.2619 13.55 77.2619C13.55 77.2619 7.63621 71.5411 8.19333 67.0843C8.9456 61.0664 21.3171 58.7815 21.3171 58.7815C21.3171 58.7815 18.6154 53.7803 19.1745 50.4787C20.3418 43.5846 35.7801 43.7829 35.7801 43.7829C35.7801 43.7829 34.1089 37.2114 35.7801 33.6052C39.3863 25.8234 57.7424 33.6052 57.7424 33.6052C57.7424 33.6052 60.9093 26.6647 64.9738 25.0346C70.0832 22.9854 78.6333 28.5164 78.6333 28.5164C78.6333 28.5164 88.4855 20.3204 95.5067 21.5528C100.508 22.4306 106.488 28.5164 106.488 28.5164C106.488 28.5164 117.219 26.5839 120.951 30.9269C123.301 33.6624 123.629 39.7654 123.629 39.7654C123.629 39.7654 131.188 39.1437 134.075 42.1759C136.805 45.0437 136.217 52.0857 136.217 52.0857C136.217 52.0857 142.909 51.5091 145.859 53.9605C149.014 56.5819 149.341 63.8703 149.341 63.8703C149.341 63.8703 153.082 63.9648 154.966 65.2094C157.776 67.0662 158.017 69.6816 158.715 72.9766C159.323 75.8416 158.715 80.4759 158.715 80.4759C158.715 80.4759 165.436 84.6679 166.215 89.0465C166.736 91.9755 166.311 93.9403 164.875 96.5459C163.337 99.3379 158.715 101.903 158.715 101.903C158.715 101.903 161.673 106.541 161.126 109.67C160.621 112.556 156.84 115.83 156.84 115.83V118.776C158.535 121.282 158.116 123.028 156.84 126.275C154.882 129.093 153.299 130.173 149.341 130.828C149.341 130.828 150.344 134.917 149.341 136.721L145.859 138.863L139.967 141.006L130.861 142.345C130.414 143.506 128.879 146.095 126.307 147.166C123.736 148.238 121.665 148.684 120.951 148.773C120.683 150.291 119.612 153.701 117.469 155.201C115.326 156.701 111.934 155.826 110.505 155.201Z" fill="#222222"/>
<path d="M34.7084 157.344L30.1553 167.521L45.1539 170.468L47.9929 156.272L46.7609 143.416L43.8147 136.453L42.4756 125.204L43.8147 121.99L45.1539 119.847L49.1714 105.652L51.8497 101.902L54.528 96.0101V92.2604L52.6532 90.1178L40.3329 103.509L31.2266 121.99L33.1014 143.416L34.7084 151.184V157.344Z" fill="#6685DD"/>
<path d="M45.1539 127.346C43.0137 127.084 43.8147 121.99 43.8147 121.99L42.4756 125.204L43.8147 136.453L46.7609 143.416L47.9929 156.272L49.1714 150.38L51.8497 145.023L50.5105 129.757L56.135 118.776C56.135 118.776 56.194 115.041 54.528 114.758C53.3751 114.563 51.8497 116.098 51.8497 116.098L47.5644 126.543C47.5644 126.543 46.1388 127.467 45.1539 127.346Z" fill="#5B76C5"/>
<path d="M45.9574 89.3143L40.3329 103.509L52.6532 90.1178L49.1714 87.4395L45.9574 89.3143Z" fill="#5B76C5"/>
<path fill-rule="evenodd" clip-rule="evenodd" d="M151.215 166.45L145.055 153.594L147.733 121.722L140.237 107.527L125.503 88.6344L124.7 89.3143L122.557 91.7248L128.182 105.384L133.806 119.847C133.806 119.847 135.513 124.09 133.806 125.472C133.035 126.096 131.396 126.275 131.396 126.275L126.842 116.365C126.842 116.365 124.906 114.178 123.628 114.758C122.424 115.306 122.557 117.972 122.557 117.972L128.182 131.096L126.842 145.559L131.396 152.523L134.61 170.2L151.215 166.45Z" fill="#6685DD"/>
<path d="M135.145 97.885L132.199 89.3143L128.182 86.3682L125.503 88.6344L140.237 107.527L135.145 97.885Z" fill="#5B76C5"/>
<path d="M163.804 179.306C163.804 179.306 161.411 172.797 157.912 170.735C155.936 169.571 152.287 169.048 152.287 169.048L169.154 201.268L167.286 192.965L163.804 179.306Z" fill="#0E225C"/>
<path d="M139.699 246.264L144.252 239.033L133.271 163.343L128.45 161.629L124.433 160.432L139.699 229.123V239.033C139.699 239.033 137.773 243.802 135.681 246.264C131.892 250.723 122.558 253.496 122.558 253.496H109.702L99.7919 251.621H89.8821H82.115L62.5632 255.638C62.5632 255.638 52.545 256.445 47.2967 253.496C44.9614 252.183 41.9401 249.21 41.9401 249.21C41.9401 249.21 40.4023 245.857 39.7974 243.586C37.0941 233.434 44.0682 227.718 45.6897 217.338C48.7103 198.003 47.2967 167.254 47.2967 167.254L41.9401 223.231L35.7799 243.586L39.7974 255.638L43.2793 271.708V282.957V299.027L86.936 316.168L138.36 298.759L135.681 282.957L133.271 269.298L135.681 258.049L139.699 246.264Z" fill="#0E225C"/>
<path d="M11.9429 192.965L4.44354 223.231L26.6736 169.664C26.6736 169.664 24.1017 170.953 22.6562 172.075C19.7135 174.358 16.7638 179.574 16.7638 179.574L11.9429 192.965Z" fill="#0E225C"/>
<path d="M180.142 226.712L169.696 203.679L169.154 201.268L152.287 169.048L138.36 164.87L133.271 163.343L144.252 239.033L148.805 250.817L157.912 260.459L167.286 262.334L173.982 258.049L180.142 250.817L181.749 239.033L180.142 226.712Z" fill="#112A73"/>
<path d="M114.523 185.466C106.737 194.904 100.466 201.041 87.4716 201.268C77.1718 201.449 70.4289 199.543 62.5632 192.965C53.5906 185.462 49.7072 165.914 49.7072 165.914L47.2967 167.254C47.2967 167.254 48.7103 198.003 45.6897 217.338C44.0682 227.718 37.0941 233.434 39.7974 243.586C40.4023 245.857 41.9401 249.21 41.9401 249.21C41.9401 249.21 44.9614 252.183 47.2967 253.496C52.545 256.445 62.5632 255.638 62.5632 255.638L82.115 251.621H89.8821H99.7919L109.702 253.496H122.558C122.558 253.496 131.892 250.723 135.681 246.264C137.773 243.802 139.699 239.033 139.699 239.033V229.123L124.433 160.432C124.433 160.432 121.148 177.435 114.523 185.466Z" fill="#112A73"/>
<path d="M150.68 163.343L138.36 164.87L152.287 169.048L150.68 163.343Z" fill="#112A73"/>
<path d="M32.566 253.496L35.7799 243.586L41.9401 223.231L47.2967 167.254L26.6736 169.664L4.44354 223.231C4.44354 223.231 0.834935 230.334 0.158225 235.283C-0.713487 241.659 2.30089 251.621 2.30089 251.621L9.80019 262.87L19.4422 264.477L25.8701 260.995L32.566 253.496Z" fill="#112A73"/>
<path d="M26.6736 169.664L47.2967 167.254L29.352 163.772L26.6736 169.664Z" fill="#112A73"/>
</svg>
