<svg width="200" height="87" viewBox="0 0 200 87" fill="none" xmlns="http://www.w3.org/2000/svg">
<path d="M193.528 45.1513C188.756 44.2811 183.956 43.6986 179.185 43.8344C169.293 44.117 159.914 47.1678 150.531 50.1261C141.978 52.8235 133.905 56.7626 125.258 59.1859C117.393 61.3897 109.019 61.8102 100.897 61.3438C91.5993 60.8097 82.0802 59.7619 72.9533 57.8382C63.7476 55.8975 55.8527 51.9039 47.1366 48.6013C38.7542 45.4244 30.1512 42.7118 21.638 39.8615C13.1582 44.3795 4.25382 50.1549 0.372268 56.9191C0.372268 56.9191 -1.1198 63.8559 1.87035 64.0538C4.86051 64.2516 23.553 60.1076 47.6712 71.296C47.6712 71.296 52.9736 73.2852 64.0307 72.834C75.0904 72.3832 98.7376 78.8133 104.919 80.64C111.104 82.4667 118.767 83.9829 142.661 78.2338C166.553 72.4847 171.532 65.3051 183.48 64.445C195.427 63.5854 203.76 60.6891 198.279 50.7581C198.279 50.7581 196.285 48.4362 193.528 45.1513Z" fill="#FF9927"/>
<path d="M170.101 62.1791C170.79 58.346 173.134 51.7948 176.878 49.639C181.627 46.9028 188.848 45.6267 195.022 46.926C194.555 46.3718 194.061 45.7863 193.528 45.1508C188.756 44.2806 183.956 43.6981 179.185 43.8339C169.293 44.1165 159.914 47.1672 150.532 50.1256C141.979 52.823 133.906 56.7621 125.259 59.1854C117.394 61.3892 109.02 61.8096 100.898 61.3432C91.5997 60.8092 82.0805 59.7613 72.9536 57.8377C63.7479 55.897 55.8531 51.9034 47.137 48.6008C38.7545 45.4238 30.1515 42.7113 21.6383 39.861C13.1585 44.379 4.25415 50.1544 0.372597 56.9186C0.372597 56.9186 -0.252285 59.8426 0.129309 61.949C0.148994 61.953 0.167172 61.9515 0.186858 61.956C3.4299 62.6925 7.11104 60.6573 10.1486 59.8946C13.208 59.1269 16.1093 58.5848 19.2797 58.56C23.7144 58.5262 28.5424 59.1405 32.1983 61.7521C33.9175 62.9807 34.2002 64.7014 33.6439 66.1939C35.9971 66.8229 38.4436 67.5992 40.9638 68.5229C43.9994 64.767 49.8212 68.2907 53.6246 68.7798C58.0361 69.3471 62.0716 69.5041 66.5079 69.331C69.0241 69.2325 71.2283 69.2432 73.6461 69.9927C75.0927 70.4409 75.9397 72.0935 76.1684 73.4609C76.1946 73.6153 76.2208 73.7703 76.2451 73.9242C78.6432 74.3169 81.1245 74.7919 83.5898 75.3052C83.7306 75.01 83.8981 74.7233 84.1096 74.4588C85.9313 72.1793 89.2278 72.253 91.5583 73.6703C93.2946 74.7278 94.8185 76.1992 95.5196 78.0819C99.6727 79.1404 103.077 80.0954 104.92 80.64C106.214 81.0226 107.574 81.3895 109.132 81.6808C112.616 78.6578 116.011 79.4942 120.473 79.3064C125.701 79.0873 130.463 75.01 135.702 73.9348C139.035 73.2494 140.667 76.1598 140.234 78.8052C141.025 78.6225 141.83 78.4337 142.662 78.2338C145.235 77.6145 147.577 76.9785 149.742 76.3354C149.15 74.9827 149.1 73.4503 149.963 71.9123C150.914 70.2178 153.287 70.0114 154.566 68.9433C156.296 67.4997 158.402 66.4095 160.024 68.0479C161.094 69.1276 161.776 70.4384 162.474 71.7629C165.076 70.6554 167.329 69.6015 169.415 68.6516C169.626 66.0576 169.636 64.7715 170.101 62.1791Z" fill="#C9552B"/>
<path d="M154.466 67.0666C160.925 65.0305 165.744 60.8854 171.396 57.3764C179.28 52.4813 187.324 46.0396 197.221 50.5208C197.705 50.7389 198.125 50.9751 198.518 51.2184C198.439 51.0644 198.365 50.9145 198.279 50.758C198.279 50.758 178.635 27.8766 177.233 23.9925C175.832 20.1084 161.262 4.10622 144.561 2.0443C141.368 1.6506 138.813 1.10849 136.951 0.623931C133.748 -0.209417 130.385 -0.233137 127.214 0.709238C122.276 2.17706 115.942 5.2924 114.706 11.7356C114.706 11.7356 99.7452 22.192 93.9456 23.3515C88.146 24.5109 74.66 24.0899 68.3365 23.5488C62.0134 23.0072 45.3616 26.9705 40.0264 30.6144C34.7285 34.2309 8.35915 43.5709 0.555664 56.6268C0.602101 56.6233 0.639958 56.6086 0.688414 56.6071C9.61346 56.171 18.9635 54.9435 27.67 57.6176C37.3865 60.6033 45.2697 65.9269 55.808 66.3464C56.394 66.3696 56.8952 66.4932 57.3283 66.68C64.7371 67.0459 72.2195 66.9091 79.6308 67.0505C86.8291 67.1878 92.3915 69.7297 99.1395 71.883C113.437 76.445 127.865 75.4516 154.466 67.0666Z" fill="#FFC63E"/>
<path opacity="0.55" d="M198.279 50.758C198.279 50.758 178.636 27.8766 177.234 23.9925C175.832 20.1084 161.262 4.10622 144.561 2.0443C141.368 1.6506 138.814 1.10849 136.951 0.623931C133.749 -0.209417 130.385 -0.233137 127.215 0.709238C122.277 2.17706 115.942 5.2924 114.706 11.7356C114.706 11.7356 114.643 11.7795 114.586 11.8184C119.793 15.4692 126.914 19.2337 134.831 22.3006C143.344 25.5991 152.963 31.5058 157.894 36.8708C162.895 42.312 169.522 56.4068 170.082 58.2219C170.518 57.9382 170.952 57.653 171.397 57.3764C179.281 52.4813 187.325 46.0396 197.222 50.5208C197.706 50.7389 198.126 50.9751 198.519 51.2184C198.439 51.0644 198.366 50.9145 198.279 50.758Z" fill="#F28C2A"/>
<path d="M198.52 51.2179C198.127 50.9741 197.705 50.7389 197.221 50.5214C187.669 46.1956 179.845 52.0397 172.225 56.8535C171.652 51.7343 170.048 46.7821 167.412 42.2914C163.692 35.9572 158.037 32.3563 152.325 27.9776C146.804 23.7462 140.823 20.8262 134.432 18.1218C130.468 16.4429 126.377 15.1094 122.361 13.5759C119.762 12.5851 117.62 11.0032 115.388 9.48946C117.49 4.5459 122.888 1.99539 127.215 0.707767C127.652 0.578046 128.093 0.465982 128.537 0.373612C131.31 -0.210893 134.19 -0.096309 136.952 0.624479C138.813 1.10803 141.368 1.65014 144.563 2.04385C161.263 4.10678 175.833 20.108 177.235 23.9925C178.327 27.02 190.508 41.5953 195.822 47.8724C197.327 49.6476 198.281 50.7591 198.281 50.7591C198.366 50.9146 198.439 51.064 198.52 51.2179Z" fill="#FFA433"/>
<path d="M177.364 37.8565C173.775 36.0944 170.146 34.5696 167.542 31.3775C163.487 26.4047 160.48 20.9508 155.096 17.148C149.87 13.4568 143.728 13.3745 137.66 12.3377C130.118 11.0486 124.986 8.19571 120.576 3.66101C118.379 5.08593 116.456 6.97724 115.389 9.4899C117.62 11.0026 119.764 12.5845 122.362 13.5759C126.379 15.1098 130.468 16.4439 134.431 18.1212C140.823 20.8257 146.804 23.7457 152.326 27.977C158.038 32.3573 163.693 35.9587 167.412 42.2913C170.049 46.7826 171.654 51.7357 172.227 56.8544C175.869 54.5553 179.558 52.031 183.457 50.4819C181.963 45.9104 181.692 39.9805 177.364 37.8565Z" fill="#C9552B"/>
<path d="M177.644 62.6935C179.099 63.5193 181.44 62.8757 183.062 62.7536C184.884 62.6163 186.644 62.3882 188.423 62.0167C190.457 61.5952 195.345 60.5675 195.883 58.0336C196.536 54.9642 191.744 54.2127 189.772 53.9012C186.669 53.4121 183.871 53.664 180.893 54.7608C178.68 55.576 175.313 57.3129 174.925 59.8518C174.51 62.6092 178.718 63.0257 180.805 62.7405L177.644 62.6935Z" fill="#C9552B"/>
<path d="M195.822 47.8719C195.154 47.771 194.473 47.6695 193.776 47.5489C189.444 46.7953 187.728 45.0665 186.087 41.1668C184.74 37.9636 183.301 36.0254 180.324 34.2062C177.635 32.5628 174.511 31.4094 172.301 29.0386C170.056 26.6329 168.555 23.5812 166.485 20.9776C164.292 18.2182 161.346 15.8473 158.415 13.8854C151.989 9.58133 144.87 8.94836 137.703 6.9031C134.419 5.96477 129.796 3.89326 128.537 0.373612C131.31 -0.210893 134.19 -0.096309 136.952 0.624479C138.813 1.10803 141.368 1.65014 144.563 2.04385C161.263 4.10678 175.834 20.108 177.235 23.9925C178.327 27.0195 190.507 41.5948 195.822 47.8719Z" fill="#FFC63E"/>
<path d="M166.662 69.3304C164.217 69.9018 160.071 71.9668 159.742 67.3533C159.57 64.9719 165.344 58.7846 156.775 58.4575C149.648 58.185 151.812 64.7412 145.9 64.7346C143.497 64.7326 140.624 61.7092 138.322 63.7307C136.07 65.7038 139.689 67.2614 137.083 69.0826C132.441 72.3297 127.26 65.462 122.256 69.7438C120.016 71.6573 119.404 72.4902 119.208 75.5924C119.024 78.4927 119.657 80.8701 115.583 80.536C107.733 79.8924 116.499 72.4225 116.239 69.0013C115.987 65.6487 113.137 66.4135 110.639 66.0354C108.017 65.6381 106.529 63.8629 104.057 63.0604C95.754 60.367 103.475 70.2405 96.815 68.3421C93.526 67.4038 91.9552 57.2315 87.5633 62.0741C85.5706 64.2667 87.0535 66.2176 82.9585 66.365C80.6033 66.4483 77.9074 65.1455 75.7809 63.9679C73.832 62.8888 72.0528 61.0434 70.0312 60.1777C66.5136 58.6685 66.5444 59.9536 65.8216 62.7393C63.9474 69.9477 59.1492 63.9805 56.9213 60.0874C52.9403 53.1182 49.2379 58.8174 43.7411 58.1254C40.2417 57.6863 35.6278 47.3272 35.1573 54.8142C34.5158 65.0461 31.7346 66.5906 28.913 63.0685C27.4522 61.2448 30.5716 51.9139 28.8297 49.9696C25.2879 46.0194 18.8331 49.0843 14.8233 50.6288C13.3954 51.178 4.12811 54.3241 2.54824 53.1839C0.654403 51.815 6.24152 48.2822 7.49179 47.252C8.17523 46.6897 8.83846 46.1537 9.48656 45.6459C13.5337 46.9729 20.7002 42.416 24.6287 42.4558C30.2572 42.5129 32.6633 47.7285 38.1227 46.2632C41.2406 45.4263 42.6337 44.4814 45.7183 45.8523C48.0729 46.8982 50.0859 48.8884 52.2457 50.2992C56.5255 53.0935 61.3046 51.8766 65.2437 54.7481C67.5307 56.4158 67.6645 57.4308 70.7646 57.4657C74.1132 57.503 74.9324 57.3562 77.7666 59.362C79.7836 60.79 81.5497 62.5849 83.9448 61.3457C85.9597 60.3064 86.3792 57.3117 88.8812 56.8176C92.0582 56.1892 92.6512 60.0495 95.4879 60.1091C97.4873 60.151 99.3968 57.345 101.411 56.8817C105.23 56.0029 104.922 58.3955 107.346 59.7729C109.819 61.1792 111.733 59.0855 114.346 60.6891C116.47 61.9943 116.363 64.3384 118.21 65.6235C121.145 67.6602 122.879 65.3005 125.475 64.7907C128.083 64.2788 129.454 65.8496 132.058 66.043C136.4 66.3615 135.808 64.5555 135.602 61.4139C135.404 58.404 135.997 57.2068 139.638 57.1361C142.02 57.0922 144.419 59.4257 146.574 58.8013C148.797 58.1552 149.32 54.3302 150.594 52.9264C152.8 50.5006 154.51 52.0694 157.359 51.1316C158.877 50.6329 159.844 49.3871 160.558 47.8537C161.213 49.3457 161.808 50.8857 162.377 52.507C163.686 56.225 167.21 65.5428 166.662 69.3304Z" fill="#C9552B"/>
<path d="M114.468 13.7369V14.0297C114.531 13.9091 114.537 13.8081 114.468 13.7369Z" fill="#FFF067"/>
<path d="M166.866 68.7701C164.421 69.3415 160.275 71.4065 159.946 66.7925C159.775 64.4111 165.548 58.2243 156.979 57.8967C149.852 57.6241 152.016 64.1804 146.104 64.1738C143.7 64.1718 140.829 61.1483 138.526 63.1699C136.274 65.143 139.893 66.7006 137.287 68.5218C132.645 71.7689 127.464 64.9012 122.459 69.183C120.22 71.0965 119.607 71.9294 119.412 75.0316C119.228 77.9319 119.86 80.3088 115.787 79.9752C107.936 79.3316 116.703 71.8617 116.443 68.4405C116.191 65.088 113.341 65.8526 110.843 65.4746C108.336 65.0945 106.623 63.2663 104.261 62.4996C95.9581 59.8062 103.678 69.6797 97.0191 67.7813C93.7301 66.843 92.1593 56.6707 87.767 61.5133C85.7742 63.7059 87.2572 65.6568 83.1621 65.8042C80.8069 65.888 78.111 64.5847 75.9845 63.4071C74.0356 62.3285 72.2564 60.4831 70.2348 59.6174C66.7172 58.1077 66.748 59.3933 66.0252 62.1791C64.151 69.3879 59.3529 63.4208 57.1254 59.5271C53.1444 52.558 49.442 58.2571 43.9453 57.5651C40.4453 57.1255 35.8319 46.7664 35.3614 54.2539C34.7199 64.4858 31.9382 66.0303 29.1171 62.5082C27.6564 60.685 30.7758 51.3536 29.0339 49.4093C25.492 45.4591 19.0372 48.524 15.0274 50.0685C13.5995 50.6177 4.33222 53.7638 2.75234 52.6236C0.858504 51.2547 6.44562 47.7219 7.6959 46.6917C8.37933 46.1294 9.04259 45.5929 9.69069 45.0856C14.3682 41.4165 18.2306 39.127 22.1965 38.123C25.1912 37.3649 26.8892 36.5739 28.4978 35.6427C29.8516 34.8608 31.1387 33.9795 33.0809 32.9337C37.4249 30.5982 40.1753 30.1126 44.6045 27.2476C49.3436 24.1827 54.056 23.6225 60.0933 23.6225C62.8306 23.6225 65.7067 23.8486 68.3324 23.2929C70.8724 22.7543 72.9883 21.2279 75.5827 20.9791C79.0433 20.6474 82.5473 21.4823 86.023 21.871C87.6029 22.0466 89.1782 22.1324 90.74 21.9744C93.7675 21.6691 95.1712 21.2779 97.4214 19.1009C99.2668 17.3146 99.9108 15.8886 102.951 16.0269C105.397 16.137 107.892 12.472 110.514 11.4286C115.387 9.48836 114.075 14.7878 114.468 14.0301V14.0655C116.799 19.2175 124.234 20.2502 129.709 22.8825C139.244 27.4657 149.245 29.3812 155.742 38.4506C157.847 41.3923 159.427 44.2442 160.762 47.2939C161.417 48.7854 162.013 50.3259 162.581 51.9472C163.889 55.6647 167.413 64.9825 166.866 68.7701Z" fill="#FFF067"/>
<path d="M166.866 68.7702C164.775 71.2768 160.275 71.4066 159.946 66.7926C159.775 64.4112 165.548 58.2244 156.979 57.8968C149.852 57.6243 152.016 64.1805 146.104 64.174C143.7 64.1719 140.829 61.1485 138.526 63.17C136.274 65.1431 139.893 66.7008 137.287 68.5219C132.645 71.769 127.464 64.9013 122.459 69.1831C120.22 71.0966 119.607 71.9295 119.412 75.0317C119.228 77.932 119.86 80.3089 115.787 79.9753C107.936 79.3317 116.703 71.8619 116.443 68.4406C116.191 65.0881 113.341 65.8527 110.843 65.4747C108.336 65.0946 106.623 63.2664 104.261 62.4997C95.9581 59.8063 103.678 69.6798 97.0191 67.7814C93.7301 66.8431 92.1593 56.6708 87.767 61.5134C85.7742 63.706 87.2572 65.6569 83.1621 65.8043C80.8069 65.8881 78.111 64.5848 75.9845 63.4072C74.0356 62.3286 72.2564 60.4832 70.2348 59.6175C66.7172 58.1078 66.748 59.3934 66.0252 62.1792C64.151 69.388 59.3529 63.4209 57.1254 59.5272C53.1444 52.5581 49.442 58.2572 43.9453 57.5652C40.4453 57.1256 35.8319 46.7665 35.3614 54.254C34.7199 64.4859 31.9382 66.0304 29.1171 62.5083C27.6564 60.6851 30.7758 51.3537 29.0339 49.4094C25.492 45.4592 19.0372 48.5241 15.0274 50.0686C13.5995 50.6178 4.33222 53.7639 2.75234 52.6237C0.858504 51.2548 6.44562 47.722 7.6959 46.6918C8.37933 46.1295 9.04259 45.593 9.69069 45.0857C13.7378 46.4127 20.9043 41.8563 24.8328 41.8956C30.4618 41.9527 32.8674 47.1688 38.3268 45.703C41.4447 44.8656 42.8378 43.9212 45.9224 45.2921C48.2771 46.338 50.29 48.3282 52.4499 49.739C56.7297 52.5333 61.5082 51.3164 65.4478 54.1879C67.7348 55.8556 67.8686 56.8707 70.9687 56.9055C74.3173 56.9428 75.1365 56.7955 77.9707 58.8014C79.9877 60.2293 81.7543 62.0242 84.1489 60.7855C86.1638 59.7462 86.5833 56.7515 89.0854 56.2574C92.2623 55.629 92.8554 59.4893 95.6921 59.5489C97.6909 59.5908 99.6009 56.7849 101.615 56.3215C105.434 55.4427 105.126 57.8352 107.55 59.2127C110.024 60.619 111.937 58.5252 114.55 60.1288C116.674 61.4341 116.566 63.7782 118.415 65.0633C121.35 67.1 123.083 64.7403 125.68 64.2305C128.288 63.7187 129.659 65.2895 132.262 65.4828C136.604 65.8013 136.013 63.9953 135.806 60.8537C135.608 57.8438 136.202 56.6465 139.842 56.5759C142.224 56.532 144.623 58.8649 146.779 58.2411C149.002 57.595 149.525 53.77 150.799 52.3663C153.005 49.9409 154.715 51.5092 157.564 50.5713C159.083 50.0726 160.049 48.8269 160.763 47.2935C161.418 48.785 162.014 50.3255 162.583 51.9468C163.889 55.6648 169.498 65.235 166.866 68.7702Z" fill="#F3DA41"/>
<path d="M86.0233 21.8716C84.8174 23.4777 80.1157 24.0597 78.5555 24.2904C73.7634 24.9975 69.9585 27.7136 65.0367 27.9069C63.3125 27.9751 58.3336 27.0807 57.5224 29.291C56.6043 31.7981 61.5499 32.4633 56.7976 34.1684C52.2124 35.8094 46.5879 32.7667 41.6378 33.5026C37.4852 34.1199 32.7839 36.3237 28.4971 35.6428C29.8508 34.8609 31.1379 33.9796 33.0802 32.9338C37.4241 30.5983 40.1746 30.1127 44.6038 27.2477C49.3429 24.1829 54.0553 23.6226 60.0926 23.6226C62.8299 23.6226 65.706 23.8487 68.3317 23.293C70.8716 22.7544 72.9876 21.228 75.582 20.9792C79.0431 20.6481 82.5476 21.4829 86.0233 21.8716Z" fill="#F3DA41"/>
<path d="M140.502 29.886C138.37 28.2163 132.275 26.8262 129.956 27.9079H129.297C128.618 26.6369 124.839 26.3674 123.109 25.9212C120.603 25.2751 119.309 24.2974 117.087 23.0305C115.096 21.8953 113.547 21.2805 111.172 21.3168C106.859 21.383 108.982 22.0704 107.875 24.6109C104.502 32.3573 86.5583 22.7847 81.1523 31.5325C83.0376 34.8518 88.71 33.6444 91.7294 33.1982C95.9143 32.5804 99.1786 32.4032 103.263 33.7656C106.768 34.9351 110.031 36.6598 113.808 36.8047C119.861 37.0374 116.737 34.1759 114.189 31.6148C117.217 29.405 121.316 32.1741 124.355 32.9226C128.757 34.0063 130.988 32.2826 134.9 31.8632C136.991 31.639 146.184 34.3364 140.502 29.886Z" fill="#F3DA41"/>
<path d="M151.697 40.824C150.332 39.1937 146.078 39.4178 144.126 39.4415C141.363 39.4748 138.919 40.6545 136.217 41.0159C133.434 41.3879 130.665 40.5994 127.979 40.7594C122.185 41.1047 122.019 47.3248 116.115 47.0941C114.34 47.0249 109.177 45.5208 109.518 49.0056C109.74 51.2734 114.253 51.6994 115.456 51.3047L114.798 51.964C115.909 52.3844 118.704 53.1935 120.012 54.3438C121.317 55.4906 121.574 57.3093 123.356 58.3077C130.031 62.0479 127.682 54.7981 131.265 52.2118C136.302 48.5755 138.17 53.4277 142.808 53.6912C147.214 53.9416 146.46 48.0243 148.732 45.6207C150.341 43.9182 153.951 43.5184 151.697 40.824Z" fill="#F3DA41"/>
<path d="M93.0558 40.3481C87.3203 38.1696 82.1834 43.3938 76.2354 41.0891C70.2723 38.7783 67.9438 37.3847 62.812 42.4156C61.0222 44.1701 59.3857 45.7656 56.7984 46.2875C54.7208 46.707 50.4985 45.6879 49.4522 48.2671C47.7143 52.5505 58.5963 52.2583 59.7643 55.5891L60.0939 55.9187C66.3998 55.9288 57.6746 48.4877 65.6962 48.9985C67.9252 49.1404 70.134 51.1463 72.2867 50.9025C76.1542 50.4643 73.1559 48.996 74.3386 46.766C75.9856 43.6623 86.2078 45.0438 89.3484 45.0438C90.9389 45.0438 94.9416 45.7797 95.9299 44.3008C97.2559 42.3171 94.6584 40.9568 93.0558 40.3481Z" fill="#F3DA41"/>
<path d="M165.764 64.7302C165.25 67.1263 164.36 67.5649 162.028 67.3226L161.919 67.4327C162.235 71.3486 169.212 67.5624 165.764 64.7302Z" fill="#FFF067"/>
<path d="M117.648 74.8368C117.135 77.2329 116.244 77.6715 113.913 77.4292L113.803 77.5392C114.12 81.4551 121.096 77.6685 117.648 74.8368Z" fill="#FFF067"/>
<path d="M32.9746 62.9448C30.9596 61.5502 30.8966 60.5599 32.0156 58.5005L31.9561 58.3571C28.2189 57.1452 29.0355 65.0411 32.9746 62.9448Z" fill="#FFF067"/>
<path d="M110.191 21.859C110.239 21.8039 110.285 21.7474 110.329 21.6899C110.348 21.6646 110.367 21.6394 110.385 21.6137C110.426 21.5551 110.464 21.495 110.499 21.434C110.517 21.4037 110.534 21.3729 110.55 21.3416C110.581 21.282 110.61 21.222 110.637 21.1609C110.653 21.1225 110.669 21.0837 110.683 21.0443C110.699 21.0029 110.713 20.961 110.727 20.9186C110.781 20.749 110.82 20.5739 110.843 20.3942C110.845 20.376 110.848 20.3588 110.849 20.3402C111.095 18.1238 109.042 15.2618 106.241 14.5703C102.052 13.5366 100.275 15.6212 99.998 17.1017C99.7219 18.5826 96.9443 20.7667 96.0201 18.7961C95.4744 17.6342 96.1448 17.1259 96.7873 16.9038C96.5809 17.2193 96.431 17.7215 97.3501 17.9305C98.7397 18.2459 100.166 15.912 97.8872 14.5289C95.6637 13.1777 88.6542 14.1246 87.4489 18.0562C87.4196 18.148 87.3918 18.2414 87.3701 18.3373C86.4237 22.5061 89.0081 26.4007 94.6567 27.9009C100.305 29.401 105.016 27.7247 105.305 25.2862C105.319 25.1727 105.329 25.0621 105.338 24.9546C105.395 24.3035 105.385 23.7326 105.299 23.246C106.182 23.3025 107.255 23.2268 108.607 22.815C108.728 22.7781 108.842 22.7362 108.953 22.6923C108.983 22.6807 109.012 22.6681 109.041 22.656C109.131 22.6176 109.218 22.5772 109.301 22.5348C109.319 22.5257 109.338 22.5172 109.355 22.5076C109.452 22.4561 109.542 22.4011 109.629 22.3435C109.651 22.3294 109.671 22.3143 109.692 22.2991C109.759 22.2522 109.824 22.2037 109.885 22.1527C109.904 22.1361 109.926 22.1199 109.945 22.1028C110.018 22.0392 110.087 21.9735 110.15 21.9054C110.164 21.8908 110.176 21.8741 110.191 21.859ZM94.8889 15.6106C94.2312 15.6636 93.5286 15.8282 92.8568 16.0821C92.8502 16.0846 92.8437 16.0871 92.8371 16.0896C92.7735 16.1139 92.7099 16.1386 92.6468 16.1643C92.6322 16.1704 92.6181 16.1764 92.6034 16.1825C92.5484 16.2052 92.4934 16.2289 92.4388 16.2527C92.4166 16.2623 92.3954 16.2723 92.3732 16.2824C92.3263 16.3036 92.2799 16.3248 92.2329 16.347C92.2042 16.3607 92.1759 16.3753 92.1471 16.3889C92.1082 16.4081 92.0694 16.4273 92.031 16.447C91.9962 16.4652 91.9619 16.4838 91.927 16.502C91.8957 16.5192 91.8639 16.5358 91.8326 16.553C91.8084 16.5661 91.7852 16.5792 91.762 16.5929C92.6286 15.9205 93.8375 15.5864 94.8889 15.6106ZM102.76 23.6756C102.55 23.5812 102.326 23.4918 102.118 23.4136C102.103 23.408 102.089 23.4025 102.075 23.3969C102.073 23.3964 102.071 23.3954 102.069 23.3949C102.063 23.3924 102.057 23.3904 102.051 23.3884C101.633 23.2334 101.295 23.1284 101.295 23.1284C101.822 22.7261 102.346 22.7342 102.995 22.8543C103.073 23.1476 102.998 23.4363 102.76 23.6756Z" fill="#C9552B"/>
<path d="M97.7435 15.9336C97.7435 15.9336 95.1693 16.0244 96.095 17.996C97.0197 19.9666 99.7974 17.7825 100.073 16.3015C100.35 14.8206 102.128 12.7365 106.316 13.7702C110.503 14.8034 113.028 20.6904 108.682 22.0154C104.334 23.3403 102.863 21.1891 101.371 22.3288C101.371 22.3288 103.84 23.0955 103.704 23.5538C103.431 24.471 100.07 25.2937 97.0344 24.266C95.6155 23.786 93.539 23.1061 91.155 21.1941C85.7814 16.886 96.3969 12.7143 97.7435 15.9336Z" fill="#FCE4C9"/>
<path d="M102.193 22.6136C102.17 22.605 102.148 22.5964 102.127 22.5883C99.8185 23.613 96.5715 22.9623 95.036 21.1356C94.3157 20.2796 94.3667 19.0793 94.7256 18.099C95.2117 16.765 96.4105 16.1118 97.7087 15.8716C96.2469 12.7744 85.8172 16.9154 91.155 21.1937C93.5389 23.1057 95.6155 23.7856 97.0343 24.2656C99.5657 25.1222 102.315 24.6916 103.32 23.9941C102.851 23.6412 102.476 23.1658 102.193 22.6136Z" fill="#E79D5F"/>
<path d="M109.473 15.7439C109.453 15.7489 109.438 15.758 109.417 15.7626C109.706 16.6393 109.471 17.9032 108.839 18.5251C107.506 19.8369 106.246 19.9414 104.469 19.6517C101.437 19.158 101.338 21.1079 100.04 22.9745C100.965 22.8281 101.371 22.3279 101.371 22.3279C102.863 21.1882 104.334 23.3394 108.682 22.0144C111.732 21.0852 111.391 17.9133 109.473 15.7439Z" fill="#EC9F54"/>
<path d="M97.0866 15.8297C97.0866 15.8297 96.0363 16.815 97.4243 17.1304C98.8144 17.4459 100.239 15.1119 97.9614 13.7289C95.6854 12.3459 88.3923 13.369 87.4443 17.5373C86.4979 21.706 89.0823 25.6007 94.7304 27.1008C100.379 28.601 105.09 26.9247 105.379 24.4857C105.668 22.0472 105.091 20.6445 103.302 20.4255C103.302 20.4255 102.196 20.8055 102.838 21.6106C103.478 22.4152 102.984 23.3818 100.99 23.451C98.9956 23.5196 92.9224 23.9335 91.0049 19.4927C89.0888 15.0529 96.0928 13.6254 97.0866 15.8297Z" fill="#FCE4C9"/>
<path d="M98.2127 25.745C94.8485 25.318 91.7842 24.7673 89.5587 21.9866C88.2029 20.2932 86.8982 18.574 87.7386 16.715C87.6159 16.9754 87.5124 17.247 87.4453 17.5372C86.4989 21.706 89.0832 25.6007 94.7314 27.1008C100.38 28.6009 105.09 26.9246 105.38 24.4857C105.43 24.0662 105.444 23.6891 105.44 23.3318C104.317 25.5522 100.961 26.0938 98.2127 25.745Z" fill="#EC9F54"/>
<path d="M73.3938 24.9929L73.4589 24.9783C73.1248 24.9995 73.2217 24.9985 73.3938 24.9929Z" fill="#E91717"/>
<path d="M75.2086 25.4684C77.7717 24.0036 72.2219 24.736 71.8399 24.736C67.1431 24.732 59.536 23.4181 52.0666 27.3723C49.8341 28.5545 49.3879 30.5578 51.3721 33.2325C52.7587 35.1021 57.5341 35.83 59.6258 35.8517C65.0721 35.9087 70.9126 34.7786 75.7492 32.5577C81.5094 29.9118 80.7301 22.3132 75.2086 25.4684Z" fill="#E91717"/>
<path d="M73.1006 23.0885L73.1662 23.0739C72.8315 23.0956 72.929 23.0946 73.1006 23.0885Z" fill="#FF3030"/>
<path d="M74.8427 23.1981C74.8846 23.2092 71.9292 22.8322 71.5471 22.8317C66.8504 22.8276 60.5617 22.3925 53.0918 26.3473C50.8588 27.5294 49.0957 28.6535 51.0789 31.3282C52.4654 33.1978 57.2409 33.9256 59.3326 33.9473C64.7784 34.0044 70.6189 32.8742 75.4554 30.6533C81.2167 28.0074 80.9941 24.8093 74.8427 23.1981Z" fill="#FF3030"/>
<path d="M76.8336 27.5187C76.7124 26.3083 75.3052 25.3866 72.6512 24.7789L72.524 24.7496H72.5149C71.8845 24.6164 71.4196 24.522 71.0678 24.4538L71.0652 24.4382C71.0471 24.4392 71.0319 24.4417 71.0143 24.4432C70.1764 24.2817 70.034 24.2812 69.9386 24.2812C69.6418 24.2812 69.337 24.2787 69.0235 24.2762C68.6677 24.2736 68.3007 24.2711 67.9232 24.2711C64.3525 24.2711 60.4296 24.5573 55.9423 26.6349C54.9833 27.0786 53.6704 27.6863 53.3817 28.7993C53.1995 29.5009 53.4494 30.2408 54.1454 31.0611C55.5093 32.6692 59.625 33.0659 60.9586 33.0786C61.058 33.0796 61.1579 33.0796 61.2569 33.0796H61.2574C65.4408 33.0796 69.6833 32.3012 73.2044 30.8874C75.7342 29.8719 76.9557 28.7382 76.8336 27.5187ZM72.4104 29.3787C69.1033 30.7067 64.9073 31.4568 60.9783 31.4179C59.2661 31.4028 56.3477 30.8703 55.6708 30.0723C55.3437 29.6871 55.1847 29.357 55.2337 29.1672C55.3296 28.7983 56.3058 28.346 56.8302 28.1037C60.9515 26.1958 64.5968 25.9333 67.9222 25.9333C68.2942 25.9333 68.6556 25.9358 69.0059 25.9383C69.3128 25.9408 69.6121 25.9429 69.9023 25.9434C69.9316 25.9469 71.5897 26.2639 72.1389 26.38C72.1505 26.3825 72.1626 26.385 72.1747 26.3875C74.3896 26.8953 74.9221 27.4808 74.9402 27.6636C74.9599 27.8503 74.542 28.5232 72.4104 29.3787Z" fill="#E91717"/>
<path d="M57.5591 32.3891L64.1502 27.8851L60.9642 32.2795L66.8966 31.7304L64.9189 27.7756L68.9837 30.9616L72.9385 29.3136L65.1385 27.446H75.9039L73.2676 26.1281L65.0285 26.8968L68.4729 24.7163L63.8201 25.6885L64.3698 26.8968L61.1838 26.4572L63.2709 27.6656C63.2709 27.6656 56.6799 27.336 56.3503 27.5555C56.0207 27.7751 62.9413 28.2148 62.9413 28.2148L57.5591 32.3891Z" fill="#E91717"/>
<path d="M58.5839 29.0572C58.5839 29.3 58.2558 29.4968 57.8515 29.4968C57.4467 29.4968 57.1191 29.3 57.1191 29.0572C57.1191 28.8144 57.4467 28.6176 57.8515 28.6176C58.2563 28.6176 58.5839 28.8144 58.5839 29.0572Z" fill="#FF7F70"/>
<path d="M61.5869 28.764C61.5869 29.0067 61.2593 29.2031 60.855 29.2031C60.4502 29.2031 60.1221 29.0062 60.1221 28.764C60.1221 28.5212 60.4502 28.3248 60.855 28.3248C61.2593 28.3248 61.5869 28.5212 61.5869 28.764Z" fill="#FF7F70"/>
<path d="M72.7187 28.032C72.7187 28.2748 72.3906 28.4717 71.9863 28.4717C71.5815 28.4717 71.2539 28.2748 71.2539 28.032C71.2539 27.7893 71.582 27.5929 71.9863 27.5929C72.3911 27.5924 72.7187 27.7893 72.7187 28.032Z" fill="#FF7F70"/>
<path d="M67.1523 29.5695C67.1523 29.8123 66.8247 30.0092 66.4199 30.0092C66.0151 30.0092 65.6875 29.8123 65.6875 29.5695C65.6875 29.3267 66.0156 29.1299 66.4199 29.1299C66.8242 29.1304 67.1523 29.3272 67.1523 29.5695Z" fill="#FF7F70"/>
<path d="M65.6513 28.2148C65.6513 28.4576 65.3232 28.6539 64.9189 28.6539C64.5146 28.6539 64.1865 28.4571 64.1865 28.2148C64.1865 27.972 64.5146 27.7751 64.9189 27.7751C65.3237 27.7751 65.6513 27.972 65.6513 28.2148Z" fill="#FF7F70"/>
<path d="M67.7768 26.2008C67.7768 26.3891 67.5224 26.5415 67.209 26.5415C66.895 26.5415 66.6406 26.3891 66.6406 26.2008C66.6406 26.0125 66.895 25.8601 67.209 25.8601C67.5224 25.8601 67.7768 26.0125 67.7768 26.2008Z" fill="#FF7F70"/>
<path d="M54.0001 42.093L54.0652 42.0784C53.731 42.1001 53.8285 42.0986 54.0001 42.093Z" fill="#E91717"/>
<path d="M55.8151 42.5685C58.3782 41.1037 52.8285 41.8366 52.4464 41.8361C47.7497 41.8321 40.143 40.5177 32.6732 44.4725C30.4407 45.6546 29.9945 47.658 31.9781 50.3326C33.3647 52.2023 38.1402 52.9301 40.2319 52.9518C45.6781 53.0088 51.5186 51.8787 56.3552 49.6578C62.1159 47.0119 61.3366 39.4138 55.8151 42.5685Z" fill="#E91717"/>
<path d="M53.7073 40.1886L53.7724 40.174C53.4382 40.1957 53.5352 40.1946 53.7073 40.1886Z" fill="#FF3030"/>
<path d="M55.4492 40.2981C55.4911 40.3092 52.5358 39.9321 52.1537 39.9316C47.457 39.9276 41.1683 39.4925 33.6984 43.4472C31.4659 44.6294 29.7018 45.7535 31.6854 48.4281C33.072 50.2978 37.8475 51.0256 39.9392 51.0473C45.3855 51.1044 51.226 49.9742 56.062 47.7533C61.8232 45.1074 61.6012 41.9093 55.4492 40.2981Z" fill="#FF3030"/>
<path d="M57.4403 44.6188C57.3191 43.4084 55.9124 42.4867 53.2579 41.879L53.1307 41.8497H53.1216C52.4912 41.7165 52.0263 41.6221 51.6745 41.5539L51.6719 41.5388C51.6538 41.5398 51.6381 41.5423 51.6205 41.5439C50.7831 41.3823 50.6402 41.3818 50.5448 41.3813C50.2485 41.3813 49.9432 41.3788 49.6297 41.3763C49.2739 41.3737 48.9069 41.3712 48.5299 41.3712C44.9592 41.3712 41.0363 41.6574 36.5485 43.7345C35.59 44.1782 34.2766 44.7859 33.9879 45.8994C33.8062 46.601 34.0561 47.3409 34.7516 48.1612C36.116 49.7693 40.2312 50.1661 41.5648 50.1787C41.6642 50.1797 41.7636 50.1802 41.8631 50.1802C46.0465 50.1802 50.2894 49.4018 53.8106 47.988C56.3409 46.972 57.5624 45.8383 57.4403 44.6188ZM53.0176 46.4788C49.7105 47.8068 45.5144 48.5569 41.5849 48.518C39.8728 48.5029 36.9543 47.9704 36.277 47.1724C35.9504 46.7872 35.7909 46.4571 35.8404 46.2673C35.9363 45.8984 36.9125 45.4461 37.4369 45.2033C41.5582 43.2954 45.2035 43.0329 48.5293 43.0329C48.9008 43.0329 49.2628 43.0354 49.6131 43.0379C49.9199 43.0399 50.2193 43.0425 50.5095 43.043C50.5388 43.0465 52.1974 43.3635 52.746 43.4796C52.7582 43.4821 52.7703 43.4846 52.7824 43.4872C54.9968 43.9949 55.5298 44.5805 55.5479 44.7632C55.5671 44.9504 55.1487 45.6233 53.0176 46.4788Z" fill="#E91717"/>
<path d="M38.1661 49.4892L44.7572 44.9853L41.5716 49.3792L47.5035 48.83L45.5264 44.8753L49.5907 48.0607L53.5454 46.4127L45.746 44.5451H56.5113L53.875 43.2272L45.6359 43.996L49.0804 41.8154L44.4275 42.7876L44.9767 43.996L41.7912 43.5563L43.8784 44.7647C43.8784 44.7647 37.2873 44.4351 36.9577 44.6547C36.6281 44.8742 43.5488 45.3139 43.5488 45.3139L38.1661 49.4892Z" fill="#E91717"/>
<path d="M39.1909 46.1573C39.1909 46.4001 38.8633 46.5964 38.459 46.5964C38.0541 46.5964 37.7266 46.3996 37.7266 46.1573C37.7266 45.9145 38.0546 45.7177 38.459 45.7177C38.8633 45.7177 39.1909 45.9145 39.1909 46.1573Z" fill="#FF7F70"/>
<path d="M42.1933 45.8646C42.1933 46.1074 41.8652 46.3037 41.4609 46.3037C41.0561 46.3037 40.7285 46.1069 40.7285 45.8646C40.7285 45.6218 41.0561 45.4249 41.4609 45.4249C41.8657 45.4249 42.1933 45.6218 42.1933 45.8646Z" fill="#FF7F70"/>
<path d="M53.3251 45.1321C53.3251 45.3749 52.9971 45.5718 52.5927 45.5718C52.1879 45.5718 51.8604 45.3749 51.8604 45.1321C51.8604 44.8893 52.1879 44.693 52.5927 44.693C52.9971 44.6925 53.3251 44.8893 53.3251 45.1321Z" fill="#FF7F70"/>
<path d="M47.7597 46.6701C47.7597 46.9129 47.4317 47.1098 47.0273 47.1098C46.6225 47.1098 46.2949 46.9129 46.2949 46.6701C46.2949 46.4273 46.623 46.2305 47.0273 46.2305C47.4317 46.2305 47.7597 46.4273 47.7597 46.6701Z" fill="#FF7F70"/>
<path d="M46.2578 45.3149C46.2578 45.5577 45.9302 45.7545 45.5259 45.7545C45.1211 45.7545 44.793 45.5577 44.793 45.3149C44.793 45.0721 45.1211 44.8757 45.5259 44.8757C45.9297 44.8757 46.2578 45.0721 46.2578 45.3149Z" fill="#FF7F70"/>
<path d="M48.3828 43.3009C48.3828 43.4892 48.1284 43.6416 47.8145 43.6416C47.5005 43.6416 47.2461 43.4892 47.2461 43.3009C47.2461 43.1126 47.5005 42.9602 47.8145 42.9602C48.1284 42.9602 48.3828 43.1131 48.3828 43.3009Z" fill="#FF7F70"/>
<path d="M134.891 29.8653L134.958 29.8663C134.629 29.8002 134.723 29.8254 134.891 29.8653Z" fill="#E91717"/>
<path d="M136.485 30.9006C139.423 29.9244 133.846 29.2551 133.478 29.1511C128.959 27.8726 122.059 24.3106 113.598 26.7965C111.069 27.5395 109.996 29.7044 111.045 33.2942C111.779 35.8033 116.141 37.9288 118.148 38.5209C123.371 40.0629 129.356 40.3577 134.725 39.1352C141.121 37.679 142.813 28.7983 136.485 30.9006Z" fill="#E91717"/>
<path d="M135.221 27.6137L135.288 27.6147C134.96 27.5485 135.053 27.5733 135.221 27.6137Z" fill="#FF3030"/>
<path d="M136.862 28.2112C136.899 28.235 134.176 27.0034 133.808 26.8994C129.289 25.6208 123.376 23.4186 114.914 25.905C112.386 26.648 110.326 27.4526 111.376 31.0424C112.109 33.5515 116.472 35.677 118.478 36.2696C123.701 37.8116 129.686 38.1064 135.055 36.8839C141.451 35.4267 142.266 31.7178 136.862 28.2112Z" fill="#FF3030"/>
<path d="M137.39 33.6803C137.663 32.267 136.605 30.8335 134.245 29.4202L134.132 29.3525L134.123 29.35C133.56 29.027 133.143 28.7932 132.826 28.6201L132.828 28.602C132.81 28.5979 132.794 28.5969 132.777 28.5934C132.023 28.182 131.886 28.1426 131.794 28.1169C131.509 28.0361 131.215 27.9508 130.915 27.863C130.573 27.7635 130.221 27.6611 129.858 27.5586C126.42 26.59 122.553 25.8526 117.565 27.0059C116.499 27.2522 115.041 27.5894 114.405 28.7811C114.004 29.5327 114.007 30.4443 114.413 31.5689C115.209 33.7737 119.042 35.3424 120.322 35.7185C120.418 35.7462 120.513 35.774 120.609 35.8007H120.61C124.636 36.9354 128.97 37.1974 132.813 36.5402C135.575 36.0673 137.115 35.1052 137.39 33.6803ZM132.535 34.6035C128.925 35.2218 124.645 34.9391 120.876 33.8292C119.233 33.3471 116.594 31.9485 116.2 30.8541C116.009 30.3257 115.962 29.9062 116.07 29.7028C116.281 29.3076 117.366 29.0567 117.949 28.9225C122.529 27.8635 126.122 28.5525 129.323 29.454C129.681 29.5549 130.028 29.6554 130.364 29.7538C130.659 29.8396 130.946 29.9234 131.226 30.0026C131.252 30.0143 132.747 30.8259 133.238 31.1075C133.248 31.1136 133.259 31.1197 133.27 31.1262C135.238 32.3063 135.563 33.119 135.522 33.3325C135.48 33.5505 134.861 34.2047 132.535 34.6035Z" fill="#E91717"/>
<path d="M117.271 34.0099L125.063 30.6588L120.584 34.8084L126.471 35.7906L125.838 30.7426L128.726 35.4797L133.063 34.6721L126.156 30.4261L136.518 33.3456L134.404 31.1267L126.227 29.7694L130.243 28.2158L125.452 28.0629L125.592 29.5908L122.667 28.2254L124.288 30.1702C124.288 30.1702 118.05 28.0068 117.662 28.1679C117.274 28.3294 123.794 30.7073 123.794 30.7073L117.271 34.0099Z" fill="#E91717"/>
<path d="M119.329 30.4862C119.251 30.7628 118.872 30.8986 118.483 30.789C118.093 30.6795 117.842 30.3661 117.919 30.089C117.998 29.8124 118.376 29.6766 118.766 29.7861C119.155 29.8961 119.407 30.2096 119.329 30.4862Z" fill="#FF7F70"/>
<path d="M122.314 30.9662C122.236 31.2428 121.857 31.3786 121.468 31.2691C121.078 31.1596 120.826 30.8461 120.904 30.569C120.981 30.2919 121.361 30.1566 121.75 30.2661C122.139 30.3762 122.392 30.6896 122.314 30.9662Z" fill="#FF7F70"/>
<path d="M133.264 33.1497C133.186 33.4268 132.807 33.5621 132.418 33.4526C132.029 33.343 131.776 33.0296 131.854 32.7525C131.932 32.4754 132.311 32.3401 132.7 32.4496C133.09 32.5597 133.342 32.8731 133.264 33.1497Z" fill="#FF7F70"/>
<path d="M127.412 33.3951C127.334 33.6722 126.955 33.8074 126.566 33.6979C126.177 33.5884 125.925 33.2749 126.002 32.9983C126.081 32.7212 126.459 32.5859 126.849 32.6955C127.238 32.805 127.49 33.1185 127.412 33.3951Z" fill="#FF7F70"/>
<path d="M126.403 31.4416C126.324 31.7187 125.946 31.854 125.557 31.7445C125.167 31.635 124.915 31.3215 124.993 31.0444C125.07 30.7678 125.45 30.632 125.839 30.7415C126.228 30.8516 126.481 31.165 126.403 31.4416Z" fill="#FF7F70"/>
<path d="M129.096 29.7205C129.035 29.935 128.741 30.0406 128.439 29.9553C128.138 29.8699 127.942 29.6272 128.002 29.4121C128.062 29.1976 128.357 29.0921 128.658 29.1774C128.96 29.2627 129.156 29.506 129.096 29.7205Z" fill="#FF7F70"/>
<path d="M147.07 52.7842H147.137C146.807 52.7267 146.901 52.7489 147.07 52.7842Z" fill="#E91717"/>
<path d="M148.703 53.7371C151.585 52.763 146.001 52.2244 145.63 52.132C141.072 50.9988 134.042 47.7437 125.727 50.2417C123.242 50.9883 122.271 53.0562 123.477 56.4376C124.32 58.8008 128.76 60.7391 130.785 61.2655C136.056 62.6359 142.029 62.8131 147.32 61.5638C153.625 60.0758 154.911 51.6384 148.703 53.7371Z" fill="#E91717"/>
<path d="M147.297 50.646H147.364C147.034 50.589 147.129 50.6112 147.297 50.646Z" fill="#FF3030"/>
<path d="M148.959 51.1841C148.996 51.2058 146.229 50.0863 145.858 49.9944C141.301 48.8607 135.313 46.8771 126.999 49.3751C124.514 50.1221 122.5 50.9186 123.706 54.3C124.55 56.6632 128.99 58.6015 131.014 59.1274C136.285 60.4984 142.258 60.675 147.55 59.4258C153.853 57.9377 154.496 54.412 148.959 51.1841Z" fill="#FF3030"/>
<path d="M149.729 56.3539C149.938 55.0107 148.819 53.6716 146.407 52.3739L146.291 52.3118L146.282 52.3098C145.706 52.0135 145.28 51.7995 144.957 51.641L144.958 51.6238C144.94 51.6203 144.925 51.6198 144.908 51.6172C144.138 51.2407 143.999 51.2053 143.907 51.1826C143.619 51.111 143.324 51.0353 143.02 50.957C142.675 50.8687 142.32 50.7778 141.953 50.687C138.487 49.8284 134.603 49.1964 129.688 50.3735C128.637 50.6249 127.2 50.9691 126.62 52.1084C126.255 52.8266 126.299 53.6898 126.754 54.7477C127.645 56.8218 131.533 58.2416 132.825 58.5758C132.921 58.6005 133.018 58.6252 133.114 58.649C137.175 59.6549 141.502 59.8291 145.301 59.1406C148.03 58.6444 149.52 57.7071 149.729 56.3539ZM144.936 57.3099C141.369 57.9569 137.094 57.7626 133.291 56.7758C131.633 56.3473 128.943 55.0682 128.501 54.0385C128.287 53.5414 128.221 53.1451 128.32 52.9508C128.512 52.5733 129.582 52.3173 130.156 52.1795C134.669 51.0989 138.279 51.6894 141.507 52.4889C141.868 52.5783 142.218 52.6676 142.557 52.755C142.855 52.8312 143.144 52.9054 143.426 52.9755C143.453 52.9866 144.978 53.7291 145.479 53.9876C145.49 53.9931 145.501 53.9987 145.512 54.0047C147.526 55.0884 147.885 55.8521 147.854 56.055C147.821 56.2635 147.234 56.8934 144.936 57.3099Z" fill="#E91717"/>
<path d="M129.71 57.009L137.319 53.7029L133.045 57.7081L138.95 58.5374L138.094 53.768L141.183 58.2042L145.465 57.3658L138.396 53.4636L148.846 56.0515L146.641 53.9865L138.437 52.8412L142.367 51.3017L137.59 51.2386L137.798 52.6828L134.824 51.4395L136.525 53.2531C136.525 53.2531 130.216 51.3113 129.836 51.4703C129.457 51.6298 136.057 53.7705 136.057 53.7705L129.71 57.009Z" fill="#E91717"/>
<path d="M131.601 53.6372C131.535 53.9007 131.165 54.0355 130.772 53.9381C130.379 53.8406 130.114 53.5484 130.179 53.2849C130.244 53.0214 130.615 52.8867 131.008 52.9841C131.401 53.0815 131.666 53.3737 131.601 53.6372Z" fill="#FF7F70"/>
<path d="M134.595 54.041C134.53 54.3045 134.159 54.4393 133.766 54.3419C133.373 54.2444 133.108 53.9522 133.173 53.6887C133.239 53.4252 133.61 53.2905 134.002 53.3874C134.394 53.4853 134.66 53.7775 134.595 54.041Z" fill="#FF7F70"/>
<path d="M145.597 55.9218C145.532 56.1852 145.16 56.32 144.768 56.2226C144.375 56.1252 144.11 55.8329 144.175 55.5694C144.24 55.306 144.612 55.1712 145.004 55.2681C145.397 55.366 145.662 55.6583 145.597 55.9218Z" fill="#FF7F70"/>
<path d="M139.78 56.2534C139.715 56.5169 139.344 56.6517 138.951 56.5543C138.558 56.4569 138.293 56.1646 138.359 55.9011C138.424 55.6376 138.795 55.5029 139.187 55.6003C139.581 55.6977 139.846 55.9905 139.78 56.2534Z" fill="#FF7F70"/>
<path d="M138.688 54.4216C138.622 54.6851 138.251 54.8199 137.858 54.723C137.466 54.6255 137.201 54.3333 137.266 54.0698C137.331 53.8063 137.702 53.6716 138.095 53.7685C138.487 53.8654 138.753 54.1582 138.688 54.4216Z" fill="#FF7F70"/>
<path d="M141.292 52.7459C141.242 52.9498 140.953 53.0548 140.649 52.9795C140.344 52.9043 140.139 52.6772 140.189 52.4733C140.24 52.2689 140.528 52.1644 140.832 52.2396C141.136 52.3148 141.343 52.5414 141.292 52.7459Z" fill="#FF7F70"/>
<path d="M92.9962 44.9444H93.0633C92.7332 44.8873 92.8281 44.9095 92.9962 44.9444Z" fill="#E91717"/>
<path d="M94.6312 45.8978C97.5134 44.9237 91.9293 44.3851 91.5583 44.2927C87.0004 43.159 79.9702 39.9039 71.6559 42.4024C69.171 43.1489 68.1993 45.2169 69.4062 48.5982C70.2491 50.9615 74.6889 52.8998 76.7135 53.4257C81.9841 54.7966 87.9579 54.9733 93.2492 53.724C99.5531 52.236 100.839 43.7986 94.6312 45.8978Z" fill="#E91717"/>
<path d="M93.2249 42.8068H93.292C92.9619 42.7492 93.0563 42.7719 93.2249 42.8068Z" fill="#FF3030"/>
<path d="M94.8863 43.3443C94.9237 43.366 92.1571 42.2464 91.7861 42.1546C87.2287 41.0209 81.2408 39.0372 72.927 41.5352C70.4416 42.2823 68.4276 43.0793 69.634 46.4601C70.4774 48.8234 74.9173 50.7616 76.9413 51.2881C82.2125 52.659 88.1857 52.8357 93.4776 51.5864C99.7809 50.0984 100.424 46.5722 94.8863 43.3443Z" fill="#FF3030"/>
<path d="M95.6572 48.514C95.8656 47.1708 94.7471 45.8322 92.3344 44.534L92.2188 44.4719L92.2097 44.4699C91.6338 44.1736 91.2078 43.9596 90.8842 43.8011L90.8863 43.7834C90.8681 43.7799 90.8524 43.7794 90.8353 43.7769C90.0655 43.4003 89.9272 43.365 89.8343 43.3423C89.5466 43.2706 89.2514 43.1949 88.9475 43.1167C88.6028 43.0283 88.2474 42.9375 87.8809 42.8466C84.4148 41.9886 80.5302 41.3561 75.6154 42.5332C74.565 42.7845 73.1275 43.1288 72.548 44.2675C72.1831 44.9858 72.2265 45.8489 72.6813 46.9069C73.5732 48.9809 77.4608 50.4008 78.753 50.7349C78.8489 50.7597 78.9458 50.7844 79.0417 50.8081C83.1025 51.8141 87.4302 51.9882 91.2285 51.2997C93.9572 50.8046 95.4477 49.8677 95.6572 48.514ZM90.864 49.4705C87.2965 50.1176 83.0222 49.9233 79.2184 48.9365C77.5608 48.508 74.8709 47.2289 74.4283 46.1992C74.2148 45.702 74.1486 45.3058 74.2475 45.1115C74.4399 44.7339 75.5094 44.478 76.0838 44.3402C80.5968 43.2595 84.2063 43.8501 87.4348 44.6496C87.7957 44.7389 88.1459 44.8283 88.4851 44.9156C88.7829 44.9918 89.0727 45.066 89.3538 45.1362C89.3811 45.1473 90.9054 45.8898 91.4072 46.1482C91.4178 46.1538 91.4289 46.1593 91.44 46.1654C93.4534 47.2491 93.8133 48.0128 93.7815 48.2157C93.7487 48.4236 93.1622 49.0536 90.864 49.4705Z" fill="#E91717"/>
<path d="M75.6377 49.1691L83.2464 45.863L78.9726 49.8682L84.8782 50.6975L84.0222 45.9286L87.1108 50.3644L91.3926 49.526L84.324 45.6237L94.7739 48.2116L92.5697 46.1467L84.3654 45.0014L88.2954 43.4619L83.5179 43.3988L83.7259 44.8429L80.7519 43.6002L82.4529 45.4138C82.4529 45.4138 76.144 43.472 75.7644 43.631C75.3853 43.7905 81.985 45.9311 81.985 45.9311L75.6377 49.1691Z" fill="#E91717"/>
<path d="M77.5294 45.7979C77.4643 46.0614 77.0933 46.1961 76.7006 46.0987C76.3079 46.0013 76.0424 45.709 76.1075 45.4456C76.1726 45.1821 76.5436 45.0473 76.9363 45.1447C77.3295 45.2421 77.595 45.5344 77.5294 45.7979Z" fill="#FF7F70"/>
<path d="M80.5225 46.2017C80.4574 46.4652 80.0864 46.5999 79.6937 46.5025C79.301 46.4051 79.0355 46.1128 79.1006 45.8494C79.1663 45.5859 79.5373 45.4511 79.93 45.5485C80.3227 45.6454 80.5882 45.9382 80.5225 46.2017Z" fill="#FF7F70"/>
<path d="M91.5245 48.0819C91.4593 48.3454 91.0879 48.4802 90.6957 48.3828C90.303 48.2853 90.0375 47.9931 90.1026 47.7296C90.1682 47.4661 90.5392 47.3314 90.9319 47.4283C91.3246 47.5262 91.5891 47.8185 91.5245 48.0819Z" fill="#FF7F70"/>
<path d="M85.7082 48.4141C85.6431 48.6776 85.2716 48.8123 84.8789 48.7149C84.4862 48.6175 84.2207 48.3253 84.2863 48.0618C84.3514 47.7983 84.7229 47.6635 85.1156 47.7609C85.5083 47.8583 85.7733 48.1506 85.7082 48.4141Z" fill="#FF7F70"/>
<path d="M84.6163 46.5818C84.5507 46.8453 84.1797 46.98 83.787 46.8831C83.3943 46.7857 83.1293 46.4935 83.1944 46.23C83.26 45.9665 83.631 45.8317 84.0237 45.9291C84.4159 46.0261 84.6814 46.3183 84.6163 46.5818Z" fill="#FF7F70"/>
<path d="M87.2189 44.906C87.1684 45.1104 86.8802 45.2149 86.5759 45.1397C86.271 45.064 86.0655 44.8374 86.116 44.6335C86.1665 44.429 86.4547 44.3246 86.7591 44.3998C87.0634 44.475 87.2694 44.7016 87.2189 44.906Z" fill="#FF7F70"/>
<path d="M104.323 40.0433C104.394 40.1195 104.47 40.1922 104.551 40.2629C104.573 40.2815 104.595 40.2997 104.618 40.3184C104.686 40.3744 104.757 40.4284 104.831 40.4809C104.854 40.4971 104.877 40.5142 104.901 40.5304C104.997 40.594 105.098 40.6551 105.205 40.7126C105.224 40.7232 105.246 40.7328 105.265 40.7429C105.357 40.7903 105.454 40.8348 105.553 40.8777C105.586 40.8913 105.619 40.9054 105.652 40.918C105.775 40.9665 105.902 41.0129 106.037 41.0543C107.538 41.5116 108.73 41.5959 109.71 41.5328C109.615 42.0734 109.603 42.7074 109.667 43.4302C109.677 43.5498 109.688 43.672 109.704 43.7987C110.025 46.5077 115.256 48.3692 121.53 46.7025C127.804 45.0368 130.674 40.7111 129.623 36.081C129.598 35.9745 129.568 35.8715 129.536 35.769C128.197 31.4029 120.412 30.3505 117.942 31.8512C115.412 33.3871 116.995 35.979 118.539 35.6292C119.56 35.3971 119.393 34.8393 119.164 34.489C119.877 34.7353 120.622 35.3001 120.016 36.5908C118.99 38.7794 115.905 36.3536 115.598 34.7086C115.29 33.0636 113.316 30.7493 108.664 31.8971C105.553 32.6648 103.273 35.8433 103.546 38.3049C103.548 38.3251 103.55 38.3448 103.553 38.3645C103.578 38.5644 103.621 38.7587 103.682 38.947C103.697 38.9939 103.713 39.0404 103.73 39.0868C103.747 39.1302 103.763 39.1736 103.782 39.2165C103.811 39.2847 103.843 39.3513 103.878 39.4174C103.896 39.4517 103.916 39.4861 103.935 39.5199C103.974 39.588 104.016 39.6547 104.061 39.7198C104.081 39.7485 104.102 39.7768 104.123 39.8046C104.171 39.8687 104.222 39.9312 104.276 39.9923C104.293 40.0085 104.307 40.0261 104.323 40.0433ZM124.744 34.1422C124.718 34.1271 124.692 34.1125 124.665 34.0978C124.631 34.0786 124.596 34.0605 124.561 34.0413C124.522 34.0211 124.484 34.0004 124.445 33.9802C124.403 33.9585 124.359 33.9373 124.316 33.9156C124.284 33.8999 124.253 33.8843 124.22 33.8687C124.169 33.8444 124.117 33.8202 124.065 33.797C124.041 33.7859 124.016 33.7748 123.992 33.7642C123.932 33.7374 123.871 33.7117 123.809 33.6859C123.793 33.6794 123.778 33.6728 123.761 33.6657C123.691 33.637 123.621 33.6097 123.55 33.5825C123.542 33.5799 123.535 33.5769 123.528 33.5744C122.782 33.2927 122.002 33.1095 121.271 33.051C122.44 33.0247 123.783 33.3957 124.744 34.1422ZM112.269 41.0972C112.99 40.9635 113.572 40.9549 114.157 41.4016C114.157 41.4016 113.782 41.5182 113.317 41.6903C113.311 41.6923 113.304 41.6948 113.298 41.6974C113.296 41.6979 113.293 41.6989 113.291 41.6999C113.275 41.706 113.26 41.712 113.243 41.7181C113.012 41.8049 112.764 41.9043 112.531 42.0093C112.265 41.7433 112.182 41.4228 112.269 41.0972Z" fill="#C9552B"/>
<path d="M118.101 33.4098C118.101 33.4098 120.96 33.5107 119.932 35.7003C118.906 37.889 115.821 35.4631 115.514 33.8186C115.206 32.1736 113.232 29.8588 108.58 31.0071C103.93 32.155 101.125 38.693 105.953 40.1644C110.781 41.6357 112.415 39.2462 114.072 40.5122C114.072 40.5122 111.33 41.3637 111.481 41.873C111.784 42.8916 115.517 43.8052 118.888 42.6639C120.464 42.1304 122.77 41.3758 125.418 39.2518C131.387 34.4677 119.597 29.8346 118.101 33.4098Z" fill="#FCE4C9"/>
<path d="M113.159 40.8291C113.185 40.8195 113.209 40.8099 113.233 40.8013C115.797 41.939 119.404 41.2167 121.108 39.1881C121.908 38.2372 121.852 36.9041 121.453 35.8154C120.914 34.3339 119.582 33.6081 118.14 33.3416C119.763 29.9017 131.347 34.5005 125.419 39.2527C122.771 41.3767 120.464 42.1313 118.888 42.6649C116.077 43.6163 113.024 43.1383 111.908 42.363C112.428 41.9703 112.845 41.4424 113.159 40.8291Z" fill="#E79D5F"/>
<path d="M105.074 33.1992C105.096 33.2048 105.114 33.2149 105.136 33.2199C104.815 34.1941 105.076 35.5978 105.779 36.2883C107.259 37.7455 108.658 37.8611 110.632 37.5396C114 36.9914 114.109 39.1573 115.552 41.2298C114.524 41.0673 114.073 40.5116 114.073 40.5116C112.416 39.2457 110.782 41.6351 105.954 40.1638C102.566 39.1316 102.944 35.6089 105.074 33.1992Z" fill="#EC9F54"/>
<path d="M118.831 33.2947C118.831 33.2947 119.997 34.389 118.456 34.7393C116.912 35.0896 115.329 32.4977 117.859 30.9612C120.387 29.4247 128.487 30.5614 129.54 35.191C130.591 39.8211 127.721 44.1469 121.447 45.8126C115.174 47.4788 109.942 45.6172 109.621 42.9082C109.299 40.1997 109.94 38.642 111.927 38.3992C111.927 38.3992 113.155 38.8212 112.442 39.7156C111.732 40.6091 112.28 41.6827 114.495 41.7594C116.71 41.8361 123.455 42.2955 125.584 37.3635C127.714 32.4321 119.934 30.8466 118.831 33.2947Z" fill="#FCE4C9"/>
<path d="M117.58 44.3074C121.317 43.8329 124.72 43.2217 127.192 40.1331C128.697 38.2524 130.147 36.3429 129.213 34.278C129.35 34.5672 129.464 34.8685 129.539 35.191C130.59 39.8212 127.72 44.1469 121.446 45.8126C115.173 47.4788 109.941 45.6172 109.62 42.9082C109.564 42.4424 109.549 42.0234 109.553 41.6261C110.801 44.0934 114.528 44.6945 117.58 44.3074Z" fill="#EC9F54"/>
<path d="M94.8172 55.3761C94.8712 55.315 94.9227 55.2524 94.9706 55.1883C94.9918 55.1606 95.0125 55.1323 95.0322 55.1035C95.0776 55.0384 95.12 54.9718 95.1589 54.9036C95.1786 54.8698 95.1978 54.8355 95.2159 54.8012C95.2503 54.735 95.2825 54.6684 95.3118 54.6003C95.3305 54.5574 95.3472 54.514 95.3633 54.4706C95.3805 54.4241 95.3966 54.3777 95.4118 54.3307C95.4724 54.1425 95.5152 53.9481 95.5405 53.7483C95.543 53.7286 95.546 53.7089 95.548 53.6887C95.8206 51.227 93.5401 48.0481 90.4298 47.2809C85.778 46.133 83.8034 48.4473 83.496 50.0923C83.1892 51.7373 80.1041 54.1632 79.0775 51.9746C78.4712 50.6839 79.2158 50.1191 79.9295 49.8728C79.6998 50.2236 79.5332 50.7813 80.5543 51.013C82.0984 51.3633 83.6813 48.7709 81.151 47.2349C78.6812 45.7343 70.8964 46.7862 69.5578 51.1523C69.525 51.2543 69.4947 51.3578 69.4705 51.4643C68.4191 56.0944 71.2896 60.4201 77.5632 62.0858C83.8368 63.752 89.0685 61.8904 89.3896 59.1819C89.4047 59.0557 89.4163 58.9331 89.4259 58.8135C89.49 58.0907 89.4789 57.4562 89.383 56.9161C90.3637 56.9792 91.5555 56.8949 93.0566 56.4376C93.1914 56.3962 93.318 56.3498 93.4412 56.3013C93.4745 56.2882 93.5068 56.2746 93.5396 56.2609C93.6396 56.2185 93.736 56.1736 93.8279 56.1267C93.8476 56.1166 93.8687 56.107 93.8879 56.0964C93.9954 56.0393 94.0959 55.9783 94.1923 55.9142C94.2165 55.8985 94.2392 55.8814 94.2624 55.8652C94.3371 55.8132 94.4083 55.7592 94.476 55.7027C94.4982 55.684 94.5214 55.6663 94.5426 55.6471C94.6238 55.5765 94.7001 55.5038 94.7707 55.4281C94.7879 55.4114 94.8015 55.3938 94.8172 55.3761ZM77.8226 48.4367C77.0922 48.4958 76.3119 48.6785 75.5659 48.9602C75.5588 48.9632 75.5512 48.9657 75.5437 48.9687C75.473 48.996 75.4024 49.0233 75.3322 49.0521C75.316 49.0586 75.2999 49.0657 75.2837 49.0722C75.2227 49.098 75.1616 49.1237 75.1015 49.1505C75.0773 49.1611 75.0531 49.1722 75.0288 49.1833C74.9763 49.207 74.9249 49.2307 74.8734 49.255C74.8411 49.2701 74.8098 49.2858 74.778 49.3019C74.7346 49.3231 74.6911 49.3443 74.6482 49.366C74.6094 49.3862 74.5715 49.4064 74.5332 49.4271C74.4978 49.4463 74.463 49.4644 74.4282 49.4836C74.4019 49.4982 74.3757 49.5129 74.3494 49.528C75.312 48.7805 76.6546 48.41 77.8226 48.4367ZM86.5639 57.3941C86.3307 57.2891 86.0824 57.1897 85.8518 57.1028C85.8351 57.0968 85.8195 57.0908 85.8033 57.0847C85.8013 57.0837 85.7988 57.0832 85.7967 57.0822C85.7907 57.0796 85.7836 57.0771 85.7775 57.0751C85.3127 56.903 84.9382 56.7864 84.9382 56.7864C85.5227 56.3397 86.1051 56.3488 86.8254 56.482C86.9122 56.8081 86.8294 57.1286 86.5639 57.3941Z" fill="#C9552B"/>
<path d="M80.994 48.7951C80.994 48.7951 78.1345 48.8961 79.1627 51.0857C80.1894 53.2743 83.2744 50.8489 83.5813 49.204C83.8887 47.5595 85.8628 45.2442 90.5151 46.3925C95.1649 47.5398 97.9698 54.0784 93.1424 55.5497C88.3139 57.0211 86.68 54.6316 85.0229 55.898C85.0229 55.898 87.7652 56.7495 87.6138 57.2588C87.3115 58.2774 83.5783 59.191 80.2071 58.0498C78.6312 57.5168 76.3245 56.7616 73.6766 54.6381C67.7079 49.8531 79.4979 45.2199 80.994 48.7951Z" fill="#FCE4C9"/>
<path d="M85.9363 56.2141C85.9105 56.2045 85.8863 56.1949 85.862 56.1863C83.2989 57.324 79.6919 56.6017 77.9869 54.5731C77.1869 53.6222 77.2434 52.2891 77.6421 51.2009C78.1817 49.7194 79.5132 48.9936 80.9553 48.7271C79.332 45.2872 67.748 49.886 73.6763 54.6382C76.3242 56.7622 78.631 57.5169 80.2068 58.0499C83.0183 59.0013 86.071 58.5233 87.1875 57.748C86.6671 57.3558 86.2497 56.8279 85.9363 56.2141Z" fill="#E79D5F"/>
<path d="M94.0211 48.5847C93.9984 48.5903 93.9812 48.6004 93.9585 48.6054C94.28 49.5796 94.0186 50.9833 93.3165 51.6738C91.8365 53.131 90.4379 53.2466 88.4633 52.9251C85.0955 52.3764 84.986 54.5423 83.5439 56.6153C84.5711 56.4528 85.0224 55.8971 85.0224 55.8971C86.6795 54.6312 88.3134 57.0207 93.1418 55.5488C96.5287 54.5171 96.1507 50.9944 94.0211 48.5847Z" fill="#EC9F54"/>
<path d="M80.2646 48.6801C80.2646 48.6801 79.0981 49.7744 80.6401 50.1247C82.1842 50.475 83.7671 47.8831 81.2368 46.3466C78.7095 44.8106 70.6087 45.9468 69.5563 50.5764C68.5054 55.2065 71.3754 59.5323 77.649 61.198C83.9226 62.8642 89.1543 61.0026 89.4753 58.2941C89.7969 55.5856 89.1558 54.028 87.1691 53.7847C87.1691 53.7847 85.9411 54.2066 86.6533 55.101C87.3645 55.9945 86.8158 57.0686 84.6014 57.1453C82.3866 57.222 75.6416 57.6808 73.5115 52.7494C71.3814 47.817 79.1602 46.2321 80.2646 48.6801Z" fill="#FCE4C9"/>
<path d="M81.5139 59.6928C77.7772 59.2183 74.3737 58.6071 71.9019 55.518C70.3967 53.6373 68.947 51.7278 69.8808 49.6628C69.744 49.9521 69.6295 50.2539 69.5553 50.576C68.5044 55.2061 71.3744 59.5318 77.648 61.1975C83.9216 62.8637 89.1533 61.0021 89.4744 58.2936C89.5304 57.8277 89.5455 57.4083 89.541 57.0116C88.2937 59.4788 84.5666 60.08 81.5139 59.6928Z" fill="#EC9F54"/>
<path d="M43.0757 42.1722C43.1116 42.1076 43.1449 42.0435 43.1747 41.9774C43.1883 41.9486 43.2009 41.9198 43.213 41.8906C43.2403 41.8244 43.265 41.7578 43.2862 41.6907C43.2968 41.6574 43.3069 41.6236 43.3165 41.5897C43.3342 41.5251 43.3498 41.46 43.3629 41.3944C43.371 41.3535 43.3776 41.3116 43.3836 41.2702C43.3902 41.2263 43.3952 41.1824 43.3993 41.138C43.4164 40.9608 43.4169 40.7816 43.4008 40.6009C43.3993 40.5832 43.3978 40.5651 43.3957 40.5469C43.1646 38.329 40.5499 35.9693 37.6663 35.889C33.3542 35.7694 32.06 38.1842 32.1044 39.6898C32.1493 41.196 29.8997 43.9202 28.5772 42.1914C27.7974 41.1723 28.344 40.5328 28.9245 40.1795C28.7897 40.5318 28.7498 41.0547 29.6927 41.0633C31.1181 41.0759 32.0146 38.4921 29.4948 37.6254C27.0347 36.7774 20.3871 39.1937 20.0449 43.2913C20.0358 43.3872 20.0287 43.4841 20.0277 43.5825C19.9893 47.8568 23.3424 51.1134 29.1809 51.3779C35.0194 51.6429 39.2659 49.004 39.0301 46.5595C39.0195 46.4454 39.0059 46.3354 38.9918 46.2284C38.91 45.5803 38.7782 45.0246 38.5905 44.5673C39.4652 44.435 40.4975 44.1332 41.7311 43.4432C41.8416 43.3811 41.9446 43.316 42.0435 43.2499C42.0702 43.2317 42.096 43.2135 42.1222 43.1954C42.202 43.1388 42.2782 43.0813 42.3499 43.0217C42.3656 43.0091 42.3822 42.9965 42.3974 42.9839C42.4806 42.9127 42.5579 42.84 42.6305 42.7653C42.6482 42.7466 42.6654 42.7275 42.6825 42.7088C42.7381 42.6487 42.7905 42.5876 42.8395 42.525C42.8552 42.5048 42.8723 42.4842 42.888 42.4635C42.9455 42.3857 42.999 42.3075 43.0464 42.2272C43.0565 42.2085 43.0656 42.1904 43.0757 42.1722ZM26.7954 39.3199C26.164 39.5117 25.5128 39.8216 24.9102 40.2123C24.9041 40.2163 24.8985 40.2198 24.8925 40.2239C24.8354 40.2612 24.7789 40.2991 24.7224 40.3374C24.7093 40.3465 24.6967 40.3556 24.6835 40.3647C24.6346 40.399 24.5861 40.4328 24.5382 40.4682C24.5185 40.4823 24.4998 40.4969 24.4801 40.5111C24.4387 40.5419 24.3978 40.5727 24.357 40.6039C24.3322 40.6236 24.3075 40.6433 24.2822 40.6635C24.2484 40.6903 24.2146 40.7175 24.1808 40.7448C24.151 40.77 24.1207 40.7952 24.091 40.8205C24.0637 40.8437 24.0364 40.8669 24.0092 40.8901C23.9885 40.9078 23.9688 40.926 23.9486 40.9441C24.6527 40.1032 25.7632 39.5197 26.7954 39.3199ZM36.201 45.5273C35.9754 45.4799 35.7386 45.44 35.5185 45.4077C35.5029 45.4057 35.4873 45.4032 35.4721 45.4006C35.4701 45.4006 35.4681 45.4001 35.4661 45.4001C35.46 45.3991 35.454 45.3981 35.4479 45.3976C35.0062 45.335 34.6539 45.3042 34.6539 45.3042C35.0835 44.7994 35.5973 44.6955 36.2565 44.6753C36.3948 44.9448 36.3832 45.2426 36.201 45.5273Z" fill="#C9552B"/>
<path d="M29.654 39.0286C29.654 39.0286 27.158 39.6646 28.4814 41.3944C29.8039 43.1232 32.0535 40.399 32.0086 38.8928C31.9642 37.3872 33.2579 34.9724 37.5705 35.092C41.8811 35.2112 45.5996 40.4268 41.6343 42.6457C37.6679 44.8646 35.7731 43.0747 34.5571 44.5062C34.5571 44.5062 37.1329 44.7303 37.0976 45.2073C37.0264 46.1613 33.9166 47.6801 30.7321 47.3212C29.2436 47.1536 27.0701 46.931 24.3344 45.5692C18.1678 42.5023 27.6536 36.1692 29.654 39.0286Z" fill="#FCE4C9"/>
<path d="M35.4223 44.6092C35.3976 44.6057 35.3749 44.6021 35.3517 44.5991C33.3145 46.0906 30.0028 46.1457 28.1145 44.6869C27.2287 44.0035 27.0232 42.8198 27.1656 41.7861C27.3564 40.3793 28.3891 39.4859 29.6071 38.9751C27.5199 36.2595 18.2092 42.523 24.3344 45.5692C27.0702 46.931 29.2436 47.1536 30.7322 47.3212C33.3877 47.62 35.9826 46.6151 36.816 45.7196C36.2835 45.4738 35.8155 45.0892 35.4223 44.6092Z" fill="#E79D5F"/>
<path d="M41.0754 36.3495C41.0567 36.3586 41.0435 36.3707 41.0244 36.3798C41.4938 37.1753 41.5327 38.4604 41.0466 39.2023C40.0229 40.7676 38.8146 41.1371 37.0161 41.232C33.9477 41.394 34.2662 43.3206 33.3945 45.4204C34.2672 45.0807 34.5575 44.5058 34.5575 44.5058C35.7734 43.0748 37.6683 44.8642 41.6346 42.6453C44.4173 41.0886 43.4098 38.0616 41.0754 36.3495Z" fill="#EC9F54"/>
<path d="M28.9903 39.0665C28.9903 39.0665 28.1736 40.2527 29.597 40.2653C31.0224 40.2779 31.9183 37.6941 29.3991 36.8274C26.8809 35.9597 19.9718 38.5102 19.932 42.7845C19.8936 47.0592 23.2472 50.3154 29.0851 50.5804C34.9236 50.8454 39.1701 48.206 38.9339 45.7615C38.6982 43.3175 37.8361 42.0693 36.0417 42.2358C36.0417 42.2358 35.0417 42.842 35.8403 43.4927C36.6368 44.1428 36.3597 45.1922 34.4259 45.6838C32.4917 46.1749 26.6457 47.8704 23.8282 43.9389C21.0101 40.0079 27.5507 37.1242 28.9903 39.0665Z" fill="#FCE4C9"/>
<path d="M32.198 48.516C28.8196 48.8138 25.7084 48.9273 22.9423 46.6832C21.2579 45.3163 19.617 43.9141 20.0435 41.9188C19.9789 42.1995 19.936 42.4867 19.932 42.7845C19.8936 47.0592 23.2472 50.3154 29.0851 50.5804C34.9236 50.8454 39.1701 48.206 38.9339 45.7615C38.894 45.341 38.8269 44.969 38.7472 44.6208C38.1218 47.0299 34.9574 48.2722 32.198 48.516Z" fill="#EC9F54"/>
<path d="M118.445 63.1423C115.666 64.8882 111.638 64.5283 108.565 63.6203C106.686 63.065 106.304 62.0227 106.82 60.8552C108.147 57.8484 115.435 54.0194 118.445 55.622C119.699 56.2882 120.438 57.2639 120.705 58.3224C121.139 60.0315 120.335 61.9566 118.445 63.1423Z" fill="#212111"/>
<path d="M120.706 58.3229C119.314 60.1481 117.086 61.2348 114.982 62.0192C112.827 62.8233 109.229 63.0918 107.334 61.3994C107.139 61.2257 106.967 61.043 106.82 60.8548C108.147 57.848 115.435 54.0189 118.445 55.6215C119.699 56.2882 120.439 57.2644 120.706 58.3229Z" fill="#504F2F"/>
<path d="M117.896 56.8565C116.971 56.1014 113.495 57.5329 115.061 58.3521C115.776 58.7271 116.755 59.0133 117.528 58.717C118.379 58.392 118.621 57.4476 117.896 56.8565Z" fill="#6E6C3E"/>
<path d="M94.1526 38.1943C91.0943 39.386 87.2057 38.2745 84.3589 36.8042C82.618 35.9052 82.4393 34.8099 83.1657 33.76C85.0348 31.0565 92.9129 28.6675 95.5679 30.8082C96.6739 31.6981 97.217 32.7959 97.2796 33.8862C97.3835 35.6458 96.2317 37.3851 94.1526 38.1943Z" fill="#212111"/>
<path d="M97.2789 33.8862C95.5688 35.4166 93.1758 36.0652 90.9615 36.4392C88.6941 36.8233 85.1099 36.4105 83.5673 34.3914C83.4083 34.184 83.2741 33.9725 83.165 33.76C85.0341 31.0565 92.9123 28.6675 95.5673 30.8082C96.6732 31.6986 97.2164 32.7964 97.2789 33.8862Z" fill="#504F2F"/>
<path d="M94.7974 31.9177C94.0307 31.0021 90.3475 31.7536 91.7305 32.853C92.363 33.3562 93.2706 33.8211 94.0852 33.6757C94.9822 33.5162 95.3981 32.6344 94.7974 31.9177Z" fill="#6E6C3E"/>
<path d="M62.3807 58.1416C59.6576 59.9744 55.6201 59.7422 52.5204 58.931C50.625 58.4354 50.2106 57.4052 50.6891 56.222C51.9207 53.1748 59.0842 49.1181 62.1435 50.6253C63.418 51.2517 64.1877 52.2037 64.4876 53.2536C64.9746 54.947 64.2316 56.8969 62.3807 58.1416Z" fill="#212111"/>
<path d="M64.4874 53.2531C63.1544 55.1212 60.9617 56.2776 58.8831 57.1281C56.7551 57.9998 53.1668 58.3819 51.22 56.75C51.0191 56.5824 50.8419 56.4052 50.6885 56.222C51.9201 53.1748 59.0835 49.1181 62.1428 50.6253C63.4173 51.2517 64.1871 52.2037 64.4874 53.2531Z" fill="#504F2F"/>
<path d="M61.6334 51.8761C60.685 51.1508 57.2557 52.6908 58.8467 53.4605C59.5735 53.8128 60.5608 54.0678 61.3245 53.7477C62.1649 53.3954 62.3764 52.4445 61.6334 51.8761Z" fill="#6E6C3E"/>
<path d="M126.681 24.0138C123.957 25.847 119.92 25.6144 116.82 24.8032C114.924 24.3075 114.51 23.2778 114.989 22.0942C116.221 19.047 123.384 14.9898 126.443 16.497C127.717 17.1234 128.488 18.0753 128.788 19.1252C129.274 20.8197 128.531 22.7695 126.681 24.0138Z" fill="#212111"/>
<path d="M128.788 19.1257C127.455 20.9938 125.262 22.1502 123.183 23.0007C121.055 23.8724 117.467 24.2545 115.52 22.6227C115.319 22.4551 115.142 22.2779 114.989 22.0947C116.221 19.0475 123.384 14.9903 126.444 16.4975C127.717 17.1239 128.487 18.0758 128.788 19.1257Z" fill="#504F2F"/>
<path d="M125.935 17.7487C124.986 17.0229 121.556 18.5634 123.147 19.3332C123.875 19.6855 124.862 19.9404 125.625 19.6204C126.465 19.268 126.677 18.3166 125.935 17.7487Z" fill="#6E6C3E"/>
<path d="M108.61 74.1428C102.388 72.3085 96.106 70.6434 89.8612 68.4305C83.3226 66.1132 74.8599 67.582 67.7444 66.7966C64.5851 66.4484 61.221 65.3975 58.4191 65.4035C54.8136 65.4111 52.683 65.9168 49.1911 64.2809C46.8683 63.1927 44.4455 60.5796 41.8177 60.6694C37.5717 60.8143 35.9429 60.4559 32.4455 59.4964C29.6698 58.7347 27.3883 57.1912 24.3901 56.8601C23.6476 56.7778 20.8745 56.274 20.8745 56.274C28.3287 62.7768 14.7857 71.7614 20.8154 75.0812C24.5223 77.1224 27.833 72.9218 27.8562 70.2375C27.88 67.4821 24.4658 63.538 29.5265 63.2947C30.8429 63.2316 31.8625 65.1022 33.1309 65.4025C34.9299 65.8285 36.7233 65.1148 38.292 65.0502C43.2669 64.8437 42.1186 66.5387 45.885 68.9055C48.7298 70.6933 52.4508 69.3118 55.4662 71.0926C59.6032 73.5351 57.5549 75.2558 58.4953 78.6619C59.3387 81.7161 63.0128 84.355 64.6558 79.9919C65.9 76.6873 61.3719 75.6162 61.1574 72.9723C60.8318 68.9489 66.0045 70.449 68.6242 70.6777C72.2614 70.9952 75.3359 68.8318 78.6329 69.0928C84.3043 69.542 80.9139 73.3105 81.8956 76.0367C82.412 77.4717 83.2186 78.4802 84.5289 78.352C87.6276 78.0481 85.5354 76.1477 86.2981 74.7304C87.2884 72.8905 85.6929 72.0218 88.8592 71.6216C89.9464 71.4838 91.6939 73.0647 92.7913 73.4119C95.6896 74.3291 99.2975 72.9082 101.994 74.2922C106.329 76.5167 102.665 85.4922 106.841 86.1635C113.055 87.1609 108.574 76.4016 108.61 74.1428Z" fill="#FFF067"/>
</svg>
