<svg width="57" height="24" viewBox="0 0 57 24" fill="none" xmlns="http://www.w3.org/2000/svg">
<path fill-rule="evenodd" clip-rule="evenodd" d="M16.016 3.75007C15.6797 2.32308 14.4681 1.12902 13.052 0.828924C12.4724 0.7061 11.9251 0.698764 11.4812 0.807747C11.1909 0.879066 9.48441 1.41642 7.81313 1.9627C7.37637 2.10549 6.40641 2.41519 5.65767 2.65093C2.57619 3.62097 2.29303 3.74946 1.56078 4.50947C1.15798 4.92763 0.792605 5.56716 0.61616 6.1632C0.544008 6.40688 0.515269 7.04059 0.515118 8.39429C0.514815 10.1623 0.526235 10.3214 0.69058 10.8445C0.787235 11.1522 0.919437 11.4851 0.984328 11.5842C1.09482 11.7527 1.08749 11.7969 0.870656 12.2726C0.483732 13.1213 0.465353 13.3657 0.491143 17.3187L0.514815 20.9489L0.726202 21.3794C1.1312 22.204 1.84462 22.8328 2.65213 23.0766C3.33045 23.2815 3.95917 23.2248 5.13643 22.8524C5.72324 22.6667 6.34561 22.4251 6.5194 22.3153C7.27918 21.8357 7.75702 21.2325 8.03413 20.403C8.18183 19.9611 8.19129 19.7658 8.19129 17.1698C8.19129 15.6472 8.16164 14.4069 8.12526 14.4069C8.08896 14.4069 7.6295 14.5443 7.10425 14.7122L6.14927 15.0175V17.4001C6.14927 19.6327 6.13974 19.8013 5.99816 20.0789C5.76575 20.5345 5.11381 20.8442 3.7291 21.1569C3.29097 21.2558 2.8887 21.0994 2.67066 20.7455C2.52038 20.5016 2.5169 20.4041 2.53664 16.9405L2.55683 13.3859L2.76655 13.0291C3.11703 12.4329 3.37674 12.3123 6.29856 11.3892C7.77419 10.923 9.00809 10.5009 9.04061 10.4511C9.11171 10.3423 9.10467 8.63949 9.03267 8.52302C8.98465 8.44534 7.41192 8.9141 3.93693 10.0419C2.98558 10.3506 2.72662 10.4095 2.65122 10.3342C2.58308 10.2661 2.5501 9.77787 2.53263 8.57739C2.50419 6.62417 2.56039 6.34479 3.08768 5.81742C3.39489 5.51028 3.5007 5.46642 5.44107 4.84307C6.5585 4.48413 7.60893 4.14304 7.77532 4.08526C7.94171 4.0274 8.63939 3.80407 9.32574 3.5889C10.0121 3.37373 10.8289 3.11432 11.1409 3.01237C11.4528 2.91049 11.8821 2.80764 12.0948 2.78397C12.846 2.70017 13.5839 3.11137 13.9514 3.81866L14.1283 4.159L14.1506 7.65213C14.1757 11.5513 14.1602 11.7034 13.6806 12.2592C13.3333 12.6619 13.1652 12.7383 11.2165 13.3797C9.82777 13.8368 9.45915 13.9878 9.21229 14.2013L8.90977 14.4626L8.88542 16.0609C8.86576 17.3485 8.88043 17.6587 8.96105 17.6573C9.01603 17.6565 9.46944 17.5262 9.9686 17.3679L10.8762 17.08L10.914 16.3421L10.9518 15.6042L12.3562 15.1311C13.1286 14.871 13.9368 14.5622 14.1522 14.4449C15.0164 13.9746 15.7409 13.0043 16.0158 11.9493C16.1862 11.2946 16.1865 4.47332 16.016 3.75007ZM30.1997 5.12744C29.8461 4.95516 29.3867 4.77372 29.1787 4.72426C28.9295 4.66504 27.6593 4.62269 25.4539 4.6L22.1073 4.56551L22.1014 11.2825C22.0983 14.9767 22.0843 18.0588 22.0704 18.1314C22.0565 18.204 22.0712 18.2795 22.1031 18.2993C22.135 18.319 22.8346 18.3387 23.6577 18.343C24.8228 18.3491 25.169 18.3286 25.2202 18.2507C25.2563 18.1957 25.2813 17.3508 25.2756 16.3733L25.2653 14.596L27.1086 14.5522C28.742 14.5133 29.0121 14.4889 29.4812 14.3375C31.1232 13.8075 32.3455 12.4962 32.7296 10.8523C32.8809 10.2051 32.8781 9.0165 32.7237 8.33356C32.4126 6.9574 31.4528 5.73808 30.1997 5.12744ZM25.2703 11.861C25.2569 11.7918 25.2554 10.7197 25.267 9.47861L25.288 7.22202L26.6284 7.22278C27.8742 7.22346 27.9952 7.23594 28.3467 7.40036C28.8351 7.62876 29.1879 7.98899 29.4276 8.50381C29.5868 8.84565 29.6191 9.02603 29.6173 9.56263C29.614 10.5364 29.3266 11.1456 28.6551 11.602C28.2009 11.9107 27.7686 11.9867 26.4659 11.9867C25.4341 11.9867 25.2919 11.9718 25.2703 11.861ZM40.718 9.70829C40.3209 9.26283 39.6658 8.88324 39.0484 8.74106C38.7179 8.66497 37.6914 8.64728 37.3089 8.71118C35.6376 8.99026 34.2219 10.4018 33.7964 12.2136C33.6475 12.8476 33.6439 14.3108 33.7896 14.9881C34.2031 16.9109 35.4215 18.2062 37.1227 18.5317C38.184 18.7347 38.8798 18.6512 39.7812 18.2126C40.1379 18.039 40.4566 17.8088 40.7077 17.5434L41.0904 17.1387V17.7392C41.0904 18.3103 41.0988 18.3399 41.2606 18.3438C41.402 18.3472 43.8777 18.3447 44.0589 18.3409C44.0902 18.3402 44.1157 16.2126 44.1157 13.6128V8.88589H42.6031H41.0904V9.50606V10.1262L40.718 9.70829ZM49.7044 15.0704C49.5259 14.6733 49.525 14.6589 49.5241 11.7789L49.5232 8.88612L48.0295 8.88604L46.5358 8.88589V12.0143C46.5358 15.2244 46.5605 15.5755 46.8384 16.3183C47.1717 17.2092 47.725 17.7907 48.5565 18.1242C48.9377 18.2771 49.1249 18.2997 50.0148 18.3007C50.904 18.3017 51.0944 18.2792 51.4896 18.1262C52.028 17.9179 52.5339 17.5424 52.8056 17.1493L53.0022 16.8649L53.0263 17.6968C53.08 19.5473 52.6346 20.2868 51.4197 20.3648C50.3648 20.4325 49.7197 20.107 49.5954 19.4443C49.5614 19.2633 49.4971 19.1724 49.3837 19.145C49.2941 19.1234 48.6166 19.1023 47.8783 19.0982L46.5358 19.0908L46.5367 19.3392C46.5379 19.6477 46.6996 20.2674 46.8598 20.5771C47.2806 21.3904 48.1069 22.0196 49.2041 22.3623C49.6886 22.5137 49.9077 22.5328 51.1493 22.532C52.4814 22.5313 52.5774 22.5211 53.1535 22.3215C54.5137 21.85 55.2514 21.1553 55.7232 19.9017C56.0209 19.1108 56.0746 18.0078 56.0497 13.1968L56.0274 8.92371L54.5337 8.90321L53.04 8.88271V11.4218C53.04 13.4701 53.0168 14.0632 52.9198 14.4895C52.7138 15.3952 52.1688 15.9105 51.3445 15.9789C50.543 16.0454 50.01 15.7501 49.7044 15.0704ZM36.9566 12.4243C37.2083 11.9051 37.6987 11.4519 38.1946 11.2803C38.7312 11.0947 39.5267 11.1506 40.0598 11.4115C41.3679 12.0515 41.6528 14.3122 40.5715 15.4715C39.7038 16.4018 38.0788 16.3532 37.2886 15.3734C36.8794 14.8659 36.7413 14.4095 36.7444 13.575C36.7468 12.9476 36.7737 12.8016 36.9566 12.4243Z" fill="white"/>
</svg>
