<svg width="14" height="22" viewBox="0 0 14 22" fill="none" xmlns="http://www.w3.org/2000/svg">
<path fill-rule="evenodd" clip-rule="evenodd" d="M13.4122 1.58051C13.0422 0.996547 12.2412 0.728546 11.5279 1.00356L0.536673 5.24105C0.504101 5.25361 0.482917 5.28284 0.482917 5.31522V6.9263V11.2141C0.482917 11.4586 0.59346 11.6694 0.764475 11.8181C0.459122 12.0394 0.263184 12.382 0.263184 12.7664V20.7846C0.263184 21.4173 0.911902 21.8815 1.58159 21.728L4.43812 20.9225C5.22546 20.682 5.75652 20.0021 5.75652 19.2415V19.1101V13.7734L4.43812 14.2173V18.9439C4.43812 19.2889 4.19847 19.5956 3.84212 19.7066L2.16252 20.23C1.87747 20.3188 1.58159 20.1246 1.58159 19.8486V12.6184L8.91064 9.85253L8.91069 8.43668L1.80132 11.2147V6.9539C1.80132 6.62958 2.01354 6.33688 2.33978 6.21125L11.7388 2.59186C12.0284 2.48033 12.3485 2.67526 12.3485 2.96318V9.34291V11.0934C12.3485 11.3485 12.172 11.5755 11.909 11.6588L7.73408 13.2196L6.41568 13.723V16.5927L7.73408 16.19V14.4221L12.4943 12.6745C12.9389 12.5112 13.2814 12.1936 13.4604 11.8049C13.5911 11.6173 13.6669 11.3945 13.6669 11.1554V2.29446C13.6669 2.02738 13.5723 1.78053 13.4122 1.58051Z" fill="#0033C7"/>
</svg>
