<svg width="534" height="441" viewBox="0 0 534 441" fill="none" xmlns="http://www.w3.org/2000/svg">
<path d="M255.854 0.160156V46.7939H252.304V82.7092L247.57 93.5135V179.786H243.946V259.241H240.58V322.329H237.993V341.844H211.593V353.097H204.604V342.866H177.944V347.982H169.404V328.887H144.04V344.231H140.674V326.84H124.368V284.897H114.195V334.298L111.167 335.365V395.645H104.438V389.849H96.9331V339.038H87.8722V347.564H85.2848V396.667H80.6254V344.152H77.0019V332.217H65.0956V285.5H42.0611V331.877H37.7792V318.649L27.8254 311.075H20.0605V321.647H14.6257V304.596H-2.45803V308.687H-7.11748V393.941H-16.1757V374.163H-27.046V205.024H-55V441H590V332.609H546.878V374.564H534.432V354.31H524.182V341.771H511.372V360.579H495.632V289.205H456.831V340.807H443.107V322.721L431.21 338.396V389.997H422.79V258.339H419.13V245.803H390.213V212.046H377.767V167.675C360.564 168.158 353.608 188.896 353.608 188.896V226.994H347.019V384.693H339.7V344.182H317.371V365.884H309.659V253.056L302.729 237.246H290.082L281.68 256.412V281.081L276.009 279.078V211.079H272.125V121.997L264.911 119.453V57.8766H260.77V0.160156H255.854Z" fill="#222222" fill-opacity="0.51"/>
</svg>
