<svg width="143" height="200" viewBox="0 0 143 200" fill="none" xmlns="http://www.w3.org/2000/svg">
<path d="M120.758 112.741V112.814C122.154 110.092 124.981 108.227 128.25 108.227C132.903 108.227 136.674 111.998 136.674 116.651C136.674 121.302 132.903 125.073 128.25 125.073C124.981 125.073 122.154 123.208 120.758 120.486V120.558H112.07V112.739H120.758V112.741Z" fill="#969595"/>
<g opacity="0.5">
<path d="M123.103 119.152C123.064 117.928 123.783 116.693 124.892 116.172C127.557 114.917 130.153 117.008 130.153 117.008C129.208 117.122 128.249 117.24 127.374 117.616C126.501 117.992 125.709 118.669 125.424 119.579C125.177 120.363 125.326 121.292 125.271 122.142C124.143 121.67 123.143 120.377 123.103 119.152Z" fill="#323232"/>
</g>
<path d="M15.9175 112.741V112.814C14.5212 110.092 11.6938 108.227 8.42415 108.227C3.7716 108.227 0.000284195 111.998 0.000284195 116.651C0.000284195 121.302 3.7716 125.073 8.42415 125.073C11.6927 125.073 14.5212 123.208 15.9175 120.486V120.558H24.6045V112.739H15.9175V112.741Z" fill="#969595"/>
<path d="M30.1738 181.037H106.499L111.867 189.693C109.409 192.817 93.0599 200 67.5924 200C42.1237 200 26.8918 193.04 24.434 189.917L30.1738 181.037Z" fill="#969595"/>
<path d="M106.499 181.037C104.38 184.161 90.2884 188.366 68.3369 188.366C46.3843 188.366 32.2923 184.161 30.1737 181.037C32.2923 177.913 46.3843 173.709 68.3369 173.709C90.2884 173.709 104.38 177.913 106.499 181.037Z" fill="#D1D3CB"/>
<path d="M115.312 93.0452C112.704 95.1492 95.3576 97.9788 68.337 97.9788C41.3164 97.9788 23.9693 95.1492 21.3625 93.0452C23.9704 90.9434 41.3164 88.1127 68.337 88.1127C95.3576 88.1127 112.705 90.9434 115.312 93.0452Z" fill="#D1D3CB"/>
<path d="M115.312 93.0451C112.704 90.9433 95.3583 88.1126 68.3377 88.1126C41.317 88.1126 23.9699 90.9433 21.3631 93.0451H18.1976C18.1976 91.0844 20.0441 88.8349 33.742 87.0287C42.9933 85.806 55.2792 85.1341 68.3377 85.1341C81.395 85.1341 93.682 85.8071 102.933 87.0287C116.63 88.8349 118.477 91.0844 118.477 93.0451H115.312Z" fill="#EBEFDC"/>
<g opacity="0.3">
<path d="M31.8596 96.223C32.6322 95.1133 34.108 94.7998 35.4416 94.5769C45.488 92.8962 55.5635 91.3924 65.6614 90.0632C68.8526 93.3654 72.045 96.6675 75.2363 99.9707C62.226 100.503 49.1753 100.013 36.2411 98.5095C34.8034 98.3426 33.3164 98.1445 32.0891 97.3774C31.9178 97.2699 31.7442 97.1412 31.677 96.9508C31.5919 96.7056 31.7106 96.4346 31.8596 96.223Z" fill="#323232"/>
</g>
<path d="M82.8301 155.022L80.4181 159.769C79.0856 162.391 69.4592 160.174 58.9168 154.816C48.3732 149.46 40.9068 142.991 42.2381 140.37L44.6501 135.622L82.8301 155.022Z" fill="#3D5B02"/>
<path d="M135.324 4.43734C139.238 6.42489 142.581 7.69916 142.794 7.28038L135.375 24.2781C134.937 25.2814 133.802 25.7775 132.776 25.4001C131.087 24.782 128.543 23.6455 126.176 22.4418C123.809 21.2403 121.39 19.854 119.895 18.8552C118.985 18.2472 118.717 17.0401 119.269 16.095L128.624 0.0792847C128.411 0.49807 131.411 2.44979 135.324 4.43734Z" fill="#FFEE50"/>
<path d="M136.093 2.9223C140.007 4.90985 143.007 6.8627 142.794 7.28037C142.581 7.69915 139.237 6.42488 135.324 4.43733C131.411 2.4509 128.411 0.498062 128.624 0.0792771C128.836 -0.338389 132.18 0.935868 136.093 2.9223Z" fill="#EAB50A"/>
<path d="M80.1291 72.6613L88.4365 63.5555C100.993 50.6829 111.525 35.9795 119.671 19.9492L120.151 19.0042C121.269 19.854 124.533 21.6064 126.247 22.4776C127.597 23.164 131.284 24.8425 132.647 25.352L132.06 26.5098C123.984 42.4024 118.345 59.4192 115.333 76.988L112.778 89.4205C109.96 103.124 105.321 116.387 98.9845 128.86L85.1937 156.003C83.7011 158.938 72.9291 156.455 61.1326 150.462C49.3349 144.468 40.9794 137.232 42.4698 134.296V134.294L56.1844 107.304C62.5703 94.7315 70.6258 83.0783 80.1291 72.6613Z" fill="#4F7F03"/>
<g opacity="0.5">
<path d="M59.2985 102.562C65.4638 91.3198 74.0904 81.6542 82.6396 72.0982C87.0246 67.196 91.4095 62.2949 95.7933 57.3937L95.6085 57.7801C97.6711 58.8819 99.7337 59.9859 101.796 61.0878C102.086 61.2434 102.414 61.455 102.43 61.7831C102.442 62.0284 102.272 62.2378 102.112 62.4225C92.8484 73.0792 82.9912 83.2643 74.704 94.6947C66.4179 106.127 59.6703 119.031 57.5976 132.998C57.2225 135.526 57.0053 138.133 57.6043 140.618C58.3086 143.539 60.0823 146.072 61.8202 148.524C56.4476 146.86 51.9104 143.285 47.5087 139.784C45.6969 138.342 43.706 136.515 43.8706 134.206C43.9591 132.971 44.669 131.884 45.3274 130.835C50.9239 121.929 54.2406 111.785 59.2985 102.562Z" fill="#204400"/>
</g>
<path d="M99.0125 75.903C104.657 78.7707 110.055 80.8243 114.326 81.8757L113.591 85.4522C109.185 84.4892 103.39 82.3438 97.3094 79.2533C91.2538 76.1774 86.1186 72.7767 82.7426 69.7948L85.206 67.0951C88.572 69.9146 93.3925 73.0477 99.0125 75.903Z" fill="#FFEE50"/>
<g opacity="0.5">
<path d="M59.9195 105.03C61.5297 102.539 63.2676 100.133 65.0043 97.7278C70.8281 89.6656 76.6519 81.6023 82.4768 73.539C85.8506 68.8663 89.2625 64.1533 93.5802 60.3383C94.2487 59.7482 95.2901 59.2029 95.9877 59.5758L95.7223 59.363C97.15 60.0338 98.8509 61.3271 98.2652 62.7917C98.076 63.2642 97.6751 63.6113 97.2877 63.9405C87.3746 72.3879 77.9945 81.5665 70.3332 92.0977C62.673 102.631 56.7573 114.587 54.2547 127.369C53.2996 132.246 52.9267 137.623 55.4932 141.882C56.0889 142.87 56.8648 143.988 56.4718 145.073C53.5168 143.387 50.779 141.323 48.348 138.945C46.8845 137.514 45.449 135.76 45.4793 133.715C45.4972 132.472 46.0615 131.311 46.6124 130.197C47.9259 127.547 49.2405 124.897 50.5539 122.245C53.4586 116.391 56.3699 110.52 59.9195 105.03Z" fill="#193301"/>
</g>
<path d="M116.476 70.995C116.064 72.9859 115.675 74.9824 115.331 76.9879L114.327 81.8756C110.056 80.8241 104.658 78.7705 99.0131 75.9029C93.3931 73.0475 88.5726 69.9145 85.2078 67.0949L88.4371 63.5554C89.9062 62.0493 91.3417 60.5131 92.7549 58.9589C95.8554 61.2387 99.7499 63.6304 104.121 65.8509C108.525 68.0893 112.786 69.835 116.476 70.995Z" fill="#3F0501"/>
<path d="M104.12 65.8509C99.7489 63.6305 95.8544 61.2387 92.7539 58.9589C93.5914 58.0362 94.401 57.09 95.2184 56.1517C98.188 58.2669 101.797 60.4549 105.822 62.5007C109.883 64.5632 113.811 66.198 117.292 67.3503C117.014 68.5652 116.728 69.7768 116.476 70.9962C112.786 69.835 108.525 68.0893 104.12 65.8509Z" fill="#FFEE50"/>
<path d="M95.2189 56.1517C104.811 45.1368 113.042 32.992 119.67 19.9492L120.15 19.0042C121.268 19.854 124.531 21.6064 126.246 22.4776C127.596 23.164 131.283 24.8425 132.646 25.352L132.059 26.5098C125.47 39.4754 120.534 53.1979 117.293 67.3503C113.811 66.1981 109.884 64.5633 105.823 62.5007C101.797 60.4538 98.1885 58.2658 95.2189 56.1517Z" fill="#EAB50A"/>
<path d="M91.3289 91.0923C98.3677 94.6677 99.5345 106.55 93.9301 117.578C88.3269 128.607 78.0431 134.67 71.0033 131.093C63.9646 127.517 62.7978 115.635 68.4021 104.607C74.0053 93.5782 84.2902 87.5147 91.3289 91.0923Z" fill="white"/>
<path d="M92.4794 88.827C100.767 93.0384 102.434 106.451 96.1959 118.728C89.9577 131.005 78.1411 137.567 69.8549 133.357C61.5677 129.146 59.9015 115.733 66.1396 103.455C72.3755 91.1796 84.1922 84.6156 92.4794 88.827ZM71.0038 131.093C78.0425 134.668 88.3263 128.606 93.9306 117.578C99.5338 106.549 98.367 94.6676 91.3294 91.0923C84.2907 87.5158 74.0058 93.5792 68.4026 104.606C62.7994 115.635 63.9651 127.516 71.0038 131.093Z" fill="#EF1414"/>
<path d="M71.7032 120.427C72.8946 120.44 73.7904 121.497 74.5093 122.62C74.7075 122.638 74.9091 122.652 75.114 122.669C74.5451 121.839 73.9472 121.036 73.0816 120.503C72.926 120.407 73.038 120.111 73.2205 120.224C74.2282 120.844 74.8822 121.726 75.5383 122.707C76.9033 122.838 78.2582 123.082 79.1406 124.265C79.9546 125.357 78.9547 126.125 77.8316 125.568C76.7096 125.014 76.0198 124.005 75.3312 122.987C75.1252 122.969 74.918 122.957 74.7109 122.941C75.0871 123.558 75.4129 124.166 75.7074 124.605C75.8116 124.761 75.6346 125.011 75.5104 124.827C75.0949 124.209 74.7377 123.542 74.3301 122.913C73.3324 122.836 72.3459 122.715 71.5129 122.229C70.5353 121.658 70.3181 120.413 71.7032 120.427ZM75.8687 123.204C76.0131 123.424 76.1643 123.64 76.3278 123.846C76.4319 123.976 76.5416 124.108 76.6592 124.24C76.9951 124.618 77.2986 124.833 77.7319 125.092C77.9055 125.183 78.1697 125.257 78.3903 125.252C78.733 125.245 78.9032 124.993 78.8517 124.69C78.817 124.485 78.7016 124.305 78.5572 124.158C77.8014 123.385 76.807 123.144 75.7511 123.028C75.7914 123.087 75.8284 123.144 75.8687 123.204ZM71.3483 121.158C71.3662 121.436 71.4826 121.623 71.7435 121.89C72.2967 122.399 73.3268 122.495 74.03 122.572C74.0547 122.575 74.0804 122.577 74.1062 122.581C73.9539 122.364 73.7938 122.153 73.6169 121.955C73.3772 121.684 73.0995 121.418 72.8006 121.215C72.2284 120.871 71.8443 120.741 71.4815 120.921C71.3953 120.966 71.3427 121.06 71.3483 121.158Z" fill="#4F7F03"/>
<path d="M65.5363 98.952L100.673 116.804L97.56 119.47L97.2408 123.558L62.1054 105.706L65.2172 103.038L65.5363 98.952Z" fill="white"/>
<path d="M64.4924 97.222L102.684 116.626L98.6917 120.047L98.2819 125.29L60.0907 105.884L64.0826 102.462L64.4924 97.222ZM97.2405 123.558L97.5596 119.471L100.671 116.805L65.5349 98.9531L65.2157 103.039L62.104 105.707L97.2405 123.558Z" fill="#3F0501"/>
<path d="M75.7492 126.539L75.7638 126.429L75.794 126.542C75.8041 126.544 75.8153 126.546 75.8242 126.548C75.8936 126.557 75.9351 126.605 75.9407 126.653L75.9496 126.692C75.9687 126.781 75.9787 126.831 75.9832 126.846C76.0056 126.907 76.0358 126.949 76.0896 126.976C76.0986 126.975 76.1086 126.971 76.1254 126.967L76.2296 126.96L76.262 127.012C76.2867 127.052 76.2968 127.084 76.2878 127.126C76.2822 127.14 76.2755 127.157 76.2654 127.178C76.2396 127.229 76.1926 127.26 76.1254 127.268C76.0303 127.277 75.934 127.239 75.8544 127.156C75.8309 127.293 75.7985 127.434 75.7593 127.576C75.6966 127.807 75.6238 128.005 75.5432 128.163C75.4984 128.25 75.4491 128.335 75.3954 128.422C75.3338 128.513 75.2867 128.569 75.252 128.594C75.2151 128.622 75.1669 128.624 75.1244 128.603L75.0706 128.558C75.0662 128.552 75.0583 128.542 75.0494 128.53L75.0337 128.511C75.0202 128.492 75.0012 128.472 74.9867 128.455C74.9631 128.433 74.9452 128.417 74.9295 128.402L74.8926 128.375L74.8467 128.336C74.8041 128.281 74.8187 128.242 74.8265 128.227C74.8366 128.204 74.8556 128.19 74.878 128.181C74.9553 128.148 75.0214 128.102 75.0773 128.04C75.1445 127.969 75.2095 127.873 75.2699 127.754C75.3528 127.591 75.4189 127.442 75.467 127.309C75.5129 127.19 75.5443 127.068 75.5656 126.953C75.5812 126.874 75.5969 126.768 75.6081 126.635L75.6193 126.593C75.6339 126.567 75.6607 126.548 75.6966 126.541C75.7111 126.538 75.7313 126.537 75.7492 126.539Z" fill="#4F7F03"/>
<path d="M73.2493 125.268L73.2638 125.158L73.2952 125.273C73.3053 125.274 73.3153 125.276 73.3254 125.277C73.3948 125.287 73.4363 125.334 73.4419 125.383L73.4508 125.423C73.4699 125.511 73.4788 125.56 73.4844 125.575C73.5068 125.638 73.5371 125.679 73.5908 125.706C73.5986 125.705 73.6098 125.7 73.6266 125.696L73.7297 125.69L73.7576 125.734C73.7565 125.73 73.7498 125.716 73.7498 125.711L73.7476 125.685L73.7554 125.648C73.7632 125.631 73.78 125.61 73.8338 125.595L73.8808 125.591C73.9088 125.587 73.9368 125.593 73.9637 125.606L74.0253 125.664C74.051 125.715 74.0701 125.736 74.0701 125.736C74.1048 125.774 74.1585 125.811 74.2302 125.848C74.2794 125.873 74.3858 125.919 74.6075 125.997C74.6982 126.027 74.7777 126.062 74.8516 126.099L74.8998 126.124C74.9311 126.139 74.9838 126.167 75.0566 126.206C75.1338 126.247 75.182 126.274 75.2021 126.287C75.2805 126.335 75.2827 126.392 75.2794 126.416L75.2637 126.54C75.2626 126.57 75.2615 126.621 75.2603 126.694L75.2581 126.732L75.2592 126.733C75.2592 126.754 75.2536 126.773 75.2458 126.788L75.1965 126.86L75.0957 126.81L75.0487 126.751C75.0386 126.73 75.0207 126.681 74.9938 126.612C74.9323 126.496 74.836 126.468 74.6859 126.405C74.5224 126.335 74.4138 126.288 74.3556 126.257C74.3175 126.238 74.2828 126.219 74.2503 126.2C74.275 126.261 74.3007 126.327 74.3265 126.396C74.3858 126.561 74.4284 126.693 74.4519 126.799C74.4844 126.933 74.5023 127.019 74.509 127.079C74.5247 127.194 74.528 127.3 74.5179 127.398C74.5056 127.514 74.4732 127.623 74.4239 127.721C74.3925 127.784 74.3455 127.847 74.2806 127.912C74.2167 127.976 74.163 128.017 74.1048 128.042C74.0656 128.053 74.0286 128.049 73.9962 128.033L73.9794 128.024L73.8651 127.875C73.8495 127.856 73.8349 127.838 73.817 127.817C73.8002 127.796 73.7823 127.776 73.7599 127.751C73.7229 127.702 73.7341 127.664 73.7431 127.646L73.78 127.602H73.8304C73.8741 127.6 73.911 127.588 73.9424 127.562C73.9805 127.533 74.0197 127.481 74.0544 127.411C74.1059 127.31 74.1361 127.205 74.1473 127.101C74.154 127.007 74.1462 126.9 74.1227 126.781C74.1104 126.716 74.0824 126.603 74.0309 126.419C74.0107 126.353 73.9782 126.264 73.9312 126.15L73.8192 125.886C73.7901 125.816 73.7778 125.781 73.7666 125.748C73.7879 125.784 73.798 125.816 73.7901 125.853C73.7856 125.868 73.7789 125.884 73.7677 125.904C73.742 125.954 73.6961 125.986 73.6266 125.995C73.5303 126.001 73.434 125.966 73.3557 125.883C73.3321 126.019 73.2997 126.159 73.2605 126.3C73.1978 126.533 73.125 126.73 73.0444 126.888C72.9996 126.977 72.9503 127.062 72.8954 127.147C72.8339 127.24 72.7879 127.296 72.7521 127.319C72.7152 127.347 72.667 127.35 72.6245 127.328L72.5707 127.285C72.5651 127.278 72.5584 127.269 72.5483 127.256L72.5326 127.237C72.5192 127.218 72.5002 127.198 72.4867 127.182C72.4632 127.159 72.4453 127.142 72.4296 127.129L72.3916 127.101L72.3456 127.062C72.3031 127.007 72.3176 126.968 72.3244 126.952C72.3344 126.931 72.3535 126.915 72.3759 126.907C72.4531 126.874 72.5203 126.828 72.5752 126.766C72.6424 126.695 72.7084 126.598 72.7678 126.48C72.8507 126.316 72.9167 126.167 72.9649 126.035C73.0097 125.914 73.0421 125.793 73.0634 125.678C73.0791 125.599 73.0936 125.493 73.106 125.36L73.1171 125.317C73.1306 125.292 73.1586 125.273 73.1944 125.266C73.2123 125.267 73.2314 125.266 73.2493 125.268Z" fill="#4F7F03"/>
<path d="M71.3103 125.025C71.485 124.972 71.6731 124.998 71.8679 125.096C71.9889 125.158 72.0896 125.236 72.1691 125.331C72.1882 125.354 72.205 125.377 72.2207 125.402C72.2296 125.38 72.2408 125.359 72.2509 125.339C72.2688 125.304 72.2901 125.261 72.317 125.205C72.3237 125.192 72.3281 125.179 72.3349 125.166C72.2542 125.147 72.1826 125.126 72.121 125.107C71.8646 125.023 71.6149 124.912 71.4816 124.76C71.373 124.633 71.3864 124.534 71.4167 124.471C71.4447 124.416 71.4962 124.38 71.5634 124.364C71.6328 124.35 71.7 124.359 71.7672 124.394C71.8243 124.423 71.8657 124.45 71.887 124.475C71.9183 124.511 71.9262 124.553 71.9094 124.587L71.8657 124.638L71.8287 124.634L71.831 124.647C71.8422 124.657 71.8724 124.679 71.943 124.715C72.0505 124.77 72.1602 124.816 72.2699 124.855C72.3797 124.893 72.4872 124.927 72.6002 124.956L72.6226 124.965C72.6641 124.986 72.6898 125.011 72.6999 125.042L72.7021 125.102C72.6977 125.123 72.6921 125.138 72.6842 125.153C72.6697 125.18 72.6137 125.288 72.514 125.471C72.486 125.527 72.4592 125.586 72.4368 125.647L72.3931 125.815C72.3763 125.867 72.327 125.895 72.2632 125.885L72.2083 126.093L72.1703 125.853L72.1064 125.828C72.102 125.826 72.0975 125.825 72.0941 125.822C72.0516 125.801 72.0337 125.772 72.0258 125.751L72.0225 125.72C72.0236 125.696 72.0269 125.676 72.0303 125.661C72.0303 125.651 72.0325 125.643 72.0325 125.638C72.0314 125.603 72.0079 125.563 71.9631 125.519C71.9239 125.48 71.8679 125.442 71.7996 125.406C71.7022 125.357 71.6059 125.354 71.4984 125.398C71.3932 125.442 71.3159 125.513 71.2633 125.619C71.1804 125.782 71.1726 125.955 71.2398 126.148C71.3047 126.336 71.4178 126.47 71.588 126.556C71.6686 126.596 71.7414 126.621 71.8075 126.626C71.8254 126.629 71.8399 126.627 71.8523 126.627C71.8075 126.615 71.7806 126.599 71.7582 126.541C71.7414 126.493 71.7459 126.442 71.7728 126.391C71.8019 126.332 71.8579 126.301 71.9329 126.299C72.0583 126.301 72.2207 126.377 72.2688 126.522C72.289 126.592 72.2845 126.657 72.2554 126.716C72.1983 126.828 72.0852 126.887 71.9284 126.887C71.8008 126.888 71.6653 126.853 71.5242 126.78C71.233 126.632 71.0259 126.416 70.9072 126.135C70.7941 125.864 70.7952 125.611 70.9094 125.386C71.008 125.2 71.1412 125.079 71.3103 125.025Z" fill="#4F7F03"/>
<path d="M84.7953 122.633C84.7057 122.456 84.7001 122.275 84.783 122.11C84.9409 121.8 85.2533 121.733 85.6463 121.933C85.6463 121.933 85.8647 122.059 85.9666 122.11C86.0696 122.164 86.2745 122.257 86.2745 122.257L86.335 122.284L86.2745 122.48L86.2555 122.513L86.1905 122.555L86.1502 122.53C86.1502 122.53 86.0976 122.497 86.0662 122.481C86.0461 122.47 86.0371 122.469 86.0349 122.467C86.0315 122.469 86.017 122.483 85.9856 122.543L85.3977 123.713C85.3373 123.829 85.3373 123.864 85.4705 123.969L85.5142 124.002L85.4134 124.286L85.3294 124.222C85.3283 124.22 85.1727 124.102 85.0439 124.036C84.9733 124 84.905 123.975 84.8423 123.951C84.7774 123.928 84.7158 123.904 84.6531 123.873C84.2634 123.676 84.0742 123.231 84.2399 122.904C84.3385 122.713 84.5434 122.615 84.7953 122.633ZM85.2757 123.11L85.0652 122.997C84.8323 122.927 84.6766 122.975 84.5904 123.145C84.5019 123.317 84.5579 123.476 84.7393 123.568C84.9901 123.696 85.0226 123.632 85.0529 123.57L85.2757 123.11ZM85.1715 122.734C85.2085 122.751 85.316 122.796 85.4056 122.831C85.4951 122.643 85.5825 122.452 85.6631 122.263C85.3059 122.087 85.185 122.202 85.1156 122.34C85.0069 122.556 85.1402 122.704 85.1715 122.734Z" fill="#4F7F03"/>
<path d="M82.8691 122.19L82.85 122.244C82.7593 122.517 82.7493 122.546 83.1781 122.763C83.2644 122.807 83.317 122.828 83.3304 122.824C83.3338 122.821 83.3472 122.811 83.3819 122.742C83.4099 122.686 83.4458 122.613 83.5006 122.496L83.6126 122.265C83.5745 122.239 83.523 122.207 83.4693 122.179C83.3203 122.104 83.0774 121.989 83.0774 121.989L83.0225 121.964L83.0886 121.687L83.1781 121.643L83.214 121.667C83.2173 121.669 83.4346 121.817 83.5286 121.866C83.5734 121.889 83.6361 121.919 83.6932 121.947L83.747 121.974L83.9653 121.491C83.9765 121.469 83.9821 121.454 83.9866 121.456C83.972 121.441 83.9037 121.406 83.8612 121.386C83.5029 121.203 83.5006 121.208 83.4368 121.333C83.4178 121.37 83.3842 121.451 83.3842 121.451L83.3495 121.53L83.0953 121.374L83.1188 121.314C83.2285 121.058 83.2823 120.833 83.2834 120.831L83.2901 120.806L83.3719 120.743L83.4166 120.775C83.5801 120.889 83.785 121.002 84.2229 121.225C84.3875 121.309 84.6103 121.412 84.6103 121.412L84.6719 121.44L84.6069 121.635L84.5901 121.662L84.5319 121.713L84.4849 121.685C84.4849 121.685 84.4311 121.649 84.3998 121.635C84.3819 121.624 84.3751 121.622 84.3718 121.62C84.3684 121.624 84.3516 121.638 84.3225 121.697L83.7324 122.866C83.6742 122.98 83.6719 123.021 83.8063 123.114L83.8533 123.146L83.7526 123.431L83.6708 123.371C83.6675 123.37 83.5118 123.257 83.308 123.154C83.0494 123.023 82.466 122.75 82.4593 122.745L82.4268 122.731L82.41 122.649L82.4167 122.629C82.5096 122.388 82.5757 122.135 82.5757 122.135L82.5835 122.107L82.6642 122.052L82.8691 122.19Z" fill="#4F7F03"/>
<path d="M81.938 121.047L81.9817 121.046C82.2169 121.044 82.4173 121.031 82.48 120.907C82.5393 120.79 82.4621 120.648 82.2975 120.564C82.059 120.443 82.0086 120.486 81.9392 120.622C81.8977 120.703 81.8753 120.762 81.8753 120.762L81.8597 120.8L81.7667 120.821L81.5864 120.705L81.61 120.646C81.7186 120.388 81.7835 120.155 81.7835 120.155L81.7902 120.13L81.8507 120.084L81.8787 120.088C81.8888 120.089 82.1082 120.111 82.3669 120.243C82.7633 120.444 82.9425 120.857 82.7756 121.184C82.6289 121.472 82.2852 121.477 82.0097 121.482H81.9761C81.732 121.485 81.5226 121.487 81.4554 121.619C81.3659 121.794 81.498 121.941 81.6514 122.019C81.8977 122.143 81.9616 122.134 82.1564 121.751L82.1945 121.677L82.4408 121.837L82.4106 121.898C82.2784 122.156 82.2045 122.384 82.2034 122.387L82.1978 122.412L82.1295 122.46L82.106 122.461C82.0959 122.461 81.8608 122.465 81.5864 122.325C81.1497 122.104 80.9627 121.687 81.1419 121.335C81.2852 121.05 81.6324 121.049 81.938 121.047Z" fill="#4F7F03"/>
<path d="M80.1645 119.23L80.1813 119.202L80.2832 119.178L80.5228 119.341L81.3738 119.775L81.6515 119.873L81.6885 119.97L81.675 119.998C81.5687 120.233 81.4768 120.49 81.4768 120.494L81.4444 120.582L81.1902 120.422L81.2081 120.366C81.3033 120.09 81.3078 120.071 80.9987 119.896L80.4187 121.036C80.2888 121.292 80.2888 121.292 80.4948 121.421L80.5407 121.45L80.4657 121.728L80.3806 121.679C80.3806 121.679 80.1432 121.546 80.0077 121.478C79.8767 121.411 79.5957 121.279 79.5957 121.279L79.5386 121.25L79.5968 121.05L79.6192 121.011L79.6886 120.976L79.7267 121.001C79.7267 121.001 79.7759 121.037 79.8666 121.081C79.9282 121.112 79.9596 121.122 80.0189 121.008C80.2339 120.582 80.5183 119.981 80.6303 119.709C80.3291 119.574 80.3168 119.591 80.1343 119.835L80.0928 119.892L79.8442 119.737L79.8879 119.671C79.8913 119.672 80.038 119.456 80.1645 119.23Z" fill="#4F7F03"/>
<path d="M76.2666 119.883L76.327 119.873L76.355 119.899C76.355 119.899 76.4289 119.968 76.5454 120.027C76.7346 120.123 76.9832 120.145 77.4098 120.099C77.1198 119.754 77.0694 119.258 77.2923 118.819C77.5688 118.276 78.1119 118.075 78.6136 118.329C79.1634 118.609 79.3604 119.286 79.0626 119.871C78.7905 120.408 78.2642 120.617 77.7794 120.384C76.8847 120.528 76.6596 120.527 76.3797 120.385C76.3595 120.375 76.3002 120.345 76.177 120.023L76.1591 119.977L76.2352 119.9L76.2666 119.883ZM77.6114 119.132C77.4121 119.524 77.4916 119.896 77.8085 120.056C78.1321 120.221 78.5128 120.032 78.7345 119.597C78.9327 119.206 78.8599 118.836 78.5531 118.681C78.2194 118.512 77.8331 118.696 77.6114 119.132Z" fill="#4F7F03"/>
<path d="M75.7134 117.185L75.8221 116.91L75.9016 116.969C75.9038 116.97 76.0337 117.066 76.1468 117.123C76.252 117.177 76.4626 117.273 76.4626 117.273L76.5241 117.301L76.4603 117.496L76.4435 117.525L76.3853 117.573L76.3394 117.546C76.3394 117.546 76.261 117.499 76.2274 117.483C76.214 117.476 76.2028 117.47 76.2028 117.47C76.1961 117.476 76.1793 117.496 76.149 117.548C76.149 117.548 75.7717 118.248 75.6731 118.443C75.5377 118.71 75.6037 118.915 75.8702 119.049C76.1311 119.181 76.3506 119.08 76.5185 118.748L76.9116 117.924C76.9407 117.855 76.9485 117.843 76.8399 117.765L76.7907 117.732L76.9026 117.46L76.9799 117.515C76.981 117.516 77.1366 117.625 77.2497 117.681C77.3528 117.733 77.5644 117.832 77.5644 117.832L77.626 117.86L77.5622 118.056L77.5431 118.084L77.486 118.134L77.439 118.105C77.4401 118.103 77.3371 118.046 77.327 118.041C77.3214 118.046 77.3069 118.06 77.2777 118.119L76.8097 119.038C76.5925 119.465 76.2117 119.59 75.7874 119.375C75.3148 119.135 75.1614 118.739 75.3775 118.315L75.8523 117.381C75.8881 117.31 75.8893 117.308 75.7627 117.221L75.7134 117.185Z" fill="#4F7F03"/>
<path d="M73.3016 117.755C73.4517 117.816 73.502 117.797 73.5883 117.709C74.1045 117.198 74.7763 116.457 74.7819 116.449L74.8222 116.406L74.8726 116.431L75.0898 116.616L74.9062 118.346C74.8905 118.522 74.9163 118.56 74.979 118.6L75.0271 118.631L74.942 118.919L74.8592 118.873C74.8592 118.873 74.6912 118.776 74.558 118.71C74.3799 118.619 74.1694 118.536 74.1694 118.536L74.1022 118.51L74.1683 118.314L74.1896 118.283L74.2467 118.245L74.4426 118.345C74.5423 118.395 74.5535 118.374 74.5669 118.348C74.5748 118.331 74.5826 118.295 74.5904 118.253L74.6285 117.957C74.5714 117.919 74.4729 117.856 74.3833 117.811C74.3228 117.78 74.2187 117.727 74.1448 117.693L73.9365 117.906C73.9052 117.94 73.8704 117.98 73.8525 118.015C73.8536 118.024 73.8772 118.056 74.0216 118.144L74.0765 118.178L74.0014 118.367L73.9253 118.432L73.8772 118.4C73.8749 118.398 73.6924 118.272 73.4864 118.167C73.3945 118.121 73.193 118.028 73.193 118.028L73.1325 118.001L73.1963 117.788L73.2647 117.743L73.3016 117.755ZM74.7282 117.758L74.8424 116.882L74.8222 116.872L74.2332 117.488C74.2937 117.526 74.409 117.596 74.4863 117.635L74.7282 117.758Z" fill="#4F7F03"/>
<path d="M72.1111 116.619L72.3204 116.756L72.3036 116.809C72.2017 117.149 72.2174 117.192 72.5074 117.34C72.6754 117.426 72.6754 117.426 72.7504 117.277C72.8982 116.985 73.1222 116.523 73.2599 116.194L73.2823 116.143C73.3394 116.008 73.3394 116.008 73.2353 115.933L73.1871 115.899L73.2946 115.627L73.3741 115.681C73.3741 115.681 73.5365 115.795 73.6496 115.851C73.7526 115.904 73.9609 115.999 73.9609 115.999L74.0225 116.027L73.9586 116.222L73.9385 116.256L73.8747 116.298L73.8332 116.272C73.8332 116.272 73.7806 116.237 73.7504 116.222C73.7324 116.213 73.7246 116.21 73.7212 116.208C73.7179 116.213 73.7022 116.227 73.672 116.285L73.083 117.454C73.0147 117.587 73.0304 117.618 73.1289 117.687L73.1759 117.721L73.0752 118.005L72.9934 117.944C72.9934 117.944 72.8467 117.835 72.6474 117.733C72.3865 117.602 71.8949 117.383 71.8893 117.38L71.8557 117.365L71.8356 117.282L71.8423 117.26C71.952 116.976 72.0293 116.702 72.0304 116.699L72.0506 116.663L72.1111 116.619Z" fill="#4F7F03"/>
<path d="M71.0705 116.605C71.0705 116.605 71.1444 116.652 71.2071 116.683C71.2553 116.708 71.2642 116.712 71.3258 116.591C71.44 116.367 71.7032 115.796 71.8935 115.374C71.9204 115.312 71.9294 115.294 71.8006 115.207L71.7502 115.174L71.861 114.903L71.9372 114.955C71.9394 114.956 72.1152 115.075 72.2362 115.137C72.3493 115.194 72.5665 115.293 72.5665 115.293L72.627 115.32L72.5665 115.516L72.5463 115.551L72.4836 115.592L72.4422 115.569C72.4422 115.569 72.3112 115.494 72.3045 115.494C72.3011 115.497 72.2865 115.511 72.2552 115.57L71.6662 116.738C71.608 116.853 71.608 116.89 71.7468 116.998L71.7894 117.03L71.6886 117.315L71.6069 117.252C71.6035 117.248 71.4467 117.13 71.3124 117.06C71.1847 116.997 70.9485 116.887 70.9462 116.886L70.8902 116.86L70.9451 116.656L70.9619 116.625L71.0224 116.575L71.0705 116.605Z" fill="#4F7F03"/>
<path d="M68.6662 113.302L68.7054 113.327C68.7077 113.328 68.8432 113.411 68.9495 113.466C69.0458 113.514 69.2608 113.599 69.2631 113.599L69.3291 113.625L69.2687 113.81L69.2474 113.842L69.1914 113.876L69.1556 113.861C69.0537 113.82 69.0358 113.825 69.0335 113.823C69.0201 113.851 69.0145 113.895 69.0178 113.946L69.0324 114.567C69.2071 114.435 69.5452 114.166 69.5844 114.109C69.5811 114.099 69.5587 114.072 69.4467 114.002L69.3941 113.97L69.4657 113.792L69.5396 113.73L69.5867 113.759C69.5867 113.759 69.814 113.903 69.964 113.978C70.0917 114.043 70.2708 114.123 70.2708 114.123L70.2888 114.132L70.3335 114.12L70.5732 114.283L71.4253 114.718L71.7019 114.815L71.7422 114.912L71.7287 114.941C71.619 115.176 71.5283 115.432 71.5283 115.436L71.4947 115.524L71.2417 115.365L71.2607 115.308C71.3548 115.033 71.3604 115.013 71.0491 114.838L70.4702 115.978C70.3403 116.234 70.3403 116.234 70.5485 116.363L70.5944 116.393L70.5149 116.668L70.4321 116.621C70.4321 116.621 70.1947 116.489 70.0592 116.419C69.9293 116.354 69.6494 116.221 69.6494 116.221L69.5912 116.194L69.6505 115.992L69.6729 115.953L69.7423 115.918L69.7804 115.944C69.7838 115.946 69.8285 115.979 69.9192 116.023C69.9819 116.055 70.0133 116.065 70.0726 115.95C70.2776 115.548 70.5665 114.933 70.6829 114.651C70.3806 114.516 70.3683 114.533 70.188 114.778L70.1465 114.835L69.8946 114.678L69.9394 114.613C69.9416 114.611 70.0122 114.505 70.0939 114.374C69.9842 114.345 69.9204 114.367 69.7602 114.487L69.2149 114.896C69.0861 114.991 69.0436 115.049 68.9966 115.143L68.9339 115.265C68.8387 115.451 68.8353 115.471 68.9764 115.581L69.0178 115.614L68.9215 115.901L68.8376 115.836C68.8353 115.835 68.6819 115.716 68.5487 115.649C68.43 115.588 68.1937 115.478 68.1937 115.478L68.1355 115.451L68.1971 115.25L68.215 115.221L68.2732 115.17L68.3202 115.2C68.3202 115.2 68.4669 115.295 68.4904 115.286C68.4983 115.283 68.5207 115.268 68.561 115.18L68.5912 115.114C68.711 114.87 68.7513 114.788 68.7446 114.688L68.7133 113.997C68.7021 113.715 68.6998 113.672 68.5655 113.57L68.5229 113.537L68.5834 113.35L68.6662 113.302Z" fill="#4F7F03"/>
<path d="M82.3258 94.7607C82.5699 94.885 82.6673 95.1829 82.543 95.4281C82.4982 95.5165 82.4266 95.5781 82.3459 95.6252L84.4477 99.43L88.2358 95.7673C88.0936 95.6195 88.0477 95.3956 88.1462 95.2019C88.2694 94.9578 88.5684 94.8604 88.8125 94.9858C89.0566 95.1089 89.154 95.4079 89.0297 95.652C88.9312 95.8469 88.724 95.942 88.5202 95.9129L87.7957 101.132L92.1751 100.577C92.1739 100.501 92.1851 100.42 92.2221 100.347C92.3464 100.102 92.6454 100.004 92.8895 100.13C93.1336 100.253 93.231 100.552 93.1078 100.796C92.9835 101.041 92.6846 101.139 92.4404 101.014C92.3587 100.973 92.3005 100.907 92.2546 100.834L90.9165 101.627C88.9659 102.781 87.2862 104.342 85.9918 106.203L81.4165 103.879C82.1567 101.737 82.4265 99.4592 82.2082 97.2029L82.0638 95.6979C81.9999 95.6946 81.9372 95.6766 81.8756 95.6464C81.6315 95.5232 81.5341 95.2232 81.6584 94.9791C81.7838 94.735 82.0817 94.6375 82.3258 94.7607Z" fill="#EAB50A"/>
<g opacity="0.5">
<path d="M141.641 8.32508C141.595 8.31053 141.551 8.29709 141.506 8.28365C141.561 8.18175 141.61 8.07649 141.666 7.97571L141.641 8.32508Z" fill="white"/>
<path d="M130.624 18.5708C131.814 17.357 132.83 15.9752 133.635 14.477C134.836 12.2454 135.569 9.75841 137.026 7.68576C137.17 7.47972 137.34 7.26697 137.583 7.20538C137.775 7.15835 137.978 7.21546 138.167 7.27257C139.281 7.61073 140.393 7.94777 141.506 8.2837C139.072 12.7705 137.024 17.4645 135.399 22.304C135.302 22.5929 135.197 22.8964 134.964 23.0934C134.731 23.2905 134.329 23.3197 134.152 23.0722C134.028 22.8964 134.057 22.6579 134.098 22.4463C134.253 21.6333 134.417 20.6132 133.74 20.1385C133.355 20.4341 133.25 20.957 133.02 21.3847C132.792 21.8125 132.229 22.1786 131.847 21.8797C131.256 21.4183 132.121 20.3803 131.727 19.7409C130.819 19.8787 129.959 20.3243 129.324 20.9894C129.175 20.0489 129.958 19.2505 130.624 18.5708Z" fill="white"/>
</g>
<g opacity="0.5">
<path d="M121.41 14.103C124.769 10.7158 127.173 6.39134 128.279 1.75111L128.528 1.61115C129.787 2.51926 131.044 3.42625 132.303 4.33436C132.433 4.4273 132.567 4.52808 132.63 4.67476C132.761 4.9771 132.537 5.30294 132.328 5.55825C130.801 7.42262 129.459 9.43706 128.323 11.5612C127.863 12.4223 127.433 13.3147 127.265 14.2766C127.134 15.0246 127.167 15.7961 127.021 16.5419C126.821 17.5709 126.275 18.5283 125.494 19.2259C125.195 18.7399 125.373 18.1185 125.391 17.5474C125.41 16.9774 125.046 16.2619 124.486 16.3672C124.117 16.4388 123.918 16.8252 123.717 17.142C123.514 17.4589 123.134 17.7702 122.801 17.5989C122.386 17.3861 122.565 16.768 122.758 16.3437C122.951 15.9204 122.955 15.2273 122.492 15.1937C122.043 15.1612 121.876 15.8454 121.444 15.9742C121.03 16.0973 120.652 15.5946 120.715 15.1679C120.779 14.7413 121.107 14.4087 121.41 14.103Z" fill="#EAB50A"/>
</g>
<g opacity="0.5">
<path d="M129.11 25.2019C129.991 24.903 131.144 25.9678 130.558 26.6901C130.558 26.6901 121.379 47.9832 117.956 59.3733C117.534 60.7774 117.058 62.2622 115.938 63.2106C114.819 64.1579 112.842 64.2374 112.07 62.9889C111.371 61.8569 111.992 60.4 112.609 59.221C118.046 48.8275 122.993 38.1787 127.432 27.3227C127.784 26.4594 128.228 25.502 129.11 25.2019Z" fill="#FFEE50"/>
</g>
<g opacity="0.2">
<path d="M99.3745 54.276C103.435 51.4296 105.972 46.9383 108.375 42.5992C112.546 35.0689 116.716 27.5398 120.886 20.0095L121.014 20.5033C121.264 21.4483 122.601 21.529 123.293 22.221C124.339 23.2679 123.486 25.0226 122.625 26.2252C115.509 36.1562 109.429 46.8296 104.515 58.0182C104.329 58.4403 104.104 58.9039 103.673 59.0651C103.188 59.2465 102.665 58.9688 102.227 58.6956C101.222 58.0686 100.239 57.409 99.2782 56.717C98.8606 56.4169 98.4048 56.0306 98.4104 55.5155C98.4127 54.9702 98.9278 54.5895 99.3745 54.276Z" fill="#EF1414"/>
</g>
<g opacity="0.3">
<path d="M100.345 52.6625C108.824 44.289 113.269 32.7814 119.552 22.6544C119.747 22.3398 119.963 22.0095 120.303 21.8661C120.644 21.7228 121.131 21.8796 121.185 22.2457L120.715 21.8639C121.393 22.5581 120.916 23.7081 120.413 24.539C114.38 34.4812 108.348 44.4245 102.316 54.3679C101.699 55.3858 100.471 56.5436 99.5275 55.818C99.036 55.4395 98.971 54.6915 99.2062 54.116C99.4402 53.5426 99.9027 53.0992 100.345 52.6625Z" fill="#EF1414"/>
</g>
<g opacity="0.5">
<path d="M89.244 137.688C95.9927 129.511 101.701 120.179 103.885 109.805C106.067 99.4309 104.329 87.8885 97.5693 79.7222C101.485 82.4858 105.965 84.4442 110.654 85.4385C110.978 85.5068 111.315 85.5762 111.584 85.7711C112.463 86.4071 112.057 87.7788 111.567 88.7463C111.567 88.7463 97.5481 130.368 86.0964 149.786C84.7852 152.009 83.1011 154.459 80.5357 154.751C79.4966 154.868 78.4564 154.6 77.4441 154.333C72.7837 153.105 68.0472 151.844 63.9433 149.318C67.1772 150.224 70.6585 150.23 73.8956 149.338C80.1886 147.599 85.0898 142.721 89.244 137.688Z" fill="#9FC303"/>
</g>
<g opacity="0.7">
<path d="M109.686 86.0311C110.046 86.0848 110.409 86.3088 110.564 86.6514C110.839 87.2617 110.661 87.9705 110.479 88.6143C108.437 95.849 106.394 103.088 103.968 110.204C105.514 103.249 106.602 96.1939 107.221 89.0969C107.304 88.1552 107.396 87.162 107.942 86.3905C108.487 85.619 109.686 86.0311 109.686 86.0311Z" fill="white"/>
<g opacity="0.5">
<path d="M84.748 147.447C87.273 144.855 89.2964 141.827 91.1865 138.734C89.3613 142.331 87.2607 145.941 85.4366 149.538C84.9115 150.572 83.5431 152.401 82.6317 153.119C81.8389 153.743 81.5522 153.751 80.5747 154.005C78.4315 154.563 74.1193 152.486 72.0803 151.621C79.9017 152.565 81.9161 150.355 84.748 147.447Z" fill="white"/>
</g>
</g>
<g opacity="0.15">
<path d="M107.603 71.237C108.868 69.0826 109.159 66.515 109.512 64.0414C109.568 63.6495 109.674 63.1938 110.038 63.0404C110.59 62.8075 111.069 63.4547 111.435 63.9284C112.439 65.2239 114.362 65.7088 115.861 65.0436C116.188 64.8992 116.638 64.7357 116.844 65.028C116.958 65.1926 116.914 65.4165 116.865 65.6113C116.482 67.1308 114.491 76.7595 113.614 82.0347C113.567 82.3112 113.506 82.6158 113.283 82.786C113.01 82.9921 112.625 82.9069 112.297 82.8129C107.074 81.3236 101.824 79.7201 97.1284 76.9924C101.217 76.4438 105.512 74.7955 107.603 71.237Z" fill="white"/>
</g>
<g opacity="0.5">
<path d="M114.48 70.1137C114.34 71.0196 113.778 74.8738 113.656 75.9308C113.623 76.2096 113.235 78.7604 113.069 79.551C112.949 80.1254 112.735 80.7894 112.175 80.9663C111.609 81.1433 111.008 80.6629 110.832 80.0963C110.657 79.5286 110.789 78.9172 110.924 78.3394C111.501 75.8368 112.058 73.3296 112.656 70.8326C114.546 62.9283 114.89 67.4532 114.48 70.1137Z" fill="white"/>
</g>
<g opacity="0.5">
<path d="M70.1231 156.212C71.235 156.505 72.3648 156.782 73.5148 156.8C74.6502 156.817 75.789 156.582 76.9155 156.717C77.8224 156.825 78.6813 157.168 79.5289 157.508C79.6924 157.573 79.8649 157.645 79.9679 157.787C80.3072 158.255 79.6454 158.793 79.1034 158.994L79.4797 158.949C78.7059 159.183 77.9008 159.31 77.0935 159.326C75.7845 159.351 74.4878 159.088 73.2158 158.773C70.3459 158.064 67.5376 157.098 64.8401 155.888C64.0496 155.534 63.156 155 63.1101 154.135C65.4246 154.899 67.7638 155.593 70.1231 156.212Z" fill="#9FC303"/>
</g>
<path d="M43.8181 139.76C44.2526 139.575 44.8483 139.887 44.8606 140.36L44.8651 140.371C48.1516 143.914 52.1401 146.802 56.5474 148.786C57.0995 149.035 57.7556 149.421 57.703 150.023C55.7177 149.057 53.7312 148.09 51.7459 147.122C51.5903 147.047 51.4201 146.968 51.251 147.007C50.9554 147.074 50.849 147.475 50.9744 147.75C51.0998 148.026 51.3731 148.199 51.6328 148.357C54.1937 149.924 56.7546 151.489 59.3154 153.055C58.5865 153.258 57.8161 152.987 57.1174 152.695C51.7079 150.427 46.9792 146.562 43.6782 141.714C43.5147 141.475 43.3546 141.228 43.2862 140.948C43.1754 140.491 43.3825 139.946 43.8181 139.76Z" fill="#193301"/>
<g opacity="0.3">
<path d="M124.71 23.8268C122.731 23.1381 120.719 22.417 118.915 21.3756C119.164 20.8975 119.426 20.4272 119.669 19.9491L120.144 19.0141C120.216 19.0622 120.304 19.116 120.381 19.1652C121.246 19.7721 122.879 20.6959 124.363 21.491C124.395 21.51 124.427 21.5268 124.459 21.5447C125.074 21.8739 125.649 22.1751 126.125 22.417C126.141 22.4248 126.158 22.4349 126.175 22.4427C126.181 22.4472 126.188 22.4495 126.195 22.454C126.21 22.4618 126.23 22.4719 126.244 22.4775C126.438 22.576 126.689 22.6992 126.964 22.8313C128.763 23.7204 130.563 24.53 131.996 25.0943C132.245 25.1973 132.466 25.2847 132.645 25.3507L132.134 26.3563C131.78 26.2745 131.431 26.1715 131.099 26.0562C128.97 25.3127 126.841 24.5703 124.71 23.8268Z" fill="#EF1414"/>
</g>
<path d="M92.5684 116.2L92.6446 116.238C92.8473 115.993 93.069 115.836 93.3097 115.767C93.5516 115.696 93.789 115.722 94.0208 115.841C94.2761 115.97 94.425 116.179 94.4664 116.472C94.5067 116.765 94.4362 117.092 94.2503 117.456C94.0454 117.859 93.7991 118.129 93.5102 118.262C93.2224 118.393 92.9234 118.382 92.6155 118.225C92.4486 118.14 92.3131 118.028 92.209 117.889C92.1049 117.749 92.0198 117.566 91.9548 117.341L91.8809 117.486C91.9638 117.998 92.2404 118.37 92.7084 118.609C93.1283 118.822 93.5348 118.865 93.9289 118.739C94.3242 118.612 94.6277 118.341 94.8393 117.925C95.0532 117.504 95.0912 117.078 94.9524 116.651C94.8124 116.224 94.5336 115.903 94.1115 115.689C93.939 115.601 93.724 115.541 93.4687 115.507C93.359 115.494 93.2862 115.478 93.2537 115.46C93.1865 115.428 93.1541 115.35 93.1563 115.233L93.0802 115.194L92.5684 116.2Z" fill="#EF1414"/>
<path d="M89.2813 116.117L89.6922 115.309L91.009 115.979L90.5678 116.846C90.504 116.97 90.4391 117.047 90.3719 117.075C90.3058 117.099 90.1927 117.096 90.0371 117.06L89.9957 117.14L91.2845 117.795L91.3248 117.715C91.2408 117.641 91.1804 117.579 91.1479 117.524C91.1143 117.469 91.0986 117.416 91.1031 117.36C91.1064 117.307 91.14 117.217 91.2039 117.094L92.0952 115.339C92.1579 115.216 92.2239 115.139 92.2945 115.113C92.365 115.087 92.4804 115.093 92.6383 115.132L92.6797 115.053L91.3909 114.398L91.3494 114.477C91.467 114.573 91.5353 114.661 91.5555 114.735C91.5756 114.808 91.5566 114.9 91.5017 115.011L91.1109 115.782L89.793 115.112L90.1737 114.362C90.2364 114.239 90.3036 114.164 90.373 114.137C90.4436 114.111 90.5555 114.114 90.7123 114.153L90.7526 114.073L89.4571 113.414L89.4156 113.495C89.5433 113.607 89.6161 113.7 89.634 113.768C89.6519 113.838 89.6205 113.953 89.5388 114.115L88.6464 115.871C88.5848 115.991 88.5187 116.067 88.4493 116.094C88.3799 116.122 88.2634 116.116 88.1033 116.078L88.0619 116.158L89.3585 116.816L89.3988 116.736C89.2813 116.637 89.2118 116.551 89.1906 116.474C89.1704 116.396 89.1995 116.278 89.2813 116.117Z" fill="#EF1414"/>
<path d="M86.132 115.178L86.1724 115.096C86.0705 115.019 86.0044 114.953 85.9742 114.898C85.9439 114.843 85.9428 114.787 85.973 114.73C85.9966 114.684 86.0492 114.623 86.1332 114.545L86.5049 114.206L87.4847 114.703L87.4354 115.136C87.4231 115.247 87.403 115.331 87.3738 115.386C87.3123 115.507 87.1768 115.546 86.9685 115.502L86.9282 115.582L87.815 116.032L87.8553 115.953C87.7579 115.88 87.6918 115.777 87.6605 115.644C87.628 115.511 87.6269 115.318 87.656 115.067L87.9404 112.555L87.5664 112.363L85.6147 114.138C85.4389 114.292 85.2934 114.392 85.1825 114.431C85.0694 114.472 84.9529 114.465 84.8298 114.416L84.7883 114.495L86.132 115.178ZM87.4959 114.461L86.6796 114.046L87.6616 113.145L87.4959 114.461Z" fill="#EF1414"/>
<path d="M82.3217 109.79L82.2803 109.871C82.381 109.946 82.4437 110.024 82.4684 110.099C82.493 110.175 82.4818 110.264 82.4337 110.356C82.4169 110.39 82.3934 110.428 82.3654 110.471L81.2467 112.06C81.165 112.175 81.0732 112.249 80.9724 112.282C80.8727 112.316 80.7518 112.312 80.6107 112.271L80.5693 112.351L81.9253 113.039L81.9656 112.959C81.8682 112.873 81.81 112.789 81.7932 112.701C81.7741 112.616 81.7954 112.514 81.8536 112.401C81.8816 112.345 81.9231 112.279 81.9746 112.203L82.9935 110.751L82.7528 113.46L82.8513 113.512L84.8859 111.713L84.3048 113.445C84.2801 113.515 84.2555 113.575 84.2297 113.627C84.1088 113.867 83.9296 113.939 83.6967 113.84L83.6564 113.921L84.6508 114.426L84.6922 114.346C84.55 114.266 84.4649 114.163 84.438 114.034C84.41 113.906 84.4358 113.726 84.5119 113.493L85.1513 111.564C85.3282 111.502 85.4928 111.509 85.6451 111.58L85.6865 111.5L84.6933 110.996L83.0574 112.443L83.2511 110.265L82.3217 109.79Z" fill="#EF1414"/>
<path d="M81.7412 109.495L80.3326 108.779C80.0426 108.631 79.7794 108.582 79.5443 108.631C79.3091 108.68 79.1367 108.813 79.0269 109.028C78.9094 109.259 78.9049 109.498 79.0157 109.739C79.1255 109.984 79.3438 110.185 79.6697 110.352C79.7828 110.409 79.9026 110.459 80.028 110.505L79.6305 111.289C79.5678 111.411 79.4972 111.49 79.42 111.52C79.3438 111.548 79.2341 111.542 79.0908 111.497L79.0505 111.578L80.3471 112.236L80.3886 112.157C80.2631 112.058 80.1915 111.971 80.1736 111.892C80.1545 111.813 80.1814 111.703 80.2519 111.565L81.1623 109.772C81.2261 109.649 81.2911 109.571 81.3605 109.547C81.4288 109.522 81.543 109.53 81.7009 109.574L81.7412 109.495ZM80.4781 109.05L80.7088 109.166L80.1109 110.345C80.0302 110.332 79.9575 110.306 79.8936 110.275C79.7257 110.19 79.6215 110.069 79.5812 109.913C79.5409 109.758 79.57 109.584 79.6697 109.389C79.7593 109.212 79.8791 109.091 80.028 109.03C80.1758 108.965 80.327 108.971 80.4781 109.05Z" fill="#EF1414"/>
<path d="M76.6312 110.351L76.6726 110.271C76.5707 110.194 76.5047 110.126 76.4733 110.071C76.4431 110.016 76.4431 109.96 76.4722 109.903C76.4957 109.858 76.5483 109.795 76.6323 109.72L77.0052 109.379L77.9839 109.876L77.9346 110.308C77.9223 110.42 77.901 110.504 77.873 110.56C77.8114 110.68 77.6759 110.72 77.4677 110.675L77.4262 110.756L78.3131 111.206L78.3534 111.126C78.256 111.054 78.191 110.951 78.1585 110.818C78.1261 110.683 78.1249 110.492 78.1541 110.24L78.4385 107.727L78.0634 107.537L76.1128 109.311C75.937 109.466 75.7914 109.565 75.6794 109.606C75.5663 109.645 75.4499 109.639 75.3267 109.588L75.2853 109.668L76.6312 110.351ZM77.9962 109.634L77.1788 109.219L78.1608 108.318L77.9962 109.634Z" fill="#EF1414"/>
<path d="M73.994 105.557L73.6032 106.328L73.6883 106.371C73.8753 106.203 74.0847 106.1 74.3198 106.063C74.5527 106.026 74.7711 106.061 74.9782 106.166C75.2559 106.306 75.4105 106.534 75.4418 106.847C75.4743 107.161 75.3802 107.532 75.1619 107.964C74.9592 108.361 74.7297 108.625 74.4732 108.756C74.2179 108.887 73.947 108.88 73.6603 108.734C73.386 108.595 73.2975 108.429 73.396 108.235L73.6032 107.827C73.6995 107.638 73.8484 107.574 74.0556 107.632L74.097 107.553L72.9425 106.966L72.9022 107.046C72.9885 107.124 73.0355 107.206 73.0433 107.285C73.0523 107.366 73.0232 107.469 72.9593 107.594L72.6637 108.176C72.872 108.446 73.1945 108.693 73.629 108.914C73.919 109.061 74.2067 109.133 74.4923 109.125C74.7778 109.118 75.0421 109.036 75.2817 108.877C75.5213 108.721 75.7072 108.511 75.8416 108.247C76.0543 107.828 76.0913 107.407 75.9502 106.985C75.8091 106.564 75.5247 106.244 75.0947 106.025C74.9256 105.94 74.7218 105.882 74.4856 105.853C74.3601 105.838 74.2751 105.818 74.228 105.794C74.1575 105.759 74.1082 105.693 74.078 105.6L73.994 105.557Z" fill="#EF1414"/>
<path d="M71.4371 104.36L71.4785 104.28L70.5536 103.809L70.5122 103.889C70.7708 104.04 70.8268 104.257 70.6824 104.54L69.5402 106.789L69.6309 106.834L72.7349 105.611L71.8827 107.289C71.8077 107.436 71.7293 107.523 71.6465 107.555C71.5636 107.586 71.4337 107.575 71.2579 107.519L71.2165 107.598L72.1627 108.08L72.2041 107.999C72.0865 107.915 72.016 107.825 71.9958 107.727C71.9734 107.632 72.0003 107.512 72.0731 107.37L73.0204 105.506C73.1816 105.45 73.2925 105.417 73.3474 105.408C73.4034 105.398 73.4616 105.401 73.522 105.419L73.5635 105.339L72.7382 104.92L70.1998 105.945L70.8279 104.708C70.9198 104.527 71.0082 104.415 71.0911 104.369C71.1728 104.324 71.2881 104.321 71.4371 104.36Z" fill="#EF1414"/>
<path d="M68.0448 103.725L67.9552 103.68L67.523 104.529L67.6126 104.575C67.7626 104.359 67.9496 104.305 68.1702 104.417L68.6539 104.664L68.2441 105.471C68.1814 105.594 68.1097 105.667 68.0269 105.689C67.9451 105.709 67.8354 105.686 67.6977 105.617L67.5375 105.536C67.2688 105.4 67.1635 105.133 67.2207 104.733L67.14 104.693L66.8534 105.384L68.9417 106.444L68.9831 106.365C68.8611 106.265 68.7894 106.179 68.7715 106.1C68.7525 106.024 68.7838 105.905 68.8633 105.75L69.7591 103.986C69.8241 103.859 69.8935 103.78 69.9663 103.755C70.0379 103.731 70.1477 103.738 70.2955 103.78L70.3369 103.701L68.2799 102.655L67.9709 103.264L68.0504 103.304C68.187 103.15 68.3057 103.057 68.4042 103.031C68.5039 103.004 68.6282 103.028 68.7782 103.104L69.309 103.374L68.7334 104.508L68.2497 104.262C68.1388 104.206 68.0683 104.137 68.037 104.054C68.0067 103.974 68.009 103.863 68.0448 103.725Z" fill="#EF1414"/>
<g opacity="0.5">
<path d="M31.8246 91.3433C32.0654 90.3243 32.6689 89.4039 32.7965 88.3648C32.9108 87.4455 32.6376 86.5217 32.2938 85.6617C32.2109 85.4557 32.1426 85.1791 32.3207 85.047C32.4203 84.973 32.5592 84.9831 32.6823 85.0089C33.4259 85.1612 34.0328 85.6807 34.5814 86.207C35.6474 87.2271 36.6306 88.3323 37.5196 89.5092C37.6081 89.6256 37.6999 89.7477 37.8309 89.8115C38.1825 89.9839 38.5666 89.6738 38.8521 89.4073C39.9237 88.4073 41.2574 87.6952 42.6828 87.3592C42.9661 87.292 43.283 87.2204 43.4375 86.9752C43.5204 86.8475 43.5428 86.6908 43.5629 86.5407C43.7186 85.403 43.8742 84.2665 44.0299 83.1288L44.0702 83.3315C47.4361 83.9205 50.8032 84.5117 54.1692 85.1007C54.411 85.1421 54.6697 85.1948 54.8399 85.3728C54.9698 85.5094 55.0246 85.6998 55.0728 85.8823C55.692 88.1934 56.4635 90.4565 56.7132 92.8337C56.73 92.9904 56.4098 93.2469 56.3504 93.3913C56.1937 93.7776 55.664 93.7933 55.2508 93.7519C53.7011 93.594 52.0607 93.5167 50.6588 94.1964C49.5692 94.7249 48.7395 95.6555 47.7933 96.4113C46.8483 97.166 45.6345 97.7774 44.4598 97.4851C43.5629 97.2623 42.8788 96.5624 42.114 96.044C40.7837 95.1415 39.1679 94.7731 37.5823 94.5044C35.9677 94.2311 34.0966 94.1158 32.9108 95.2445C32.7092 95.436 32.4002 95.6678 32.1986 95.4763C32.1269 95.408 32.1023 95.305 32.081 95.2087C31.8033 93.9366 31.5245 92.6109 31.8246 91.3433Z" fill="#0071BC"/>
</g>
<g opacity="0.5">
<path d="M36.4897 89.9313C38.9364 90.9391 41.5734 92.004 44.1499 91.406C44.3268 91.3657 44.5228 91.3198 44.6784 91.4127C44.824 91.499 44.8822 91.6782 44.927 91.8416C45.3939 93.4977 45.8609 95.1538 46.3278 96.8122C46.2102 95.5681 46.0915 94.3219 45.974 93.0789C45.9493 92.8192 45.9292 92.5392 46.0602 92.3142C46.1834 92.1059 46.4118 91.9861 46.6301 91.8786C48.4318 90.9884 50.2346 90.097 52.0374 89.208C52.2524 89.1005 52.4898 88.9919 52.7249 89.0423C53.1023 89.1229 53.2792 89.5741 53.268 89.9582C53.2579 90.3456 53.1258 90.7275 53.1672 91.1104C53.2411 91.7946 53.8637 92.3186 54.53 92.4978C55.1951 92.6758 55.9005 92.5818 56.5836 92.4877C56.3081 90.4475 55.8188 88.4365 55.1257 86.4982C55.035 86.2451 54.7326 85.6785 54.7763 85.4143C54.8345 85.0627 55.3283 85.1019 55.5848 84.8544C56.4817 83.9888 57.2118 82.9486 57.7201 81.8098C58.4446 81.7471 59.0683 82.7157 59.7357 82.4279C60.0167 82.307 60.1634 82.0002 60.2866 81.7202C60.6841 80.8099 61.0827 79.9006 61.4813 78.9903C61.6068 78.7036 61.7423 78.4035 61.9897 78.2132C62.2204 78.0351 62.5194 77.9735 62.806 77.9187C65.0869 77.4797 67.369 77.0408 69.6499 76.6019C69.8302 76.5683 70.0205 76.5336 70.193 76.5963C70.4024 76.6724 70.5356 76.874 70.6532 77.0632C71.2153 77.959 71.5725 78.5289 72.1346 79.4247C72.2455 79.6017 69.2031 79.6644 68.4439 80.2769C68.2861 80.4034 70.1829 86.9595 70.2691 87.1432C70.4013 87.4242 80.0848 84.084 78.347 88.1319C78.2305 88.4018 77.3325 94.1259 77.0425 94.1819C76.8835 94.2121 76.7211 94.1584 76.5688 94.1058C74.6137 93.416 72.7158 92.5639 70.9018 91.5617L70.7036 91.0679C70.3934 93.1237 72.4829 95.0396 72.007 97.063C71.5927 98.8199 69.4965 99.5735 67.6926 99.6787C66.041 99.7728 64.3893 99.5735 62.75 99.3585C57.9754 98.7269 53.1941 97.9409 48.3792 98.0361C44.8139 98.1066 41.1949 98.6542 37.717 97.8636C37.3822 97.7886 37.0328 97.6912 36.7898 97.4471C36.5267 97.1839 36.4371 96.7987 36.3576 96.4348C35.9321 94.4708 35.5066 92.5068 35.08 90.5416C35.0576 90.4386 35.0352 90.3322 35.0486 90.2281C35.1203 89.6626 35.9612 89.7152 36.4897 89.9313Z" fill="#0071BC"/>
</g>
<g opacity="0.5">
<path d="M60.6842 97.3282C56.8994 97.1838 53.1147 97.0404 49.3299 96.896C49.0937 96.887 48.8473 96.8736 48.6379 96.7628C48.4162 96.6452 48.2684 96.4291 48.1475 96.2051L60.9775 97.2767C60.8891 97.3181 60.7849 97.3327 60.6842 97.3282Z" fill="#0071BC"/>
</g>
<g opacity="0.5">
<path d="M46.0928 97.5243C45.4355 97.1133 44.9406 96.5165 44.4624 95.8973L45.6852 96.0003C45.8207 96.5064 45.9573 97.0148 46.0928 97.5243Z" fill="#0071BC"/>
</g>
<g opacity="0.5">
<path d="M61.1399 96.8692C60.9193 94.0206 58.9217 91.3869 56.2365 90.4072C57.1301 89.7062 57.8053 88.7331 58.1502 87.6515C59.8208 89.1004 61.4915 90.5505 63.1633 92.0006C63.5933 92.3734 64.0658 92.7654 64.6335 92.8068C65.3423 92.8617 65.9604 92.3611 66.48 91.8763C67.6781 90.7554 68.8012 89.5528 69.8358 88.2785C69.3208 91.5348 65.5226 93.1797 64.0635 96.1358C65.751 94.5222 67.4396 92.9076 69.127 91.294C69.3835 91.0488 69.6679 90.7912 70.0217 90.7543C70.3162 90.7252 70.6006 90.8573 70.8683 90.9861C72.783 91.9099 74.6989 92.8348 76.6148 93.7597C77.0716 91.8236 77.5285 89.8887 77.9854 87.9516C78.0369 87.731 78.0861 87.4868 77.9775 87.2864C77.814 86.9863 77.3997 86.9594 77.0571 86.9729C75.0707 87.0457 73.0842 87.1689 71.1034 87.3368C70.8078 87.3626 70.4651 87.3704 70.2703 87.1476C70.1785 87.0423 70.1382 86.9035 70.1001 86.7691C69.5548 84.8376 69.0083 82.9082 68.463 80.9767C68.4048 80.7706 68.3466 80.5467 68.416 80.344C68.547 79.9599 69.0319 79.8558 69.4361 79.8199C72.2209 79.5658 75.0292 79.5702 77.814 79.8356C78.0985 79.8636 78.4131 79.9073 78.599 80.1245C78.7334 80.2813 78.7725 80.4963 78.8073 80.7001C79.076 82.3215 79.3447 83.9417 79.6135 85.5609C80.0356 84.6237 81.1027 84.0895 82.1307 84.0783C83.1586 84.0672 84.1462 84.4994 85.0084 85.0604C87.1572 86.4589 88.745 88.8081 88.9208 91.3645C88.9802 92.2167 88.8794 93.1002 88.4807 93.8538C88.2288 94.3308 87.8694 94.7395 87.5133 95.1426C86.3208 96.4941 85.1271 97.8457 83.9346 99.1972L60.9809 97.2802C61.01 97.2656 61.0436 97.2611 61.0671 97.2376C61.1511 97.1402 61.15 96.9969 61.1399 96.8692Z" fill="#0071BC"/>
</g>
<g opacity="0.5">
<path d="M44.7601 92.0779C44.8385 91.8293 45.0725 91.6681 45.2942 91.5292C47.5214 90.1284 49.9401 89.0333 52.4606 88.2808C52.9052 89.3502 52.1213 90.5942 51.0968 91.1339C50.0722 91.6714 48.873 91.7196 47.7297 91.9021C47.5147 91.9357 47.2796 91.9872 47.1497 92.1641C47.0265 92.3321 47.0411 92.5616 47.0668 92.7688C47.2124 93.9221 47.5584 95.0508 48.0847 96.0877C48.1048 96.1269 48.1272 96.1661 48.1485 96.2064L45.6862 96.0004C45.3928 94.9041 45.1005 93.8079 44.8072 92.7128C44.7512 92.5034 44.6963 92.2828 44.7601 92.0779Z" fill="#0071BC"/>
</g>
<g opacity="0.5">
<path d="M34.1892 90.0477C34.0851 91.1865 34.1075 92.3353 34.2642 93.4685C34.8364 93.258 35.3705 92.9445 35.8319 92.5481C35.6718 92.1763 35.5945 91.7698 35.6068 91.3645C37.1588 91.8605 38.7096 92.3566 40.2627 92.8515C41.1025 93.1191 41.958 93.3957 42.6691 93.9164C43.3879 94.4438 43.9142 95.1851 44.4629 95.8972L32.6484 94.9107C32.6854 94.838 32.719 94.764 32.7503 94.6913C33.3942 93.1986 33.832 91.6355 34.1892 90.0477Z" fill="#0071BC"/>
</g>
<g opacity="0.5">
<path d="M32.6484 94.9108C32.5398 95.1224 32.401 95.3161 32.1882 95.4113C31.9329 95.5266 31.6362 95.4662 31.3641 95.3979C30.5019 95.184 29.6554 94.9141 28.8279 94.5905L32.6484 94.9108Z" fill="#0071BC"/>
</g>
<g opacity="0.5">
<path d="M34.1885 90.0477C34.287 88.9661 34.5009 87.8956 34.8301 86.861C34.6296 87.9247 34.4259 88.9907 34.1885 90.0477Z" fill="#0071BC"/>
</g>
<g opacity="0.84">
<path d="M24.0548 93.0106C25.3369 93.4551 26.619 93.9008 27.9012 94.3453L83.8135 99.1658C82.3813 99.0124 81.0007 99.644 79.6413 100.119C74.0717 102.057 67.987 101.45 62.1072 100.998C58.3101 100.704 54.5063 100.485 50.6992 100.41C43.4477 100.265 36.0776 100.625 29.0601 98.7918C27.6526 98.4246 26.2193 97.942 25.1533 96.9532C24.0862 95.9634 23.4804 94.3475 24.0548 93.0106Z" fill="#0071BC"/>
</g>
<g opacity="0.5">
<path d="M83.8975 83.6539C83.7418 83.6371 83.5862 83.6416 83.4316 83.6405C82.9703 83.5005 82.5011 83.3829 82.0219 83.3247L83.8975 83.6539Z" fill="#89D2EF"/>
</g>
<g opacity="0.5">
<path d="M43.8315 97.531L37.5654 97.5534C36.9451 96.0294 36.468 94.4472 36.1422 92.8348C38.8027 93.5391 41.3054 94.8324 43.4172 96.596C43.7016 96.8334 44.0062 97.204 43.8315 97.531Z" fill="#89D2EF"/>
</g>
<g opacity="0.6">
<path d="M57.6931 87.965C57.4894 87.292 57.916 86.609 58.2978 86.0189C59.5082 84.1455 60.4656 82.1132 61.1408 79.9868C61.3502 79.3262 61.5596 78.6129 62.0982 78.1773C62.2236 78.0754 62.3748 78.0037 62.5327 77.9578C62.5327 77.9578 62.5853 77.8503 62.8272 77.9007C63.1183 77.8783 63.4027 77.9545 63.6076 78.1202C65.3029 78.7204 66.7575 80.0439 67.987 81.4167C68.0116 81.1872 68.0609 80.9643 68.1717 80.7617C68.5468 80.0753 69.4035 79.839 70.1727 79.7024C72.5108 79.287 74.9037 79.1817 77.2697 79.3933C77.974 79.4572 78.703 79.5658 79.3647 79.8088L79.2169 79.718C79.3031 79.7416 79.3748 79.7852 79.4397 79.8345C79.9123 80.017 79.5316 79.9107 79.5316 79.9107C79.7869 80.1783 79.8731 80.6385 79.9089 81.0338C80.0164 82.2185 80.1239 83.402 80.2314 84.5856C80.2359 84.6326 80.2381 84.6808 80.2426 84.7278C81.1877 84.0526 82.294 83.6338 83.4328 83.6405C84.4551 83.953 85.4248 84.4412 86.2803 85.0828C87.6072 86.0771 88.69 87.4309 89.2219 89.0019C89.7537 90.5718 89.7033 92.3611 88.9464 93.8369C88.5758 94.5592 87.9823 95.2355 87.1862 95.3923C86.8077 95.4662 86.4169 95.4158 86.0351 95.3654C83.4238 95.0183 80.8126 94.6723 78.2013 94.3263C77.7713 94.2681 77.3189 94.2031 76.9741 93.9388C76.2362 93.3745 76.3448 92.2492 76.5598 91.3478C76.917 89.8473 77.3895 88.3435 78.1722 87.0278C78.0322 87.0513 77.8923 87.0703 77.7557 87.0871C76.0828 87.2786 74.3998 87.3827 72.7168 87.3973C71.8669 87.404 70.9745 87.3749 70.2108 87.0289C70.0932 87.8452 69.8178 88.6481 69.4348 89.3792C68.6857 90.8058 67.557 91.9994 66.3768 93.0979C65.8415 93.5951 65.191 94.1113 64.4676 94.0094C64.0242 93.9467 63.6491 93.6578 63.2997 93.3767C61.5563 91.967 59.8934 90.4587 58.3202 88.8597C58.0627 88.5965 57.7995 88.3177 57.6931 87.965Z" fill="#89D2EF"/>
</g>
<g opacity="0.6">
<path d="M35.4058 89.8663C37.2444 88.9772 39.0819 88.087 40.9205 87.1968C41.8253 86.759 42.7435 86.3178 43.73 86.1263C44.665 85.9471 45.6828 86.0222 46.4969 86.5081C48.34 86.8138 50.1674 87.2091 51.9702 87.6996C52.1516 87.7488 52.3599 87.8216 52.4181 88.0019C52.52 88.3143 52.0979 88.5181 51.7743 88.583C50.1943 88.8988 48.6625 89.4632 47.2561 90.2492C46.1621 90.8617 45.1196 91.6153 43.9058 91.9243C42.4703 92.2905 40.9586 91.9949 39.5063 91.6971C38.1828 91.4272 36.8603 91.1562 35.5379 90.8864C35.2681 90.8304 34.94 90.7162 34.9086 90.4418C34.8773 90.1708 35.1617 89.985 35.4058 89.8663Z" fill="#89D2EF"/>
</g>
<g opacity="0.6">
<path d="M47.2191 91.8258C49.3612 89.9223 52.5223 89.8651 55.3877 89.9424L55.8916 90.0376C56.6385 89.798 57.401 90.3332 57.953 90.8897C59.5184 92.4697 60.6124 94.511 61.0615 96.69C61.1779 97.2544 61.2462 97.868 60.9943 98.3875C60.5273 99.3472 59.2587 99.5196 58.1927 99.5566C55.6833 99.6394 53.1728 99.6641 50.6624 99.6249C50.1484 99.6159 49.5941 99.5935 49.1832 99.2833C48.7868 98.9844 48.6076 98.4861 48.4486 98.0169C47.9167 96.4425 47.3837 94.8671 46.8519 93.2916C46.769 93.0475 46.6861 92.791 46.7332 92.538C46.7858 92.2502 46.9997 92.0207 47.2191 91.8258Z" fill="#89D2EF"/>
</g>
<g opacity="0.6">
<path d="M68.7151 91.4709C69.3892 91.0376 70.126 90.6356 70.9266 90.6009C71.7743 90.5651 72.5827 90.9436 73.3195 91.3612C74.96 92.2917 78.5969 94.5133 78.5969 94.5133C78.6619 95.4617 78.7268 96.4203 78.5488 97.353C78.3707 98.2857 77.9183 99.2039 77.139 99.7459C76.3193 100.316 75.2724 100.399 74.3016 100.624C72.8593 100.956 71.4149 101.637 69.9659 101.34C69.2078 101.184 68.5304 100.77 67.8854 100.342C66.7421 99.5824 65.6426 98.7538 64.5967 97.8647C64.1578 97.4918 63.6897 97.0204 63.7311 96.446C63.758 96.0787 63.9921 95.7629 64.225 95.4774C65.4992 93.9176 67.021 92.5605 68.7151 91.4709Z" fill="#89D2EF"/>
</g>
<g opacity="0.6">
<path d="M54.5474 85.3773C53.3436 85.5509 52.1511 85.094 50.9575 84.8588C48.9934 84.4725 46.9398 84.6909 44.9926 84.2262C44.5682 84.1254 44.0721 83.8959 44.0475 83.4603C44.0341 83.2128 44.1875 82.9911 44.333 82.7918C45.0138 81.8602 45.7327 80.8961 46.7595 80.3698C47.9778 79.7461 49.4245 79.8401 50.7895 79.9499C53.3324 80.1537 56.012 80.4034 58.0947 81.8758C58.0947 81.8758 56.4039 85.1108 54.5474 85.3773Z" fill="#89D2EF"/>
</g>
<g opacity="0.6">
<path d="M24.9047 90.6379C26.3536 88.1263 28.7163 86.1567 31.4462 85.1836C31.8113 85.0548 32.202 84.9395 32.5816 85.019C33.0497 85.1175 33.3621 85.4647 33.5793 85.8991C33.6689 85.9137 33.7708 85.9596 33.8167 86.0368C34.4113 87.0301 34.1325 88.3122 33.6712 89.3737C33.2098 90.4341 32.5738 91.4598 32.4798 92.6131C32.4215 93.3197 32.566 94.0778 32.2424 94.7082C31.6679 95.8268 30.0734 95.8313 28.8585 95.5122C27.9078 95.2613 26.984 94.9131 26.1062 94.4719C25.3727 94.1035 24.6135 93.5974 24.3963 92.8069C24.1947 92.0723 24.5228 91.2985 24.9047 90.6379Z" fill="#89D2EF"/>
</g>
<g opacity="0.7">
<path d="M79.3479 90.0489C79.4061 89.9022 79.5058 89.7309 79.6614 89.7466C79.8059 89.7634 79.8731 89.9302 79.9044 90.0713C80.0332 90.6446 80.0724 91.2471 80.3277 91.7745C80.583 92.303 81.1451 92.7486 81.7206 92.6277C82.6926 92.4217 82.7609 90.9817 83.5604 90.3915C84.1785 90.9301 83.791 92.0029 84.2042 92.7117C84.66 93.491 85.9376 93.3947 86.5143 92.7005C87.0921 92.0051 87.0988 90.9929 86.8771 90.1161C86.6554 89.2416 86.2377 88.4219 86.0485 87.5396C86.007 87.347 86.0149 87.0883 86.2007 87.0278C86.7774 87.478 87.204 88.1185 87.4 88.8228L87.3182 88.7164C87.6161 89.4644 87.8311 90.246 87.9587 91.0399C88.1301 92.1014 88.0774 93.3454 87.2578 94.0397C86.4303 94.7384 85.2008 94.5749 84.1359 94.3711C82.4227 94.0431 80.7095 93.7161 78.9963 93.3869C78.8787 93.3645 78.7589 93.3421 78.657 93.2783C78.2718 93.0398 78.3927 92.4586 78.5596 92.0387C78.8227 91.3758 79.0859 90.7118 79.3479 90.0489Z" fill="white"/>
</g>
<g opacity="0.7">
<path d="M71.3255 81.6452C71.05 81.6116 70.7611 81.6072 70.5192 81.4739C70.2774 81.3396 70.1094 81.016 70.2528 80.7797C70.3334 80.6498 70.4823 80.5803 70.6245 80.5244C72.5382 79.7517 74.7127 79.6633 76.6891 80.25C77.0295 80.1403 77.4426 80.2825 77.6879 80.5625C77.9846 80.9006 78.0899 81.3597 78.1761 81.7986C78.2657 82.2577 78.3452 82.7191 78.4135 83.1815C78.4639 83.5231 78.5075 83.8825 78.3754 84.2005C78.1492 84.7447 77.4628 84.9765 76.8817 84.8668C76.3027 84.7548 75.8112 84.3841 75.3554 84.009C74.1349 83.0046 72.8942 81.8367 71.3255 81.6452Z" fill="white"/>
</g>
<g opacity="0.7">
<path d="M67.4839 83.3205C67.5052 82.8166 67.5455 82.2444 67.9363 81.9264C68.1804 82.3519 68.3114 82.8401 68.3159 83.3317L67.9497 82.2175C68.2812 83.2656 68.6137 84.3126 68.9452 85.3606C69.1635 86.0482 69.3841 86.7581 69.3225 87.4781C69.2665 88.1253 68.9844 88.7288 68.6742 89.2999C68.1703 90.2282 67.5824 91.1117 66.9196 91.9336C66.774 92.1139 66.54 92.3109 66.3373 92.1956C66.2051 92.1206 66.1693 91.9493 66.1592 91.7981C66.1189 91.1666 66.3037 90.5451 66.4672 89.9326C67.0483 87.7748 67.3887 85.5521 67.4839 83.3205Z" fill="white"/>
</g>
<g opacity="0.7">
<path d="M58.6396 87.7892L58.6386 87.7902L58.6396 87.7892Z" fill="white"/>
</g>
<g opacity="0.7">
<path d="M58.6402 87.7892C59.031 87.3604 59.5125 87.0121 59.9984 86.6896C60.9066 86.0861 61.9546 85.524 63.0307 85.6942C63.9612 85.8397 64.7417 86.534 65.1784 87.3682C65.614 88.2035 65.7461 89.1643 65.764 90.1049C65.7775 90.7577 65.7383 91.4116 65.6476 92.0577C65.5949 92.4351 65.5009 92.8494 65.1885 93.0666C64.8817 93.2782 64.4618 93.2267 64.1146 93.089C63.5872 92.8807 63.1449 92.5067 62.7127 92.1395C61.6456 91.2313 60.5774 90.3232 59.5091 89.4151C59.0131 88.9952 58.4655 88.4174 58.6402 87.7892Z" fill="white"/>
</g>
<g opacity="0.7">
<path d="M58.6387 87.7903L58.2714 88.264C58.3811 88.096 58.5054 87.9382 58.6387 87.7903Z" fill="white"/>
</g>
<g opacity="0.7">
<path d="M55.2488 84.262C55.1234 84.4031 54.9767 84.5431 54.7919 84.5868C54.5758 84.6383 54.3507 84.5476 54.157 84.4379C53.0037 83.7884 52.3609 82.476 51.2502 81.7527C50.6668 81.372 49.9826 81.1738 49.3679 80.8446C49.2346 80.7729 49.0846 80.6565 49.1114 80.5075C49.1361 80.3754 49.285 80.3116 49.416 80.2847C49.8124 80.203 50.2211 80.2478 50.6209 80.3004C51.9522 80.4762 53.2735 80.7393 54.5702 81.0864C55.2062 81.2566 55.8613 81.4604 56.3428 81.9106L56.1211 82.6765C55.9531 83.2599 55.6519 83.8063 55.2488 84.262Z" fill="white"/>
</g>
<g opacity="0.7">
<path d="M39.829 89.6973C41.2432 88.5182 42.9016 87.6403 44.6652 87.1152C44.6641 86.9864 44.8735 86.8946 45.0347 86.9002C45.1467 86.9035 45.2587 86.9203 45.3706 86.9259C45.5341 86.8879 45.6976 86.8453 45.8633 86.8106L45.4636 86.9315C47.0312 87.0301 48.5832 87.3974 50.0176 88.0367C49.0221 88.6716 48.0278 89.3076 47.0323 89.9425C46.0917 90.5438 45.122 91.1575 44.0269 91.3736C42.6933 91.6367 41.3115 91.2806 40.0473 90.7823C39.792 90.6816 39.4998 90.5237 39.483 90.2494C39.4707 90.0254 39.6554 89.8418 39.829 89.6973Z" fill="white"/>
</g>
<g opacity="0.7">
<path d="M28.0417 91.0332C28.624 90.2807 28.9868 89.3872 29.4492 88.5552C29.9117 87.7244 30.5186 86.917 31.3875 86.5284L31.8466 86.4825C32.5856 87.0178 32.6819 88.1006 32.4524 88.9852C32.224 89.8686 31.7503 90.6805 31.5857 91.5785C31.4816 92.1485 31.504 92.7397 31.3371 93.294C31.2711 93.5123 31.1692 93.7329 30.9855 93.8695C30.7123 94.0722 30.3349 94.0419 30.0024 93.9759C29.2656 93.8269 28.5557 93.5381 27.9264 93.1271C27.7382 93.0062 27.5501 92.8651 27.4494 92.6647C27.175 92.1171 27.6666 91.518 28.0417 91.0332Z" fill="white"/>
</g>
<g opacity="0.7">
<path d="M51.0376 91.2727C52.3533 90.6143 53.8986 90.4352 55.333 90.7621C56.3217 90.6266 57.3541 91.1216 58.0551 91.8572C58.8355 92.6735 59.2901 93.7406 59.7291 94.782C59.8355 95.0351 59.9441 95.3083 59.8825 95.5748C59.7895 95.9723 59.3416 96.1985 58.9329 96.194C58.5253 96.1873 58.1413 96.0115 57.7594 95.8693C55.9488 95.1963 53.9635 95.2669 52.0342 95.184C51.7643 95.1717 51.4821 95.1538 51.256 95.0082C51.0253 94.8593 50.8898 94.604 50.7789 94.352C50.5807 93.9052 50.4285 93.4383 50.3232 92.9602C50.2336 92.5537 50.1888 92.0958 50.4206 91.7486C50.5662 91.528 50.8025 91.3892 51.0376 91.2727Z" fill="white"/>
</g>
<g opacity="0.7">
<path d="M71.8001 91.6614C72.7082 92.1205 73.6141 92.5796 74.5211 93.0376C74.9869 93.2738 75.4684 93.5224 75.7841 93.9367C76.1682 94.4372 76.2511 95.1013 76.2959 95.7317C76.3306 96.212 76.3507 96.6935 76.372 97.1772C76.3866 97.521 76.3283 97.9678 75.9935 98.0462C75.8144 98.0876 75.6352 97.9969 75.4751 97.9062C74.7842 97.5143 74.1101 97.0933 73.4573 96.6398C72.7395 96.1448 72.0274 95.5906 71.5952 94.8336C71.1081 93.9826 71.0252 92.967 70.9535 91.9883L71.8001 91.6614Z" fill="white"/>
</g>
<g opacity="0.7">
<path d="M68.0096 93.0656C68.5213 92.7285 69.1932 92.5863 69.5336 92.079L69.9804 91.9962C70.4283 93.0521 70.7877 94.1472 71.0531 95.2636C71.183 95.8101 71.2894 96.3867 71.1438 96.9287C71.0352 97.3296 70.7272 97.7271 70.3118 97.745C69.8874 97.764 69.5605 97.3979 69.2592 97.1C68.6098 96.4584 67.7834 95.9959 66.8955 95.7776C66.77 95.7485 66.6323 95.7138 66.5562 95.6108C66.4498 95.4629 66.5203 95.2591 66.5954 95.0934C66.9358 94.3298 67.3109 93.5247 68.0096 93.0656Z" fill="white"/>
</g>
<path d="M85.6725 90.8271C84.5091 89.3827 83.3446 87.9393 82.1811 86.4959C82.0904 86.384 82.3021 86.0805 82.4073 86.2104C83.5719 87.6537 84.7353 89.0971 85.8998 90.5416C85.9905 90.6536 85.7789 90.957 85.6725 90.8271Z" fill="white"/>
<path d="M81.6942 86.6896C83.4399 88.9582 85.1856 91.2279 86.9301 93.4977C87.0343 93.632 86.8103 93.9288 86.6939 93.7776C84.9493 91.5079 83.2036 89.2382 81.4579 86.9695C81.3538 86.8341 81.5778 86.5384 81.6942 86.6896Z" fill="white"/>
<path d="M80.2169 86.6729C81.8249 88.5877 83.3903 90.5371 84.9154 92.5202C85.0016 92.6333 84.7899 92.9356 84.6903 92.8057C83.1663 90.8227 81.6009 88.8743 79.9929 86.9584C79.9011 86.8498 80.1105 86.5464 80.2169 86.6729Z" fill="white"/>
<path d="M81.5701 90.0321C81.9419 90.611 82.3148 91.191 82.6865 91.7699C82.7615 91.8898 82.5465 92.1876 82.4626 92.0566C82.0908 91.4766 81.7179 90.8988 81.3462 90.3188C81.27 90.2012 81.485 89.9022 81.5701 90.0321Z" fill="white"/>
<path d="M63.7395 91.2347C65.465 90.5606 67.0472 89.6447 68.4906 88.4869C68.6507 88.3604 68.5757 88.7086 68.4827 88.7836C67.0203 89.9582 65.4146 90.882 63.6689 91.5628C63.5133 91.6222 63.6264 91.2784 63.7395 91.2347Z" fill="white"/>
<path d="M64.4742 90.3613C64.3017 90.4778 64.3857 90.1329 64.4854 90.0646C65.6421 89.2819 66.7988 88.5003 67.9566 87.7176C68.129 87.6 69.1032 86.7244 69.27 87.3055C69.3036 87.4186 69.0786 87.7053 69.0315 87.5396C68.9655 87.3145 66.8256 88.7702 66.5871 88.9303C65.8828 89.4084 65.1796 89.8854 64.4742 90.3613Z" fill="white"/>
<path d="M63.8536 88.7421C63.6622 88.8485 63.7249 88.5047 63.8469 88.4375C65.4582 87.544 66.9621 86.4981 68.3584 85.2955C68.5431 85.1365 68.5499 85.4489 68.4323 85.5519C67.0136 86.7713 65.4896 87.834 63.8536 88.7421Z" fill="white"/>
<path d="M62.4461 87.7657C64.521 86.9606 66.4626 85.9058 68.2632 84.598C68.4603 84.4557 68.5196 84.7648 68.3707 84.8723C66.5477 86.1959 64.5815 87.2719 62.4808 88.086C62.2669 88.1689 62.2882 87.8284 62.4461 87.7657Z" fill="white"/>
<path d="M48.0167 80.4325C49.3817 80.5658 50.7455 80.6968 52.1105 80.83C52.2516 80.8446 52.1038 81.1805 51.9795 81.1682C50.6145 81.0361 49.2507 80.904 47.8857 80.7729C47.7446 80.7573 47.8924 80.4202 48.0167 80.4325Z" fill="white"/>
<path d="M47.391 81.6598C47.241 81.6665 47.3742 81.3239 47.5153 81.3183C48.5958 81.269 49.6686 81.3105 50.7424 81.4415C50.9025 81.4605 50.757 81.7998 50.6181 81.783C49.5443 81.6531 48.4704 81.6117 47.391 81.6598Z" fill="white"/>
<path d="M46.8782 81.9789C48.0629 82.2073 49.2453 82.2723 50.4479 82.167C50.6584 82.1491 50.5778 82.5007 50.4099 82.5141C49.1837 82.6205 47.9755 82.56 46.7662 82.3271C46.577 82.2913 46.7113 81.9475 46.8782 81.9789Z" fill="white"/>
<path d="M41.4859 89.4588C41.1903 89.1329 40.8958 88.8071 40.6002 88.4813C40.4837 88.3525 40.7066 88.0569 40.8376 88.2025C41.1332 88.5283 41.4277 88.8553 41.7222 89.1811C41.8409 89.3099 41.618 89.6055 41.4859 89.4588Z" fill="white"/>
<path d="M39.5121 88.1666C40.5076 89.1576 41.5031 90.1486 42.4996 91.1373C42.6239 91.2605 42.4022 91.5549 42.2611 91.4161C41.2657 90.4251 40.2702 89.4364 39.2748 88.4454C39.1494 88.3222 39.3711 88.0277 39.5121 88.1666Z" fill="white"/>
<path d="M38.7048 88.3917C38.7731 88.3917 38.7764 88.4645 38.7518 88.5428C38.7552 88.5462 38.7585 88.5428 38.7608 88.5473C39.2165 89.1677 39.6711 89.788 40.1257 90.4084C40.2299 90.5506 40.0026 90.8439 39.8884 90.6872C39.4326 90.0668 38.978 89.4465 38.5234 88.825C38.4887 88.778 38.4987 88.7164 38.5211 88.6582C38.5178 88.5585 38.6096 88.3917 38.7048 88.3917Z" fill="white"/>
<path d="M31.2183 87.9381C31.038 88.1016 31.0649 87.7881 31.1679 87.694C31.6225 87.2808 32.0782 86.8665 32.5328 86.4534C32.712 86.2899 32.6863 86.6034 32.5832 86.6963C32.1286 87.1107 31.6729 87.5238 31.2183 87.9381Z" fill="white"/>
<path d="M28.671 90.5931C28.5702 90.6535 28.6866 90.3277 28.7673 90.2784C29.7493 89.6961 30.7313 89.1128 31.7133 88.5305C32.3818 88.1341 33.0749 87.544 33.8867 87.7881C33.9595 87.8105 33.8128 88.1453 33.7065 88.1128C32.7984 87.8407 31.7402 88.7724 30.9967 89.2124C30.2218 89.6726 29.447 90.1329 28.671 90.5931Z" fill="white"/>
<path d="M27.8865 91.7611C29.4485 90.9952 31.0094 90.2293 32.5715 89.4633C32.7115 89.395 32.6017 89.7388 32.4976 89.7903C30.9355 90.5562 29.3746 91.321 27.8126 92.0869C27.6726 92.1564 27.7812 91.8126 27.8865 91.7611Z" fill="white"/>
<path d="M30.6069 91.4933C31.103 91.3254 31.5979 91.1563 32.094 90.9883C32.253 90.9335 32.1377 91.2783 32.0223 91.3164C31.5263 91.4844 31.0313 91.6535 30.5353 91.8203C30.3763 91.8752 30.4927 91.5314 30.6069 91.4933Z" fill="white"/>
<path d="M58.535 93.9344C57.31 93.0531 56.029 92.2648 54.6898 91.5706C54.5823 91.5146 54.7581 91.1865 54.8701 91.2459C56.2104 91.9401 57.4903 92.7262 58.7153 93.6096C58.8205 93.6835 58.6302 94.0016 58.535 93.9344Z" fill="white"/>
<path d="M54.3911 91.8382C56.345 93.0901 58.2385 94.4293 60.0704 95.8548C60.1567 95.9219 59.9585 96.2333 59.8902 96.1806C58.0583 94.7552 56.1648 93.4171 54.2108 92.1641C54.1246 92.1092 54.3127 91.7878 54.3911 91.8382Z" fill="white"/>
<path d="M54.1251 92.6154C55.7823 94.1203 57.5179 95.529 59.3319 96.8413C59.4204 96.9051 59.2255 97.222 59.1516 97.166C57.3376 95.8548 55.602 94.445 53.9448 92.9412C53.8597 92.864 54.0646 92.5605 54.1251 92.6154Z" fill="white"/>
<path d="M55.0171 94.6286C55.5445 95.1292 56.1133 95.5771 56.7258 95.9701C56.8815 96.0697 56.6989 96.3945 56.5455 96.2959C56.4784 96.2523 56.4179 96.2019 56.3529 96.1582C56.3171 96.2332 56.2589 96.3038 56.2007 96.3038C56.1044 96.3038 56.1379 96.1549 56.2085 96.0552C55.7057 95.707 55.2242 95.3296 54.7797 94.9074C54.6532 94.7876 54.8738 94.492 55.0171 94.6286Z" fill="white"/>
<path d="M71.8274 91.9156C71.926 92.0108 72.0301 92.0981 72.1298 92.191C72.1387 92.1944 72.1477 92.1866 72.1555 92.1933C73.3727 93.0857 74.6794 93.8102 76.0813 94.3701C76.2448 94.435 76.069 94.7631 75.9011 94.6948C75.3837 94.4876 74.8843 94.2514 74.3928 94.0006C74.7018 94.2122 75.0187 94.4138 75.3412 94.6075C75.4509 94.6735 75.2684 94.9982 75.1609 94.9322C74.666 94.6354 74.1901 94.3119 73.7265 93.9748C73.9437 94.1932 74.1621 94.4126 74.3804 94.6299C74.5103 94.7598 74.283 95.052 74.1386 94.9065C73.7657 94.5336 73.3939 94.1618 73.0222 93.7901C72.9382 93.7061 73.0076 93.5627 73.1028 93.5056C72.6 93.1081 72.1118 92.6893 71.6471 92.2414C71.5486 92.1463 71.7479 91.8394 71.8274 91.9156Z" fill="white"/>
<path d="M73.7494 94.996C73.8322 95.0788 73.914 95.1606 73.9968 95.2446C74.0842 95.3319 73.8871 95.6421 73.7774 95.5335C73.6945 95.4506 73.6116 95.3689 73.5288 95.2849C73.4426 95.1987 73.6385 94.8863 73.7494 94.996Z" fill="white"/>
<path d="M53.9718 81.1963C54.104 81.1963 53.9651 81.5333 53.8408 81.5333C53.7076 81.5322 53.8475 81.1963 53.9718 81.1963Z" fill="white"/>
<path d="M74.7324 79.9867C74.8556 79.9016 75.0146 79.8848 75.1646 79.8759C75.7346 79.8456 76.3079 79.8882 76.8678 80.0035L77.8834 80.3652C78.1387 81.5756 78.3918 82.7861 78.6459 83.9954C78.7142 84.3168 78.7792 84.6583 78.6616 84.964C78.544 85.2697 78.1633 85.4981 77.8789 85.3324C77.7737 85.273 77.6997 85.17 77.6292 85.0726C76.7077 83.7871 75.785 82.5017 74.8623 81.2162C74.5936 80.8411 74.3539 80.251 74.7324 79.9867Z" fill="white"/>
<path d="M85.3659 85.4007C85.7074 85.5653 85.9325 85.8957 86.1419 86.2103L86.1139 86.8374C86.405 88.2628 86.6962 89.6883 86.9873 91.1126C86.0803 89.6278 85.2551 88.0937 84.516 86.5171C84.3895 86.2484 84.2641 85.9371 84.3839 85.6639C84.5351 85.3179 85.0255 85.2361 85.3659 85.4007Z" fill="white"/>
<path d="M62.3679 85.4568C62.7979 85.4411 63.2133 85.6113 63.585 85.8263L62.5112 86.2563C62.921 85.9864 63.5011 86.1264 63.8661 86.4567C64.2311 86.7859 64.426 87.2596 64.5939 87.722C64.9153 88.6122 65.1717 89.5248 65.361 90.452C65.4338 90.8058 65.492 91.191 65.3285 91.5124C65.0497 91.5885 64.7966 91.3399 64.6141 91.1148C63.7161 90.0119 62.8191 88.9067 61.9211 87.8038C61.5247 87.3144 61.1037 86.6907 61.3366 86.1062C61.4967 85.7065 61.939 85.4713 62.3679 85.4568Z" fill="white"/>
<path d="M46.0286 88.2505L46.3231 87.2528C47.1282 87.5193 47.9333 87.7858 48.7373 88.0523C48.3689 88.339 48.08 88.7174 47.7161 89.0097C47.3522 89.3019 46.8628 89.5069 46.4194 89.3602C45.9749 89.2157 45.7084 88.5909 46.0286 88.2505Z" fill="white"/>
<path d="M55.3127 81.8444C55.3496 81.9743 55.3373 82.1131 55.3216 82.2497C55.2489 82.8891 55.1167 83.524 54.9253 84.1399C54.1202 83.5621 53.5278 82.6965 53.2815 81.7369L53.922 81.3987C54.4505 81.3091 55.166 81.3293 55.3127 81.8444Z" fill="white"/>
<g opacity="0.6">
<path d="M63.0913 78.1067C63.0913 78.1067 67.3586 77.4594 69.2745 76.9735C69.4828 76.9208 69.7 76.8693 69.9072 76.9242C70.1143 76.9791 70.2991 77.1806 70.2565 77.39C70.205 77.6353 69.9094 77.7271 69.6642 77.773C68.0753 78.0708 66.4852 78.3676 64.8963 78.6654C65.6465 79.3474 66.3957 80.0304 67.1459 80.7123C66.4472 80.9878 65.7361 80.3786 65.2278 79.8266C64.7183 79.2746 63.9972 78.6721 63.304 78.9621C62.9166 79.1245 62.6893 79.5198 62.4889 79.8893C61.8696 81.037 61.1362 81.691 60.5159 82.8387C61.2381 80.3282 62.3579 78.4168 63.0913 78.1067Z" fill="white"/>
</g>
<g opacity="0.84">
<path d="M71.2713 89.5719C71.9599 89.6245 72.6318 89.8888 73.3215 89.8496C74.392 89.7891 75.2755 89.0299 76.0784 88.3189C77.3616 87.1835 78.6706 86.0761 80.002 84.9977C79.5977 85.7771 79.077 86.4982 78.4645 87.1264C77.9618 87.6426 77.3885 88.1106 77.0458 88.7433C76.8723 89.0635 76.7748 89.4073 76.72 89.76L76.655 88.937C76.5878 90.2684 76.5195 91.5998 76.4512 92.93C74.8455 92.1831 73.2398 91.4374 71.6341 90.6905C71.3485 90.5561 71.0529 90.4218 70.7383 90.4039C69.6644 90.3457 68.9265 91.6233 67.8561 91.7207C68.3801 90.3792 69.8347 89.4633 71.2713 89.5719Z" fill="#0452A0"/>
</g>
<g opacity="0.84">
<path d="M76.7193 89.761L76.9287 92.4507C76.7507 91.5694 76.5872 90.63 76.7193 89.761Z" fill="#0452A0"/>
</g>
<g opacity="0.84">
<path d="M67.8328 82.3797C67.7891 82.5544 67.7577 82.7313 67.7297 82.9071C67.536 83.8869 67.2807 84.8577 67.1004 85.8397C66.8295 87.3223 66.7522 88.8339 66.6761 90.34C66.6402 91.0566 66.6033 91.7722 66.5674 92.4888C66.4812 90.6446 66.395 88.7992 66.3088 86.955C66.2405 85.506 66.1778 84.0235 66.5999 82.635C67.0221 81.2476 68.0321 79.9487 69.4385 79.5893C68.695 80.2981 68.1676 81.214 67.8865 82.2005L67.9794 81.1144C67.957 81.5399 67.9022 81.9609 67.8328 82.3797Z" fill="#0452A0"/>
</g>
<g opacity="0.84">
<path d="M67.833 82.3798C67.8487 82.3193 67.8688 82.261 67.8867 82.1995L67.693 84.4614C67.6303 83.9452 67.6493 83.4211 67.73 82.9072C67.7647 82.7325 67.8027 82.5567 67.833 82.3798Z" fill="#0452A0"/>
</g>
<g opacity="0.84">
<path d="M55.2816 88.3692C56.1202 87.6862 56.5838 86.6593 57.1191 85.7176C57.8626 84.4109 58.7953 83.2105 59.8759 82.1669L60.2364 82.1871C59.316 83.5498 58.596 85.0469 58.1056 86.6157C58.0059 86.9348 57.9152 87.2595 57.895 87.5932C57.8178 88.8205 58.6688 89.882 59.3653 90.8965C60.5421 92.6153 61.3696 94.5648 61.8142 96.6005C61.99 96.4213 62.1781 96.2534 62.3729 96.0966C63.3728 95.2881 64.4478 94.5715 65.5787 93.9601C65.5608 94.0363 65.5183 94.1023 65.4668 94.1617L66.2898 93.7183C65.4276 94.4853 64.5654 95.25 63.702 96.0171C63.5789 96.1279 63.4501 96.2444 63.3964 96.4012C63.2911 96.7091 63.5072 97.0282 63.7166 97.2768C64.8196 98.5914 66.067 99.7839 67.4297 100.825C65.254 100.32 63.0761 99.8141 60.9004 99.3058C60.9508 98.5332 61.0135 97.7225 61.429 97.0685C61.5297 96.9084 61.6574 96.7684 61.7884 96.6318C61.1815 95.0754 60.541 93.5077 59.4851 92.2178C58.3732 90.8607 56.7036 89.8372 54.9523 89.9492C54.2816 89.9917 53.5941 90.1944 52.9536 89.9895C52.3142 89.7857 51.8518 88.8966 52.3433 88.4386C53.0667 89.2415 54.4429 89.0534 55.2816 88.3692Z" fill="#0452A0"/>
</g>
<g opacity="0.84">
<path d="M44.9271 85.2497L44.7009 85.3236C46.6504 85.6998 48.5618 86.2754 50.3926 87.0424C48.9492 86.7188 47.5059 86.3941 46.0625 86.0694C45.1376 85.8622 44.0335 85.7009 43.3594 86.3661C43.3706 85.6203 44.2172 85.0168 44.9271 85.2497Z" fill="#0452A0"/>
</g>
<g opacity="0.84">
<path d="M33.8595 96.1694C34.1943 95.3834 34.2111 94.5033 34.2234 93.6489C34.238 92.6478 34.2514 91.649 34.2167 90.6491C34.2066 90.3714 34.1943 90.0859 34.2839 89.8227C34.5224 89.1162 35.3588 88.8429 36.0833 88.6671C36.2513 88.6257 36.4282 88.5843 36.5939 88.6358C36.735 88.6783 36.8492 88.8127 36.8481 88.9527C36.8548 88.9527 36.8626 88.9538 36.8694 88.9538C36.8638 88.9672 36.8526 88.9751 36.8459 88.9863C36.8436 89.0008 36.8481 89.0131 36.8436 89.0255L36.8223 89.0199C36.4416 89.6424 35.4092 89.6671 35.0498 90.3199C34.8561 90.6726 34.9199 91.1026 34.9983 91.4967C35.4215 93.6254 36.099 95.7059 37.0127 97.6755C36.0273 97.3732 35.0408 97.0719 34.0543 96.7707C33.9703 96.7461 33.8808 96.7159 33.8259 96.6476C33.7184 96.5143 33.7923 96.324 33.8595 96.1694Z" fill="#0452A0"/>
</g>
<g opacity="0.84">
<path d="M46.0053 92.6769C46.0244 92.463 46.0445 92.2413 46.1476 92.0532C46.3424 91.6982 46.7657 91.5527 47.1497 91.4295C48.7095 90.9334 50.2391 90.3444 51.7295 89.667L51.136 89.9615C49.873 90.5438 48.6166 91.1384 47.3658 91.7453C47.0881 91.8796 46.7858 92.042 46.6817 92.332C46.5943 92.5705 46.6671 92.8348 46.741 93.0789C47.367 95.1414 48.1037 97.1704 48.9492 99.1546C48.0545 98.9071 47.1587 98.6608 46.264 98.4145C46.1016 98.3697 45.9348 98.3204 45.8105 98.2084C45.5675 97.9867 45.5776 97.6094 45.6056 97.2813C45.7377 95.7472 45.8721 94.2121 46.0053 92.6769Z" fill="#0452A0"/>
</g>
<g opacity="0.84">
<path d="M79.2948 95.1403C80.9934 95.6038 82.7346 95.9107 84.4893 96.054C83.9182 96.5803 83.346 97.1065 82.7749 97.6328C82.5622 97.8288 82.3461 98.027 82.0829 98.1468C81.5869 98.3718 81.0124 98.2789 80.4671 98.2711C79.8345 98.261 79.1984 98.3718 78.6061 98.5958C78.9935 97.5186 79.269 96.4022 79.4246 95.269L79.2948 95.1403Z" fill="#0452A0"/>
</g>
<path d="M18.3671 93.9734C19.0535 95.6923 22.1642 97.5354 33.7413 99.0638C42.9926 100.284 55.2785 100.957 68.337 100.957C81.3943 100.957 93.6813 100.283 102.933 99.0638C114.509 97.5354 117.62 95.6923 118.306 93.9734L102.394 180.726C102.418 180.749 102.447 180.773 102.467 180.796C100.572 182.898 87.9695 185.729 68.3381 185.729C48.7067 185.729 36.1028 182.898 34.2093 180.796C34.2295 180.773 34.2586 180.749 34.281 180.726L18.3671 93.9734Z" fill="#A5A2A0"/>
<path d="M33.742 99.0637C42.9933 100.284 55.2792 100.957 68.3377 100.957C81.395 100.957 93.682 100.283 102.933 99.0637C116.63 97.2553 118.477 95.0057 118.477 93.045V96.3965C118.477 98.3571 116.63 100.607 102.933 102.414C93.682 103.636 81.3961 104.307 68.3377 104.307C55.2792 104.307 42.9933 103.634 33.742 102.414C20.0452 100.607 18.1976 98.3571 18.1976 96.3965V93.045C18.1976 95.0057 20.0452 97.2553 33.742 99.0637Z" fill="#D1D3CB"/>
<path d="M21.3631 93.045C23.971 95.149 41.317 97.9787 68.3377 97.9787C95.3571 97.9787 112.704 95.149 115.312 93.045H118.477C118.477 95.0068 116.629 97.2553 102.933 99.0637C93.682 100.284 81.3961 100.957 68.3377 100.957C55.2792 100.957 42.9933 100.283 33.742 99.0637C20.0452 97.2553 18.1976 95.0057 18.1976 93.045H21.3631Z" fill="#EBEFDC"/>
<g opacity="0.2">
<path d="M124.519 109.655C124.903 109.523 125.329 109.515 125.717 109.633C124.251 112.086 124.31 115.373 125.865 117.771C126.379 118.565 127.039 119.262 127.515 120.077C127.992 120.894 128.275 121.9 127.951 122.788C127.819 123.151 127.569 123.492 127.208 123.628C126.885 123.747 126.524 123.69 126.189 123.605C123.241 122.86 120.733 120.124 120.658 117.083C120.516 111.29 124.519 109.655 124.519 109.655Z" fill="#323232"/>
</g>
<path d="M90.6479 97.9193C97.4548 97.6887 104.24 96.85 110.9 95.4179C112.308 95.1155 113.774 94.7863 115.175 95.1278L114.997 95.7896C104.517 99.2799 93.267 99.4747 82.2218 99.637C84.6606 98.0582 87.7455 98.019 90.6479 97.9193Z" fill="white"/>
<g opacity="0.2">
<path d="M114.281 117.795C114.328 117.079 114.441 116.368 114.619 115.672C114.686 115.412 114.775 115.135 114.99 114.973C115.223 114.8 115.541 114.806 115.832 114.821C117.268 114.895 118.705 114.97 120.142 115.043C119.706 115.946 119.584 116.998 119.836 117.968C119.937 118.36 120.077 118.83 119.801 119.124C119.661 119.274 119.451 119.33 119.249 119.374C118.116 119.622 116.951 119.722 115.795 119.67C115.427 119.654 115.038 119.613 114.747 119.387C114.29 119.036 114.244 118.372 114.281 117.795Z" fill="#323232"/>
</g>
<path d="M126.975 108.957C127.046 108.763 127.214 108.563 127.419 108.556C128.669 108.51 129.611 108.49 130.654 108.885C130.654 108.885 132.607 109.617 133.706 111.037C134.807 112.458 135.135 114.441 134.55 116.139C134.497 116.297 134.428 116.46 134.292 116.554C134.017 116.741 133.619 116.53 133.479 116.228C133.339 115.926 133.371 115.578 133.375 115.246C133.398 112.535 130.962 110.144 128.262 109.894C127.954 109.866 127.633 109.858 127.357 109.716C127.081 109.573 126.869 109.247 126.975 108.957Z" fill="#D1D3CB"/>
<g opacity="0.5">
<path d="M33.7421 102.414C42.9935 103.636 55.2793 104.308 68.3378 104.308C81.3952 104.308 93.6822 103.635 102.934 102.414C112.071 101.208 115.93 99.805 117.49 98.4232L117.374 99.0604C110.542 102.779 102.72 104.291 95.0035 105.374C70.2448 108.845 44.9586 108.527 20.2917 104.451L19.1854 98.4221C20.7452 99.805 24.605 101.208 33.7421 102.414Z" fill="#323232"/>
</g>
<g opacity="0.15">
<path d="M71.5077 109.853C71.8817 109.181 72.4113 108.582 73.0888 108.221C74.0831 107.693 75.2701 107.728 76.3954 107.772C88.9769 108.268 101.983 108.313 113.623 103.525C114.452 104.798 113.722 106.727 113.118 108.26C112.322 110.27 101.526 173.474 99.8765 177.202C99.5126 178.022 98.7131 179.52 97.8285 179.683C96.4635 179.938 93.8556 179.978 92.8646 178.753C91.8725 177.528 91.6016 174.876 91.3575 173.319C89.4013 160.848 89.614 147.707 84.1687 136.319C81.4466 130.627 77.4368 125.674 73.8693 120.471C72.7865 118.892 71.7294 117.26 71.164 115.429C70.5996 113.602 70.5772 111.527 71.5077 109.853Z" fill="#FCF5C5"/>
</g>
<g opacity="0.2">
<path d="M93.7815 122.418C94.0525 119.131 95.6795 115.977 98.2012 113.851C100.372 112.022 103.086 110.985 105.74 109.983C106.8 109.583 107.946 109.177 109.039 109.472C109.05 109.475 109.062 109.479 109.073 109.482C110.317 109.829 111.157 111.013 111.123 112.305C111.044 115.401 110.439 118.479 109.838 121.527C107.352 134.115 104.865 146.705 102.378 159.293C102.005 161.177 101.511 163.253 99.9233 164.332C99.6669 164.506 99.3612 164.653 99.0555 164.602C98.4363 164.496 98.2314 163.725 98.1586 163.1C96.7813 151.187 95.404 139.274 94.0268 127.36C93.8353 125.718 93.646 124.066 93.7815 122.418Z" fill="white"/>
</g>
<g opacity="0.2">
<path d="M36.2032 105.33C45.1657 106.1 54.1606 106.487 63.1555 106.501C63.375 107.119 63.2339 107.962 62.6986 108.404C61.8084 109.137 50.8416 125.344 46.9841 135.622C45.0481 140.781 43.86 162.805 48.6682 173.305C52.7687 182.258 68.8472 183.882 71.585 184.73C69.8415 185.038 61.0605 184.768 59.3999 184.636C53.7216 184.184 48.0636 183.46 42.4536 182.471C40.0428 182.047 37.6745 181.33 35.6411 179.97C34.4721 179.188 33.7308 173.479 32.9817 169.32C30.5003 155.544 27.9473 140.267 25.0908 126.402C23.3228 117.824 22.5456 110.162 20.2681 101.992C25.2162 104.018 30.0591 104.802 36.2032 105.33Z" fill="#323232"/>
</g>
<g opacity="0.2">
<path d="M47.8518 107.662L48.4744 107.719C45.7612 108.928 44.6572 112.136 43.9607 115.023C39.6071 133.078 38.9408 151.697 42.2295 167.955C42.7245 170.406 45.2697 176.891 46.9851 178.567C49.1675 180.699 52.3453 182.024 55.1357 183.254C48.8932 183.797 38.9128 181.323 36.1471 179.25C35.4024 178.691 33.8863 166.967 33.1685 163.551C29.1968 144.647 25.9697 123.305 22.0047 103.809C30.0478 104.746 39.8075 106.725 47.8518 107.662Z" fill="#323232"/>
</g>
<g opacity="0.4">
<path d="M22.7718 103.43L22.9252 103.253C24.2801 105.537 24.8321 108.193 25.3562 110.797C29.2809 130.314 32.7319 149.925 35.7071 169.609C36.1763 172.715 36.6958 175.974 38.6173 178.458C41.1961 181.795 45.6404 182.943 49.751 183.886C46.4612 183.243 43.1725 182.598 39.8838 181.953C38.9835 181.777 38.0631 181.594 37.2792 181.119C35.276 179.908 34.7755 177.277 34.4564 174.959C32.0623 157.498 29.0592 140.118 25.2912 122.9C23.8882 116.485 22.3687 109.986 22.7718 103.43Z" fill="#323232"/>
</g>
<g opacity="0.5">
<path d="M18.7099 116.739C18.7166 118.099 17.691 119.397 16.3652 119.704C17.3517 117.916 17.3584 115.644 16.4335 113.829C17.7133 114.164 18.7032 115.412 18.7099 116.739Z" fill="#323232"/>
</g>
<g opacity="0.2">
<path d="M16.5949 113.398C16.7785 113.155 17.1279 113.135 17.4313 113.14C18.7549 113.166 20.0762 113.303 21.3773 113.543L21.7233 114.11C22.3918 115.295 22.7344 116.662 22.7042 118.023C22.6964 118.362 22.6583 118.721 22.4478 118.986C22.1768 119.331 21.7009 119.422 21.2665 119.464C20.4546 119.543 19.6339 119.535 18.8232 119.441C18.4828 119.401 18.1267 119.338 17.8635 119.12C17.531 118.844 17.4213 118.388 17.3317 117.965C17.0663 116.713 16.8009 115.46 16.5355 114.208C16.4773 113.934 16.4269 113.622 16.5949 113.398Z" fill="#323232"/>
</g>
<g opacity="0.5">
<path d="M4.76187 117.22C5.90849 116.236 8.05617 116.153 8.77728 116.329C8.90382 116.712 8.728 117.141 8.47382 117.459C8.21068 117.788 7.86916 118.05 7.62953 118.396C6.80316 119.586 7.43359 121.192 7.46942 122.639C7.47726 122.96 7.44926 123.301 7.26899 123.567C6.97225 124.006 6.33512 124.108 5.83795 123.921C5.3419 123.735 4.96342 123.328 4.64429 122.904C4.03962 122.103 3.56709 121.172 3.46855 120.173C3.37001 119.174 3.99933 117.873 4.76187 117.22Z" fill="#323232"/>
</g>
<path d="M6.48719 109.821C6.77497 109.019 7.69875 108.504 8.53184 108.682C8.53184 108.682 10.8889 109.051 12.0087 109.779C13.1273 110.507 14.1395 112.093 14.0869 113.428C14.0723 113.809 13.7465 114.345 13.4195 114.541C12.8429 114.888 12.171 114.325 11.6671 113.878C10.806 113.114 9.7434 112.581 8.61582 112.345C8.18359 112.254 7.73346 112.204 7.34043 112C6.58572 111.608 6.19942 110.623 6.48719 109.821Z" fill="#D1D3CB"/>
<g opacity="0.2">
<path d="M4.99023 109.816C4.90513 109.85 4.82562 109.897 4.74052 109.935C4.76292 109.884 4.77412 109.829 4.79651 109.778L4.99023 109.816Z" fill="#323232"/>
</g>
<g opacity="0.2">
<path d="M0.853667 115.398C1.38107 113.105 3.12339 111.195 5.26435 110.219C4.39206 112.289 5.0124 114.903 6.75137 116.331C8.53289 117.796 11.3132 117.878 13.1787 116.522C13.7128 116.133 14.509 115.658 14.9244 116.171C15.0386 116.312 15.08 116.497 15.1103 116.675C15.5212 119.141 14.0689 121.795 11.7723 122.779C10.4152 123.361 8.88448 123.388 7.41649 123.239C5.93283 123.09 4.42229 122.751 3.20065 121.895C1.19966 120.491 0.30611 117.778 0.853667 115.398Z" fill="#323232"/>
</g>
<path d="M86.1002 185.591C89.7696 185.188 93.4121 184.541 96.9964 183.657C98.9672 183.171 100.977 182.586 102.573 181.33C103.128 180.894 104.009 180.407 104.418 180.981C104.725 181.414 104.37 181.996 104.027 182.402L103.494 182.469C96.8408 184.906 89.8659 186.465 82.8081 187.094C83.3825 185.973 84.8472 185.729 86.1002 185.591Z" fill="white"/>
<g opacity="0.2">
<path d="M26.9565 187.626C27.9071 186.271 28.8578 184.915 29.8096 183.561L30.6483 183.254C38.1662 186.199 46.0414 188.227 54.0454 189.282C52.5169 189.823 50.9896 190.365 49.4611 190.906C51.0377 191.381 52.5359 192.111 53.8819 193.061C52.6524 193.381 51.4229 193.7 50.1934 194.021C49.9594 194.081 49.7019 194.159 49.5765 194.366C49.2932 194.832 49.9113 195.322 50.4241 195.51C53.6848 196.709 57.1504 197.35 60.625 197.393C60.2241 198.13 59.2343 198.254 58.3956 198.272C47.8688 198.512 37.2939 196.187 27.8377 191.553C27.1524 191.217 26.4111 190.799 26.1794 190.071C25.9106 189.225 26.447 188.353 26.9565 187.626Z" fill="#323232"/>
</g>
<g opacity="0.2">
<path d="M26.9923 188.341C27.0919 187.898 27.3629 187.517 27.6305 187.15C28.1893 186.379 28.748 185.607 29.3079 184.837C29.5654 184.481 29.8532 184.104 30.2743 183.98C31.347 183.665 32.1767 185.152 33.2931 185.195L31.3436 184.928C34.4856 186.05 37.6276 187.172 40.7696 188.293C41.2623 188.469 41.774 188.657 42.1368 189.033C42.5478 189.46 42.7057 190.06 42.9028 190.619C43.6317 192.69 45.1019 194.494 46.9854 195.625C46.103 196.669 44.4446 196.327 43.1491 195.895C38.7966 194.445 34.4453 192.994 30.0929 191.545C29.3157 191.286 28.5196 191.016 27.8881 190.494C27.2554 189.975 26.8142 189.14 26.9923 188.341Z" fill="#323232"/>
</g>
<g opacity="0.2">
<path d="M86.9306 191.077C86.2644 190.808 85.223 190.61 85.3663 189.906C85.457 189.464 85.999 189.314 86.4446 189.245C93.1788 188.202 99.7517 186.117 105.855 183.087L105.715 182.196C106.843 184.011 107.94 185.845 109.008 187.696C109.351 188.293 109.704 188.964 109.556 189.636C109.387 190.409 108.626 190.888 107.908 191.225C106.144 192.052 104.249 192.558 102.365 193.06C99.5323 193.815 96.6982 194.568 93.8641 195.322C91.6996 195.897 89.5172 196.476 87.2811 196.605C86.906 196.627 86.476 196.614 86.2319 196.327C85.9229 195.968 86.1132 195.389 86.448 195.053C86.7828 194.717 87.233 194.515 87.5678 194.178C88.4479 193.293 88.0884 191.543 86.9306 191.077Z" fill="white"/>
</g>
<path d="M33.2339 119.323C42.5893 120.561 55.0208 121.35 68.2248 121.372C81.4289 121.396 93.8726 120.573 103.228 119.368C108.829 118.646 112.289 117.706 114.908 116.92L114.138 120.767C111.782 121.511 108.31 122.233 103.209 122.89C93.8536 124.094 81.4289 124.747 68.2248 124.725C55.0208 124.702 42.5961 124.008 33.2406 122.772C28.4212 122.135 25.0552 121.445 22.7116 120.736L22.005 116.921C24.3632 117.704 27.9408 118.623 33.2339 119.323Z" fill="#D1D3CB"/>
<g opacity="0.2">
<path d="M105.38 184.186L104.618 184.213C104.872 184.161 105.127 184.158 105.38 184.186Z" fill="white"/>
</g>
<g opacity="0.2">
<path d="M106.042 184.162C105.951 184.195 105.862 184.231 105.771 184.262C105.642 184.228 105.511 184.201 105.378 184.187L106.042 184.162Z" fill="white"/>
</g>
<g opacity="0.2">
<path d="M93.5344 189.188C97.5443 187.378 101.628 185.736 105.772 184.262C106.295 184.401 106.787 184.684 107.179 185.061C107.853 185.709 108.261 186.589 108.518 187.488C108.757 188.331 108.853 189.31 108.341 190.022C107.965 190.544 107.338 190.814 106.731 191.032C103.317 192.264 99.5856 192.606 96.0035 192.02C94.9924 191.855 93.9756 191.609 93.0899 191.094C92.8357 190.946 92.5759 190.752 92.4987 190.468C92.3397 189.888 92.988 189.436 93.5344 189.188Z" fill="white"/>
</g>
<g opacity="0.2">
<path d="M70.2804 107.609C71.0877 107.115 72.0854 107.088 73.0316 107.076C79.0726 106.998 85.1136 106.92 91.1558 106.843C91.4469 106.838 91.7638 106.843 91.9945 107.021C92.2666 107.231 92.3293 107.61 92.3618 107.951C92.4984 109.374 90.0338 152.363 87.0374 174.667C86.8235 176.258 86.5839 177.905 85.7228 179.26C83.6714 182.491 79.0905 182.787 75.3069 182.224C74.335 182.08 73.3194 181.88 72.568 181.247C71.3139 180.19 71.2109 178.327 71.203 176.689C71.0877 155.399 70.2602 134.116 68.7217 112.886C68.5806 110.956 68.6299 108.619 70.2804 107.609Z" fill="white"/>
</g>
<path d="M22.4907 116.446C24.822 117.225 28.3213 117.981 33.5561 118.672C42.8074 119.893 55.0944 120.565 68.1518 120.565C81.2091 120.565 93.495 119.892 102.747 118.672C108.286 117.942 111.886 117.137 114.21 116.31L114.91 116.92C112.579 117.699 108.221 118.71 102.993 119.401C93.7413 120.622 81.4555 121.293 68.397 121.293C55.3396 121.293 43.0527 120.621 33.8024 119.401C28.5676 118.709 25.0684 117.954 22.7371 117.176C22.7371 117.176 22.0439 116.933 22.007 116.922L22.4907 116.446Z" fill="#EBEFDC"/>
<path d="M110.531 119.011L110.736 119.302C109.726 120.496 108.036 120.803 106.485 121.01C99.858 121.897 93.1821 122.36 86.5117 122.823C85.9541 122.861 85.2352 122.796 85.074 122.262C93.5952 121.487 102.09 120.403 110.531 119.011Z" fill="white"/>
<path d="M128.054 142.805H128.445C129.982 142.805 131.229 141.56 131.229 140.024V119.062C131.229 117.525 129.982 116.279 128.445 116.279H128.054C126.517 116.279 125.27 117.525 125.27 119.062V140.024C125.27 141.56 126.517 142.805 128.054 142.805Z" fill="#D1D3CB"/>
<path d="M129.193 121.533C129.196 120.688 129.387 119.624 130.155 119.378C130.267 119.504 130.356 119.675 130.391 119.831C130.67 121.088 130.67 122.388 130.668 123.677C130.661 127.969 130.654 132.26 130.647 136.552C130.646 137.293 130.555 138.191 129.886 138.516C129.181 137.961 129.125 136.93 129.129 136.033C129.15 131.201 129.172 126.368 129.193 121.533Z" fill="white"/>
<g opacity="0.2">
<path d="M125.906 120.262C125.99 119.228 126.167 118.099 126.947 117.416C127.727 116.735 129.274 116.965 129.428 117.99L129.347 118.635C128.759 118.608 128.234 119.059 127.99 119.594C127.747 120.131 127.726 120.736 127.711 121.325C127.577 126.84 127.645 132.359 127.917 137.87C127.968 138.912 128.295 140.254 129.335 140.351C128.997 141.071 127.862 141.027 127.309 140.456C126.756 139.885 126.632 139.036 126.542 138.246C126.054 133.93 125.794 129.59 125.761 125.248C125.75 123.585 125.772 121.92 125.906 120.262Z" fill="#323232"/>
</g>
<path d="M8.62061 142.805H8.22982C6.69241 142.805 5.44612 141.56 5.44612 140.024V119.062C5.44612 117.525 6.69241 116.279 8.22982 116.279H8.62061C10.1569 116.279 11.4043 117.525 11.4043 119.062V140.024C11.4032 141.56 10.1569 142.805 8.62061 142.805Z" fill="#A5A2A0"/>
<path d="M10.4844 119.699L10.4804 119.698L10.4794 119.693L10.4844 119.699Z" fill="white"/>
<g opacity="0.5">
<path d="M9.88163 119.785C10.0328 119.634 10.6755 119.609 10.8592 119.693C10.9521 125.076 11.1525 130.626 10.998 136.153C10.9846 136.634 11.222 137.303 10.7886 137.509C10.2657 137.284 10.1604 136.601 10.1302 136.032C9.86371 130.957 9.69574 125.874 9.62407 120.79C9.6196 120.433 9.63193 120.037 9.88163 119.785Z" fill="white"/>
</g>
<g opacity="0.2">
<path d="M6.01299 121.134C6.07234 120.29 6.14624 119.427 6.49 118.653C6.72514 118.125 7.11146 117.648 7.59743 117.351C8.22784 117.506 8.8146 117.845 9.24458 118.335C8.21889 118.539 7.97478 119.873 7.95686 120.92C7.86392 126.487 7.77099 132.054 7.67805 137.621C7.66238 138.564 7.7374 139.681 8.54138 140.173C8.75189 140.302 9.0016 140.376 9.1718 140.554C9.64657 141.048 9.07102 141.961 8.38574 141.974C7.70045 141.986 7.13722 141.42 6.81473 140.817C6.28509 139.828 6.16974 138.678 6.08128 137.558C5.6513 132.095 5.62892 126.599 6.01299 121.134Z" fill="#323232"/>
</g>
</svg>
